<svg width="47.000000" height="43.000000" viewBox="0 0 47 43" fill="none" xmlns="http://www.w3.org/2000/svg" xmlns:xlink="http://www.w3.org/1999/xlink">
	<desc>
			Created with Pixso.
	</desc>
	<defs>
		<filter id="filter_76_894_dd" x="-0.151367" y="2.849915" width="50.302979" height="43.299988" filterUnits="userSpaceOnUse" color-interpolation-filters="sRGB">
			<feFlood flood-opacity="0" result="BackgroundImageFix"/>
			<feColorMatrix in="SourceAlpha" type="matrix" values="0 0 0 0 0 0 0 0 0 0 0 0 0 0 0 0 0 0 127 0" result="hardAlpha"/>
			<feOffset dx="3" dy="0"/>
			<feGaussianBlur stdDeviation="1.33333"/>
			<feComposite in2="hardAlpha" operator="out" k2="-1" k3="1"/>
			<feColorMatrix type="matrix" values="0 0 0 0 0 0 0 0 0 0 0 0 0 0 0 0 0 0 0.2 0"/>
			<feBlend mode="normal" in2="BackgroundImageFix" result="effect_dropShadow_1"/>
			<feBlend mode="normal" in="SourceGraphic" in2="effect_dropShadow_1" result="shape"/>
		</filter>
		<filter id="filter_76_896_dd" x="2.000000" y="2.999939" width="46.000000" height="15.000061" filterUnits="userSpaceOnUse" color-interpolation-filters="sRGB">
			<feFlood flood-opacity="0" result="BackgroundImageFix"/>
			<feColorMatrix in="SourceAlpha" type="matrix" values="0 0 0 0 0 0 0 0 0 0 0 0 0 0 0 0 0 0 127 0" result="hardAlpha"/>
			<feOffset dx="3" dy="0"/>
			<feGaussianBlur stdDeviation="1.33333"/>
			<feComposite in2="hardAlpha" operator="out" k2="-1" k3="1"/>
			<feColorMatrix type="matrix" values="0 0 0 0 0 0 0 0 0 0 0 0 0 0 0 0 0 0 0.2 0"/>
			<feBlend mode="normal" in2="BackgroundImageFix" result="effect_dropShadow_1"/>
			<feBlend mode="normal" in="SourceGraphic" in2="effect_dropShadow_1" result="shape"/>
		</filter>
		<clipPath id="clip76_893">
			<rect id="Banka-krugN" width="47.000000" height="43.000000" fill="white" fill-opacity="0"/>
		</clipPath>
	</defs>
	<rect id="Banka-krugN" width="47.000000" height="43.000000" fill="#FFFFFF" fill-opacity="0"/>
	<g clip-path="url(#clip76_893)">
		<g filter="url(#filter_76_894_dd)">
			<path id="body" d="M8.37 6.99C9.85 6.99 15.06 6.99 21.02 6.99C26.86 6.99 33.44 6.99 35.13 6.99C38.54 6.99 43.71 17.29 42.91 26.04C42.12 34.79 35.85 42 32.7 42C29.55 41.99 13.73 42 10.81 42C7.89 42 1.87 34.79 1.08 26.04C0.28 17.29 5.45 6.99 8.37 6.99Z" fill="#8A9A72" fill-opacity="1.000000" fill-rule="evenodd"/>
			<path id="body" d="M10.81 42C7.89 42 1.87 34.79 1.08 26.04C0.28 17.29 5.45 6.99 8.37 6.99C9.85 6.99 15.06 6.99 21.02 6.99C26.86 6.99 33.44 6.99 35.13 6.99C38.54 6.99 43.71 17.29 42.91 26.04C42.12 34.79 35.85 42 32.7 42C29.55 41.99 13.73 42 10.81 42Z" stroke="#C7C4C4" stroke-opacity="1.000000" stroke-width="0.300000"/>
		</g>
		<path id="n" d="M14.22 32.6Q14.52 33 15.35 33L17.94 32.91L20.35 33Q21.14 33 21.47 32.7Q21.7 32.49 21.77 32.24Q21.8 32.14 21.8 32.02Q21.8 31.72 21.66 31.5Q21.31 30.94 20.08 30.94L19.16 30.94L19.16 25Q19.4 24.04 19.92 23.27Q20.34 22.65 20.93 22.15Q22.07 21.2 23.29 21.06Q23.51 21.03 23.73 21.03Q24.44 21.03 24.94 21.24Q25.1 21.3 25.24 21.38Q26.39 22.12 26.39 24.68L26.39 30.94L25.2 30.94Q24.48 30.94 24.07 31.22Q23.86 31.35 23.76 31.55Q23.66 31.74 23.66 31.98Q23.66 32.36 23.84 32.6Q24.15 33 24.97 33L27.57 32.91L29.98 33Q30.77 33 31.1 32.7Q31.33 32.49 31.4 32.24Q31.42 32.14 31.42 32.02Q31.42 31.72 31.29 31.5Q30.94 30.94 29.7 30.94L28.79 30.94L28.79 23.79Q28.79 21.52 27.68 20.18Q27.66 20.16 27.63 20.13Q26.52 18.84 23.92 18.84Q23.46 18.84 23.02 18.92Q22.02 19.1 21.09 19.69Q20.05 20.34 19.46 21.27Q19.29 21.54 19.16 21.84L19.16 20.05Q19.16 19.22 18.76 18.91Q18.53 18.74 18.16 18.74Q17.64 18.74 16.97 18.91Q16.29 19.08 15.51 19.15Q14.49 19.25 14.18 19.77Q14.03 20.01 14.03 20.33Q14.03 20.65 14.17 20.88Q14.25 21.01 14.38 21.11Q14.54 21.25 14.73 21.32Q14.93 21.4 15.17 21.4Q15.62 21.4 15.93 21.31Q16.25 21.21 16.44 21.21Q16.5 21.21 16.54 21.23Q16.8 21.34 16.8 22.03L16.8 30.94L15.58 30.94Q14.85 30.94 14.44 31.22Q14.24 31.35 14.14 31.55Q14.03 31.74 14.03 31.98Q14.03 32.36 14.22 32.6Z" fill="#FFFFFF" fill-opacity="1.000000" fill-rule="evenodd"/>
		<g filter="url(#filter_76_896_dd)">
			<path id="Прямоугольник 37" d="M4.65 8.01C6.34 7.21 38.31 6.41 38.31 7.61C38.31 8.8 41.78 12.4 40.83 13.6C39.88 14.79 38.62 12.7 36.2 12.8C33.78 12.9 33.68 14 30.31 14C26.95 14 24 12.8 22.32 12.4C20.64 12 16.75 14 13.49 14C10.23 14 8.86 10.8 7.6 12C6.33 13.2 4.65 14 3.39 13.6C2.71 13.38 3.04 12.55 3.39 11.2C3.69 10.05 3.88 8.37 4.65 8.01Z" fill="#9D9B70" fill-opacity="1.000000" fill-rule="evenodd"/>
		</g>
		<ellipse id="Эллипс 16" cx="25.631592" cy="12.571411" rx="0.421053" ry="0.428571" fill="#FFFFFF" fill-opacity="1.000000"/>
		<ellipse id="Эллипс 16" cx="33.210693" cy="7.428528" rx="0.421053" ry="0.428571" fill="#FFFFFF" fill-opacity="1.000000"/>
		<ellipse id="Эллипс 16" cx="35.736816" cy="10.000000" rx="0.421053" ry="0.428571" fill="#FFFFFF" fill-opacity="1.000000"/>
		<ellipse id="Эллипс 16" cx="36.579102" cy="12.571411" rx="0.421053" ry="0.428571" fill="#FFFFFF" fill-opacity="1.000000"/>
		<ellipse id="Эллипс 16" cx="32.368408" cy="10.857056" rx="0.421053" ry="0.428571" fill="#FFFFFF" fill-opacity="1.000000"/>
		<ellipse id="Эллипс 16" cx="33.210693" cy="12.571411" rx="0.421053" ry="0.428571" fill="#FFFFFF" fill-opacity="1.000000"/>
		<ellipse id="Эллипс 16" cx="29.000000" cy="10.857056" rx="0.421053" ry="0.428571" fill="#FFFFFF" fill-opacity="1.000000"/>
		<ellipse id="Эллипс 16" cx="31.526367" cy="8.285645" rx="0.421053" ry="0.428571" fill="#FFFFFF" fill-opacity="1.000000"/>
		<ellipse id="Эллипс 16" cx="28.157959" cy="8.285645" rx="0.421053" ry="0.428571" fill="#FFFFFF" fill-opacity="1.000000"/>
		<ellipse id="Эллипс 16" cx="22.263184" cy="11.714233" rx="0.421053" ry="0.428571" fill="#FFFFFF" fill-opacity="1.000000"/>
		<ellipse id="Эллипс 16" cx="23.947510" cy="10.000000" rx="0.421053" ry="0.428571" fill="#FFFFFF" fill-opacity="1.000000"/>
		<ellipse id="Эллипс 16" cx="19.736816" cy="10.000000" rx="0.421053" ry="0.428571" fill="#FFFFFF" fill-opacity="1.000000"/>
		<ellipse id="Эллипс 16" cx="21.421143" cy="7.428528" rx="0.421053" ry="0.428571" fill="#FFFFFF" fill-opacity="1.000000"/>
		<ellipse id="Эллипс 16" cx="16.368408" cy="8.285645" rx="0.421053" ry="0.428571" fill="#FFFFFF" fill-opacity="1.000000"/>
		<ellipse id="Эллипс 16" cx="16.368408" cy="10.857056" rx="0.421053" ry="0.428571" fill="#FFFFFF" fill-opacity="1.000000"/>
		<ellipse id="Эллипс 16" cx="15.526367" cy="12.571411" rx="0.421053" ry="0.428571" fill="#FFFFFF" fill-opacity="1.000000"/>
		<ellipse id="Эллипс 16" cx="11.315918" cy="12.571411" rx="0.421053" ry="0.428571" fill="#FFFFFF" fill-opacity="1.000000"/>
		<ellipse id="Эллипс 16" cx="10.473877" cy="8.285645" rx="0.421053" ry="0.428571" fill="#FFFFFF" fill-opacity="1.000000"/>
		<ellipse id="Эллипс 16" cx="5.421143" cy="12.571411" rx="0.421053" ry="0.428571" fill="#FFFFFF" fill-opacity="1.000000"/>
		<ellipse id="Эллипс 16" cx="6.263184" cy="9.142822" rx="0.421053" ry="0.428571" fill="#FFFFFF" fill-opacity="1.000000"/>
		<path id="Форма 56" d="M5 8.99L4.97 9.06C4.96 9.11 4.91 9.21 4.84 9.38C4.77 9.55 4.72 9.71 4.69 9.87C4.67 10.02 4.66 10.19 4.65 10.36C4.65 10.54 4.62 10.68 4.59 10.81C4.55 10.93 4.5 11.04 4.44 11.13C4.37 11.23 4.32 11.31 4.28 11.4C4.23 11.48 4.19 11.57 4.15 11.66C4.11 11.76 4.06 11.87 4 12" stroke="#D0D0D0" stroke-opacity="1.000000" stroke-width="0.200000" stroke-linecap="round"/>
		<path id="Форма 57" d="M5 11L5 11.06C5 11.1 4.96 11.22 4.9 11.4C4.84 11.58 4.76 11.78 4.65 12.01C4.55 12.24 4.42 12.44 4.26 12.61C4.11 12.79 4.02 12.92 4 13" stroke="#D0D0D0" stroke-opacity="1.000000" stroke-width="0.200000" stroke-linecap="round"/>
		<path id="Форма 58" d="M4.6 10.48L4.61 10.39C4.62 10.33 4.63 10.25 4.64 10.15" stroke="#D0D0D0" stroke-opacity="1.000000" stroke-width="0.200000" stroke-linecap="round"/>
		<path id="Форма 59" d="M5.22 8.92L5.27 8.81C5.31 8.74 5.37 8.61 5.46 8.41" stroke="#D0D0D0" stroke-opacity="1.000000" stroke-width="0.200000" stroke-linecap="round"/>
		<path id="Форма 60" d="M7.54 10.97L7.58 10.79C7.6 10.68 7.68 10.45 7.81 10.12" stroke="#D0D0D0" stroke-opacity="1.000000" stroke-width="0.200000" stroke-linecap="round"/>
		<path id="Форма 61" d="M9.19 7.99L9.17 8.18C9.15 8.31 9.11 8.48 9.06 8.7C9.01 8.92 8.94 9.12 8.87 9.3C8.8 9.49 8.69 9.72 8.55 10" stroke="#D0D0D0" stroke-opacity="1.000000" stroke-width="0.200000" stroke-linecap="round"/>
		<path id="Форма 62" d="M8.53 11.77L8.58 11.69C8.61 11.63 8.65 11.56 8.7 11.48" stroke="#D0D0D0" stroke-opacity="1.000000" stroke-width="0.200000" stroke-linecap="round"/>
		<path id="Форма 63" d="M8.96 10.66L8.92 10.72C8.89 10.76 8.82 10.86 8.7 11.01" stroke="#D0D0D0" stroke-opacity="1.000000" stroke-width="0.200000" stroke-linecap="round"/>
		<path id="Форма 64" d="M21 12L20.92 11.98C20.87 11.97 20.79 11.95 20.66 11.92C20.54 11.89 20.43 11.84 20.33 11.78C20.23 11.72 20.13 11.65 20.04 11.57C19.94 11.5 19.81 11.39 19.65 11.25C19.49 11.11 19.33 10.97 19.19 10.85C19.04 10.73 18.9 10.62 18.78 10.54C18.65 10.45 18.54 10.35 18.46 10.26C18.37 10.17 18.22 10.08 18 10" stroke="#D0D0D0" stroke-opacity="1.000000" stroke-width="0.200000" stroke-linecap="round"/>
		<path id="Форма 65" d="M17 7.99L17.05 8.02C17.08 8.04 17.16 8.07 17.28 8.12C17.39 8.17 17.49 8.24 17.57 8.33C17.64 8.43 17.7 8.53 17.75 8.63C17.79 8.73 17.87 8.85 18 8.99" stroke="#D0D0D0" stroke-opacity="1.000000" stroke-width="0.200000" stroke-linecap="round"/>
		<path id="Форма 66" d="M19.74 11.98L19.67 11.94C19.62 11.92 19.55 11.88 19.44 11.81C19.33 11.75 19.24 11.69 19.17 11.64" stroke="#D0D0D0" stroke-opacity="1.000000" stroke-width="0.200000" stroke-linecap="round"/>
		<path id="Форма 67" d="M19 11L18.94 10.95C18.9 10.92 18.82 10.86 18.69 10.78C18.57 10.7 18.45 10.61 18.33 10.51C18.21 10.41 18.09 10.29 17.97 10.14C17.84 9.99 17.73 9.86 17.64 9.75C17.54 9.64 17.35 9.47 17.07 9.23C16.78 8.99 16.54 8.82 16.35 8.72C16.16 8.63 15.98 8.55 15.81 8.49C15.64 8.43 15.5 8.35 15.38 8.26C15.27 8.16 15.14 8.08 15 7.99" stroke="#D0D0D0" stroke-opacity="1.000000" stroke-width="0.200000" stroke-linecap="round"/>
		<path id="Форма 71" d="M39.57 14L39.64 13.98C39.7 13.97 39.78 13.91 39.89 13.81C40 13.71 40.08 13.59 40.12 13.44C40.16 13.3 40.17 13.15 40.16 13" stroke="#D0D0D0" stroke-opacity="1.000000" stroke-width="0.200000" stroke-linecap="round"/>
		<path id="Форма 72" d="M40 12L39.94 11.96C39.9 11.94 39.74 11.82 39.46 11.6C39.19 11.38 38.99 11.21 38.86 11.1C38.73 10.99 38.56 10.86 38.36 10.71C38.15 10.56 37.98 10.44 37.83 10.35C37.69 10.25 37.54 10.15 37.4 10.05C37.25 9.95 37.09 9.81 36.9 9.63C36.72 9.45 36.54 9.27 36.37 9.08C36.2 8.9 35.99 8.71 35.75 8.52C35.51 8.34 35.26 8.16 35 7.99" stroke="#D0D0D0" stroke-opacity="1.000000" stroke-width="0.200000" stroke-linecap="round"/>
		<ellipse id="Эллипс 16" cx="38.379883" cy="10.697998" rx="0.420000" ry="0.396226" fill="#FFFFFF" fill-opacity="1.000000"/>
		<path id="Форма 73" d="M36 7.99L36.01 8.04C36.02 8.08 36.05 8.15 36.1 8.26C36.16 8.38 36.22 8.51 36.29 8.65C36.37 8.8 36.44 8.95 36.52 9.12C36.59 9.29 36.66 9.44 36.73 9.58C36.8 9.72 36.89 9.86 37 10" stroke="#D0D0D0" stroke-opacity="1.000000" stroke-width="0.200000" stroke-linecap="round"/>
		<path id="Форма 74" d="M37 7.99L37.04 8.01C37.07 8.03 37.12 8.08 37.19 8.16C37.26 8.24 37.33 8.33 37.39 8.43C37.46 8.52 37.53 8.62 37.59 8.72C37.65 8.82 37.73 8.94 37.82 9.08C37.91 9.22 37.99 9.35 38.06 9.45C38.13 9.56 38.19 9.66 38.25 9.77C38.31 9.88 38.38 9.99 38.46 10.11C38.53 10.22 38.62 10.31 38.72 10.38C38.81 10.44 38.88 10.54 38.91 10.66C38.95 10.79 38.97 10.9 39 11" stroke="#D0D0D0" stroke-opacity="1.000000" stroke-width="0.200000" stroke-linecap="round"/>
		<path id="Форма 75" d="M24.3 6.99L24.38 7.08C24.43 7.13 24.55 7.27 24.74 7.49C24.92 7.71 25.06 7.88 25.17 7.99" stroke="#D0D0D0" stroke-opacity="1.000000" stroke-width="0.200000" stroke-linecap="round"/>
		<path id="Форма 76" d="M26.14 8.99L26.12 8.94C26.11 8.91 26.04 8.79 25.91 8.58C25.79 8.38 25.64 8.18 25.46 7.99" stroke="#D0D0D0" stroke-opacity="1.000000" stroke-width="0.200000" stroke-linecap="round"/>
		<path id="Форма 77" d="M25.77 7.03L25.81 7.09C25.84 7.13 25.92 7.24 26.05 7.43C26.17 7.61 26.26 7.78 26.3 7.93" stroke="#D0D0D0" stroke-opacity="1.000000" stroke-width="0.200000" stroke-linecap="round"/>
		<path id="Форма 78" d="M12.51 7.99L12.51 8.08C12.51 8.14 12.5 8.28 12.47 8.51C12.44 8.73 12.39 8.9 12.34 8.99" stroke="#D0D0D0" stroke-opacity="1.000000" stroke-width="0.200000" stroke-linecap="round"/>
		<path id="Форма 79" d="M32 14L31.63 13.95C31.39 13.92 30.96 13.83 30.33 13.7C29.71 13.56 29.28 13.41 29.06 13.24C28.83 13.07 28.64 12.9 28.49 12.71C28.33 12.53 28.22 12.38 28.16 12.27C28.11 12.17 28.05 12.07 28 12" stroke="#D0D0D0" stroke-opacity="1.000000" stroke-width="0.200000" stroke-linecap="round"/>
		<path id="Форма 80" d="M28 13L27.9 12.91C27.84 12.85 27.67 12.73 27.39 12.56C27.12 12.38 26.86 12.17 26.63 11.92C26.39 11.67 26.11 11.35 25.76 10.97C25.42 10.58 25.07 10.22 24.7 9.88C24.33 9.55 23.99 9.19 23.67 8.81C23.35 8.42 23.12 8.15 23 7.99" stroke="#D0D0D0" stroke-opacity="1.000000" stroke-width="0.200000" stroke-linecap="round"/>
		<ellipse id="Эллипс 16" cx="13.179932" cy="9.905640" rx="0.420000" ry="0.396226" fill="#FFFFFF" fill-opacity="1.000000"/>
		<ellipse id="Эллипс 17" cx="21.807129" cy="2.916626" rx="16.353956" ry="2.916670" fill="#DEEA8B" fill-opacity="1.000000"/>
		<ellipse id="Эллипс 17" cx="21.807129" cy="2.916626" rx="16.203957" ry="2.766670" stroke="#C7C4C4" stroke-opacity="1.000000" stroke-width="0.300000"/>
		<path id="Прямоугольник 38" d="M5.87 2.49C6.29 2.86 14.41 5 22.3 5C34.44 5 37.48 2.09 38.16 2.56C38.83 3.04 39.65 7.5 38.16 8.5C36.66 9.5 30.4 10 22.3 10C14.2 10 7.88 9.5 5.77 8.5C4.85 8.06 4.98 7.12 5.03 5.83C5.09 4.15 5.39 2.08 5.87 2.49Z" fill="#DEEA8B" fill-opacity="1.000000" fill-rule="evenodd"/>
		<path id="Прямоугольник 38" d="M5.87 2.49C6.29 2.86 14.41 5 22.3 5C30.96 5 34.99 3.52 36.83 2.84C37.57 2.57 37.96 2.43 38.16 2.56C38.83 3.04 39.65 7.5 38.16 8.5C36.66 9.5 30.4 10 22.3 10C14.2 10 7.88 9.5 5.77 8.5C4.93 8.1 4.97 7.29 5.02 6.17C5.02 6.06 5.02 5.95 5.03 5.83C5.09 4.15 5.39 2.08 5.87 2.49ZM38.59 7.15C38.47 7.69 38.27 8.06 37.99 8.25C37.65 8.47 37.04 8.67 36.13 8.86C35.23 9.04 34.08 9.2 32.68 9.32C29.92 9.57 26.46 9.69 22.3 9.69C18.16 9.69 14.66 9.57 11.82 9.32C10.37 9.2 9.15 9.04 8.16 8.86C7.15 8.67 6.39 8.46 5.9 8.23C5.74 8.15 5.62 8.06 5.53 7.94C5.45 7.84 5.39 7.7 5.35 7.54C5.32 7.38 5.3 7.18 5.3 6.95C5.29 6.79 5.3 6.54 5.31 6.18C5.32 6.03 5.33 5.92 5.33 5.84C5.34 5.41 5.37 4.98 5.42 4.57C5.46 4.13 5.52 3.75 5.58 3.44C5.65 3.14 5.71 2.92 5.78 2.79C6.03 2.92 6.58 3.1 7.43 3.33C8.54 3.63 9.81 3.91 11.23 4.18C12.97 4.51 14.71 4.77 16.43 4.96C18.51 5.19 20.46 5.3 22.3 5.3C26.06 5.3 29.36 5.02 32.18 4.47C33.2 4.27 34.17 4.03 35.09 3.75C35.61 3.59 36.22 3.38 36.93 3.12C37.59 2.88 37.94 2.78 37.98 2.81C38.02 2.84 38.08 2.92 38.14 3.05C38.22 3.2 38.29 3.4 38.36 3.63C38.52 4.16 38.62 4.73 38.67 5.36C38.72 6.05 38.7 6.65 38.59 7.15Z" fill="#C7C4C4" fill-opacity="1.000000" fill-rule="evenodd"/>
	</g>
</svg>
