<svg width="39.000000" height="58.000000" viewBox="0 0 39 58" fill="none" xmlns="http://www.w3.org/2000/svg" xmlns:xlink="http://www.w3.org/1999/xlink">
	<desc>
			Created with Pixso.
	</desc>
	<defs>
		<filter id="filter_68_3_dd" x="-0.150146" y="5.849792" width="39.301758" height="54.300232" filterUnits="userSpaceOnUse" color-interpolation-filters="sRGB">
			<feFlood flood-opacity="0" result="BackgroundImageFix"/>
			<feColorMatrix in="SourceAlpha" type="matrix" values="0 0 0 0 0 0 0 0 0 0 0 0 0 0 0 0 0 0 127 0" result="hardAlpha"/>
			<feOffset dx="4" dy="0"/>
			<feGaussianBlur stdDeviation="1"/>
			<feComposite in2="hardAlpha" operator="out" k2="-1" k3="1"/>
			<feColorMatrix type="matrix" values="0 0 0 0 0 0 0 0 0 0 0 0 0 0 0 0 0 0 0.2 0"/>
			<feBlend mode="normal" in2="BackgroundImageFix" result="effect_dropShadow_1"/>
			<feBlend mode="normal" in="SourceGraphic" in2="effect_dropShadow_1" result="shape"/>
		</filter>
		<filter id="filter_68_30_dd" x="0.000000" y="-2.000000" width="39.000000" height="19.000000" filterUnits="userSpaceOnUse" color-interpolation-filters="sRGB">
			<feFlood flood-opacity="0" result="BackgroundImageFix"/>
			<feColorMatrix in="SourceAlpha" type="matrix" values="0 0 0 0 0 0 0 0 0 0 0 0 0 0 0 0 0 0 127 0" result="hardAlpha"/>
			<feOffset dx="4" dy="0"/>
			<feGaussianBlur stdDeviation="1"/>
			<feComposite in2="hardAlpha" operator="out" k2="-1" k3="1"/>
			<feColorMatrix type="matrix" values="0 0 0 0 0 0 0 0 0 0 0 0 0 0 0 0 0 0 0.2 0"/>
			<feBlend mode="normal" in2="BackgroundImageFix" result="effect_dropShadow_1"/>
			<feBlend mode="normal" in="SourceGraphic" in2="effect_dropShadow_1" result="shape"/>
		</filter>
		<clipPath id="clip68_1">
			<rect id="банка1" width="39.000000" height="58.000000" fill="white" fill-opacity="0"/>
		</clipPath>
	</defs>
	<rect id="банка1" width="39.000000" height="58.000000" fill="#FFFFFF" fill-opacity="0"/>
	<g clip-path="url(#clip68_1)">
		<g filter="url(#filter_68_3_dd)">
			<path id="Прямоугольник 32" d="M1.24 9.12C2.03 12 8.7 13.91 16.16 13.91C23.63 13.91 30.3 12 31.09 9.12C31.87 6.25 32.66 53.17 31.09 54.12C29.52 55.08 25.2 57 17.74 57C10.28 57 3.6 56.04 1.24 54.12C-1.12 52.21 0.46 6.25 1.24 9.12Z" fill="#710000" fill-opacity="1.000000" fill-rule="evenodd"/>
			<path id="Прямоугольник 32" d="M31.09 54.12C29.52 55.08 25.2 57 17.74 57C10.28 57 3.6 56.04 1.24 54.12C-1.12 52.21 0.46 6.25 1.24 9.12C2.03 12 8.7 13.91 16.16 13.91C23.63 13.91 30.3 12 31.09 9.12C31.87 6.25 32.66 53.17 31.09 54.12Z" stroke="#444343" stroke-opacity="1.000000" stroke-width="0.300000"/>
		</g>
		<circle id="Эллипс 15" cx="6.166748" cy="50.599976" r="0.500000" fill="#CA9191" fill-opacity="1.000000"/>
		<circle id="Эллипс 15" cx="23.500000" cy="38.500000" r="0.500000" fill="#CA9191" fill-opacity="1.000000"/>
		<circle id="Эллипс 15" cx="26.388916" cy="46.799988" r="0.500000" fill="#CA9191" fill-opacity="1.000000"/>
		<circle id="Эллипс 15" cx="17.055664" cy="50.599976" r="0.500000" fill="#CA9191" fill-opacity="1.000000"/>
		<circle id="Эллипс 15" cx="4.611084" cy="43.000000" r="0.500000" fill="#CA9191" fill-opacity="1.000000"/>
		<circle id="Эллипс 15" cx="10.500000" cy="42.500000" r="0.500000" fill="#CA9191" fill-opacity="1.000000"/>
		<circle id="Эллипс 15" cx="27.944336" cy="35.400024" r="0.500000" fill="#CA9191" fill-opacity="1.000000"/>
		<circle id="Эллипс 15" cx="24.833252" cy="29.700012" r="0.500000" fill="#CA9191" fill-opacity="1.000000"/>
		<circle id="Эллипс 15" cx="22.500000" cy="33.500000" r="0.500000" fill="#CA9191" fill-opacity="1.000000"/>
		<circle id="Эллипс 15" cx="1.500000" cy="31.599976" r="0.500000" fill="#CA9191" fill-opacity="1.000000"/>
		<circle id="Эллипс 15" cx="3.055664" cy="24.000000" r="0.500000" fill="#CA9191" fill-opacity="1.000000"/>
		<circle id="Эллипс 15" cx="20.500000" cy="42.500000" r="0.500000" fill="#CA9191" fill-opacity="1.000000"/>
		<circle id="Эллипс 15" cx="6.166748" cy="37.299988" r="0.500000" fill="#CA9191" fill-opacity="1.000000"/>
		<circle id="Эллипс 15" cx="27.944336" cy="22.099976" r="0.500000" fill="#CA9191" fill-opacity="1.000000"/>
		<circle id="Эллипс 15" cx="27.944336" cy="14.500000" r="0.500000" fill="#CA9191" fill-opacity="1.000000"/>
		<circle id="Эллипс 15" cx="21.722168" cy="14.500000" r="0.500000" fill="#CA9191" fill-opacity="1.000000"/>
		<circle id="Эллипс 15" cx="14.500000" cy="18.500000" r="0.500000" fill="#CA9191" fill-opacity="1.000000"/>
		<circle id="Эллипс 15" cx="9.277832" cy="16.400024" r="0.500000" fill="#CA9191" fill-opacity="1.000000"/>
		<circle id="Эллипс 15" cx="3.055664" cy="14.500000" r="0.500000" fill="#CA9191" fill-opacity="1.000000"/>
		<circle id="Эллипс 15" cx="18.500000" cy="23.500000" r="0.500000" fill="#CA9191" fill-opacity="1.000000"/>
		<circle id="Эллипс 15" cx="15.500000" cy="45.500000" r="0.500000" fill="#CA9191" fill-opacity="1.000000"/>
		<circle id="Эллипс 15" cx="11.500000" cy="53.500000" r="0.500000" fill="#CA9191" fill-opacity="1.000000"/>
		<circle id="Эллипс 15" cx="20.500000" cy="54.500000" r="0.500000" fill="#CA9191" fill-opacity="1.000000"/>
		<circle id="Эллипс 15" cx="27.500000" cy="52.500000" r="0.500000" fill="#CA9191" fill-opacity="1.000000"/>
		<circle id="Эллипс 15" cx="10.500000" cy="46.500000" r="0.500000" fill="#CA9191" fill-opacity="1.000000"/>
		<circle id="Эллипс 15" cx="20.500000" cy="46.500000" r="0.500000" fill="#CA9191" fill-opacity="1.000000"/>
		<circle id="Эллипс 15" cx="30.500000" cy="41.500000" r="0.500000" fill="#CA9191" fill-opacity="1.000000"/>
		<circle id="Эллипс 15" cx="29.500000" cy="29.500000" r="0.500000" fill="#CA9191" fill-opacity="1.000000"/>
		<circle id="Эллипс 15" cx="9.500000" cy="22.500000" r="0.500000" fill="#CA9191" fill-opacity="1.000000"/>
		<circle id="Эллипс 15" cx="2.500000" cy="41.500000" r="0.500000" fill="#CA9191" fill-opacity="1.000000"/>
		<circle id="Эллипс 15" cx="4.500000" cy="48.500000" r="0.500000" fill="#CA9191" fill-opacity="1.000000"/>
		<circle id="Эллипс 15" cx="7.500000" cy="31.500000" r="0.500000" fill="#CA9191" fill-opacity="1.000000"/>
		<circle id="Эллипс 15" cx="4.500000" cy="20.500000" r="0.500000" fill="#CA9191" fill-opacity="1.000000"/>
		<circle id="Эллипс 15" cx="26.500000" cy="18.500000" r="0.500000" fill="#CA9191" fill-opacity="1.000000"/>
		<circle id="Эллипс 15" cx="20.500000" cy="19.500000" r="0.500000" fill="#CA9191" fill-opacity="1.000000"/>
		<g filter="url(#filter_68_30_dd)">
			<path id="Эллипс 14" d="M0.11 9.35C0.11 7.71 -0.96 4.61 3.44 3.78C5.9 3.32 12.82 4.71 15.95 4.71C24.7 4.71 33.46 1 31.79 9.35C31.79 11.92 24.7 14 15.95 14C7.2 14 0.11 11.92 0.11 9.35Z" fill="#D7D5D5" fill-opacity="1.000000" fill-rule="evenodd"/>
			<path id="Эллипс 14" d="M31.79 9.35C31.79 11.92 24.7 14 15.95 14C7.2 14 0.11 11.92 0.11 9.35C0.11 9.1 0.09 8.82 0.06 8.51C-0.09 6.82 -0.29 4.48 3.44 3.78C4.88 3.51 7.84 3.87 10.68 4.22C12.7 4.47 14.65 4.71 15.95 4.71C18.16 4.71 20.38 4.47 22.43 4.25C28.47 3.6 33.03 3.11 31.79 9.35ZM31.49 9.32L31.49 9.35L31.49 9.37Q31.48 10.15 30.37 10.91Q29.21 11.72 27.07 12.35Q24.9 12.98 22.08 13.33Q19.15 13.7 15.95 13.7Q12.75 13.7 9.82 13.33Q7 12.98 4.83 12.35Q2.69 11.72 1.53 10.91Q0.42 10.15 0.41 9.37Q0.41 9.36 0.41 9.35Q0.41 9.09 0.36 8.49Q0.32 8.06 0.31 7.84Q0.29 7.47 0.3 7.17Q0.33 6.43 0.57 5.9Q0.64 5.75 0.72 5.61Q1 5.15 1.49 4.82Q2.24 4.31 3.5 4.08Q4.42 3.9 6.51 4.07Q7.36 4.14 8.52 4.27Q9.22 4.35 10.64 4.52Q12.65 4.77 13.55 4.86Q15.07 5.01 15.95 5.01Q17.43 5.01 19.28 4.86Q20.37 4.77 22.46 4.55Q23.94 4.39 24.64 4.33Q25.79 4.22 26.62 4.2Q28.63 4.13 29.75 4.5Q30.36 4.71 30.77 5.05Q30.91 5.17 31.02 5.3Q31.27 5.58 31.42 5.95Q31.93 7.13 31.5 9.29L31.49 9.32Z" fill="#444343" fill-opacity="1.000000" fill-rule="evenodd"/>
			<ellipse id="Эллипс 14" cx="15.954346" cy="5.642761" rx="15.839607" ry="4.642756" fill="#D7D5D5" fill-opacity="1.000000"/>
			<ellipse id="Эллипс 14" cx="15.954346" cy="5.642761" rx="15.689608" ry="4.492756" stroke="#444343" stroke-opacity="1.000000" stroke-width="0.300000"/>
		</g>
		<path id="V" d="M23.7 24.72Q23.46 24.42 22.84 24.42L21.37 24.5Q20.87 24.5 20.55 24.46Q20.22 24.42 19.93 24.39Q19.65 24.37 19.39 24.33Q19.12 24.29 18.74 24.29Q18.58 24.29 18.43 24.33Q18.22 24.39 18.04 24.52Q17.9 24.63 17.82 24.78Q17.73 24.94 17.73 25.16Q17.73 25.25 17.75 25.34Q17.82 25.63 18.15 25.85Q18.56 26.15 19.54 26.15L19.81 26.15Q19.94 26.15 20.09 26.14L15.44 38.04Q15.4 38.14 15.28 38.22Q15.25 38.24 15.22 38.24Q15.13 38.24 15.04 38.04L10.39 26.13L10.84 26.13Q12.26 26.13 12.57 25.54Q12.66 25.37 12.66 25.16Q12.66 24.87 12.52 24.68Q12.45 24.58 12.36 24.51Q12.22 24.41 12.07 24.36Q11.89 24.29 11.67 24.29Q11.29 24.29 11.01 24.32L9.72 24.44Q9.37 24.47 9.01 24.47L7.49 24.4Q7.16 24.4 6.93 24.54Q6.87 24.58 6.82 24.63Q6.6 24.82 6.56 25.04Q6.55 25.09 6.55 25.14Q6.55 25.36 6.66 25.52Q6.68 25.56 6.72 25.59Q6.88 25.76 7.32 25.93Q7.76 26.1 8.13 26.51Q8.5 26.93 9.35 28.92L12.19 35.57L14.12 40.34Q14.28 40.81 14.53 41.03Q14.78 41.25 15.29 41.25Q15.35 41.25 15.42 41.24Q15.93 41.14 16.3 40.23L16.66 39.32Q16.9 38.71 21.09 28.81Q21.98 26.73 22.42 26.3Q22.62 26.1 23.09 26.01Q23.51 25.94 23.69 25.69Q23.84 25.49 23.84 25.19Q23.84 24.9 23.7 24.72Z" fill="#FFFFFF" fill-opacity="1.000000" fill-rule="evenodd"/>
	</g>
</svg>
