<svg width="32.000000" height="48.000000" viewBox="0 0 32 48" fill="none" xmlns="http://www.w3.org/2000/svg" xmlns:xlink="http://www.w3.org/1999/xlink">
	<desc>
			Created with Pixso.
	</desc>
	<defs>
		<filter id="filter_72_618_dd" x="-0.151855" y="4.849792" width="34.302979" height="45.300232" filterUnits="userSpaceOnUse" color-interpolation-filters="sRGB">
			<feFlood flood-opacity="0" result="BackgroundImageFix"/>
			<feColorMatrix in="SourceAlpha" type="matrix" values="0 0 0 0 0 0 0 0 0 0 0 0 0 0 0 0 0 0 127 0" result="hardAlpha"/>
			<feOffset dx="4" dy="0"/>
			<feGaussianBlur stdDeviation="1"/>
			<feComposite in2="hardAlpha" operator="out" k2="-1" k3="1"/>
			<feColorMatrix type="matrix" values="0 0 0 0 0 0 0 0 0 0 0 0 0 0 0 0 0 0 0.2 0"/>
			<feBlend mode="normal" in2="BackgroundImageFix" result="effect_dropShadow_1"/>
			<feBlend mode="normal" in="SourceGraphic" in2="effect_dropShadow_1" result="shape"/>
		</filter>
		<filter id="filter_72_653_dd" x="0.000000" y="-2.000000" width="34.000000" height="17.000000" filterUnits="userSpaceOnUse" color-interpolation-filters="sRGB">
			<feFlood flood-opacity="0" result="BackgroundImageFix"/>
			<feColorMatrix in="SourceAlpha" type="matrix" values="0 0 0 0 0 0 0 0 0 0 0 0 0 0 0 0 0 0 127 0" result="hardAlpha"/>
			<feOffset dx="4" dy="0"/>
			<feGaussianBlur stdDeviation="1"/>
			<feComposite in2="hardAlpha" operator="out" k2="-1" k3="1"/>
			<feColorMatrix type="matrix" values="0 0 0 0 0 0 0 0 0 0 0 0 0 0 0 0 0 0 0.2 0"/>
			<feBlend mode="normal" in2="BackgroundImageFix" result="effect_dropShadow_1"/>
			<feBlend mode="normal" in="SourceGraphic" in2="effect_dropShadow_1" result="shape"/>
		</filter>
		<clipPath id="clip72_617">
			<rect id="bankaU" width="32.000000" height="48.000000" fill="white" fill-opacity="0"/>
		</clipPath>
	</defs>
	<rect id="bankaU" width="32.000000" height="48.000000" fill="#FFFFFF" fill-opacity="0"/>
	<g clip-path="url(#clip72_617)">
		<g filter="url(#filter_72_618_dd)">
			<path id="Прямоугольник 32" d="M1.05 8.1C1.71 10.43 7.34 11.99 13.64 11.99C19.93 11.99 25.57 10.43 26.23 8.1C26.89 5.77 27.55 43.88 26.23 44.66C24.91 45.44 21.26 47 14.97 47C8.67 47 3.04 46.22 1.05 44.66C-0.94 43.11 0.38 5.77 1.05 8.1Z" fill="#558382" fill-opacity="1.000000" fill-rule="evenodd"/>
			<path id="Прямоугольник 32" d="M26.23 44.66C24.91 45.44 21.26 47 14.97 47C8.67 47 3.04 46.22 1.05 44.66C-0.94 43.11 0.38 5.77 1.05 8.1C1.71 10.43 7.34 11.99 13.64 11.99C19.93 11.99 25.57 10.43 26.23 8.1C26.89 5.77 27.55 43.88 26.23 44.66Z" stroke="#444343" stroke-opacity="1.000000" stroke-width="0.300000"/>
		</g>
		<ellipse id="Эллипс 15" cx="5.305664" cy="42.351196" rx="0.416667" ry="0.414634" fill="#A7B7B0" fill-opacity="1.000000"/>
		<ellipse id="Эллипс 15" cx="19.750000" cy="32.317078" rx="0.416667" ry="0.414634" fill="#A7B7B0" fill-opacity="1.000000"/>
		<ellipse id="Эллипс 15" cx="22.157471" cy="39.199951" rx="0.416667" ry="0.414634" fill="#A7B7B0" fill-opacity="1.000000"/>
		<ellipse id="Эллипс 15" cx="14.379883" cy="42.351196" rx="0.416667" ry="0.414634" fill="#A7B7B0" fill-opacity="1.000000"/>
		<ellipse id="Эллипс 15" cx="4.009277" cy="36.048767" rx="0.416667" ry="0.414634" fill="#A7B7B0" fill-opacity="1.000000"/>
		<ellipse id="Эллипс 15" cx="23.453613" cy="29.746338" rx="0.416667" ry="0.414634" fill="#A7B7B0" fill-opacity="1.000000"/>
		<ellipse id="Эллипс 15" cx="20.861084" cy="25.019470" rx="0.416667" ry="0.414634" fill="#A7B7B0" fill-opacity="1.000000"/>
		<ellipse id="Эллипс 15" cx="18.916748" cy="28.170715" rx="0.416667" ry="0.414634" fill="#A7B7B0" fill-opacity="1.000000"/>
		<ellipse id="Эллипс 15" cx="1.416748" cy="26.595093" rx="0.416667" ry="0.414634" fill="#A7B7B0" fill-opacity="1.000000"/>
		<ellipse id="Эллипс 15" cx="2.713135" cy="20.292664" rx="0.416667" ry="0.414634" fill="#A7B7B0" fill-opacity="1.000000"/>
		<ellipse id="Эллипс 15" cx="17.250000" cy="35.634094" rx="0.416667" ry="0.414634" fill="#A7B7B0" fill-opacity="1.000000"/>
		<ellipse id="Эллипс 15" cx="5.305664" cy="31.321899" rx="0.416667" ry="0.414634" fill="#A7B7B0" fill-opacity="1.000000"/>
		<ellipse id="Эллипс 15" cx="23.453613" cy="18.717041" rx="0.416667" ry="0.414634" fill="#A7B7B0" fill-opacity="1.000000"/>
		<ellipse id="Эллипс 15" cx="23.453613" cy="12.414612" rx="0.416667" ry="0.414634" fill="#A7B7B0" fill-opacity="1.000000"/>
		<ellipse id="Эллипс 15" cx="18.268555" cy="12.414612" rx="0.416667" ry="0.414634" fill="#A7B7B0" fill-opacity="1.000000"/>
		<ellipse id="Эллипс 15" cx="12.250000" cy="15.731689" rx="0.416667" ry="0.414634" fill="#A7B7B0" fill-opacity="1.000000"/>
		<ellipse id="Эллипс 15" cx="7.898193" cy="13.990234" rx="0.416667" ry="0.414634" fill="#A7B7B0" fill-opacity="1.000000"/>
		<ellipse id="Эллипс 15" cx="2.713135" cy="12.414612" rx="0.416667" ry="0.414634" fill="#A7B7B0" fill-opacity="1.000000"/>
		<ellipse id="Эллипс 15" cx="13.083496" cy="38.121948" rx="0.416667" ry="0.414634" fill="#A7B7B0" fill-opacity="1.000000"/>
		<ellipse id="Эллипс 15" cx="9.750000" cy="44.756042" rx="0.416667" ry="0.414634" fill="#A7B7B0" fill-opacity="1.000000"/>
		<ellipse id="Эллипс 15" cx="17.250000" cy="45.585327" rx="0.416667" ry="0.414634" fill="#A7B7B0" fill-opacity="1.000000"/>
		<ellipse id="Эллипс 15" cx="23.083496" cy="43.926819" rx="0.416667" ry="0.414634" fill="#A7B7B0" fill-opacity="1.000000"/>
		<ellipse id="Эллипс 15" cx="8.916748" cy="38.951172" rx="0.416667" ry="0.414634" fill="#A7B7B0" fill-opacity="1.000000"/>
		<ellipse id="Эллипс 15" cx="17.250000" cy="38.951172" rx="0.416667" ry="0.414634" fill="#A7B7B0" fill-opacity="1.000000"/>
		<ellipse id="Эллипс 15" cx="25.583496" cy="34.804871" rx="0.416667" ry="0.414634" fill="#A7B7B0" fill-opacity="1.000000"/>
		<ellipse id="Эллипс 15" cx="24.750000" cy="24.853638" rx="0.416667" ry="0.414634" fill="#A7B7B0" fill-opacity="1.000000"/>
		<ellipse id="Эллипс 15" cx="8.083496" cy="19.048767" rx="0.416667" ry="0.414634" fill="#A7B7B0" fill-opacity="1.000000"/>
		<ellipse id="Эллипс 15" cx="2.250000" cy="34.804871" rx="0.416667" ry="0.414634" fill="#A7B7B0" fill-opacity="1.000000"/>
		<ellipse id="Эллипс 15" cx="3.916748" cy="40.609741" rx="0.416667" ry="0.414634" fill="#A7B7B0" fill-opacity="1.000000"/>
		<ellipse id="Эллипс 15" cx="6.416748" cy="26.512146" rx="0.416667" ry="0.414634" fill="#A7B7B0" fill-opacity="1.000000"/>
		<ellipse id="Эллипс 15" cx="3.916748" cy="17.390198" rx="0.416667" ry="0.414634" fill="#A7B7B0" fill-opacity="1.000000"/>
		<ellipse id="Эллипс 15" cx="22.250000" cy="15.731689" rx="0.416667" ry="0.414634" fill="#A7B7B0" fill-opacity="1.000000"/>
		<ellipse id="Эллипс 15" cx="17.250000" cy="16.560974" rx="0.416667" ry="0.414634" fill="#A7B7B0" fill-opacity="1.000000"/>
		<g filter="url(#filter_72_653_dd)">
			<path id="Эллипс 14" d="M0.09 8.07C0.09 6.67 -0.81 4.05 2.91 3.35C4.98 2.96 10.81 4.14 13.46 4.14C20.84 4.14 28.23 1 26.82 8.07C26.82 10.24 20.84 12 13.46 12C6.08 12 0.09 10.24 0.09 8.07Z" fill="#AEB078" fill-opacity="1.000000" fill-rule="evenodd"/>
			<path id="Эллипс 14" d="M26.82 8.07C26.82 10.24 20.84 12 13.46 12C6.08 12 0.09 10.24 0.09 8.07C0.09 7.85 0.07 7.61 0.05 7.36C-0.08 5.92 -0.25 3.94 2.91 3.35C4.12 3.12 6.62 3.43 9.01 3.73C10.71 3.94 12.36 4.14 13.46 4.14C15.33 4.14 17.2 3.94 18.92 3.75C24.02 3.2 27.87 2.79 26.82 8.07ZM26.52 8.04L26.52 8.07L26.52 8.07C26.52 8.5 26.21 8.92 25.6 9.35C24.95 9.8 24.02 10.2 22.82 10.56C21.61 10.91 20.2 11.19 18.62 11.39C16.98 11.59 15.26 11.7 13.46 11.7C11.66 11.7 9.93 11.59 8.29 11.39C6.71 11.19 5.31 10.91 4.09 10.56C2.89 10.2 1.96 9.8 1.31 9.35C0.7 8.92 0.39 8.5 0.39 8.07L0.39 8.07C0.39 7.92 0.38 7.67 0.35 7.33C0.33 7.09 0.31 6.91 0.31 6.78C0.29 6.57 0.29 6.39 0.3 6.22C0.31 5.81 0.39 5.46 0.52 5.16C0.56 5.08 0.6 5 0.65 4.92C0.8 4.67 1.01 4.45 1.28 4.27C1.7 3.99 2.26 3.78 2.96 3.65C3.47 3.55 4.32 3.55 5.49 3.64C5.97 3.68 6.53 3.74 7.18 3.81C7.58 3.85 8.17 3.93 8.97 4.02C10.1 4.16 10.92 4.26 11.43 4.31C12.28 4.4 12.96 4.44 13.46 4.44C14.29 4.44 15.23 4.4 16.27 4.31C16.88 4.26 17.78 4.18 18.95 4.05C19.79 3.96 20.4 3.9 20.79 3.86C21.44 3.8 22 3.77 22.46 3.75C23.59 3.71 24.46 3.8 25.08 4.01C25.42 4.12 25.71 4.27 25.93 4.46C26 4.52 26.07 4.59 26.13 4.66C26.27 4.82 26.38 5 26.47 5.2C26.75 5.86 26.77 6.8 26.53 8.01L26.52 8.04Z" fill="#444443" fill-opacity="1.000000" fill-rule="evenodd"/>
			<ellipse id="Эллипс 14" cx="13.461670" cy="4.928467" rx="13.364669" ry="3.928481" fill="#AEB078" fill-opacity="1.000000"/>
			<ellipse id="Эллипс 14" cx="13.461670" cy="4.928467" rx="13.214669" ry="3.778481" stroke="#444443" stroke-opacity="1.000000" stroke-width="0.300000"/>
		</g>
		<path id="u" d="M15.81 35.43Q16.85 34.74 17.49 33.42Q17.58 34.15 17.81 34.68Q18.17 35.54 18.81 35.91Q19.31 36.2 19.97 36.2Q20.87 36.2 21.24 35.76Q21.5 35.45 21.5 34.91Q21.5 34.55 21.32 34.32Q21.19 34.15 20.95 34.05Q20.64 33.93 20.45 33.75Q19.82 33.16 19.82 30.59L19.82 23.16Q19.82 22.58 19.56 22.21Q19.46 22.06 19.32 21.97Q19.11 21.84 18.83 21.84Q18.34 21.84 18.09 21.91L17.41 22.09Q16.96 22.2 16.25 22.27Q15.37 22.35 15.06 22.81Q14.91 23.05 14.91 23.39Q14.91 23.9 15.17 24.18Q15.47 24.51 16.13 24.51L17.08 24.35Q17.18 24.35 17.26 24.39Q17.32 24.43 17.36 24.48Q17.45 24.62 17.45 25.14L17.45 29.68Q17.01 31.44 15.96 32.68Q15.93 32.72 15.89 32.75Q14.94 33.83 13.86 33.99Q13.68 34.01 13.5 34.01Q12.82 34.01 12.31 33.78Q12.19 33.72 12.08 33.65Q10.93 32.9 10.93 30.39L10.93 23.16Q10.93 22.58 10.67 22.21Q10.56 22.05 10.41 21.96Q10.2 21.84 9.93 21.84Q9.45 21.84 9.19 21.91L8.5 22.08Q8.06 22.2 7.28 22.27Q6.43 22.35 6.13 22.8Q5.97 23.04 5.97 23.39Q5.97 23.9 6.22 24.18Q6.53 24.51 7.18 24.51L8.2 24.35Q8.26 24.35 8.31 24.37Q8.55 24.48 8.55 25.14L8.55 31.28Q8.55 33.77 9.8 35.02Q10.31 35.53 11.03 35.83Q11.04 35.84 11.06 35.84Q11.93 36.2 12.95 36.2Q14.64 36.2 15.81 35.43Z" fill="#FFFFFF" fill-opacity="1.000000" fill-rule="evenodd"/>
	</g>
</svg>
