<svg width="32.000000" height="49.000000" viewBox="0 0 32 49" fill="none" xmlns="http://www.w3.org/2000/svg" xmlns:xlink="http://www.w3.org/1999/xlink">
	<desc>
			Created with Pixso.
	</desc>
	<defs>
		<filter id="filter_71_374_dd" x="-0.151855" y="5.849792" width="34.302979" height="45.300232" filterUnits="userSpaceOnUse" color-interpolation-filters="sRGB">
			<feFlood flood-opacity="0" result="BackgroundImageFix"/>
			<feColorMatrix in="SourceAlpha" type="matrix" values="0 0 0 0 0 0 0 0 0 0 0 0 0 0 0 0 0 0 127 0" result="hardAlpha"/>
			<feOffset dx="4" dy="0"/>
			<feGaussianBlur stdDeviation="1"/>
			<feComposite in2="hardAlpha" operator="out" k2="-1" k3="1"/>
			<feColorMatrix type="matrix" values="0 0 0 0 0 0 0 0 0 0 0 0 0 0 0 0 0 0 0.2 0"/>
			<feBlend mode="normal" in2="BackgroundImageFix" result="effect_dropShadow_1"/>
			<feBlend mode="normal" in="SourceGraphic" in2="effect_dropShadow_1" result="shape"/>
		</filter>
		<filter id="filter_71_409_dd" x="0.000000" y="-1.000000" width="34.000000" height="17.000000" filterUnits="userSpaceOnUse" color-interpolation-filters="sRGB">
			<feFlood flood-opacity="0" result="BackgroundImageFix"/>
			<feColorMatrix in="SourceAlpha" type="matrix" values="0 0 0 0 0 0 0 0 0 0 0 0 0 0 0 0 0 0 127 0" result="hardAlpha"/>
			<feOffset dx="4" dy="0"/>
			<feGaussianBlur stdDeviation="1"/>
			<feComposite in2="hardAlpha" operator="out" k2="-1" k3="1"/>
			<feColorMatrix type="matrix" values="0 0 0 0 0 0 0 0 0 0 0 0 0 0 0 0 0 0 0.2 0"/>
			<feBlend mode="normal" in2="BackgroundImageFix" result="effect_dropShadow_1"/>
			<feBlend mode="normal" in="SourceGraphic" in2="effect_dropShadow_1" result="shape"/>
		</filter>
		<clipPath id="clip71_373">
			<rect id="bankaN2" width="32.000000" height="49.000000" fill="white" fill-opacity="0"/>
		</clipPath>
	</defs>
	<rect id="bankaN2" width="32.000000" height="49.000000" fill="#FFFFFF" fill-opacity="0"/>
	<g clip-path="url(#clip71_373)">
		<g filter="url(#filter_71_374_dd)">
			<path id="Прямоугольник 32" d="M1.05 9.1C1.71 11.43 7.34 12.99 13.64 12.99C19.93 12.99 25.57 11.43 26.23 9.1C26.89 6.77 27.55 44.88 26.23 45.66C24.91 46.44 21.26 48 14.97 48C8.67 48 3.04 47.22 1.05 45.66C-0.94 44.11 0.38 6.77 1.05 9.1Z" fill="#558382" fill-opacity="1.000000" fill-rule="evenodd"/>
			<path id="Прямоугольник 32" d="M26.23 45.66C24.91 46.44 21.26 48 14.97 48C8.67 48 3.04 47.22 1.05 45.66C-0.94 44.11 0.38 6.77 1.05 9.1C1.71 11.43 7.34 12.99 13.64 12.99C19.93 12.99 25.57 11.43 26.23 9.1C26.89 6.77 27.55 44.88 26.23 45.66Z" stroke="#444343" stroke-opacity="1.000000" stroke-width="0.300000"/>
		</g>
		<ellipse id="Эллипс 15" cx="5.305664" cy="43.351196" rx="0.416667" ry="0.414634" fill="#A7B7B0" fill-opacity="1.000000"/>
		<ellipse id="Эллипс 15" cx="19.750000" cy="33.317078" rx="0.416667" ry="0.414634" fill="#A7B7B0" fill-opacity="1.000000"/>
		<ellipse id="Эллипс 15" cx="22.157471" cy="40.199951" rx="0.416667" ry="0.414634" fill="#A7B7B0" fill-opacity="1.000000"/>
		<ellipse id="Эллипс 15" cx="14.379883" cy="43.351196" rx="0.416667" ry="0.414634" fill="#A7B7B0" fill-opacity="1.000000"/>
		<ellipse id="Эллипс 15" cx="4.009277" cy="37.048767" rx="0.416667" ry="0.414634" fill="#A7B7B0" fill-opacity="1.000000"/>
		<ellipse id="Эллипс 15" cx="23.453613" cy="30.746338" rx="0.416667" ry="0.414634" fill="#A7B7B0" fill-opacity="1.000000"/>
		<ellipse id="Эллипс 15" cx="20.861084" cy="26.019470" rx="0.416667" ry="0.414634" fill="#A7B7B0" fill-opacity="1.000000"/>
		<ellipse id="Эллипс 15" cx="18.916748" cy="29.170715" rx="0.416667" ry="0.414634" fill="#A7B7B0" fill-opacity="1.000000"/>
		<ellipse id="Эллипс 15" cx="1.416748" cy="27.595093" rx="0.416667" ry="0.414634" fill="#A7B7B0" fill-opacity="1.000000"/>
		<ellipse id="Эллипс 15" cx="2.713135" cy="21.292664" rx="0.416667" ry="0.414634" fill="#A7B7B0" fill-opacity="1.000000"/>
		<ellipse id="Эллипс 15" cx="17.250000" cy="36.634094" rx="0.416667" ry="0.414634" fill="#A7B7B0" fill-opacity="1.000000"/>
		<ellipse id="Эллипс 15" cx="5.305664" cy="32.321899" rx="0.416667" ry="0.414634" fill="#A7B7B0" fill-opacity="1.000000"/>
		<ellipse id="Эллипс 15" cx="23.453613" cy="19.717041" rx="0.416667" ry="0.414634" fill="#A7B7B0" fill-opacity="1.000000"/>
		<ellipse id="Эллипс 15" cx="23.453613" cy="13.414612" rx="0.416667" ry="0.414634" fill="#A7B7B0" fill-opacity="1.000000"/>
		<ellipse id="Эллипс 15" cx="18.268555" cy="13.414612" rx="0.416667" ry="0.414634" fill="#A7B7B0" fill-opacity="1.000000"/>
		<ellipse id="Эллипс 15" cx="12.250000" cy="16.731689" rx="0.416667" ry="0.414634" fill="#A7B7B0" fill-opacity="1.000000"/>
		<ellipse id="Эллипс 15" cx="7.898193" cy="14.990234" rx="0.416667" ry="0.414634" fill="#A7B7B0" fill-opacity="1.000000"/>
		<ellipse id="Эллипс 15" cx="2.713135" cy="13.414612" rx="0.416667" ry="0.414634" fill="#A7B7B0" fill-opacity="1.000000"/>
		<ellipse id="Эллипс 15" cx="13.083496" cy="39.121948" rx="0.416667" ry="0.414634" fill="#A7B7B0" fill-opacity="1.000000"/>
		<ellipse id="Эллипс 15" cx="9.750000" cy="45.756042" rx="0.416667" ry="0.414634" fill="#A7B7B0" fill-opacity="1.000000"/>
		<ellipse id="Эллипс 15" cx="17.250000" cy="46.585327" rx="0.416667" ry="0.414634" fill="#A7B7B0" fill-opacity="1.000000"/>
		<ellipse id="Эллипс 15" cx="23.083496" cy="44.926819" rx="0.416667" ry="0.414634" fill="#A7B7B0" fill-opacity="1.000000"/>
		<ellipse id="Эллипс 15" cx="8.916748" cy="39.951172" rx="0.416667" ry="0.414634" fill="#A7B7B0" fill-opacity="1.000000"/>
		<ellipse id="Эллипс 15" cx="17.250000" cy="39.951172" rx="0.416667" ry="0.414634" fill="#A7B7B0" fill-opacity="1.000000"/>
		<ellipse id="Эллипс 15" cx="25.583496" cy="35.804871" rx="0.416667" ry="0.414634" fill="#A7B7B0" fill-opacity="1.000000"/>
		<ellipse id="Эллипс 15" cx="24.750000" cy="25.853638" rx="0.416667" ry="0.414634" fill="#A7B7B0" fill-opacity="1.000000"/>
		<ellipse id="Эллипс 15" cx="8.083496" cy="20.048767" rx="0.416667" ry="0.414634" fill="#A7B7B0" fill-opacity="1.000000"/>
		<ellipse id="Эллипс 15" cx="2.250000" cy="35.804871" rx="0.416667" ry="0.414634" fill="#A7B7B0" fill-opacity="1.000000"/>
		<ellipse id="Эллипс 15" cx="3.916748" cy="41.609741" rx="0.416667" ry="0.414634" fill="#A7B7B0" fill-opacity="1.000000"/>
		<ellipse id="Эллипс 15" cx="6.416748" cy="27.512146" rx="0.416667" ry="0.414634" fill="#A7B7B0" fill-opacity="1.000000"/>
		<ellipse id="Эллипс 15" cx="3.916748" cy="18.390198" rx="0.416667" ry="0.414634" fill="#A7B7B0" fill-opacity="1.000000"/>
		<ellipse id="Эллипс 15" cx="22.250000" cy="16.731689" rx="0.416667" ry="0.414634" fill="#A7B7B0" fill-opacity="1.000000"/>
		<ellipse id="Эллипс 15" cx="17.250000" cy="17.560974" rx="0.416667" ry="0.414634" fill="#A7B7B0" fill-opacity="1.000000"/>
		<g filter="url(#filter_71_409_dd)">
			<path id="Эллипс 14" d="M0.09 9.07C0.09 7.67 -0.81 5.05 2.91 4.35C4.98 3.96 10.81 5.14 13.46 5.14C20.84 5.14 28.23 2 26.82 9.07C26.82 11.24 20.84 13 13.46 13C6.08 13 0.09 11.24 0.09 9.07Z" fill="#AEB078" fill-opacity="1.000000" fill-rule="evenodd"/>
			<path id="Эллипс 14" d="M26.82 9.07C26.82 11.24 20.84 13 13.46 13C6.08 13 0.09 11.24 0.09 9.07C0.09 8.85 0.07 8.61 0.05 8.36C-0.08 6.92 -0.25 4.94 2.91 4.35C4.12 4.12 6.62 4.43 9.01 4.73C10.71 4.94 12.36 5.14 13.46 5.14C15.33 5.14 17.2 4.94 18.92 4.75C24.02 4.2 27.87 3.79 26.82 9.07ZM26.52 9.04L26.52 9.07L26.52 9.07C26.52 9.5 26.21 9.92 25.6 10.35C24.95 10.8 24.02 11.2 22.82 11.56C21.61 11.91 20.2 12.19 18.62 12.39C16.98 12.59 15.26 12.7 13.46 12.7C11.66 12.7 9.93 12.59 8.29 12.39C6.71 12.19 5.31 11.91 4.09 11.56C2.89 11.2 1.96 10.8 1.31 10.35C0.7 9.92 0.39 9.5 0.39 9.07L0.39 9.07C0.39 8.92 0.38 8.67 0.35 8.33C0.33 8.09 0.31 7.91 0.31 7.78C0.29 7.57 0.29 7.39 0.3 7.22C0.31 6.81 0.39 6.46 0.52 6.16C0.56 6.08 0.6 6 0.65 5.92C0.8 5.67 1.01 5.45 1.28 5.27C1.7 4.99 2.26 4.78 2.96 4.65C3.47 4.55 4.32 4.55 5.49 4.64C5.97 4.68 6.53 4.74 7.18 4.81C7.58 4.85 8.17 4.93 8.97 5.02C10.1 5.16 10.92 5.26 11.43 5.31C12.28 5.4 12.96 5.44 13.46 5.44C14.29 5.44 15.23 5.4 16.27 5.31C16.88 5.26 17.78 5.18 18.95 5.05C19.79 4.96 20.4 4.9 20.79 4.86C21.44 4.8 22 4.77 22.46 4.75C23.59 4.71 24.46 4.8 25.08 5.01C25.42 5.12 25.71 5.27 25.93 5.46C26 5.52 26.07 5.59 26.13 5.66C26.27 5.82 26.38 6 26.47 6.2C26.75 6.86 26.77 7.8 26.53 9.01L26.52 9.04Z" fill="#444443" fill-opacity="1.000000" fill-rule="evenodd"/>
			<ellipse id="Эллипс 14" cx="13.461670" cy="5.928467" rx="13.364669" ry="3.928481" fill="#AEB078" fill-opacity="1.000000"/>
			<ellipse id="Эллипс 14" cx="13.461670" cy="5.928467" rx="13.214669" ry="3.778481" stroke="#444443" stroke-opacity="1.000000" stroke-width="0.300000"/>
		</g>
		<path id="n" d="M6.22 34.6Q6.52 35 7.35 35L9.94 34.91L12.35 35Q13.14 35 13.47 34.7Q13.7 34.49 13.77 34.24Q13.8 34.14 13.8 34.02Q13.8 33.72 13.66 33.5Q13.31 32.94 12.08 32.94L11.16 32.94L11.16 27Q11.4 26.04 11.92 25.27Q12.34 24.65 12.93 24.15Q14.07 23.2 15.29 23.06Q15.51 23.03 15.73 23.03Q16.44 23.03 16.94 23.24Q17.1 23.3 17.24 23.38Q18.39 24.12 18.39 26.68L18.39 32.94L17.2 32.94Q16.48 32.94 16.07 33.22Q15.86 33.35 15.76 33.55Q15.66 33.74 15.66 33.98Q15.66 34.36 15.84 34.6Q16.15 35 16.97 35L19.57 34.91L21.98 35Q22.77 35 23.1 34.7Q23.33 34.49 23.4 34.24Q23.42 34.14 23.42 34.02Q23.42 33.72 23.29 33.5Q22.94 32.94 21.7 32.94L20.79 32.94L20.79 25.79Q20.79 23.52 19.68 22.18Q19.66 22.16 19.63 22.13Q18.52 20.84 15.92 20.84Q15.46 20.84 15.02 20.92Q14.02 21.1 13.09 21.69Q12.05 22.34 11.46 23.27Q11.29 23.54 11.16 23.84L11.16 22.05Q11.16 21.22 10.76 20.91Q10.53 20.74 10.16 20.74Q9.64 20.74 8.97 20.91Q8.29 21.08 7.51 21.15Q6.49 21.25 6.18 21.77Q6.03 22.01 6.03 22.33Q6.03 22.65 6.17 22.88Q6.25 23.01 6.38 23.11Q6.54 23.25 6.73 23.32Q6.93 23.4 7.17 23.4Q7.62 23.4 7.93 23.31Q8.25 23.21 8.44 23.21Q8.5 23.21 8.54 23.23Q8.8 23.34 8.8 24.03L8.8 32.94L7.58 32.94Q6.85 32.94 6.44 33.22Q6.24 33.35 6.14 33.55Q6.03 33.74 6.03 33.98Q6.03 34.36 6.22 34.6Z" fill="#FFFFFF" fill-opacity="1.000000" fill-rule="evenodd"/>
	</g>
</svg>
