<svg width="32.000000" height="49.000000" viewBox="0 0 32 49" fill="none" xmlns="http://www.w3.org/2000/svg" xmlns:xlink="http://www.w3.org/1999/xlink">
	<desc>
			Created with Pixso.
	</desc>
	<defs>
		<filter id="filter_71_414_dd" x="-0.151855" y="5.849792" width="34.302979" height="45.300232" filterUnits="userSpaceOnUse" color-interpolation-filters="sRGB">
			<feFlood flood-opacity="0" result="BackgroundImageFix"/>
			<feColorMatrix in="SourceAlpha" type="matrix" values="0 0 0 0 0 0 0 0 0 0 0 0 0 0 0 0 0 0 127 0" result="hardAlpha"/>
			<feOffset dx="4" dy="0"/>
			<feGaussianBlur stdDeviation="1"/>
			<feComposite in2="hardAlpha" operator="out" k2="-1" k3="1"/>
			<feColorMatrix type="matrix" values="0 0 0 0 0 0 0 0 0 0 0 0 0 0 0 0 0 0 0.2 0"/>
			<feBlend mode="normal" in2="BackgroundImageFix" result="effect_dropShadow_1"/>
			<feBlend mode="normal" in="SourceGraphic" in2="effect_dropShadow_1" result="shape"/>
		</filter>
		<filter id="filter_71_449_dd" x="0.000000" y="-1.000000" width="34.000000" height="17.000000" filterUnits="userSpaceOnUse" color-interpolation-filters="sRGB">
			<feFlood flood-opacity="0" result="BackgroundImageFix"/>
			<feColorMatrix in="SourceAlpha" type="matrix" values="0 0 0 0 0 0 0 0 0 0 0 0 0 0 0 0 0 0 127 0" result="hardAlpha"/>
			<feOffset dx="4" dy="0"/>
			<feGaussianBlur stdDeviation="1"/>
			<feComposite in2="hardAlpha" operator="out" k2="-1" k3="1"/>
			<feColorMatrix type="matrix" values="0 0 0 0 0 0 0 0 0 0 0 0 0 0 0 0 0 0 0.2 0"/>
			<feBlend mode="normal" in2="BackgroundImageFix" result="effect_dropShadow_1"/>
			<feBlend mode="normal" in="SourceGraphic" in2="effect_dropShadow_1" result="shape"/>
		</filter>
		<clipPath id="clip71_413">
			<rect id="банка10" width="32.000000" height="49.000000" fill="white" fill-opacity="0"/>
		</clipPath>
	</defs>
	<rect id="банка10" width="32.000000" height="49.000000" fill="#FFFFFF" fill-opacity="0"/>
	<g clip-path="url(#clip71_413)">
		<g filter="url(#filter_71_414_dd)">
			<path id="Прямоугольник 32" d="M1.05 9.1C1.71 11.43 7.34 12.99 13.64 12.99C19.93 12.99 25.57 11.43 26.23 9.1C26.89 6.77 27.55 44.88 26.23 45.66C24.91 46.44 21.26 48 14.97 48C8.67 48 3.04 47.22 1.05 45.66C-0.94 44.11 0.38 6.77 1.05 9.1Z" fill="#BB9235" fill-opacity="1.000000" fill-rule="evenodd"/>
			<path id="Прямоугольник 32" d="M26.23 45.66C24.91 46.44 21.26 48 14.97 48C8.67 48 3.04 47.22 1.05 45.66C-0.94 44.11 0.38 6.77 1.05 9.1C1.71 11.43 7.34 12.99 13.64 12.99C19.93 12.99 25.57 11.43 26.23 9.1C26.89 6.77 27.55 44.88 26.23 45.66Z" stroke="#444343" stroke-opacity="1.000000" stroke-width="0.300000"/>
		</g>
		<ellipse id="Эллипс 15" cx="5.305664" cy="43.351196" rx="0.416667" ry="0.414634" fill="#644646" fill-opacity="1.000000"/>
		<ellipse id="Эллипс 15" cx="19.750000" cy="33.317078" rx="0.416667" ry="0.414634" fill="#644646" fill-opacity="1.000000"/>
		<ellipse id="Эллипс 15" cx="22.157471" cy="40.199951" rx="0.416667" ry="0.414634" fill="#644646" fill-opacity="1.000000"/>
		<ellipse id="Эллипс 15" cx="14.379883" cy="43.351196" rx="0.416667" ry="0.414634" fill="#644646" fill-opacity="1.000000"/>
		<ellipse id="Эллипс 15" cx="4.009277" cy="37.048767" rx="0.416667" ry="0.414634" fill="#644646" fill-opacity="1.000000"/>
		<ellipse id="Эллипс 15" cx="23.453613" cy="30.746338" rx="0.416667" ry="0.414634" fill="#644646" fill-opacity="1.000000"/>
		<ellipse id="Эллипс 15" cx="20.861084" cy="26.019470" rx="0.416667" ry="0.414634" fill="#644646" fill-opacity="1.000000"/>
		<ellipse id="Эллипс 15" cx="18.916748" cy="29.170715" rx="0.416667" ry="0.414634" fill="#644646" fill-opacity="1.000000"/>
		<ellipse id="Эллипс 15" cx="1.416748" cy="27.595093" rx="0.416667" ry="0.414634" fill="#644646" fill-opacity="1.000000"/>
		<ellipse id="Эллипс 15" cx="2.713135" cy="21.292664" rx="0.416667" ry="0.414634" fill="#644646" fill-opacity="1.000000"/>
		<ellipse id="Эллипс 15" cx="17.250000" cy="36.634094" rx="0.416667" ry="0.414634" fill="#644646" fill-opacity="1.000000"/>
		<ellipse id="Эллипс 15" cx="5.305664" cy="32.321899" rx="0.416667" ry="0.414634" fill="#644646" fill-opacity="1.000000"/>
		<ellipse id="Эллипс 15" cx="23.453613" cy="19.717041" rx="0.416667" ry="0.414634" fill="#644646" fill-opacity="1.000000"/>
		<ellipse id="Эллипс 15" cx="23.453613" cy="13.414612" rx="0.416667" ry="0.414634" fill="#644646" fill-opacity="1.000000"/>
		<ellipse id="Эллипс 15" cx="18.268555" cy="13.414612" rx="0.416667" ry="0.414634" fill="#644646" fill-opacity="1.000000"/>
		<ellipse id="Эллипс 15" cx="12.250000" cy="16.731689" rx="0.416667" ry="0.414634" fill="#644646" fill-opacity="1.000000"/>
		<ellipse id="Эллипс 15" cx="7.898193" cy="14.990234" rx="0.416667" ry="0.414634" fill="#644646" fill-opacity="1.000000"/>
		<ellipse id="Эллипс 15" cx="2.713135" cy="13.414612" rx="0.416667" ry="0.414634" fill="#644646" fill-opacity="1.000000"/>
		<ellipse id="Эллипс 15" cx="13.083496" cy="39.121948" rx="0.416667" ry="0.414634" fill="#644646" fill-opacity="1.000000"/>
		<ellipse id="Эллипс 15" cx="9.750000" cy="45.756042" rx="0.416667" ry="0.414634" fill="#644646" fill-opacity="1.000000"/>
		<ellipse id="Эллипс 15" cx="17.250000" cy="46.585327" rx="0.416667" ry="0.414634" fill="#644646" fill-opacity="1.000000"/>
		<ellipse id="Эллипс 15" cx="23.083496" cy="44.926819" rx="0.416667" ry="0.414634" fill="#644646" fill-opacity="1.000000"/>
		<ellipse id="Эллипс 15" cx="8.916748" cy="39.951172" rx="0.416667" ry="0.414634" fill="#644646" fill-opacity="1.000000"/>
		<ellipse id="Эллипс 15" cx="17.250000" cy="39.951172" rx="0.416667" ry="0.414634" fill="#644646" fill-opacity="1.000000"/>
		<ellipse id="Эллипс 15" cx="25.583496" cy="35.804871" rx="0.416667" ry="0.414634" fill="#644646" fill-opacity="1.000000"/>
		<ellipse id="Эллипс 15" cx="24.750000" cy="25.853638" rx="0.416667" ry="0.414634" fill="#644646" fill-opacity="1.000000"/>
		<ellipse id="Эллипс 15" cx="8.083496" cy="20.048767" rx="0.416667" ry="0.414634" fill="#644646" fill-opacity="1.000000"/>
		<ellipse id="Эллипс 15" cx="2.250000" cy="35.804871" rx="0.416667" ry="0.414634" fill="#644646" fill-opacity="1.000000"/>
		<ellipse id="Эллипс 15" cx="3.916748" cy="41.609741" rx="0.416667" ry="0.414634" fill="#644646" fill-opacity="1.000000"/>
		<ellipse id="Эллипс 15" cx="6.416748" cy="27.512146" rx="0.416667" ry="0.414634" fill="#644646" fill-opacity="1.000000"/>
		<ellipse id="Эллипс 15" cx="3.916748" cy="18.390198" rx="0.416667" ry="0.414634" fill="#644646" fill-opacity="1.000000"/>
		<ellipse id="Эллипс 15" cx="22.250000" cy="16.731689" rx="0.416667" ry="0.414634" fill="#644646" fill-opacity="1.000000"/>
		<ellipse id="Эллипс 15" cx="17.250000" cy="17.560974" rx="0.416667" ry="0.414634" fill="#644646" fill-opacity="1.000000"/>
		<g filter="url(#filter_71_449_dd)">
			<path id="Эллипс 14" d="M0.09 9.07C0.09 7.67 -0.81 5.05 2.91 4.35C4.98 3.96 10.81 5.14 13.46 5.14C20.84 5.14 28.23 2 26.82 9.07C26.82 11.24 20.84 13 13.46 13C6.08 13 0.09 11.24 0.09 9.07Z" fill="#709773" fill-opacity="1.000000" fill-rule="evenodd"/>
			<path id="Эллипс 14" d="M26.82 9.07C26.82 11.24 20.84 13 13.46 13C6.08 13 0.09 11.24 0.09 9.07C0.09 8.85 0.07 8.61 0.05 8.36C-0.08 6.92 -0.25 4.94 2.91 4.35C4.12 4.12 6.62 4.43 9.01 4.73C10.71 4.94 12.36 5.14 13.46 5.14C15.33 5.14 17.2 4.94 18.92 4.75C24.02 4.2 27.87 3.79 26.82 9.07ZM26.52 9.04L26.52 9.07L26.52 9.07C26.52 9.5 26.21 9.92 25.6 10.35C24.95 10.8 24.02 11.2 22.82 11.56C21.61 11.91 20.2 12.19 18.62 12.39C16.98 12.59 15.26 12.7 13.46 12.7C11.66 12.7 9.93 12.59 8.29 12.39C6.71 12.19 5.31 11.91 4.09 11.56C2.89 11.2 1.96 10.8 1.31 10.35C0.7 9.92 0.39 9.5 0.39 9.07L0.39 9.07C0.39 8.92 0.38 8.67 0.35 8.33C0.33 8.09 0.31 7.91 0.31 7.78C0.29 7.57 0.29 7.39 0.3 7.22C0.31 6.81 0.39 6.46 0.52 6.16C0.56 6.08 0.6 6 0.65 5.92C0.8 5.67 1.01 5.45 1.28 5.27C1.7 4.99 2.26 4.78 2.96 4.65C3.47 4.55 4.32 4.55 5.49 4.64C5.97 4.68 6.53 4.74 7.18 4.81C7.58 4.85 8.17 4.93 8.97 5.02C10.1 5.16 10.92 5.26 11.43 5.31C12.28 5.4 12.96 5.44 13.46 5.44C14.29 5.44 15.23 5.4 16.27 5.31C16.88 5.26 17.78 5.18 18.95 5.05C19.79 4.96 20.4 4.9 20.79 4.86C21.44 4.8 22 4.77 22.46 4.75C23.59 4.71 24.46 4.8 25.08 5.01C25.42 5.12 25.71 5.27 25.93 5.46C26 5.52 26.07 5.59 26.13 5.66C26.27 5.82 26.38 6 26.47 6.2C26.75 6.86 26.77 7.8 26.53 9.01L26.52 9.04Z" fill="#444443" fill-opacity="1.000000" fill-rule="evenodd"/>
			<ellipse id="Эллипс 14" cx="13.461670" cy="5.928467" rx="13.364669" ry="3.928481" fill="#709773" fill-opacity="1.000000"/>
			<ellipse id="Эллипс 14" cx="13.461670" cy="5.928467" rx="13.214669" ry="3.778481" stroke="#444443" stroke-opacity="1.000000" stroke-width="0.300000"/>
		</g>
		<path id="a" d="M16.13 30.84Q16.18 30.79 16.22 30.74Q16.57 31.74 17.23 32.03Q17.51 32.16 17.84 32.16Q18.53 32.16 18.79 31.82Q18.96 31.61 18.96 31.26Q18.96 31.18 18.95 31.1Q18.87 30.72 18.39 30.42Q18.38 30.41 18.37 30.4Q18.07 30.19 17.95 29.71Q17.83 29.21 17.83 27.75L17.83 24.97Q17.83 23.92 17.52 23.14Q17.25 22.48 16.78 22.01Q15.65 20.88 13.39 20.88Q11.5 20.88 10.27 21.6Q9.19 22.22 9.06 23.01Q9.04 23.13 9.04 23.25Q9.04 23.84 9.33 24.11Q9.58 24.35 10.06 24.35Q10.3 24.35 10.5 24.25Q10.65 24.17 10.76 24.06Q11 23.85 11.11 23.51Q11.15 23.36 11.23 23.23Q11.67 22.54 13.2 22.54Q14.05 22.54 14.56 22.69Q15.09 22.84 15.42 23.18Q15.98 23.75 15.98 24.86L15.98 26.04Q14.66 25.72 13.25 25.72Q11.84 25.72 10.95 25.96Q9.39 26.39 8.75 27.4Q8.32 28.09 8.32 29.05Q8.32 29.85 8.65 30.46Q8.92 30.95 9.4 31.32Q10.48 32.16 12.3 32.16Q14.94 32.16 16.13 30.84ZM12.89 27.19Q14.24 27.19 15.98 27.53L15.98 29.07Q15.59 29.49 15.12 29.79Q14.03 30.48 12.51 30.48Q11.44 30.48 10.85 30.05Q10.5 29.78 10.36 29.44Q10.26 29.21 10.26 28.93Q10.26 28.78 10.29 28.63Q10.41 28.14 10.9 27.73Q11.54 27.19 12.89 27.19Z" fill="#FFFFFF" fill-opacity="1.000000" fill-rule="evenodd"/>
	</g>
</svg>
