<svg width="31.000000" height="47.000000" viewBox="0 0 31 47" fill="none" xmlns="http://www.w3.org/2000/svg" xmlns:xlink="http://www.w3.org/1999/xlink">
	<desc>
			Created with Pixso.
	</desc>
	<defs>
		<filter id="filter_72_576_dd" x="-0.151855" y="3.849792" width="34.302979" height="45.300232" filterUnits="userSpaceOnUse" color-interpolation-filters="sRGB">
			<feFlood flood-opacity="0" result="BackgroundImageFix"/>
			<feColorMatrix in="SourceAlpha" type="matrix" values="0 0 0 0 0 0 0 0 0 0 0 0 0 0 0 0 0 0 127 0" result="hardAlpha"/>
			<feOffset dx="4" dy="0"/>
			<feGaussianBlur stdDeviation="1"/>
			<feComposite in2="hardAlpha" operator="out" k2="-1" k3="1"/>
			<feColorMatrix type="matrix" values="0 0 0 0 0 0 0 0 0 0 0 0 0 0 0 0 0 0 0.2 0"/>
			<feBlend mode="normal" in2="BackgroundImageFix" result="effect_dropShadow_1"/>
			<feBlend mode="normal" in="SourceGraphic" in2="effect_dropShadow_1" result="shape"/>
		</filter>
		<filter id="filter_72_613_dd" x="0.000000" y="-3.000000" width="34.000000" height="17.000000" filterUnits="userSpaceOnUse" color-interpolation-filters="sRGB">
			<feFlood flood-opacity="0" result="BackgroundImageFix"/>
			<feColorMatrix in="SourceAlpha" type="matrix" values="0 0 0 0 0 0 0 0 0 0 0 0 0 0 0 0 0 0 127 0" result="hardAlpha"/>
			<feOffset dx="4" dy="0"/>
			<feGaussianBlur stdDeviation="1"/>
			<feComposite in2="hardAlpha" operator="out" k2="-1" k3="1"/>
			<feColorMatrix type="matrix" values="0 0 0 0 0 0 0 0 0 0 0 0 0 0 0 0 0 0 0.2 0"/>
			<feBlend mode="normal" in2="BackgroundImageFix" result="effect_dropShadow_1"/>
			<feBlend mode="normal" in="SourceGraphic" in2="effect_dropShadow_1" result="shape"/>
		</filter>
		<clipPath id="clip72_575">
			<rect id="bankaSshort" width="31.000000" height="47.000000" fill="white" fill-opacity="0"/>
		</clipPath>
	</defs>
	<rect id="bankaSshort" width="31.000000" height="47.000000" fill="#FFFFFF" fill-opacity="0"/>
	<g clip-path="url(#clip72_575)">
		<g filter="url(#filter_72_576_dd)">
			<path id="Прямоугольник 32" d="M1.05 7.1C1.71 9.43 7.34 10.99 13.64 10.99C19.93 10.99 25.57 9.43 26.23 7.1C26.89 4.77 27.55 42.88 26.23 43.66C24.91 44.44 21.26 46 14.97 46C8.67 46 3.04 45.22 1.05 43.66C-0.94 42.11 0.38 4.77 1.05 7.1Z" fill="#586076" fill-opacity="1.000000" fill-rule="evenodd"/>
			<path id="Прямоугольник 32" d="M26.23 43.66C24.91 44.44 21.26 46 14.97 46C8.67 46 3.04 45.22 1.05 43.66C-0.94 42.11 0.38 4.77 1.05 7.1C1.71 9.43 7.34 10.99 13.64 10.99C19.93 10.99 25.57 9.43 26.23 7.1C26.89 4.77 27.55 42.88 26.23 43.66Z" stroke="#444343" stroke-opacity="1.000000" stroke-width="0.300000"/>
		</g>
		<ellipse id="Эллипс 15" cx="5.477783" cy="41.351196" rx="0.433333" ry="0.414634" fill="#22154A" fill-opacity="1.000000"/>
		<ellipse id="Эллипс 15" cx="20.500000" cy="31.317078" rx="0.433333" ry="0.414634" fill="#22154A" fill-opacity="1.000000"/>
		<ellipse id="Эллипс 15" cx="23.003662" cy="38.199951" rx="0.433333" ry="0.414634" fill="#22154A" fill-opacity="1.000000"/>
		<ellipse id="Эллипс 15" cx="14.915039" cy="41.351196" rx="0.433333" ry="0.414634" fill="#22154A" fill-opacity="1.000000"/>
		<ellipse id="Эллипс 15" cx="4.129639" cy="35.048767" rx="0.433333" ry="0.414634" fill="#22154A" fill-opacity="1.000000"/>
		<ellipse id="Эллипс 15" cx="9.233398" cy="34.634094" rx="0.433333" ry="0.414634" fill="#22154A" fill-opacity="1.000000"/>
		<ellipse id="Эллипс 15" cx="24.351807" cy="28.746338" rx="0.433333" ry="0.414634" fill="#22154A" fill-opacity="1.000000"/>
		<ellipse id="Эллипс 15" cx="21.655518" cy="24.019470" rx="0.433333" ry="0.414634" fill="#22154A" fill-opacity="1.000000"/>
		<ellipse id="Эллипс 15" cx="19.633301" cy="27.170715" rx="0.433333" ry="0.414634" fill="#22154A" fill-opacity="1.000000"/>
		<ellipse id="Эллипс 15" cx="1.433350" cy="25.595093" rx="0.433333" ry="0.414634" fill="#22154A" fill-opacity="1.000000"/>
		<ellipse id="Эллипс 15" cx="2.781494" cy="19.292664" rx="0.433333" ry="0.414634" fill="#22154A" fill-opacity="1.000000"/>
		<ellipse id="Эллипс 15" cx="17.899902" cy="34.634094" rx="0.433333" ry="0.414634" fill="#22154A" fill-opacity="1.000000"/>
		<ellipse id="Эллипс 15" cx="5.477783" cy="30.321899" rx="0.433333" ry="0.414634" fill="#22154A" fill-opacity="1.000000"/>
		<ellipse id="Эллипс 15" cx="24.351807" cy="17.717041" rx="0.433333" ry="0.414634" fill="#22154A" fill-opacity="1.000000"/>
		<ellipse id="Эллипс 15" cx="24.351807" cy="11.414612" rx="0.433333" ry="0.414634" fill="#22154A" fill-opacity="1.000000"/>
		<ellipse id="Эллипс 15" cx="18.959229" cy="11.414612" rx="0.433333" ry="0.414634" fill="#22154A" fill-opacity="1.000000"/>
		<ellipse id="Эллипс 15" cx="12.699951" cy="14.731689" rx="0.433333" ry="0.414634" fill="#22154A" fill-opacity="1.000000"/>
		<ellipse id="Эллипс 15" cx="8.174072" cy="12.990234" rx="0.433333" ry="0.414634" fill="#22154A" fill-opacity="1.000000"/>
		<ellipse id="Эллипс 15" cx="2.781494" cy="11.414612" rx="0.433333" ry="0.414634" fill="#22154A" fill-opacity="1.000000"/>
		<ellipse id="Эллипс 15" cx="16.166748" cy="18.878052" rx="0.433333" ry="0.414634" fill="#22154A" fill-opacity="1.000000"/>
		<ellipse id="Эллипс 15" cx="13.566650" cy="37.121948" rx="0.433333" ry="0.414634" fill="#22154A" fill-opacity="1.000000"/>
		<ellipse id="Эллипс 15" cx="10.100098" cy="43.756042" rx="0.433333" ry="0.414634" fill="#22154A" fill-opacity="1.000000"/>
		<ellipse id="Эллипс 15" cx="17.899902" cy="44.585327" rx="0.433333" ry="0.414634" fill="#22154A" fill-opacity="1.000000"/>
		<ellipse id="Эллипс 15" cx="23.966797" cy="42.926819" rx="0.433333" ry="0.414634" fill="#22154A" fill-opacity="1.000000"/>
		<ellipse id="Эллипс 15" cx="9.233398" cy="37.951172" rx="0.433333" ry="0.414634" fill="#22154A" fill-opacity="1.000000"/>
		<ellipse id="Эллипс 15" cx="17.899902" cy="37.951172" rx="0.433333" ry="0.414634" fill="#22154A" fill-opacity="1.000000"/>
		<ellipse id="Эллипс 15" cx="26.566650" cy="33.804871" rx="0.433333" ry="0.414634" fill="#22154A" fill-opacity="1.000000"/>
		<ellipse id="Эллипс 15" cx="25.699951" cy="23.853638" rx="0.433333" ry="0.414634" fill="#22154A" fill-opacity="1.000000"/>
		<ellipse id="Эллипс 15" cx="8.366699" cy="18.048767" rx="0.433333" ry="0.414634" fill="#22154A" fill-opacity="1.000000"/>
		<ellipse id="Эллипс 15" cx="2.300049" cy="33.804871" rx="0.433333" ry="0.414634" fill="#22154A" fill-opacity="1.000000"/>
		<ellipse id="Эллипс 15" cx="4.033447" cy="39.609741" rx="0.433333" ry="0.414634" fill="#22154A" fill-opacity="1.000000"/>
		<ellipse id="Эллипс 15" cx="6.633301" cy="25.512146" rx="0.433333" ry="0.414634" fill="#22154A" fill-opacity="1.000000"/>
		<ellipse id="Эллипс 15" cx="4.033447" cy="16.390198" rx="0.433333" ry="0.414634" fill="#22154A" fill-opacity="1.000000"/>
		<ellipse id="Эллипс 15" cx="23.100098" cy="14.731689" rx="0.433333" ry="0.414634" fill="#22154A" fill-opacity="1.000000"/>
		<ellipse id="Эллипс 15" cx="17.899902" cy="15.560974" rx="0.433333" ry="0.414634" fill="#22154A" fill-opacity="1.000000"/>
		<g filter="url(#filter_72_613_dd)">
			<path id="Эллипс 14" d="M0.09 7.07C0.09 5.67 -0.81 3.05 2.91 2.35C4.98 1.96 10.81 3.14 13.46 3.14C20.84 3.14 28.23 6.1e-5 26.82 7.07C26.82 9.24 20.84 11 13.46 11C6.08 11 0.09 9.24 0.09 7.07Z" fill="#C24040" fill-opacity="1.000000" fill-rule="evenodd"/>
			<path id="Эллипс 14" d="M26.82 7.07C26.82 9.24 20.84 11 13.46 11C6.08 11 0.09 9.24 0.09 7.07C0.09 6.85 0.07 6.61 0.05 6.36C-0.08 4.92 -0.25 2.94 2.91 2.35C4.12 2.12 6.62 2.43 9.01 2.73C10.71 2.94 12.36 3.14 13.46 3.14C15.33 3.14 17.2 2.94 18.92 2.75C24.02 2.2 27.87 1.79 26.82 7.07ZM26.52 7.04L26.52 7.07L26.52 7.07C26.52 7.5 26.21 7.92 25.6 8.35C24.95 8.8 24.02 9.2 22.82 9.56C21.61 9.91 20.2 10.19 18.62 10.39C16.98 10.59 15.26 10.7 13.46 10.7C11.66 10.7 9.93 10.59 8.29 10.39C6.71 10.19 5.31 9.91 4.09 9.56C2.89 9.2 1.96 8.8 1.31 8.35C0.7 7.92 0.39 7.5 0.39 7.07L0.39 7.07C0.39 6.92 0.38 6.67 0.35 6.33C0.33 6.09 0.31 5.91 0.31 5.78C0.29 5.57 0.29 5.39 0.3 5.22C0.31 4.81 0.39 4.46 0.52 4.16C0.56 4.08 0.6 4 0.65 3.92C0.8 3.67 1.01 3.45 1.28 3.27C1.7 2.99 2.26 2.78 2.96 2.65C3.47 2.55 4.32 2.55 5.49 2.64C5.97 2.68 6.53 2.74 7.18 2.81C7.58 2.85 8.17 2.93 8.97 3.02C10.1 3.16 10.92 3.26 11.43 3.31C12.28 3.4 12.96 3.44 13.46 3.44C14.29 3.44 15.23 3.4 16.27 3.31C16.88 3.26 17.78 3.18 18.95 3.05C19.79 2.96 20.4 2.9 20.79 2.86C21.44 2.8 22 2.77 22.46 2.75C23.59 2.71 24.46 2.8 25.08 3.01C25.42 3.12 25.71 3.27 25.93 3.46C26 3.52 26.07 3.59 26.13 3.66C26.27 3.82 26.38 4 26.47 4.2C26.75 4.86 26.77 5.8 26.53 7.01L26.52 7.04Z" fill="#444343" fill-opacity="1.000000" fill-rule="evenodd"/>
			<ellipse id="Эллипс 14" cx="13.461670" cy="3.928467" rx="13.364669" ry="3.928481" fill="#C24040" fill-opacity="1.000000"/>
			<ellipse id="Эллипс 14" cx="13.461670" cy="3.928467" rx="13.214669" ry="3.778481" stroke="#444343" stroke-opacity="1.000000" stroke-width="0.300000"/>
		</g>
		<path id="s" d="M11.03 34.01Q12.13 34.2 13.32 34.2Q15.62 34.2 17.3 33.18Q17.52 33.04 17.74 32.88Q18.52 32.31 18.96 31.55Q19.54 30.54 19.54 29.2Q19.54 28.17 19.08 27.43Q18.72 26.83 18.06 26.42Q16.58 25.49 13.3 25.3Q11.59 25.2 10.78 24.68Q10.69 24.63 10.62 24.56Q10.34 24.27 10.34 23.71Q10.34 23.6 10.37 23.48Q10.49 22.93 11.2 22.5Q12.05 21.99 13.47 21.99Q14.9 21.99 15.47 22.18Q15.79 22.29 16.03 22.49Q16.21 22.66 16.34 22.88Q16.88 23.77 17.53 23.87Q17.61 23.88 17.7 23.88Q17.97 23.88 18.16 23.76Q18.26 23.7 18.33 23.62Q18.42 23.53 18.47 23.42Q18.57 23.22 18.57 22.98Q18.57 22.75 18.52 22.55Q18.47 22.4 18.4 22.26Q18.23 21.92 17.53 21.03Q16.84 20.13 16.59 19.65Q16.34 19.16 16.15 18.98Q16.15 18.98 16.14 18.97Q15.95 18.81 15.61 18.81Q15.39 18.81 15.22 18.89Q15.12 18.95 15.03 19.03Q14.84 19.22 14.81 19.43Q14.8 19.47 14.8 19.52Q14.8 19.78 14.94 20.16Q14.32 20.05 13.71 20.05Q10.79 20.05 9.28 21.21Q8.03 22.16 7.82 23.31Q7.77 23.55 7.77 23.8Q7.77 24.63 8.11 25.28Q8.73 26.46 10.48 27.05Q11.41 27.35 13.36 27.47Q15.32 27.6 16.25 28.04Q16.69 28.25 16.92 28.6Q17.18 28.99 17.18 29.55Q17.18 29.9 17.07 30.21Q17.02 30.38 16.93 30.54Q16.82 30.75 16.67 30.93Q15.77 32.04 13.5 32.04Q11.71 32.04 10.88 31.64Q10.04 31.25 9.43 30.05Q8.87 28.94 8.18 28.86Q8.13 28.85 8.07 28.85Q7.93 28.85 7.8 28.89Q7.58 28.95 7.38 29.11Q7.33 29.15 7.3 29.19Q7.06 29.45 7.06 29.92Q7.06 30.47 7.98 31.83Q8.25 32.25 8.61 32.86Q8.8 33.18 8.89 33.52Q8.98 33.84 8.98 34.19Q8.98 34.56 9.16 34.76Q9.38 34.99 9.85 34.99Q9.87 34.99 9.89 34.99Q10.49 34.96 11.03 34.01Z" fill="#FFFFFF" fill-opacity="1.000000" fill-rule="evenodd"/>
	</g>
</svg>
