<svg width="32.000000" height="48.000000" viewBox="0 0 32 48" fill="none" xmlns="http://www.w3.org/2000/svg" xmlns:xlink="http://www.w3.org/1999/xlink">
	<desc>
			Created with Pixso.
	</desc>
	<defs>
		<filter id="filter_72_618_dd" x="-0.152100" y="4.849792" width="34.303467" height="45.300232" filterUnits="userSpaceOnUse" color-interpolation-filters="sRGB">
			<feFlood flood-opacity="0" result="BackgroundImageFix"/>
			<feColorMatrix in="SourceAlpha" type="matrix" values="0 0 0 0 0 0 0 0 0 0 0 0 0 0 0 0 0 0 127 0" result="hardAlpha"/>
			<feOffset dx="4" dy="0"/>
			<feGaussianBlur stdDeviation="1"/>
			<feComposite in2="hardAlpha" operator="out" k2="-1" k3="1"/>
			<feColorMatrix type="matrix" values="0 0 0 0 0 0 0 0 0 0 0 0 0 0 0 0 0 0 0.2 0"/>
			<feBlend mode="normal" in2="BackgroundImageFix" result="effect_dropShadow_1"/>
			<feBlend mode="normal" in="SourceGraphic" in2="effect_dropShadow_1" result="shape"/>
		</filter>
		<filter id="filter_72_653_dd" x="0.000000" y="-2.000000" width="34.000000" height="17.000000" filterUnits="userSpaceOnUse" color-interpolation-filters="sRGB">
			<feFlood flood-opacity="0" result="BackgroundImageFix"/>
			<feColorMatrix in="SourceAlpha" type="matrix" values="0 0 0 0 0 0 0 0 0 0 0 0 0 0 0 0 0 0 127 0" result="hardAlpha"/>
			<feOffset dx="4" dy="0"/>
			<feGaussianBlur stdDeviation="1"/>
			<feComposite in2="hardAlpha" operator="out" k2="-1" k3="1"/>
			<feColorMatrix type="matrix" values="0 0 0 0 0 0 0 0 0 0 0 0 0 0 0 0 0 0 0.2 0"/>
			<feBlend mode="normal" in2="BackgroundImageFix" result="effect_dropShadow_1"/>
			<feBlend mode="normal" in="SourceGraphic" in2="effect_dropShadow_1" result="shape"/>
		</filter>
		<clipPath id="clip72_617">
			<rect id="bankaU" width="32.000000" height="48.000000" fill="white" fill-opacity="0"/>
		</clipPath>
	</defs>
	<rect id="bankaU" width="32.000000" height="48.000000" fill="#FFFFFF" fill-opacity="0"/>
	<g clip-path="url(#clip72_617)">
		<g filter="url(#filter_72_618_dd)">
			<path id="Прямоугольник 32" d="M1.05 8.1C1.71 10.43 7.34 11.99 13.64 11.99C19.93 11.99 25.57 10.43 26.23 8.1C26.89 5.77 27.55 43.88 26.23 44.66C24.91 45.44 21.26 47 14.97 47C8.67 47 3.04 46.22 1.05 44.66C-0.94 43.11 0.38 5.77 1.05 8.1Z" fill="#558382" fill-opacity="1.000000" fill-rule="evenodd"/>
			<path id="Прямоугольник 32" d="M26.23 44.66C24.91 45.44 21.26 47 14.97 47C8.67 47 3.04 46.22 1.05 44.66C-0.94 43.11 0.38 5.77 1.05 8.1C1.71 10.43 7.34 11.99 13.64 11.99C19.93 11.99 25.57 10.43 26.23 8.1C26.89 5.77 27.55 43.88 26.23 44.66Z" stroke="#444343" stroke-opacity="1.000000" stroke-width="0.300000"/>
		</g>
		<ellipse id="Эллипс 15" cx="5.305664" cy="42.351196" rx="0.416667" ry="0.414634" fill="#A7B7B0" fill-opacity="1.000000"/>
		<ellipse id="Эллипс 15" cx="19.750000" cy="32.317078" rx="0.416667" ry="0.414634" fill="#A7B7B0" fill-opacity="1.000000"/>
		<ellipse id="Эллипс 15" cx="22.157471" cy="39.199951" rx="0.416667" ry="0.414634" fill="#A7B7B0" fill-opacity="1.000000"/>
		<ellipse id="Эллипс 15" cx="14.379883" cy="42.351196" rx="0.416667" ry="0.414634" fill="#A7B7B0" fill-opacity="1.000000"/>
		<ellipse id="Эллипс 15" cx="4.009277" cy="36.048767" rx="0.416667" ry="0.414634" fill="#A7B7B0" fill-opacity="1.000000"/>
		<ellipse id="Эллипс 15" cx="23.453613" cy="29.746338" rx="0.416667" ry="0.414634" fill="#A7B7B0" fill-opacity="1.000000"/>
		<ellipse id="Эллипс 15" cx="20.861084" cy="25.019470" rx="0.416667" ry="0.414634" fill="#A7B7B0" fill-opacity="1.000000"/>
		<ellipse id="Эллипс 15" cx="18.916748" cy="28.170715" rx="0.416667" ry="0.414634" fill="#A7B7B0" fill-opacity="1.000000"/>
		<ellipse id="Эллипс 15" cx="1.416748" cy="26.595093" rx="0.416667" ry="0.414634" fill="#A7B7B0" fill-opacity="1.000000"/>
		<ellipse id="Эллипс 15" cx="2.713135" cy="20.292664" rx="0.416667" ry="0.414634" fill="#A7B7B0" fill-opacity="1.000000"/>
		<ellipse id="Эллипс 15" cx="17.250000" cy="35.634094" rx="0.416667" ry="0.414634" fill="#A7B7B0" fill-opacity="1.000000"/>
		<ellipse id="Эллипс 15" cx="5.305664" cy="31.321899" rx="0.416667" ry="0.414634" fill="#A7B7B0" fill-opacity="1.000000"/>
		<ellipse id="Эллипс 15" cx="23.453613" cy="18.717041" rx="0.416667" ry="0.414634" fill="#A7B7B0" fill-opacity="1.000000"/>
		<ellipse id="Эллипс 15" cx="23.453613" cy="12.414612" rx="0.416667" ry="0.414634" fill="#A7B7B0" fill-opacity="1.000000"/>
		<ellipse id="Эллипс 15" cx="18.268555" cy="12.414612" rx="0.416667" ry="0.414634" fill="#A7B7B0" fill-opacity="1.000000"/>
		<ellipse id="Эллипс 15" cx="12.250000" cy="15.731689" rx="0.416667" ry="0.414634" fill="#A7B7B0" fill-opacity="1.000000"/>
		<ellipse id="Эллипс 15" cx="7.898193" cy="13.990234" rx="0.416667" ry="0.414634" fill="#A7B7B0" fill-opacity="1.000000"/>
		<ellipse id="Эллипс 15" cx="2.713135" cy="12.414612" rx="0.416667" ry="0.414634" fill="#A7B7B0" fill-opacity="1.000000"/>
		<ellipse id="Эллипс 15" cx="13.083496" cy="38.121948" rx="0.416667" ry="0.414634" fill="#A7B7B0" fill-opacity="1.000000"/>
		<ellipse id="Эллипс 15" cx="9.750000" cy="44.756042" rx="0.416667" ry="0.414634" fill="#A7B7B0" fill-opacity="1.000000"/>
		<ellipse id="Эллипс 15" cx="17.250000" cy="45.585327" rx="0.416667" ry="0.414634" fill="#A7B7B0" fill-opacity="1.000000"/>
		<ellipse id="Эллипс 15" cx="23.083496" cy="43.926819" rx="0.416667" ry="0.414634" fill="#A7B7B0" fill-opacity="1.000000"/>
		<ellipse id="Эллипс 15" cx="8.916748" cy="38.951172" rx="0.416667" ry="0.414634" fill="#A7B7B0" fill-opacity="1.000000"/>
		<ellipse id="Эллипс 15" cx="17.250000" cy="38.951172" rx="0.416667" ry="0.414634" fill="#A7B7B0" fill-opacity="1.000000"/>
		<ellipse id="Эллипс 15" cx="25.583496" cy="34.804871" rx="0.416667" ry="0.414634" fill="#A7B7B0" fill-opacity="1.000000"/>
		<ellipse id="Эллипс 15" cx="24.750000" cy="24.853638" rx="0.416667" ry="0.414634" fill="#A7B7B0" fill-opacity="1.000000"/>
		<ellipse id="Эллипс 15" cx="8.083496" cy="19.048767" rx="0.416667" ry="0.414634" fill="#A7B7B0" fill-opacity="1.000000"/>
		<ellipse id="Эллипс 15" cx="2.250000" cy="34.804871" rx="0.416667" ry="0.414634" fill="#A7B7B0" fill-opacity="1.000000"/>
		<ellipse id="Эллипс 15" cx="3.916748" cy="40.609741" rx="0.416667" ry="0.414634" fill="#A7B7B0" fill-opacity="1.000000"/>
		<ellipse id="Эллипс 15" cx="6.416748" cy="26.512146" rx="0.416667" ry="0.414634" fill="#A7B7B0" fill-opacity="1.000000"/>
		<ellipse id="Эллипс 15" cx="3.916748" cy="17.390198" rx="0.416667" ry="0.414634" fill="#A7B7B0" fill-opacity="1.000000"/>
		<ellipse id="Эллипс 15" cx="22.250000" cy="15.731689" rx="0.416667" ry="0.414634" fill="#A7B7B0" fill-opacity="1.000000"/>
		<ellipse id="Эллипс 15" cx="17.250000" cy="16.560974" rx="0.416667" ry="0.414634" fill="#A7B7B0" fill-opacity="1.000000"/>
		<g filter="url(#filter_72_653_dd)">
			<path id="Эллипс 14" d="M0.09 8.07C0.09 6.67 -0.81 4.05 2.91 3.35C4.98 2.96 10.81 4.14 13.46 4.14C20.84 4.14 28.23 1 26.82 8.07C26.82 10.24 20.84 12 13.46 12C6.08 12 0.09 10.24 0.09 8.07Z" fill="#AEB078" fill-opacity="1.000000" fill-rule="evenodd"/>
			<path id="Эллипс 14" d="M26.82 8.07C26.82 10.24 20.84 12 13.46 12C6.08 12 0.09 10.24 0.09 8.07C0.09 7.85 0.07 7.61 0.05 7.36C-0.08 5.92 -0.25 3.94 2.91 3.35C4.12 3.12 6.62 3.43 9.01 3.73C10.71 3.94 12.36 4.14 13.46 4.14C15.33 4.14 17.2 3.94 18.92 3.75C24.02 3.2 27.87 2.79 26.82 8.07ZM26.52 8.04L26.52 8.07L26.52 8.07Q26.52 8.71 25.6 9.35Q24.63 10.03 22.82 10.56Q21 11.09 18.62 11.39Q16.16 11.7 13.46 11.7Q10.76 11.7 8.29 11.39Q5.92 11.09 4.09 10.56Q2.29 10.03 1.31 9.35Q0.39 8.71 0.39 8.07L0.39 8.07Q0.39 7.84 0.35 7.33Q0.32 6.97 0.31 6.78Q0.29 6.47 0.3 6.22Q0.32 5.6 0.52 5.16Q0.58 5.04 0.65 4.92Q0.88 4.55 1.28 4.27Q1.91 3.84 2.96 3.65Q3.73 3.5 5.49 3.64Q6.2 3.7 7.18 3.81Q7.77 3.88 8.97 4.02Q10.66 4.23 11.43 4.31Q12.71 4.44 13.46 4.44Q14.71 4.44 16.27 4.31Q17.19 4.24 18.95 4.05Q20.21 3.91 20.79 3.86Q21.76 3.77 22.46 3.75Q24.15 3.7 25.08 4.01Q25.59 4.18 25.93 4.46Q26.04 4.55 26.13 4.66Q26.34 4.9 26.47 5.2Q26.89 6.19 26.53 8.01L26.52 8.04Z" fill="#444443" fill-opacity="1.000000" fill-rule="evenodd"/>
			<ellipse id="Эллипс 14" cx="13.461670" cy="4.928467" rx="13.364669" ry="3.928481" fill="#AEB078" fill-opacity="1.000000"/>
			<ellipse id="Эллипс 14" cx="13.461670" cy="4.928467" rx="13.214669" ry="3.778481" stroke="#444443" stroke-opacity="1.000000" stroke-width="0.300000"/>
		</g>
		<path id="u" d="M15.7 32.55Q16.53 32.01 17.03 30.98C17.07 31.36 17.15 31.68 17.28 31.96C17.61 32.76 18.18 33.16 18.98 33.16Q19.68 33.16 19.97 32.81Q20.18 32.57 20.18 32.15Q20.18 31.86 20.04 31.68Q19.93 31.54 19.75 31.47C19.58 31.41 19.45 31.33 19.35 31.23C19.02 30.93 18.86 30.1 18.86 28.75L18.86 22.91Q18.86 22.46 18.66 22.17Q18.58 22.05 18.46 21.98Q18.3 21.88 18.08 21.88C17.82 21.88 17.63 21.89 17.5 21.93L16.96 22.07C16.73 22.13 16.42 22.17 16.05 22.21C15.35 22.27 15 22.57 15 23.09C15 23.68 15.32 23.97 15.96 23.97L16.71 23.84C16.8 23.84 16.87 23.88 16.92 23.95C16.97 24.02 17 24.19 17 24.47L17 28.03Q16.65 29.42 15.82 30.39Q15.8 30.42 15.77 30.45C15.19 31.11 14.57 31.44 13.89 31.44Q13.36 31.44 12.96 31.25C12.23 30.92 11.87 30.03 11.87 28.59L11.87 22.91Q11.87 22.46 11.67 22.17Q11.58 22.04 11.46 21.97Q11.3 21.88 11.09 21.88Q10.71 21.88 10.51 21.93L9.96 22.06C9.73 22.12 9.41 22.17 9 22.21C8.32 22.27 7.97 22.57 7.97 23.09C7.97 23.68 8.29 23.97 8.93 23.97L9.72 23.84Q9.77 23.84 9.81 23.86Q10 23.95 10 24.47L10 29.29Q10 31.25 10.98 32.23Q11.38 32.63 11.95 32.87Q11.96 32.87 11.97 32.88Q12.66 33.16 13.46 33.16Q14.78 33.16 15.7 32.55Z" fill="#FFFFFF" fill-opacity="1.000000" fill-rule="evenodd"/>
	</g>
</svg>
