<svg width="32.000000" height="49.000000" viewBox="0 0 32 49" fill="none" xmlns="http://www.w3.org/2000/svg" xmlns:xlink="http://www.w3.org/1999/xlink">
	<desc>
			Created with Pixso.
	</desc>
	<defs>
		<filter id="filter_69_133_dd" x="-0.152100" y="5.849792" width="34.303467" height="45.300232" filterUnits="userSpaceOnUse" color-interpolation-filters="sRGB">
			<feFlood flood-opacity="0" result="BackgroundImageFix"/>
			<feColorMatrix in="SourceAlpha" type="matrix" values="0 0 0 0 0 0 0 0 0 0 0 0 0 0 0 0 0 0 127 0" result="hardAlpha"/>
			<feOffset dx="4" dy="0"/>
			<feGaussianBlur stdDeviation="1"/>
			<feComposite in2="hardAlpha" operator="out" k2="-1" k3="1"/>
			<feColorMatrix type="matrix" values="0 0 0 0 0 0 0 0 0 0 0 0 0 0 0 0 0 0 0.2 0"/>
			<feBlend mode="normal" in2="BackgroundImageFix" result="effect_dropShadow_1"/>
			<feBlend mode="normal" in="SourceGraphic" in2="effect_dropShadow_1" result="shape"/>
		</filter>
		<filter id="filter_69_168_dd" x="0.000000" y="-1.000000" width="34.000000" height="17.000000" filterUnits="userSpaceOnUse" color-interpolation-filters="sRGB">
			<feFlood flood-opacity="0" result="BackgroundImageFix"/>
			<feColorMatrix in="SourceAlpha" type="matrix" values="0 0 0 0 0 0 0 0 0 0 0 0 0 0 0 0 0 0 127 0" result="hardAlpha"/>
			<feOffset dx="4" dy="0"/>
			<feGaussianBlur stdDeviation="1"/>
			<feComposite in2="hardAlpha" operator="out" k2="-1" k3="1"/>
			<feColorMatrix type="matrix" values="0 0 0 0 0 0 0 0 0 0 0 0 0 0 0 0 0 0 0.2 0"/>
			<feBlend mode="normal" in2="BackgroundImageFix" result="effect_dropShadow_1"/>
			<feBlend mode="normal" in="SourceGraphic" in2="effect_dropShadow_1" result="shape"/>
		</filter>
		<clipPath id="clip69_132">
			<rect id="банка3" width="32.000000" height="49.000000" fill="white" fill-opacity="0"/>
		</clipPath>
	</defs>
	<rect id="банка3" width="32.000000" height="49.000000" fill="#FFFFFF" fill-opacity="0"/>
	<g clip-path="url(#clip69_132)">
		<g filter="url(#filter_69_133_dd)">
			<path id="Прямоугольник 32" d="M1.05 9.1C1.71 11.43 7.34 12.99 13.64 12.99C19.93 12.99 25.57 11.43 26.23 9.1C26.89 6.77 27.55 44.88 26.23 45.66C24.91 46.44 21.26 48 14.97 48C8.67 48 3.04 47.22 1.05 45.66C-0.94 44.11 0.38 6.77 1.05 9.1Z" fill="#6E5C35" fill-opacity="1.000000" fill-rule="evenodd"/>
			<path id="Прямоугольник 32" d="M26.23 45.66C24.91 46.44 21.26 48 14.97 48C8.67 48 3.04 47.22 1.05 45.66C-0.94 44.11 0.38 6.77 1.05 9.1C1.71 11.43 7.34 12.99 13.64 12.99C19.93 12.99 25.57 11.43 26.23 9.1C26.89 6.77 27.55 44.88 26.23 45.66Z" stroke="#444343" stroke-opacity="1.000000" stroke-width="0.300000"/>
		</g>
		<ellipse id="Эллипс 15" cx="5.305664" cy="43.351196" rx="0.416667" ry="0.414634" fill="#644646" fill-opacity="1.000000"/>
		<ellipse id="Эллипс 15" cx="19.750000" cy="33.317078" rx="0.416667" ry="0.414634" fill="#644646" fill-opacity="1.000000"/>
		<ellipse id="Эллипс 15" cx="22.157471" cy="40.199951" rx="0.416667" ry="0.414634" fill="#644646" fill-opacity="1.000000"/>
		<ellipse id="Эллипс 15" cx="14.379883" cy="43.351196" rx="0.416667" ry="0.414634" fill="#644646" fill-opacity="1.000000"/>
		<ellipse id="Эллипс 15" cx="4.009277" cy="37.048767" rx="0.416667" ry="0.414634" fill="#644646" fill-opacity="1.000000"/>
		<ellipse id="Эллипс 15" cx="23.453613" cy="30.746338" rx="0.416667" ry="0.414634" fill="#644646" fill-opacity="1.000000"/>
		<ellipse id="Эллипс 15" cx="20.861084" cy="26.019470" rx="0.416667" ry="0.414634" fill="#644646" fill-opacity="1.000000"/>
		<ellipse id="Эллипс 15" cx="18.916748" cy="29.170715" rx="0.416667" ry="0.414634" fill="#644646" fill-opacity="1.000000"/>
		<ellipse id="Эллипс 15" cx="1.416748" cy="27.595093" rx="0.416667" ry="0.414634" fill="#644646" fill-opacity="1.000000"/>
		<ellipse id="Эллипс 15" cx="2.713135" cy="21.292664" rx="0.416667" ry="0.414634" fill="#644646" fill-opacity="1.000000"/>
		<ellipse id="Эллипс 15" cx="17.250000" cy="36.634094" rx="0.416667" ry="0.414634" fill="#644646" fill-opacity="1.000000"/>
		<ellipse id="Эллипс 15" cx="5.305664" cy="32.321899" rx="0.416667" ry="0.414634" fill="#644646" fill-opacity="1.000000"/>
		<ellipse id="Эллипс 15" cx="23.453613" cy="19.717041" rx="0.416667" ry="0.414634" fill="#644646" fill-opacity="1.000000"/>
		<ellipse id="Эллипс 15" cx="23.453613" cy="13.414612" rx="0.416667" ry="0.414634" fill="#644646" fill-opacity="1.000000"/>
		<ellipse id="Эллипс 15" cx="18.268555" cy="13.414612" rx="0.416667" ry="0.414634" fill="#644646" fill-opacity="1.000000"/>
		<ellipse id="Эллипс 15" cx="12.250000" cy="16.731689" rx="0.416667" ry="0.414634" fill="#644646" fill-opacity="1.000000"/>
		<ellipse id="Эллипс 15" cx="7.898193" cy="14.990234" rx="0.416667" ry="0.414634" fill="#644646" fill-opacity="1.000000"/>
		<ellipse id="Эллипс 15" cx="2.713135" cy="13.414612" rx="0.416667" ry="0.414634" fill="#644646" fill-opacity="1.000000"/>
		<ellipse id="Эллипс 15" cx="13.083496" cy="39.121948" rx="0.416667" ry="0.414634" fill="#644646" fill-opacity="1.000000"/>
		<ellipse id="Эллипс 15" cx="9.750000" cy="45.756042" rx="0.416667" ry="0.414634" fill="#644646" fill-opacity="1.000000"/>
		<ellipse id="Эллипс 15" cx="17.250000" cy="46.585327" rx="0.416667" ry="0.414634" fill="#644646" fill-opacity="1.000000"/>
		<ellipse id="Эллипс 15" cx="23.083496" cy="44.926819" rx="0.416667" ry="0.414634" fill="#644646" fill-opacity="1.000000"/>
		<ellipse id="Эллипс 15" cx="8.916748" cy="39.951172" rx="0.416667" ry="0.414634" fill="#644646" fill-opacity="1.000000"/>
		<ellipse id="Эллипс 15" cx="17.250000" cy="39.951172" rx="0.416667" ry="0.414634" fill="#644646" fill-opacity="1.000000"/>
		<ellipse id="Эллипс 15" cx="25.583496" cy="35.804871" rx="0.416667" ry="0.414634" fill="#644646" fill-opacity="1.000000"/>
		<ellipse id="Эллипс 15" cx="24.750000" cy="25.853638" rx="0.416667" ry="0.414634" fill="#644646" fill-opacity="1.000000"/>
		<ellipse id="Эллипс 15" cx="8.083496" cy="20.048767" rx="0.416667" ry="0.414634" fill="#644646" fill-opacity="1.000000"/>
		<ellipse id="Эллипс 15" cx="2.250000" cy="35.804871" rx="0.416667" ry="0.414634" fill="#644646" fill-opacity="1.000000"/>
		<ellipse id="Эллипс 15" cx="3.916748" cy="41.609741" rx="0.416667" ry="0.414634" fill="#644646" fill-opacity="1.000000"/>
		<ellipse id="Эллипс 15" cx="6.416748" cy="27.512146" rx="0.416667" ry="0.414634" fill="#644646" fill-opacity="1.000000"/>
		<ellipse id="Эллипс 15" cx="3.916748" cy="18.390198" rx="0.416667" ry="0.414634" fill="#644646" fill-opacity="1.000000"/>
		<ellipse id="Эллипс 15" cx="22.250000" cy="16.731689" rx="0.416667" ry="0.414634" fill="#644646" fill-opacity="1.000000"/>
		<ellipse id="Эллипс 15" cx="17.250000" cy="17.560974" rx="0.416667" ry="0.414634" fill="#644646" fill-opacity="1.000000"/>
		<g filter="url(#filter_69_168_dd)">
			<path id="Эллипс 14" d="M0.09 9.07C0.09 7.67 -0.81 5.05 2.91 4.35C4.98 3.96 10.81 5.14 13.46 5.14C20.84 5.14 28.23 2 26.82 9.07C26.82 11.24 20.84 13 13.46 13C6.08 13 0.09 11.24 0.09 9.07Z" fill="#E9D575" fill-opacity="1.000000" fill-rule="evenodd"/>
			<path id="Эллипс 14" d="M26.82 9.07C26.82 11.24 20.84 13 13.46 13C6.08 13 0.09 11.24 0.09 9.07C0.09 8.85 0.07 8.61 0.05 8.36C-0.08 6.92 -0.25 4.94 2.91 4.35C4.12 4.12 6.62 4.43 9.01 4.73C10.71 4.94 12.36 5.14 13.46 5.14C15.33 5.14 17.2 4.94 18.92 4.75C24.02 4.2 27.87 3.79 26.82 9.07ZM26.52 9.04L26.52 9.07L26.52 9.07Q26.52 9.71 25.6 10.35Q24.63 11.03 22.82 11.56Q21 12.09 18.62 12.39Q16.16 12.7 13.46 12.7Q10.76 12.7 8.29 12.39Q5.92 12.09 4.09 11.56Q2.29 11.03 1.31 10.35Q0.39 9.71 0.39 9.07L0.39 9.07Q0.39 8.84 0.35 8.33Q0.32 7.97 0.31 7.78Q0.29 7.47 0.3 7.22Q0.32 6.6 0.52 6.16Q0.58 6.04 0.65 5.92Q0.88 5.55 1.28 5.27Q1.91 4.84 2.96 4.65Q3.73 4.5 5.49 4.64Q6.2 4.7 7.18 4.81Q7.77 4.88 8.97 5.02Q10.66 5.23 11.43 5.31Q12.71 5.44 13.46 5.44Q14.71 5.44 16.27 5.31Q17.19 5.24 18.95 5.05Q20.21 4.91 20.79 4.86Q21.76 4.77 22.46 4.75Q24.15 4.7 25.08 5.01Q25.59 5.18 25.93 5.46Q26.04 5.55 26.13 5.66Q26.34 5.9 26.47 6.2Q26.89 7.19 26.53 9.01L26.52 9.04Z" fill="#444443" fill-opacity="1.000000" fill-rule="evenodd"/>
			<ellipse id="Эллипс 14" cx="13.461670" cy="5.928467" rx="13.364669" ry="3.928481" fill="#E9D575" fill-opacity="1.000000"/>
			<ellipse id="Эллипс 14" cx="13.461670" cy="5.928467" rx="13.214669" ry="3.778481" stroke="#444443" stroke-opacity="1.000000" stroke-width="0.300000"/>
		</g>
		<path id="r" d="M11.55 31.93L14.33 32C14.78 32 15.09 31.92 15.26 31.76C15.44 31.61 15.52 31.43 15.52 31.23C15.52 30.67 15.07 30.38 14.15 30.38L12.41 30.38L12.41 26.84Q12.86 24.91 13.85 23.72C14.52 22.94 15.19 22.54 15.89 22.54Q16.66 22.54 16.86 22.88Q16.93 23 16.93 23.15Q16.93 23.24 16.92 23.33Q16.9 23.52 16.83 23.7L16.75 23.94C16.73 24.01 16.72 24.1 16.72 24.22Q16.72 24.6 16.9 24.8Q17.13 25.06 17.64 25.06Q17.88 25.06 18.08 24.97Q18.38 24.84 18.59 24.52Q18.94 23.98 18.94 22.97C18.94 22.3 18.71 21.78 18.24 21.42C17.77 21.06 17.15 20.88 16.38 20.88Q15.77 20.88 15.16 21.06Q14.25 21.33 13.58 21.89Q12.85 22.51 12.41 23.48L12.41 21.82Q12.41 21.18 12.1 20.94Q11.91 20.79 11.6 20.79Q11.17 20.79 10.72 20.92Q10.26 21.05 9.54 21.11Q8.74 21.19 8.49 21.61Q8.38 21.79 8.38 22.05Q8.38 22.29 8.49 22.47Q8.55 22.58 8.65 22.66Q8.8 22.79 8.98 22.85Q9.11 22.89 9.26 22.89Q9.59 22.89 9.87 22.81C10.05 22.76 10.19 22.74 10.27 22.74Q10.32 22.74 10.35 22.75Q10.55 22.84 10.55 23.38L10.55 30.38L9.58 30.38Q9.04 30.38 8.71 30.6C8.49 30.74 8.38 30.94 8.38 31.2C8.38 31.73 8.73 32 9.42 32Q9.83 32 10.37 31.96L10.84 31.94C10.99 31.93 11.23 31.93 11.55 31.93Z" fill="#FFFFFF" fill-opacity="1.000000" fill-rule="evenodd"/>
	</g>
</svg>
