<svg width="32.000000" height="48.000000" viewBox="0 0 32 48" fill="none" xmlns="http://www.w3.org/2000/svg" xmlns:xlink="http://www.w3.org/1999/xlink">
	<desc>
			Created with Pixso.
	</desc>
	<defs>
		<filter id="filter_72_658_dd" x="-0.151855" y="4.849792" width="34.302979" height="45.300232" filterUnits="userSpaceOnUse" color-interpolation-filters="sRGB">
			<feFlood flood-opacity="0" result="BackgroundImageFix"/>
			<feColorMatrix in="SourceAlpha" type="matrix" values="0 0 0 0 0 0 0 0 0 0 0 0 0 0 0 0 0 0 127 0" result="hardAlpha"/>
			<feOffset dx="4" dy="0"/>
			<feGaussianBlur stdDeviation="1"/>
			<feComposite in2="hardAlpha" operator="out" k2="-1" k3="1"/>
			<feColorMatrix type="matrix" values="0 0 0 0 0 0 0 0 0 0 0 0 0 0 0 0 0 0 0.2 0"/>
			<feBlend mode="normal" in2="BackgroundImageFix" result="effect_dropShadow_1"/>
			<feBlend mode="normal" in="SourceGraphic" in2="effect_dropShadow_1" result="shape"/>
		</filter>
		<filter id="filter_72_693_dd" x="0.000000" y="-2.000000" width="34.000000" height="17.000000" filterUnits="userSpaceOnUse" color-interpolation-filters="sRGB">
			<feFlood flood-opacity="0" result="BackgroundImageFix"/>
			<feColorMatrix in="SourceAlpha" type="matrix" values="0 0 0 0 0 0 0 0 0 0 0 0 0 0 0 0 0 0 127 0" result="hardAlpha"/>
			<feOffset dx="4" dy="0"/>
			<feGaussianBlur stdDeviation="1"/>
			<feComposite in2="hardAlpha" operator="out" k2="-1" k3="1"/>
			<feColorMatrix type="matrix" values="0 0 0 0 0 0 0 0 0 0 0 0 0 0 0 0 0 0 0.2 0"/>
			<feBlend mode="normal" in2="BackgroundImageFix" result="effect_dropShadow_1"/>
			<feBlend mode="normal" in="SourceGraphic" in2="effect_dropShadow_1" result="shape"/>
		</filter>
		<clipPath id="clip72_657">
			<rect id="bankaK" width="32.000000" height="48.000000" fill="white" fill-opacity="0"/>
		</clipPath>
	</defs>
	<rect id="bankaK" width="32.000000" height="48.000000" fill="#FFFFFF" fill-opacity="0"/>
	<g clip-path="url(#clip72_657)">
		<g filter="url(#filter_72_658_dd)">
			<path id="Прямоугольник 32" d="M1.05 8.1C1.71 10.43 7.34 11.99 13.64 11.99C19.93 11.99 25.57 10.43 26.23 8.1C26.89 5.77 27.55 43.88 26.23 44.66C24.91 45.44 21.26 47 14.97 47C8.67 47 3.04 46.22 1.05 44.66C-0.94 43.11 0.38 5.77 1.05 8.1Z" fill="#427CA7" fill-opacity="1.000000" fill-rule="evenodd"/>
			<path id="Прямоугольник 32" d="M26.23 44.66C24.91 45.44 21.26 47 14.97 47C8.67 47 3.04 46.22 1.05 44.66C-0.94 43.11 0.38 5.77 1.05 8.1C1.71 10.43 7.34 11.99 13.64 11.99C19.93 11.99 25.57 10.43 26.23 8.1C26.89 5.77 27.55 43.88 26.23 44.66Z" stroke="#444343" stroke-opacity="1.000000" stroke-width="0.300000"/>
		</g>
		<ellipse id="Эллипс 15" cx="5.305664" cy="42.351196" rx="0.416667" ry="0.414634" fill="#A47DA5" fill-opacity="1.000000"/>
		<ellipse id="Эллипс 15" cx="19.750000" cy="32.317078" rx="0.416667" ry="0.414634" fill="#A47DA5" fill-opacity="1.000000"/>
		<ellipse id="Эллипс 15" cx="22.157471" cy="39.199951" rx="0.416667" ry="0.414634" fill="#A47DA5" fill-opacity="1.000000"/>
		<ellipse id="Эллипс 15" cx="14.379883" cy="42.351196" rx="0.416667" ry="0.414634" fill="#A47DA5" fill-opacity="1.000000"/>
		<ellipse id="Эллипс 15" cx="4.009277" cy="36.048767" rx="0.416667" ry="0.414634" fill="#A47DA5" fill-opacity="1.000000"/>
		<ellipse id="Эллипс 15" cx="23.453613" cy="29.746338" rx="0.416667" ry="0.414634" fill="#A47DA5" fill-opacity="1.000000"/>
		<ellipse id="Эллипс 15" cx="20.861084" cy="25.019470" rx="0.416667" ry="0.414634" fill="#A47DA5" fill-opacity="1.000000"/>
		<ellipse id="Эллипс 15" cx="18.916748" cy="28.170715" rx="0.416667" ry="0.414634" fill="#A47DA5" fill-opacity="1.000000"/>
		<ellipse id="Эллипс 15" cx="1.416748" cy="26.595093" rx="0.416667" ry="0.414634" fill="#A47DA5" fill-opacity="1.000000"/>
		<ellipse id="Эллипс 15" cx="2.713135" cy="20.292664" rx="0.416667" ry="0.414634" fill="#A47DA5" fill-opacity="1.000000"/>
		<ellipse id="Эллипс 15" cx="17.250000" cy="35.634094" rx="0.416667" ry="0.414634" fill="#A47DA5" fill-opacity="1.000000"/>
		<ellipse id="Эллипс 15" cx="5.305664" cy="31.321899" rx="0.416667" ry="0.414634" fill="#A47DA5" fill-opacity="1.000000"/>
		<ellipse id="Эллипс 15" cx="23.453613" cy="18.717041" rx="0.416667" ry="0.414634" fill="#A47DA5" fill-opacity="1.000000"/>
		<ellipse id="Эллипс 15" cx="23.453613" cy="12.414612" rx="0.416667" ry="0.414634" fill="#A47DA5" fill-opacity="1.000000"/>
		<ellipse id="Эллипс 15" cx="18.268555" cy="12.414612" rx="0.416667" ry="0.414634" fill="#A47DA5" fill-opacity="1.000000"/>
		<ellipse id="Эллипс 15" cx="12.250000" cy="15.731689" rx="0.416667" ry="0.414634" fill="#A47DA5" fill-opacity="1.000000"/>
		<ellipse id="Эллипс 15" cx="7.898193" cy="13.990234" rx="0.416667" ry="0.414634" fill="#A47DA5" fill-opacity="1.000000"/>
		<ellipse id="Эллипс 15" cx="2.713135" cy="12.414612" rx="0.416667" ry="0.414634" fill="#A47DA5" fill-opacity="1.000000"/>
		<ellipse id="Эллипс 15" cx="13.083496" cy="38.121948" rx="0.416667" ry="0.414634" fill="#A47DA5" fill-opacity="1.000000"/>
		<ellipse id="Эллипс 15" cx="9.750000" cy="44.756042" rx="0.416667" ry="0.414634" fill="#A47DA5" fill-opacity="1.000000"/>
		<ellipse id="Эллипс 15" cx="17.250000" cy="45.585327" rx="0.416667" ry="0.414634" fill="#A47DA5" fill-opacity="1.000000"/>
		<ellipse id="Эллипс 15" cx="23.083496" cy="43.926819" rx="0.416667" ry="0.414634" fill="#A47DA5" fill-opacity="1.000000"/>
		<ellipse id="Эллипс 15" cx="8.916748" cy="38.951172" rx="0.416667" ry="0.414634" fill="#A47DA5" fill-opacity="1.000000"/>
		<ellipse id="Эллипс 15" cx="17.250000" cy="38.951172" rx="0.416667" ry="0.414634" fill="#A47DA5" fill-opacity="1.000000"/>
		<ellipse id="Эллипс 15" cx="25.583496" cy="34.804871" rx="0.416667" ry="0.414634" fill="#A47DA5" fill-opacity="1.000000"/>
		<ellipse id="Эллипс 15" cx="24.750000" cy="24.853638" rx="0.416667" ry="0.414634" fill="#A47DA5" fill-opacity="1.000000"/>
		<ellipse id="Эллипс 15" cx="8.083496" cy="19.048767" rx="0.416667" ry="0.414634" fill="#A47DA5" fill-opacity="1.000000"/>
		<ellipse id="Эллипс 15" cx="2.250000" cy="34.804871" rx="0.416667" ry="0.414634" fill="#A47DA5" fill-opacity="1.000000"/>
		<ellipse id="Эллипс 15" cx="3.916748" cy="40.609741" rx="0.416667" ry="0.414634" fill="#A47DA5" fill-opacity="1.000000"/>
		<ellipse id="Эллипс 15" cx="6.416748" cy="26.512146" rx="0.416667" ry="0.414634" fill="#A47DA5" fill-opacity="1.000000"/>
		<ellipse id="Эллипс 15" cx="3.916748" cy="17.390198" rx="0.416667" ry="0.414634" fill="#A47DA5" fill-opacity="1.000000"/>
		<ellipse id="Эллипс 15" cx="22.250000" cy="15.731689" rx="0.416667" ry="0.414634" fill="#A47DA5" fill-opacity="1.000000"/>
		<ellipse id="Эллипс 15" cx="17.250000" cy="16.560974" rx="0.416667" ry="0.414634" fill="#A47DA5" fill-opacity="1.000000"/>
		<g filter="url(#filter_72_693_dd)">
			<path id="Эллипс 14" d="M0.09 8.07C0.09 6.67 -0.81 4.05 2.91 3.35C4.98 2.96 10.81 4.14 13.46 4.14C20.84 4.14 28.23 1 26.82 8.07C26.82 10.24 20.84 12 13.46 12C6.08 12 0.09 10.24 0.09 8.07Z" fill="#65655E" fill-opacity="1.000000" fill-rule="evenodd"/>
			<path id="Эллипс 14" d="M26.82 8.07C26.82 10.24 20.84 12 13.46 12C6.08 12 0.09 10.24 0.09 8.07C0.09 7.85 0.07 7.61 0.05 7.36C-0.08 5.92 -0.25 3.94 2.91 3.35C4.12 3.12 6.62 3.43 9.01 3.73C10.71 3.94 12.36 4.14 13.46 4.14C15.33 4.14 17.2 3.94 18.92 3.75C24.02 3.2 27.87 2.79 26.82 8.07ZM26.52 8.04L26.52 8.07L26.52 8.07C26.52 8.5 26.21 8.92 25.6 9.35C24.95 9.8 24.02 10.2 22.82 10.56C21.61 10.91 20.2 11.19 18.62 11.39C16.98 11.59 15.26 11.7 13.46 11.7C11.66 11.7 9.93 11.59 8.29 11.39C6.71 11.19 5.31 10.91 4.09 10.56C2.89 10.2 1.96 9.8 1.31 9.35C0.7 8.92 0.39 8.5 0.39 8.07L0.39 8.07C0.39 7.92 0.38 7.67 0.35 7.33C0.33 7.09 0.31 6.91 0.31 6.78C0.29 6.57 0.29 6.39 0.3 6.22C0.31 5.81 0.39 5.46 0.52 5.16C0.56 5.08 0.6 5 0.65 4.92C0.8 4.67 1.01 4.45 1.28 4.27C1.7 3.99 2.26 3.78 2.96 3.65C3.47 3.55 4.32 3.55 5.49 3.64C5.97 3.68 6.53 3.74 7.18 3.81C7.58 3.85 8.17 3.93 8.97 4.02C10.1 4.16 10.92 4.26 11.43 4.31C12.28 4.4 12.96 4.44 13.46 4.44C14.29 4.44 15.23 4.4 16.27 4.31C16.88 4.26 17.78 4.18 18.95 4.05C19.79 3.96 20.4 3.9 20.79 3.86C21.44 3.8 22 3.77 22.46 3.75C23.59 3.71 24.46 3.8 25.08 4.01C25.42 4.12 25.71 4.27 25.93 4.46C26 4.52 26.07 4.59 26.13 4.66C26.27 4.82 26.38 5 26.47 5.2C26.75 5.86 26.77 6.8 26.53 8.01L26.52 8.04Z" fill="#444443" fill-opacity="1.000000" fill-rule="evenodd"/>
			<ellipse id="Эллипс 14" cx="13.461670" cy="4.928467" rx="13.364669" ry="3.928481" fill="#65655E" fill-opacity="1.000000"/>
			<ellipse id="Эллипс 14" cx="13.461670" cy="4.928467" rx="13.214669" ry="3.778481" stroke="#444443" stroke-opacity="1.000000" stroke-width="0.300000"/>
		</g>
		<path id="k" d="M9.85 37.91L12.35 38Q12.8 38 13.11 37.78Q13.16 37.74 13.21 37.7Q13.44 37.49 13.51 37.24Q13.54 37.14 13.54 37.02Q13.54 36.72 13.4 36.5Q13.05 35.94 11.82 35.94L11.2 35.94L11.2 32.59Q12.88 32.12 14.7 31.04Q16.33 32.9 18.05 35.94L17.12 35.94Q16.4 35.94 15.99 36.22Q15.78 36.35 15.68 36.55Q15.58 36.74 15.58 36.98Q15.58 37.36 15.76 37.6Q16.07 38 16.89 38Q17.57 38 18.11 37.95L19.49 37.91L22.13 38Q22.58 38 22.89 37.78Q22.94 37.74 22.99 37.7Q23.22 37.49 23.29 37.24Q23.32 37.14 23.32 37.02Q23.32 36.72 23.18 36.5Q22.83 35.94 21.59 35.94L20.66 35.94L19.04 33.2Q18.02 31.53 16.52 29.82Q18.97 27.96 20.17 26.03Q20.51 26.06 20.77 26.06L21.21 26.06Q22.15 26.06 22.48 25.61Q22.65 25.38 22.65 25.02Q22.65 24.81 22.57 24.62Q22.49 24.44 22.32 24.28Q22 23.98 21.28 23.98L18.89 24.15L16.07 24.04Q15.33 24.04 14.93 24.32Q14.72 24.48 14.62 24.69Q14.54 24.87 14.54 25.08Q14.54 25.32 14.63 25.5Q14.72 25.7 14.91 25.84Q15.29 26.13 15.95 26.13L17.5 26.05Q17.01 26.78 16.29 27.47Q14.99 28.69 13.47 29.52Q12.39 30.11 11.2 30.5L11.2 17.53Q11.2 16.82 10.85 16.49Q10.54 16.2 9.96 16.2Q9.67 16.2 9.42 16.27L8.81 16.45Q8.43 16.56 7.63 16.63Q6.83 16.71 6.44 17.02Q6.19 17.22 6.11 17.47Q6.06 17.61 6.06 17.76Q6.06 18.27 6.31 18.54Q6.61 18.87 7.26 18.87Q7.55 18.87 7.89 18.8L8.22 18.72Q8.36 18.69 8.47 18.69Q8.51 18.69 8.55 18.71Q8.8 18.8 8.8 19.51L8.8 35.94L7.62 35.94Q6.9 35.94 6.49 36.22Q6.28 36.35 6.18 36.55Q6.08 36.74 6.08 36.98Q6.08 37.36 6.26 37.6Q6.56 38 7.39 38Q7.93 38 8.47 37.95L9.85 37.91Z" fill="#FFFFFF" fill-opacity="1.000000" fill-rule="evenodd"/>
	</g>
</svg>
