<svg width="32.000000" height="47.000000" viewBox="0 0 32 47" fill="none" xmlns="http://www.w3.org/2000/svg" xmlns:xlink="http://www.w3.org/1999/xlink">
	<desc>
			Created with Pixso.
	</desc>
	<defs>
		<filter id="filter_70_213_dd" x="-0.151855" y="3.849792" width="34.302979" height="45.300232" filterUnits="userSpaceOnUse" color-interpolation-filters="sRGB">
			<feFlood flood-opacity="0" result="BackgroundImageFix"/>
			<feColorMatrix in="SourceAlpha" type="matrix" values="0 0 0 0 0 0 0 0 0 0 0 0 0 0 0 0 0 0 127 0" result="hardAlpha"/>
			<feOffset dx="4" dy="0"/>
			<feGaussianBlur stdDeviation="1"/>
			<feComposite in2="hardAlpha" operator="out" k2="-1" k3="1"/>
			<feColorMatrix type="matrix" values="0 0 0 0 0 0 0 0 0 0 0 0 0 0 0 0 0 0 0.2 0"/>
			<feBlend mode="normal" in2="BackgroundImageFix" result="effect_dropShadow_1"/>
			<feBlend mode="normal" in="SourceGraphic" in2="effect_dropShadow_1" result="shape"/>
		</filter>
		<filter id="filter_70_248_dd" x="0.000000" y="-3.000000" width="34.000000" height="17.000000" filterUnits="userSpaceOnUse" color-interpolation-filters="sRGB">
			<feFlood flood-opacity="0" result="BackgroundImageFix"/>
			<feColorMatrix in="SourceAlpha" type="matrix" values="0 0 0 0 0 0 0 0 0 0 0 0 0 0 0 0 0 0 127 0" result="hardAlpha"/>
			<feOffset dx="4" dy="0"/>
			<feGaussianBlur stdDeviation="1"/>
			<feComposite in2="hardAlpha" operator="out" k2="-1" k3="1"/>
			<feColorMatrix type="matrix" values="0 0 0 0 0 0 0 0 0 0 0 0 0 0 0 0 0 0 0.2 0"/>
			<feBlend mode="normal" in2="BackgroundImageFix" result="effect_dropShadow_1"/>
			<feBlend mode="normal" in="SourceGraphic" in2="effect_dropShadow_1" result="shape"/>
		</filter>
		<clipPath id="clip70_212">
			<rect id="bankaB" width="32.000000" height="47.000000" fill="white" fill-opacity="0"/>
		</clipPath>
	</defs>
	<rect id="bankaB" width="32.000000" height="47.000000" fill="#FFFFFF" fill-opacity="0"/>
	<g clip-path="url(#clip70_212)">
		<g filter="url(#filter_70_213_dd)">
			<path id="Прямоугольник 32" d="M1.05 7.1C1.71 9.43 7.34 10.99 13.64 10.99C19.93 10.99 25.57 9.43 26.23 7.1C26.89 4.77 27.55 42.88 26.23 43.66C24.91 44.44 21.26 46 14.97 46C8.67 46 3.04 45.22 1.05 43.66C-0.94 42.11 0.38 4.77 1.05 7.1Z" fill="#2D5F52" fill-opacity="1.000000" fill-rule="evenodd"/>
			<path id="Прямоугольник 32" d="M26.23 43.66C24.91 44.44 21.26 46 14.97 46C8.67 46 3.04 45.22 1.05 43.66C-0.94 42.11 0.38 4.77 1.05 7.1C1.71 9.43 7.34 10.99 13.64 10.99C19.93 10.99 25.57 9.43 26.23 7.1C26.89 4.77 27.55 42.88 26.23 43.66Z" stroke="#444343" stroke-opacity="1.000000" stroke-width="0.300000"/>
		</g>
		<ellipse id="Эллипс 15" cx="5.305664" cy="41.351196" rx="0.416667" ry="0.414634" fill="#9FCA91" fill-opacity="1.000000"/>
		<ellipse id="Эллипс 15" cx="19.750000" cy="31.317078" rx="0.416667" ry="0.414634" fill="#9FCA91" fill-opacity="1.000000"/>
		<ellipse id="Эллипс 15" cx="22.157471" cy="38.199951" rx="0.416667" ry="0.414634" fill="#9FCA91" fill-opacity="1.000000"/>
		<ellipse id="Эллипс 15" cx="14.379883" cy="41.351196" rx="0.416667" ry="0.414634" fill="#9FCA91" fill-opacity="1.000000"/>
		<ellipse id="Эллипс 15" cx="4.009277" cy="35.048767" rx="0.416667" ry="0.414634" fill="#9FCA91" fill-opacity="1.000000"/>
		<ellipse id="Эллипс 15" cx="23.453613" cy="28.746338" rx="0.416667" ry="0.414634" fill="#9FCA91" fill-opacity="1.000000"/>
		<ellipse id="Эллипс 15" cx="20.861084" cy="24.019470" rx="0.416667" ry="0.414634" fill="#9FCA91" fill-opacity="1.000000"/>
		<ellipse id="Эллипс 15" cx="18.916748" cy="27.170715" rx="0.416667" ry="0.414634" fill="#9FCA91" fill-opacity="1.000000"/>
		<ellipse id="Эллипс 15" cx="1.416748" cy="25.595093" rx="0.416667" ry="0.414634" fill="#9FCA91" fill-opacity="1.000000"/>
		<ellipse id="Эллипс 15" cx="2.713135" cy="19.292664" rx="0.416667" ry="0.414634" fill="#9FCA91" fill-opacity="1.000000"/>
		<ellipse id="Эллипс 15" cx="17.250000" cy="34.634094" rx="0.416667" ry="0.414634" fill="#9FCA91" fill-opacity="1.000000"/>
		<ellipse id="Эллипс 15" cx="5.305664" cy="30.321899" rx="0.416667" ry="0.414634" fill="#9FCA91" fill-opacity="1.000000"/>
		<ellipse id="Эллипс 15" cx="23.453613" cy="17.717041" rx="0.416667" ry="0.414634" fill="#9FCA91" fill-opacity="1.000000"/>
		<ellipse id="Эллипс 15" cx="23.453613" cy="11.414612" rx="0.416667" ry="0.414634" fill="#9FCA91" fill-opacity="1.000000"/>
		<ellipse id="Эллипс 15" cx="18.268555" cy="11.414612" rx="0.416667" ry="0.414634" fill="#9FCA91" fill-opacity="1.000000"/>
		<ellipse id="Эллипс 15" cx="12.250000" cy="14.731689" rx="0.416667" ry="0.414634" fill="#9FCA91" fill-opacity="1.000000"/>
		<ellipse id="Эллипс 15" cx="7.898193" cy="12.990234" rx="0.416667" ry="0.414634" fill="#9FCA91" fill-opacity="1.000000"/>
		<ellipse id="Эллипс 15" cx="2.713135" cy="11.414612" rx="0.416667" ry="0.414634" fill="#9FCA91" fill-opacity="1.000000"/>
		<ellipse id="Эллипс 15" cx="13.083496" cy="37.121948" rx="0.416667" ry="0.414634" fill="#9FCA91" fill-opacity="1.000000"/>
		<ellipse id="Эллипс 15" cx="9.750000" cy="43.756042" rx="0.416667" ry="0.414634" fill="#9FCA91" fill-opacity="1.000000"/>
		<ellipse id="Эллипс 15" cx="17.250000" cy="44.585327" rx="0.416667" ry="0.414634" fill="#9FCA91" fill-opacity="1.000000"/>
		<ellipse id="Эллипс 15" cx="23.083496" cy="42.926819" rx="0.416667" ry="0.414634" fill="#9FCA91" fill-opacity="1.000000"/>
		<ellipse id="Эллипс 15" cx="8.916748" cy="37.951172" rx="0.416667" ry="0.414634" fill="#9FCA91" fill-opacity="1.000000"/>
		<ellipse id="Эллипс 15" cx="17.250000" cy="37.951172" rx="0.416667" ry="0.414634" fill="#9FCA91" fill-opacity="1.000000"/>
		<ellipse id="Эллипс 15" cx="25.583496" cy="33.804871" rx="0.416667" ry="0.414634" fill="#9FCA91" fill-opacity="1.000000"/>
		<ellipse id="Эллипс 15" cx="24.750000" cy="23.853638" rx="0.416667" ry="0.414634" fill="#9FCA91" fill-opacity="1.000000"/>
		<ellipse id="Эллипс 15" cx="8.083496" cy="18.048767" rx="0.416667" ry="0.414634" fill="#9FCA91" fill-opacity="1.000000"/>
		<ellipse id="Эллипс 15" cx="2.250000" cy="33.804871" rx="0.416667" ry="0.414634" fill="#9FCA91" fill-opacity="1.000000"/>
		<ellipse id="Эллипс 15" cx="3.916748" cy="39.609741" rx="0.416667" ry="0.414634" fill="#9FCA91" fill-opacity="1.000000"/>
		<ellipse id="Эллипс 15" cx="6.416748" cy="25.512146" rx="0.416667" ry="0.414634" fill="#9FCA91" fill-opacity="1.000000"/>
		<ellipse id="Эллипс 15" cx="3.916748" cy="16.390198" rx="0.416667" ry="0.414634" fill="#9FCA91" fill-opacity="1.000000"/>
		<ellipse id="Эллипс 15" cx="22.250000" cy="14.731689" rx="0.416667" ry="0.414634" fill="#9FCA91" fill-opacity="1.000000"/>
		<ellipse id="Эллипс 15" cx="17.250000" cy="15.560974" rx="0.416667" ry="0.414634" fill="#9FCA91" fill-opacity="1.000000"/>
		<g filter="url(#filter_70_248_dd)">
			<path id="Эллипс 14" d="M0.09 7.07C0.09 5.67 -0.81 3.05 2.91 2.35C4.98 1.96 10.81 3.14 13.46 3.14C20.84 3.14 28.23 6.1e-5 26.82 7.07C26.82 9.24 20.84 11 13.46 11C6.08 11 0.09 9.24 0.09 7.07Z" fill="#584C12" fill-opacity="1.000000" fill-rule="evenodd"/>
			<path id="Эллипс 14" d="M26.82 7.07C26.82 9.24 20.84 11 13.46 11C6.08 11 0.09 9.24 0.09 7.07C0.09 6.85 0.07 6.61 0.05 6.36C-0.08 4.92 -0.25 2.94 2.91 2.35C4.12 2.12 6.62 2.43 9.01 2.73C10.71 2.94 12.36 3.14 13.46 3.14C15.33 3.14 17.2 2.94 18.92 2.75C24.02 2.2 27.87 1.79 26.82 7.07ZM26.52 7.04L26.52 7.07L26.52 7.07C26.52 7.5 26.21 7.92 25.6 8.35C24.95 8.8 24.02 9.2 22.82 9.56C21.61 9.91 20.2 10.19 18.62 10.39C16.98 10.59 15.26 10.7 13.46 10.7C11.66 10.7 9.93 10.59 8.29 10.39C6.71 10.19 5.31 9.91 4.09 9.56C2.89 9.2 1.96 8.8 1.31 8.35C0.7 7.92 0.39 7.5 0.39 7.07L0.39 7.07C0.39 6.92 0.38 6.67 0.35 6.33C0.33 6.09 0.31 5.91 0.31 5.78C0.29 5.57 0.29 5.39 0.3 5.22C0.31 4.81 0.39 4.46 0.52 4.16C0.56 4.08 0.6 4 0.65 3.92C0.8 3.67 1.01 3.45 1.28 3.27C1.7 2.99 2.26 2.78 2.96 2.65C3.47 2.55 4.32 2.55 5.49 2.64C5.97 2.68 6.53 2.74 7.18 2.81C7.58 2.85 8.17 2.93 8.97 3.02C10.1 3.16 10.92 3.26 11.43 3.31C12.28 3.4 12.96 3.44 13.46 3.44C14.29 3.44 15.23 3.4 16.27 3.31C16.88 3.26 17.78 3.18 18.95 3.05C19.79 2.96 20.4 2.9 20.79 2.86C21.44 2.8 22 2.77 22.46 2.75C23.59 2.71 24.46 2.8 25.08 3.01C25.42 3.12 25.71 3.27 25.93 3.46C26 3.52 26.07 3.59 26.13 3.66C26.27 3.82 26.38 4 26.47 4.2C26.75 4.86 26.77 5.8 26.53 7.01L26.52 7.04Z" fill="#444443" fill-opacity="0.285714" fill-rule="evenodd"/>
			<ellipse id="Эллипс 14" cx="13.461670" cy="3.928467" rx="13.364669" ry="3.928481" fill="#584C12" fill-opacity="1.000000"/>
			<ellipse id="Эллипс 14" cx="13.461670" cy="3.928467" rx="13.214669" ry="3.778481" stroke="#444443" stroke-opacity="0.285714" stroke-width="0.300000"/>
		</g>
		<path id="b" d="M9.39 36.95Q9.9 36.68 10.25 36.08Q10.56 36.37 10.97 36.57Q11.25 36.71 11.54 36.81Q12.58 37.2 13.77 37.2Q15.86 37.2 17.47 36.32Q18.34 35.85 19.07 35.12Q19.73 34.45 20.19 33.66Q21.14 31.99 21.14 29.78Q21.14 27.07 19.84 25.35Q19.57 24.99 19.24 24.68Q18.54 24 17.72 23.58Q16.3 22.84 14.5 22.84Q13.21 22.84 12.16 23.35Q11.47 23.68 10.88 24.24L10.88 16.51Q10.88 15.72 10.49 15.4Q10.24 15.2 9.82 15.2Q9.47 15.2 9.13 15.27Q8.93 15.31 8.74 15.37Q8.21 15.54 7.23 15.63Q6.21 15.73 5.89 16.26Q5.75 16.49 5.75 16.82Q5.75 17.14 5.9 17.37Q5.97 17.49 6.09 17.58Q6.1 17.59 6.12 17.6Q6.45 17.85 6.98 17.85L8.14 17.69Q8.24 17.69 8.32 17.74Q8.37 17.77 8.41 17.83Q8.51 17.96 8.51 18.5L8.51 31.59Q8.51 33.45 8.36 34.09Q8.29 34.39 8.13 34.62Q7.95 34.9 7.66 35.09Q7.29 35.34 7.17 35.67Q7.1 35.84 7.1 36.04Q7.1 36.58 7.37 36.87Q7.68 37.2 8.35 37.2Q8.94 37.2 9.39 36.95ZM11.46 34.42Q11.13 34.24 10.83 34Q10.88 33.62 10.88 33.15L10.88 26.65Q11.61 25.79 12.55 25.4Q13.34 25.06 14.28 25.06Q15.69 25.06 16.7 25.69Q17.15 25.97 17.53 26.39Q17.61 26.48 17.69 26.57Q18.74 27.87 18.74 30.02Q18.74 31.79 17.91 33.01Q17.67 33.37 17.35 33.68Q16.6 34.41 15.7 34.75Q14.94 35.04 14.06 35.04Q12.59 35.04 11.46 34.42Z" fill="#FFFFFF" fill-opacity="1.000000" fill-rule="evenodd"/>
	</g>
</svg>
