<svg width="39.000000" height="58.000000" viewBox="0 0 39 58" fill="none" xmlns="http://www.w3.org/2000/svg" xmlns:xlink="http://www.w3.org/1999/xlink">
	<desc>
			Created with Pixso.
	</desc>
	<defs>
		<filter id="filter_71_454_dd" x="-0.150146" y="5.849792" width="39.301758" height="54.300232" filterUnits="userSpaceOnUse" color-interpolation-filters="sRGB">
			<feFlood flood-opacity="0" result="BackgroundImageFix"/>
			<feColorMatrix in="SourceAlpha" type="matrix" values="0 0 0 0 0 0 0 0 0 0 0 0 0 0 0 0 0 0 127 0" result="hardAlpha"/>
			<feOffset dx="4" dy="0"/>
			<feGaussianBlur stdDeviation="1"/>
			<feComposite in2="hardAlpha" operator="out" k2="-1" k3="1"/>
			<feColorMatrix type="matrix" values="0 0 0 0 0 0 0 0 0 0 0 0 0 0 0 0 0 0 0.2 0"/>
			<feBlend mode="normal" in2="BackgroundImageFix" result="effect_dropShadow_1"/>
			<feBlend mode="normal" in="SourceGraphic" in2="effect_dropShadow_1" result="shape"/>
		</filter>
		<filter id="filter_71_491_dd" x="0.000000" y="-2.000000" width="39.000000" height="19.000000" filterUnits="userSpaceOnUse" color-interpolation-filters="sRGB">
			<feFlood flood-opacity="0" result="BackgroundImageFix"/>
			<feColorMatrix in="SourceAlpha" type="matrix" values="0 0 0 0 0 0 0 0 0 0 0 0 0 0 0 0 0 0 127 0" result="hardAlpha"/>
			<feOffset dx="4" dy="0"/>
			<feGaussianBlur stdDeviation="1"/>
			<feComposite in2="hardAlpha" operator="out" k2="-1" k3="1"/>
			<feColorMatrix type="matrix" values="0 0 0 0 0 0 0 0 0 0 0 0 0 0 0 0 0 0 0.2 0"/>
			<feBlend mode="normal" in2="BackgroundImageFix" result="effect_dropShadow_1"/>
			<feBlend mode="normal" in="SourceGraphic" in2="effect_dropShadow_1" result="shape"/>
		</filter>
		<clipPath id="clip71_453">
			<rect id="банка11" width="39.000000" height="58.000000" fill="white" fill-opacity="0"/>
		</clipPath>
	</defs>
	<rect id="банка11" width="39.000000" height="58.000000" fill="#FFFFFF" fill-opacity="0"/>
	<g clip-path="url(#clip71_453)">
		<g filter="url(#filter_71_454_dd)">
			<path id="Прямоугольник 32" d="M1.24 9.12C2.03 12 8.7 13.91 16.16 13.91C23.63 13.91 30.3 12 31.09 9.12C31.87 6.25 32.66 53.17 31.09 54.12C29.52 55.08 25.2 57 17.74 57C10.28 57 3.6 56.04 1.24 54.12C-1.12 52.21 0.46 6.25 1.24 9.12Z" fill="#586076" fill-opacity="1.000000" fill-rule="evenodd"/>
			<path id="Прямоугольник 32" d="M31.09 54.12C29.52 55.08 25.2 57 17.74 57C10.28 57 3.6 56.04 1.24 54.12C-1.12 52.21 0.46 6.25 1.24 9.12C2.03 12 8.7 13.91 16.16 13.91C23.63 13.91 30.3 12 31.09 9.12C31.87 6.25 32.66 53.17 31.09 54.12Z" stroke="#444343" stroke-opacity="1.000000" stroke-width="0.300000"/>
		</g>
		<circle id="Эллипс 15" cx="6.166748" cy="50.599976" r="0.500000" fill="#22154A" fill-opacity="1.000000"/>
		<circle id="Эллипс 15" cx="23.500000" cy="38.500000" r="0.500000" fill="#22154A" fill-opacity="1.000000"/>
		<circle id="Эллипс 15" cx="26.388916" cy="46.799988" r="0.500000" fill="#22154A" fill-opacity="1.000000"/>
		<circle id="Эллипс 15" cx="17.055664" cy="50.599976" r="0.500000" fill="#22154A" fill-opacity="1.000000"/>
		<circle id="Эллипс 15" cx="4.611084" cy="43.000000" r="0.500000" fill="#22154A" fill-opacity="1.000000"/>
		<circle id="Эллипс 15" cx="10.500000" cy="42.500000" r="0.500000" fill="#22154A" fill-opacity="1.000000"/>
		<circle id="Эллипс 15" cx="27.944336" cy="35.400024" r="0.500000" fill="#22154A" fill-opacity="1.000000"/>
		<circle id="Эллипс 15" cx="24.833252" cy="29.700012" r="0.500000" fill="#22154A" fill-opacity="1.000000"/>
		<circle id="Эллипс 15" cx="22.500000" cy="33.500000" r="0.500000" fill="#22154A" fill-opacity="1.000000"/>
		<circle id="Эллипс 15" cx="1.500000" cy="31.599976" r="0.500000" fill="#22154A" fill-opacity="1.000000"/>
		<circle id="Эллипс 15" cx="3.055664" cy="24.000000" r="0.500000" fill="#22154A" fill-opacity="1.000000"/>
		<circle id="Эллипс 15" cx="20.500000" cy="42.500000" r="0.500000" fill="#22154A" fill-opacity="1.000000"/>
		<circle id="Эллипс 15" cx="6.166748" cy="37.299988" r="0.500000" fill="#22154A" fill-opacity="1.000000"/>
		<circle id="Эллипс 15" cx="27.944336" cy="22.099976" r="0.500000" fill="#22154A" fill-opacity="1.000000"/>
		<circle id="Эллипс 15" cx="27.944336" cy="14.500000" r="0.500000" fill="#22154A" fill-opacity="1.000000"/>
		<circle id="Эллипс 15" cx="21.722168" cy="14.500000" r="0.500000" fill="#22154A" fill-opacity="1.000000"/>
		<circle id="Эллипс 15" cx="14.500000" cy="18.500000" r="0.500000" fill="#22154A" fill-opacity="1.000000"/>
		<circle id="Эллипс 15" cx="9.277832" cy="16.400024" r="0.500000" fill="#22154A" fill-opacity="1.000000"/>
		<circle id="Эллипс 15" cx="3.055664" cy="14.500000" r="0.500000" fill="#22154A" fill-opacity="1.000000"/>
		<circle id="Эллипс 15" cx="18.500000" cy="23.500000" r="0.500000" fill="#22154A" fill-opacity="1.000000"/>
		<circle id="Эллипс 15" cx="15.500000" cy="45.500000" r="0.500000" fill="#22154A" fill-opacity="1.000000"/>
		<circle id="Эллипс 15" cx="11.500000" cy="53.500000" r="0.500000" fill="#22154A" fill-opacity="1.000000"/>
		<circle id="Эллипс 15" cx="20.500000" cy="54.500000" r="0.500000" fill="#22154A" fill-opacity="1.000000"/>
		<circle id="Эллипс 15" cx="27.500000" cy="52.500000" r="0.500000" fill="#22154A" fill-opacity="1.000000"/>
		<circle id="Эллипс 15" cx="10.500000" cy="46.500000" r="0.500000" fill="#22154A" fill-opacity="1.000000"/>
		<circle id="Эллипс 15" cx="20.500000" cy="46.500000" r="0.500000" fill="#22154A" fill-opacity="1.000000"/>
		<circle id="Эллипс 15" cx="30.500000" cy="41.500000" r="0.500000" fill="#22154A" fill-opacity="1.000000"/>
		<circle id="Эллипс 15" cx="29.500000" cy="29.500000" r="0.500000" fill="#22154A" fill-opacity="1.000000"/>
		<circle id="Эллипс 15" cx="9.500000" cy="22.500000" r="0.500000" fill="#22154A" fill-opacity="1.000000"/>
		<circle id="Эллипс 15" cx="2.500000" cy="41.500000" r="0.500000" fill="#22154A" fill-opacity="1.000000"/>
		<circle id="Эллипс 15" cx="4.500000" cy="48.500000" r="0.500000" fill="#22154A" fill-opacity="1.000000"/>
		<circle id="Эллипс 15" cx="7.500000" cy="31.500000" r="0.500000" fill="#22154A" fill-opacity="1.000000"/>
		<circle id="Эллипс 15" cx="4.500000" cy="20.500000" r="0.500000" fill="#22154A" fill-opacity="1.000000"/>
		<circle id="Эллипс 15" cx="26.500000" cy="18.500000" r="0.500000" fill="#22154A" fill-opacity="1.000000"/>
		<circle id="Эллипс 15" cx="20.500000" cy="19.500000" r="0.500000" fill="#22154A" fill-opacity="1.000000"/>
		<g filter="url(#filter_71_491_dd)">
			<path id="Эллипс 14" d="M0.11 9.35C0.11 7.71 -0.96 4.61 3.44 3.78C5.9 3.32 12.82 4.71 15.95 4.71C24.7 4.71 33.46 1 31.79 9.35C31.79 11.92 24.7 14 15.95 14C7.2 14 0.11 11.92 0.11 9.35Z" fill="#C24040" fill-opacity="1.000000" fill-rule="evenodd"/>
			<path id="Эллипс 14" d="M31.79 9.35C31.79 11.92 24.7 14 15.95 14C7.2 14 0.11 11.92 0.11 9.35C0.11 9.1 0.09 8.82 0.06 8.51C-0.09 6.82 -0.29 4.48 3.44 3.78C4.88 3.51 7.84 3.87 10.68 4.22C12.7 4.47 14.65 4.71 15.95 4.71C18.16 4.71 20.38 4.47 22.43 4.25C28.47 3.6 33.03 3.11 31.79 9.35ZM31.49 9.32L31.49 9.35L31.49 9.37C31.48 9.89 31.11 10.4 30.37 10.91C29.6 11.45 28.5 11.93 27.07 12.35C25.62 12.77 23.96 13.1 22.08 13.33C20.13 13.57 18.09 13.7 15.95 13.7C13.81 13.7 11.77 13.57 9.82 13.33C7.94 13.1 6.28 12.77 4.83 12.35C3.4 11.93 2.3 11.45 1.53 10.91C0.79 10.4 0.42 9.89 0.41 9.37C0.41 9.36 0.41 9.36 0.41 9.35C0.41 9.18 0.39 8.89 0.36 8.49C0.33 8.2 0.32 7.98 0.31 7.84C0.29 7.59 0.29 7.37 0.3 7.17C0.32 6.67 0.41 6.25 0.57 5.9C0.61 5.8 0.66 5.7 0.72 5.61C0.91 5.3 1.17 5.04 1.49 4.82C1.99 4.48 2.66 4.23 3.5 4.08C4.11 3.96 5.12 3.96 6.51 4.07C7.08 4.11 7.75 4.18 8.52 4.27C8.99 4.32 9.69 4.4 10.64 4.52C11.98 4.68 12.95 4.8 13.55 4.86C14.56 4.96 15.36 5.01 15.95 5.01C16.94 5.01 18.05 4.96 19.28 4.86C20 4.8 21.06 4.7 22.46 4.55C23.45 4.44 24.18 4.37 24.64 4.33C25.41 4.26 26.07 4.21 26.62 4.2C27.96 4.15 29 4.26 29.75 4.5C30.16 4.64 30.5 4.82 30.77 5.05C30.86 5.13 30.94 5.21 31.02 5.3C31.19 5.49 31.32 5.7 31.42 5.95C31.76 6.74 31.78 7.85 31.5 9.29L31.49 9.32Z" fill="#444343" fill-opacity="1.000000" fill-rule="evenodd"/>
			<ellipse id="Эллипс 14" cx="15.954346" cy="5.642761" rx="15.839607" ry="4.642756" fill="#C24040" fill-opacity="1.000000"/>
			<ellipse id="Эллипс 14" cx="15.954346" cy="5.642761" rx="15.689608" ry="4.492756" stroke="#444343" stroke-opacity="1.000000" stroke-width="0.300000"/>
		</g>
		<path id="S" d="M15.94 23.8Q15.94 24.02 15.96 24.14Q12.1 24.55 10.17 26.47Q9.1 27.54 9.06 28.66Q9.06 28.7 9.06 28.75Q9.06 29.54 9.39 30.15Q10.28 31.76 13.5 32.09Q16.37 32.36 17.66 33.18Q18.2 33.53 18.52 34.03Q18.94 34.7 18.94 35.63Q18.94 36.66 18.51 37.44Q18.25 37.91 17.83 38.29Q17.3 38.77 16.48 39.07Q15.66 39.36 14.89 39.36Q12.62 39.36 11.57 38.43Q10.84 37.78 9.86 36.05Q9.45 35.33 9.13 35.09Q8.89 34.91 8.62 34.87Q8.53 34.85 8.43 34.85Q8.15 34.85 7.97 34.98Q7.91 35.03 7.87 35.09Q7.72 35.26 7.69 35.45Q7.67 35.52 7.67 35.6Q7.67 35.87 7.76 36.17Q7.85 36.47 8.5 37.39L9.87 39.3Q10.58 40.33 10.66 41.19Q10.7 41.6 10.93 41.81Q11.17 42.05 11.65 42.05Q11.88 42.05 12.06 41.95Q12.15 41.9 12.23 41.82Q12.46 41.6 12.67 41.08Q13.23 41.16 13.83 41.16Q16.07 41.16 17.65 40.38Q18.02 40.2 18.36 39.97Q19.28 39.35 19.96 38.37Q20.41 37.73 20.64 37.01Q20.88 36.25 20.88 35.41Q20.88 33.94 20.22 32.89Q19.86 32.33 19.32 31.9Q17.78 30.68 14.3 30.35Q12.53 30.18 11.85 29.74Q11.5 29.51 11.33 29.19Q11.17 28.89 11.17 28.5Q11.17 28.16 11.31 27.89Q11.45 27.6 11.65 27.35Q12.79 25.89 15.79 25.89Q16.13 25.89 16.42 26.01Q16.62 26.09 16.8 26.22Q17.23 26.56 17.87 27.58Q18.5 28.6 19.13 28.6Q19.49 28.6 19.68 28.42Q19.93 28.2 19.93 27.71Q19.93 27.28 19.46 26.69L18.84 25.92Q18.39 25.35 18 24.54Q17.61 23.73 17.31 23.45Q17.01 23.17 16.72 23.17Q16.62 23.17 16.54 23.19Q16.35 23.24 16.18 23.38Q15.96 23.57 15.94 23.78Q15.94 23.79 15.94 23.8Z" fill="#FFFFFF" fill-opacity="1.000000" fill-rule="evenodd"/>
	</g>
</svg>
