<svg width="55.000000" height="54.000000" viewBox="0 0 55 54" fill="none" xmlns="http://www.w3.org/2000/svg" xmlns:xlink="http://www.w3.org/1999/xlink">
	<desc>
			Created with Pixso.
	</desc>
	<defs>
		<filter id="filter_76_712_dd" x="-1.150146" y="4.849976" width="58.300293" height="52.300049" filterUnits="userSpaceOnUse" color-interpolation-filters="sRGB">
			<feFlood flood-opacity="0" result="BackgroundImageFix"/>
			<feColorMatrix in="SourceAlpha" type="matrix" values="0 0 0 0 0 0 0 0 0 0 0 0 0 0 0 0 0 0 127 0" result="hardAlpha"/>
			<feOffset dx="3" dy="0"/>
			<feGaussianBlur stdDeviation="1.33333"/>
			<feComposite in2="hardAlpha" operator="out" k2="-1" k3="1"/>
			<feColorMatrix type="matrix" values="0 0 0 0 0 0 0 0 0 0 0 0 0 0 0 0 0 0 0.2 0"/>
			<feBlend mode="normal" in2="BackgroundImageFix" result="effect_dropShadow_1"/>
			<feBlend mode="normal" in="SourceGraphic" in2="effect_dropShadow_1" result="shape"/>
		</filter>
		<filter id="filter_76_715_dd" x="1.030273" y="4.735107" width="53.163818" height="16.764893" filterUnits="userSpaceOnUse" color-interpolation-filters="sRGB">
			<feFlood flood-opacity="0" result="BackgroundImageFix"/>
			<feColorMatrix in="SourceAlpha" type="matrix" values="0 0 0 0 0 0 0 0 0 0 0 0 0 0 0 0 0 0 127 0" result="hardAlpha"/>
			<feOffset dx="3" dy="0"/>
			<feGaussianBlur stdDeviation="1.33333"/>
			<feComposite in2="hardAlpha" operator="out" k2="-1" k3="1"/>
			<feColorMatrix type="matrix" values="0 0 0 0 0 0 0 0 0 0 0 0 0 0 0 0 0 0 0.2 0"/>
			<feBlend mode="normal" in2="BackgroundImageFix" result="effect_dropShadow_1"/>
			<feBlend mode="normal" in="SourceGraphic" in2="effect_dropShadow_1" result="shape"/>
		</filter>
		<clipPath id="clip76_711">
			<rect id="Banka-krugR" width="55.000000" height="54.000000" fill="white" fill-opacity="0"/>
		</clipPath>
	</defs>
	<rect id="Banka-krugR" width="55.000000" height="54.000000" fill="#FFFFFF" fill-opacity="0"/>
	<g clip-path="url(#clip76_711)">
		<g filter="url(#filter_76_712_dd)">
			<path id="body" d="M8.78 9C10.53 9 16.74 9 23.84 9C30.79 9 38.63 9 40.63 9C44.69 9 50.84 21.94 49.9 32.94C48.95 43.94 41.48 53 37.74 53C33.99 53 15.15 53 11.67 53C8.2 53 1.04 43.94 0.09 32.94C-0.85 21.94 5.3 9 8.78 9Z" fill="#8FA888" fill-opacity="1.000000" fill-rule="evenodd"/>
			<path id="body" d="M11.67 53C8.2 53 1.04 43.94 0.09 32.94C-0.85 21.94 5.3 9 8.78 9C10.53 9 16.74 9 23.84 9C30.79 9 38.63 9 40.63 9C44.69 9 50.84 21.94 49.9 32.94C48.95 43.94 41.48 53 37.74 53C33.99 53 15.15 53 11.67 53Z" stroke="#C7C4C4" stroke-opacity="1.000000" stroke-width="0.300000"/>
		</g>
		<path id="R" d="M20.82 43.91L23.35 44Q24.23 44 24.58 43.56Q24.81 43.28 24.81 42.81L24.81 42.79Q24.81 42.46 24.43 42.13C24.17 41.91 23.73 41.79 23.09 41.79L22.13 41.79L22.13 36.95L26.44 36.95C27.28 38.67 28.1 40 28.91 40.95C29.72 41.89 30.79 42.76 32.11 43.54C32.85 43.98 33.7 44.2 34.67 44.2C35.11 44.2 35.44 44.1 35.68 43.89C35.92 43.68 36.04 43.45 36.04 43.22C36.04 42.98 36.01 42.79 35.97 42.64C35.81 42.2 35.22 41.88 34.2 41.67C33.18 41.46 32.14 40.82 31.06 39.74C30.49 39.17 29.76 38.15 28.87 36.69C30.85 36.31 32.37 35.51 33.45 34.3C34.52 33.09 35.05 31.59 35.05 29.8C35.05 28.91 34.92 28.09 34.66 27.36C33.63 24.54 30.81 23.02 26.22 22.8C25.38 22.76 24.04 22.74 22.21 22.74C20.37 22.74 18.98 22.79 18.04 22.91Q17.2 23.02 16.86 23.48Q16.62 23.81 16.62 24.31C16.62 24.56 16.76 24.79 17.05 25Q17.15 25.07 17.25 25.13Q17.61 25.31 18.05 25.31Q18.63 25.31 19.66 25.1L19.66 41.79L18.56 41.79Q17.87 41.79 17.45 42.11C17.17 42.32 17.03 42.59 17.03 42.91C17.03 43.24 17.15 43.51 17.39 43.7C17.62 43.9 17.94 44 18.32 44Q18.91 44 19.42 43.95L20.03 43.93C20.22 43.92 20.48 43.91 20.82 43.91ZM28.91 25.29C31.28 25.93 32.47 27.48 32.47 29.95C32.47 30.77 32.34 31.48 32.07 32.1Q31.99 32.3 31.88 32.48Q30.45 34.93 24.81 34.93L22.13 34.93L22.13 24.88C22.46 24.86 23.02 24.85 23.8 24.85C26.09 24.85 27.79 25 28.91 25.29Z" fill="#FFFFFF" fill-opacity="1.000000" fill-rule="evenodd"/>
		<g filter="url(#filter_76_715_dd)">
			<path id="Прямоугольник 37" d="M3.99 10C6 8.99 43.99 8 43.99 9.5C43.99 11 48.12 15.5 46.99 17C45.87 18.5 44.37 15.87 41.49 16C38.62 16.12 38.5 17.49 34.5 17.49C30.5 17.49 26.99 16 24.99 15.5C22.99 15 18.37 17.49 14.5 17.49C10.62 17.49 8.99 13.5 7.49 15C5.99 16.5 3.99 17.5 2.49 17C1.68 16.73 2.08 15.68 2.5 14C2.85 12.56 3.07 10.46 3.99 10Z" fill="#F2F1D5" fill-opacity="1.000000" fill-rule="evenodd"/>
		</g>
		<circle id="Эллипс 16" cx="29.500000" cy="15.500000" r="0.500000" fill="#FFFFFF" fill-opacity="1.000000"/>
		<circle id="Эллипс 16" cx="38.500000" cy="9.500000" r="0.500000" fill="#FFFFFF" fill-opacity="1.000000"/>
		<circle id="Эллипс 16" cx="41.500000" cy="12.500000" r="0.500000" fill="#FFFFFF" fill-opacity="1.000000"/>
		<circle id="Эллипс 16" cx="42.500000" cy="15.500000" r="0.500000" fill="#FFFFFF" fill-opacity="1.000000"/>
		<circle id="Эллипс 16" cx="37.500000" cy="13.500000" r="0.500000" fill="#FFFFFF" fill-opacity="1.000000"/>
		<circle id="Эллипс 16" cx="38.500000" cy="15.500000" r="0.500000" fill="#FFFFFF" fill-opacity="1.000000"/>
		<circle id="Эллипс 16" cx="33.500000" cy="13.500000" r="0.500000" fill="#FFFFFF" fill-opacity="1.000000"/>
		<circle id="Эллипс 16" cx="36.500000" cy="10.500000" r="0.500000" fill="#FFFFFF" fill-opacity="1.000000"/>
		<circle id="Эллипс 16" cx="32.500000" cy="10.500000" r="0.500000" fill="#FFFFFF" fill-opacity="1.000000"/>
		<circle id="Эллипс 16" cx="25.500000" cy="14.500000" r="0.500000" fill="#FFFFFF" fill-opacity="1.000000"/>
		<circle id="Эллипс 16" cx="27.500000" cy="12.500000" r="0.500000" fill="#FFFFFF" fill-opacity="1.000000"/>
		<circle id="Эллипс 16" cx="22.500000" cy="12.500000" r="0.500000" fill="#FFFFFF" fill-opacity="1.000000"/>
		<circle id="Эллипс 16" cx="24.500000" cy="9.500000" r="0.500000" fill="#FFFFFF" fill-opacity="1.000000"/>
		<circle id="Эллипс 16" cx="18.500000" cy="10.500000" r="0.500000" fill="#FFFFFF" fill-opacity="1.000000"/>
		<circle id="Эллипс 16" cx="18.500000" cy="13.500000" r="0.500000" fill="#FFFFFF" fill-opacity="1.000000"/>
		<circle id="Эллипс 16" cx="17.500000" cy="15.500000" r="0.500000" fill="#FFFFFF" fill-opacity="1.000000"/>
		<circle id="Эллипс 16" cx="12.500000" cy="15.500000" r="0.500000" fill="#FFFFFF" fill-opacity="1.000000"/>
		<circle id="Эллипс 16" cx="11.500000" cy="10.500000" r="0.500000" fill="#FFFFFF" fill-opacity="1.000000"/>
		<circle id="Эллипс 16" cx="5.500000" cy="15.500000" r="0.500000" fill="#FFFFFF" fill-opacity="1.000000"/>
		<circle id="Эллипс 16" cx="6.500000" cy="11.500000" r="0.500000" fill="#FFFFFF" fill-opacity="1.000000"/>
		<path id="Форма 56" d="M4.34 11.14L4.31 11.23C4.29 11.3 4.23 11.45 4.12 11.68C4.01 11.92 3.94 12.15 3.91 12.37C3.88 12.6 3.86 12.83 3.85 13.07C3.84 13.32 3.81 13.53 3.76 13.71C3.71 13.88 3.64 14.04 3.54 14.17C3.45 14.3 3.37 14.42 3.31 14.54C3.25 14.65 3.19 14.78 3.13 14.91C3.07 15.05 3 15.21 2.9 15.38" stroke="#D0D0D0" stroke-opacity="1.000000" stroke-width="0.200000" stroke-linecap="round"/>
		<path id="Форма 57" d="M4.57 13.62L4.57 13.7C4.57 13.76 4.53 13.9 4.45 14.13C4.37 14.36 4.26 14.62 4.12 14.92C3.99 15.21 3.82 15.46 3.61 15.69C3.41 15.91 3.29 16.08 3.26 16.18" stroke="#D0D0D0" stroke-opacity="1.000000" stroke-width="0.200000" stroke-linecap="round"/>
		<path id="Форма 58" d="M4.29 13.22L4.3 13.11C4.31 13.04 4.32 12.94 4.33 12.8" stroke="#D0D0D0" stroke-opacity="1.000000" stroke-width="0.200000" stroke-linecap="round"/>
		<path id="Форма 59" d="M5.02 11.25L5.08 11.12C5.13 11.04 5.2 10.87 5.31 10.62" stroke="#D0D0D0" stroke-opacity="1.000000" stroke-width="0.200000" stroke-linecap="round"/>
		<path id="Форма 60" d="M7.78 13.84L7.83 13.62C7.86 13.47 7.96 13.19 8.11 12.78" stroke="#D0D0D0" stroke-opacity="1.000000" stroke-width="0.200000" stroke-linecap="round"/>
		<path id="Форма 61" d="M9.76 9.9L9.72 10.15C9.7 10.32 9.66 10.56 9.6 10.85C9.53 11.15 9.46 11.42 9.37 11.67C9.28 11.91 9.16 12.23 8.99 12.6" stroke="#D0D0D0" stroke-opacity="1.000000" stroke-width="0.200000" stroke-linecap="round"/>
		<path id="Форма 62" d="M8.97 14.86L9.02 14.75C9.06 14.67 9.11 14.59 9.16 14.49" stroke="#D0D0D0" stroke-opacity="1.000000" stroke-width="0.200000" stroke-linecap="round"/>
		<path id="Форма 63" d="M9.47 13.45L9.43 13.53C9.4 13.58 9.31 13.7 9.17 13.9" stroke="#D0D0D0" stroke-opacity="1.000000" stroke-width="0.200000" stroke-linecap="round"/>
		<path id="Форма 64" d="M23.91 14.9L23.83 14.88C23.77 14.86 23.67 14.83 23.53 14.78C23.39 14.73 23.26 14.66 23.15 14.56C23.04 14.47 22.93 14.36 22.83 14.25C22.72 14.13 22.57 13.97 22.39 13.75C22.2 13.53 22.03 13.33 21.86 13.14C21.7 12.95 21.54 12.79 21.4 12.65C21.25 12.52 21.13 12.38 21.04 12.23C20.94 12.09 20.76 11.95 20.51 11.82" stroke="#D0D0D0" stroke-opacity="1.000000" stroke-width="0.200000" stroke-linecap="round"/>
		<path id="Форма 65" d="M18.4 9.46L18.46 9.5C18.5 9.53 18.6 9.58 18.74 9.65C18.88 9.73 19 9.84 19.09 9.98C19.19 10.13 19.26 10.28 19.31 10.44C19.37 10.6 19.47 10.79 19.62 11.01" stroke="#D0D0D0" stroke-opacity="1.000000" stroke-width="0.200000" stroke-linecap="round"/>
		<path id="Форма 66" d="M22.31 15.11L22.23 15.07C22.17 15.04 22.08 14.99 21.95 14.91C21.82 14.82 21.72 14.75 21.64 14.7" stroke="#D0D0D0" stroke-opacity="1.000000" stroke-width="0.200000" stroke-linecap="round"/>
		<path id="Форма 67" d="M21.08 13.74L21.02 13.67C20.98 13.63 20.89 13.56 20.76 13.45C20.63 13.35 20.5 13.23 20.38 13.1C20.26 12.98 20.13 12.82 20 12.62C19.87 12.43 19.75 12.26 19.66 12.12C19.56 11.98 19.36 11.75 19.06 11.44C18.75 11.13 18.5 10.91 18.3 10.78C18.1 10.66 17.91 10.56 17.74 10.48C17.56 10.4 17.41 10.3 17.29 10.18C17.17 10.05 17.03 9.94 16.88 9.83" stroke="#D0D0D0" stroke-opacity="1.000000" stroke-width="0.200000" stroke-linecap="round"/>
		<path id="Форма 71" d="M45.91 17.13L46.01 17.1C46.07 17.09 46.16 17.01 46.3 16.86C46.43 16.71 46.52 16.53 46.57 16.32C46.61 16.11 46.63 15.89 46.62 15.65" stroke="#D0D0D0" stroke-opacity="1.000000" stroke-width="0.200000" stroke-linecap="round"/>
		<path id="Форма 72" d="M46.22 15.08L46.15 15.04C46.11 15.01 45.94 14.86 45.64 14.6C45.33 14.33 45.11 14.13 44.97 13.99C44.83 13.86 44.65 13.7 44.42 13.52C44.2 13.34 44 13.19 43.85 13.08C43.69 12.96 43.53 12.85 43.37 12.72C43.21 12.6 43.03 12.43 42.83 12.21C42.62 12 42.43 11.78 42.24 11.55C42.05 11.32 41.83 11.09 41.56 10.87C41.3 10.64 41.02 10.43 40.74 10.23" stroke="#D0D0D0" stroke-opacity="1.000000" stroke-width="0.200000" stroke-linecap="round"/>
		<circle id="Эллипс 16" cx="44.500000" cy="13.500000" r="0.500000" fill="#FFFFFF" fill-opacity="1.000000"/>
		<path id="Форма 73" d="M41.86 9.78L41.88 9.83C41.9 9.86 41.95 9.95 42.04 10.07C42.13 10.2 42.24 10.34 42.36 10.5C42.49 10.66 42.61 10.83 42.74 11.01C42.87 11.2 42.99 11.37 43.1 11.52C43.22 11.67 43.37 11.82 43.55 11.97" stroke="#D0D0D0" stroke-opacity="1.000000" stroke-width="0.200000" stroke-linecap="round"/>
		<path id="Форма 74" d="M42.88 9.78L42.94 9.8C42.98 9.81 43.04 9.87 43.13 9.97C43.23 10.08 43.32 10.18 43.4 10.3C43.49 10.41 43.58 10.53 43.66 10.65C43.74 10.77 43.84 10.91 43.96 11.09C44.08 11.26 44.19 11.41 44.27 11.53C44.36 11.66 44.44 11.79 44.52 11.92C44.6 12.05 44.69 12.19 44.79 12.32C44.89 12.46 45.01 12.57 45.13 12.65C45.26 12.73 45.34 12.84 45.39 13C45.43 13.15 45.47 13.28 45.49 13.39" stroke="#D0D0D0" stroke-opacity="1.000000" stroke-width="0.200000" stroke-linecap="round"/>
		<path id="Форма 75" d="M27.74 9.14L27.83 9.29C27.9 9.38 28.04 9.63 28.26 10.03C28.48 10.43 28.65 10.73 28.78 10.94" stroke="#D0D0D0" stroke-opacity="1.000000" stroke-width="0.200000" stroke-linecap="round"/>
		<path id="Форма 76" d="M29.93 11.69L29.9 11.61C29.89 11.56 29.81 11.39 29.66 11.1C29.51 10.8 29.33 10.52 29.11 10.25" stroke="#D0D0D0" stroke-opacity="1.000000" stroke-width="0.200000" stroke-linecap="round"/>
		<path id="Форма 77" d="M29.49 8.88L29.54 8.95C29.57 9 29.66 9.14 29.82 9.38C29.97 9.61 30.07 9.82 30.12 10" stroke="#D0D0D0" stroke-opacity="1.000000" stroke-width="0.200000" stroke-linecap="round"/>
		<path id="Форма 78" d="M13.71 9.47L13.71 9.6C13.71 9.68 13.69 9.88 13.65 10.19C13.62 10.5 13.57 10.73 13.5 10.87" stroke="#D0D0D0" stroke-opacity="1.000000" stroke-width="0.200000" stroke-linecap="round"/>
		<path id="Форма 79" d="M37.05 16.83L36.57 16.77C36.25 16.73 35.67 16.62 34.83 16.43C34 16.25 33.43 16.05 33.13 15.84C32.83 15.62 32.58 15.39 32.37 15.15C32.17 14.9 32.02 14.71 31.94 14.57C31.87 14.43 31.79 14.31 31.72 14.21" stroke="#D0D0D0" stroke-opacity="1.000000" stroke-width="0.200000" stroke-linecap="round"/>
		<path id="Форма 80" d="M32.78 16.4L32.66 16.28C32.58 16.2 32.36 16.03 32.02 15.79C31.67 15.55 31.34 15.26 31.04 14.91C30.75 14.57 30.38 14.13 29.95 13.59C29.51 13.06 29.06 12.56 28.59 12.09C28.12 11.63 27.69 11.13 27.28 10.6C26.87 10.07 26.59 9.7 26.42 9.48" stroke="#D0D0D0" stroke-opacity="1.000000" stroke-width="0.200000" stroke-linecap="round"/>
		<circle id="Эллипс 16" cx="14.500000" cy="12.500000" r="0.500000" fill="#FFFFFF" fill-opacity="1.000000"/>
		<ellipse id="Эллипс 17" cx="24.500000" cy="3.500000" rx="19.500000" ry="3.500000" fill="#F1F1F1" fill-opacity="1.000000"/>
		<ellipse id="Эллипс 17" cx="24.500000" cy="3.500000" rx="19.350000" ry="3.350000" stroke="#C7C4C4" stroke-opacity="1.000000" stroke-width="0.300000"/>
		<path id="Прямоугольник 38" d="M5.38 3.07C5.88 3.52 15.69 6 25.09 6C39.57 6 43.19 2.51 43.99 3.07C44.8 3.64 45.77 9 43.99 10.2C42.22 11.4 34.74 12 25.09 12C15.43 12 7.89 11.4 5.38 10.2C2.86 9 4.36 2.18 5.38 3.07Z" fill="#F1F1F1" fill-opacity="1.000000" fill-rule="evenodd"/>
		<path id="Прямоугольник 38" d="M5.38 3.07C5.88 3.52 15.69 6 25.09 6C35.41 6 40.22 4.22 42.41 3.41C43.3 3.08 43.76 2.91 43.99 3.07C44.8 3.64 45.77 9 43.99 10.2C42.22 11.4 34.74 12 25.09 12C15.43 12 7.89 11.4 5.38 10.2C2.86 9 4.36 2.18 5.38 3.07ZM44.56 8.6C44.42 9.26 44.17 9.71 43.83 9.95C43.42 10.22 42.68 10.47 41.59 10.69C40.51 10.91 39.14 11.1 37.47 11.25C34.18 11.55 30.05 11.7 25.09 11.7C20.15 11.7 15.98 11.55 12.58 11.25C10.86 11.1 9.4 10.91 8.21 10.69C7 10.46 6.1 10.21 5.5 9.93C5.48 9.92 5.46 9.9 5.44 9.89C4.98 9.64 4.65 9.14 4.46 8.38C4.37 8.02 4.32 7.62 4.3 7.17C4.29 6.76 4.3 6.33 4.35 5.89C4.39 5.47 4.46 5.07 4.56 4.69C4.65 4.33 4.75 4.02 4.87 3.77C4.97 3.54 5.07 3.39 5.16 3.31C5.17 3.31 5.17 3.31 5.18 3.3C5.36 3.46 6.06 3.69 7.27 4.01C8.6 4.36 10.13 4.69 11.84 5C13.93 5.38 16.01 5.68 18.08 5.91C20.56 6.17 22.9 6.3 25.09 6.3C29.57 6.3 33.49 5.97 36.86 5.31C38.08 5.07 39.23 4.78 40.32 4.45C40.94 4.26 41.67 4.01 42.52 3.69C43.03 3.5 43.36 3.39 43.52 3.35C43.63 3.32 43.71 3.31 43.77 3.31C43.8 3.31 43.81 3.32 43.82 3.32C43.88 3.36 43.95 3.46 44.03 3.63C44.12 3.82 44.21 4.06 44.3 4.34C44.48 4.98 44.61 5.67 44.66 6.42C44.73 7.26 44.7 7.98 44.56 8.6Z" fill="#C7C4C4" fill-opacity="1.000000" fill-rule="evenodd"/>
	</g>
</svg>
