<svg width="55.000000" height="54.000000" viewBox="0 0 55 54" fill="none" xmlns="http://www.w3.org/2000/svg" xmlns:xlink="http://www.w3.org/1999/xlink">
	<desc>
			Created with Pixso.
	</desc>
	<defs>
		<filter id="filter_76_712_dd" x="-1.150146" y="4.849976" width="58.300293" height="52.300049" filterUnits="userSpaceOnUse" color-interpolation-filters="sRGB">
			<feFlood flood-opacity="0" result="BackgroundImageFix"/>
			<feColorMatrix in="SourceAlpha" type="matrix" values="0 0 0 0 0 0 0 0 0 0 0 0 0 0 0 0 0 0 127 0" result="hardAlpha"/>
			<feOffset dx="3" dy="0"/>
			<feGaussianBlur stdDeviation="1.33333"/>
			<feComposite in2="hardAlpha" operator="out" k2="-1" k3="1"/>
			<feColorMatrix type="matrix" values="0 0 0 0 0 0 0 0 0 0 0 0 0 0 0 0 0 0 0.2 0"/>
			<feBlend mode="normal" in2="BackgroundImageFix" result="effect_dropShadow_1"/>
			<feBlend mode="normal" in="SourceGraphic" in2="effect_dropShadow_1" result="shape"/>
		</filter>
		<filter id="filter_76_715_dd" x="1.030273" y="4.735107" width="53.163818" height="16.764893" filterUnits="userSpaceOnUse" color-interpolation-filters="sRGB">
			<feFlood flood-opacity="0" result="BackgroundImageFix"/>
			<feColorMatrix in="SourceAlpha" type="matrix" values="0 0 0 0 0 0 0 0 0 0 0 0 0 0 0 0 0 0 127 0" result="hardAlpha"/>
			<feOffset dx="3" dy="0"/>
			<feGaussianBlur stdDeviation="1.33333"/>
			<feComposite in2="hardAlpha" operator="out" k2="-1" k3="1"/>
			<feColorMatrix type="matrix" values="0 0 0 0 0 0 0 0 0 0 0 0 0 0 0 0 0 0 0.2 0"/>
			<feBlend mode="normal" in2="BackgroundImageFix" result="effect_dropShadow_1"/>
			<feBlend mode="normal" in="SourceGraphic" in2="effect_dropShadow_1" result="shape"/>
		</filter>
		<clipPath id="clip76_711">
			<rect id="Banka-krugR" width="55.000000" height="54.000000" fill="white" fill-opacity="0"/>
		</clipPath>
	</defs>
	<rect id="Banka-krugR" width="55.000000" height="54.000000" fill="#FFFFFF" fill-opacity="0"/>
	<g clip-path="url(#clip76_711)">
		<g filter="url(#filter_76_712_dd)">
			<path id="body" d="M8.78 9C10.53 9 16.74 9 23.84 9C30.79 9 38.63 9 40.63 9C44.69 9 50.84 21.94 49.9 32.94C48.95 43.94 41.48 53 37.74 53C33.99 53 15.15 53 11.67 53C8.2 53 1.04 43.94 0.09 32.94C-0.85 21.94 5.3 9 8.78 9Z" fill="#8FA888" fill-opacity="1.000000" fill-rule="evenodd"/>
			<path id="body" d="M11.67 53C8.2 53 1.04 43.94 0.09 32.94C-0.85 21.94 5.3 9 8.78 9C10.53 9 16.74 9 23.84 9C30.79 9 38.63 9 40.63 9C44.69 9 50.84 21.94 49.9 32.94C48.95 43.94 41.48 53 37.74 53C33.99 53 15.15 53 11.67 53Z" stroke="#C7C4C4" stroke-opacity="1.000000" stroke-width="0.300000"/>
		</g>
		<path id="R" d="M21.57 38.93L23.56 39Q24.25 39 24.53 38.66Q24.71 38.43 24.71 38.06L24.71 38.05Q24.7 37.79 24.41 37.53C24.21 37.35 23.86 37.27 23.35 37.27L22.6 37.27L22.6 33.46L25.99 33.46C26.65 34.81 27.29 35.85 27.93 36.6C28.57 37.34 29.41 38.02 30.44 38.64Q30.53 38.69 30.61 38.73Q31.42 39.16 32.45 39.16C32.8 39.16 33.06 39.07 33.25 38.91C33.43 38.74 33.53 38.57 33.53 38.38C33.53 38.2 33.51 38.05 33.47 37.93C33.35 37.59 32.89 37.33 32.09 37.17Q30.88 36.92 29.62 35.65C29.17 35.2 28.59 34.4 27.9 33.26C29.45 32.96 30.65 32.33 31.49 31.38C32.33 30.43 32.75 29.25 32.75 27.84Q32.75 26.79 32.44 25.92Q32.21 25.3 31.84 24.78Q30.21 22.55 25.81 22.34C25.16 22.31 24.1 22.29 22.66 22.29C21.22 22.29 20.13 22.34 19.39 22.43Q18.73 22.51 18.46 22.88Q18.27 23.13 18.27 23.53C18.27 23.73 18.38 23.91 18.61 24.07Q18.68 24.13 18.77 24.17Q19.05 24.31 19.4 24.31Q19.85 24.31 20.66 24.15L20.66 37.27L19.8 37.27Q19.25 37.27 18.92 37.51C18.7 37.68 18.6 37.89 18.6 38.15C18.6 38.4 18.69 38.61 18.87 38.76C19.06 38.92 19.31 39 19.61 39Q20.07 39 20.48 38.96L20.95 38.94C21.1 38.93 21.31 38.93 21.57 38.93ZM27.93 24.3C29.79 24.8 30.72 26.02 30.72 27.96C30.72 28.6 30.62 29.16 30.41 29.65Q30.35 29.8 30.26 29.94Q29.14 31.87 24.71 31.87L22.6 31.87L22.6 23.98C22.86 23.96 23.3 23.96 23.91 23.96Q26.61 23.96 27.93 24.3Z" fill="#FFFFFF" fill-opacity="1.000000" fill-rule="evenodd"/>
		<g filter="url(#filter_76_715_dd)">
			<path id="Прямоугольник 37" d="M3.99 10C6 8.99 43.99 8 43.99 9.5C43.99 11 48.12 15.5 46.99 17C45.87 18.5 44.37 15.87 41.49 16C38.62 16.12 38.5 17.49 34.5 17.49C30.5 17.49 26.99 16 24.99 15.5C22.99 15 18.37 17.49 14.5 17.49C10.62 17.49 8.99 13.5 7.49 15C5.99 16.5 3.99 17.5 2.49 17C1.68 16.73 2.08 15.68 2.5 14C2.85 12.56 3.07 10.46 3.99 10Z" fill="#F2F1D5" fill-opacity="1.000000" fill-rule="evenodd"/>
		</g>
		<circle id="Эллипс 16" cx="29.500000" cy="15.500000" r="0.500000" fill="#FFFFFF" fill-opacity="1.000000"/>
		<circle id="Эллипс 16" cx="38.500000" cy="9.500000" r="0.500000" fill="#FFFFFF" fill-opacity="1.000000"/>
		<circle id="Эллипс 16" cx="41.500000" cy="12.500000" r="0.500000" fill="#FFFFFF" fill-opacity="1.000000"/>
		<circle id="Эллипс 16" cx="42.500000" cy="15.500000" r="0.500000" fill="#FFFFFF" fill-opacity="1.000000"/>
		<circle id="Эллипс 16" cx="37.500000" cy="13.500000" r="0.500000" fill="#FFFFFF" fill-opacity="1.000000"/>
		<circle id="Эллипс 16" cx="38.500000" cy="15.500000" r="0.500000" fill="#FFFFFF" fill-opacity="1.000000"/>
		<circle id="Эллипс 16" cx="33.500000" cy="13.500000" r="0.500000" fill="#FFFFFF" fill-opacity="1.000000"/>
		<circle id="Эллипс 16" cx="36.500000" cy="10.500000" r="0.500000" fill="#FFFFFF" fill-opacity="1.000000"/>
		<circle id="Эллипс 16" cx="32.500000" cy="10.500000" r="0.500000" fill="#FFFFFF" fill-opacity="1.000000"/>
		<circle id="Эллипс 16" cx="25.500000" cy="14.500000" r="0.500000" fill="#FFFFFF" fill-opacity="1.000000"/>
		<circle id="Эллипс 16" cx="27.500000" cy="12.500000" r="0.500000" fill="#FFFFFF" fill-opacity="1.000000"/>
		<circle id="Эллипс 16" cx="22.500000" cy="12.500000" r="0.500000" fill="#FFFFFF" fill-opacity="1.000000"/>
		<circle id="Эллипс 16" cx="24.500000" cy="9.500000" r="0.500000" fill="#FFFFFF" fill-opacity="1.000000"/>
		<circle id="Эллипс 16" cx="18.500000" cy="10.500000" r="0.500000" fill="#FFFFFF" fill-opacity="1.000000"/>
		<circle id="Эллипс 16" cx="18.500000" cy="13.500000" r="0.500000" fill="#FFFFFF" fill-opacity="1.000000"/>
		<circle id="Эллипс 16" cx="17.500000" cy="15.500000" r="0.500000" fill="#FFFFFF" fill-opacity="1.000000"/>
		<circle id="Эллипс 16" cx="12.500000" cy="15.500000" r="0.500000" fill="#FFFFFF" fill-opacity="1.000000"/>
		<circle id="Эллипс 16" cx="11.500000" cy="10.500000" r="0.500000" fill="#FFFFFF" fill-opacity="1.000000"/>
		<circle id="Эллипс 16" cx="5.500000" cy="15.500000" r="0.500000" fill="#FFFFFF" fill-opacity="1.000000"/>
		<circle id="Эллипс 16" cx="6.500000" cy="11.500000" r="0.500000" fill="#FFFFFF" fill-opacity="1.000000"/>
		<path id="Форма 56" d="M4.34 11.14L4.31 11.23C4.29 11.3 4.23 11.45 4.12 11.68C4.01 11.92 3.94 12.15 3.91 12.37C3.88 12.6 3.86 12.83 3.85 13.07C3.84 13.32 3.81 13.53 3.76 13.71C3.71 13.88 3.64 14.04 3.54 14.17C3.45 14.3 3.37 14.42 3.31 14.54C3.25 14.65 3.19 14.78 3.13 14.91C3.07 15.05 3 15.21 2.9 15.38" stroke="#D0D0D0" stroke-opacity="1.000000" stroke-width="0.200000" stroke-linecap="round"/>
		<path id="Форма 57" d="M4.57 13.62L4.57 13.7C4.57 13.76 4.53 13.9 4.45 14.13C4.37 14.36 4.26 14.62 4.12 14.92C3.99 15.21 3.82 15.46 3.61 15.69C3.41 15.91 3.29 16.08 3.26 16.18" stroke="#D0D0D0" stroke-opacity="1.000000" stroke-width="0.200000" stroke-linecap="round"/>
		<path id="Форма 58" d="M4.29 13.22L4.3 13.11C4.31 13.04 4.32 12.94 4.33 12.8" stroke="#D0D0D0" stroke-opacity="1.000000" stroke-width="0.200000" stroke-linecap="round"/>
		<path id="Форма 59" d="M5.02 11.25L5.08 11.12C5.13 11.04 5.2 10.87 5.31 10.62" stroke="#D0D0D0" stroke-opacity="1.000000" stroke-width="0.200000" stroke-linecap="round"/>
		<path id="Форма 60" d="M7.78 13.84L7.83 13.62C7.86 13.47 7.96 13.19 8.11 12.78" stroke="#D0D0D0" stroke-opacity="1.000000" stroke-width="0.200000" stroke-linecap="round"/>
		<path id="Форма 61" d="M9.76 9.9L9.72 10.15C9.7 10.32 9.66 10.56 9.6 10.85C9.53 11.15 9.46 11.42 9.37 11.67C9.28 11.91 9.16 12.23 8.99 12.6" stroke="#D0D0D0" stroke-opacity="1.000000" stroke-width="0.200000" stroke-linecap="round"/>
		<path id="Форма 62" d="M8.97 14.86L9.02 14.75C9.06 14.67 9.11 14.59 9.16 14.49" stroke="#D0D0D0" stroke-opacity="1.000000" stroke-width="0.200000" stroke-linecap="round"/>
		<path id="Форма 63" d="M9.47 13.45L9.43 13.53C9.4 13.58 9.31 13.7 9.17 13.9" stroke="#D0D0D0" stroke-opacity="1.000000" stroke-width="0.200000" stroke-linecap="round"/>
		<path id="Форма 64" d="M23.91 14.9L23.83 14.88C23.77 14.86 23.67 14.83 23.53 14.78C23.39 14.73 23.26 14.66 23.15 14.56C23.04 14.47 22.93 14.36 22.83 14.25C22.72 14.13 22.57 13.97 22.39 13.75C22.2 13.53 22.03 13.33 21.86 13.14C21.7 12.95 21.54 12.79 21.4 12.65C21.25 12.52 21.13 12.38 21.04 12.23C20.94 12.09 20.76 11.95 20.51 11.82" stroke="#D0D0D0" stroke-opacity="1.000000" stroke-width="0.200000" stroke-linecap="round"/>
		<path id="Форма 65" d="M18.4 9.46L18.46 9.5C18.5 9.53 18.6 9.58 18.74 9.65C18.88 9.73 19 9.84 19.09 9.98C19.19 10.13 19.26 10.28 19.31 10.44C19.37 10.6 19.47 10.79 19.62 11.01" stroke="#D0D0D0" stroke-opacity="1.000000" stroke-width="0.200000" stroke-linecap="round"/>
		<path id="Форма 66" d="M22.31 15.11L22.23 15.07C22.17 15.04 22.08 14.99 21.95 14.91C21.82 14.82 21.72 14.75 21.64 14.7" stroke="#D0D0D0" stroke-opacity="1.000000" stroke-width="0.200000" stroke-linecap="round"/>
		<path id="Форма 67" d="M21.08 13.74L21.02 13.67C20.98 13.63 20.89 13.56 20.76 13.45C20.63 13.35 20.5 13.23 20.38 13.1C20.26 12.98 20.13 12.82 20 12.62C19.87 12.43 19.75 12.26 19.66 12.12C19.56 11.98 19.36 11.75 19.06 11.44C18.75 11.13 18.5 10.91 18.3 10.78C18.1 10.66 17.91 10.56 17.74 10.48C17.56 10.4 17.41 10.3 17.29 10.18C17.17 10.05 17.03 9.94 16.88 9.83" stroke="#D0D0D0" stroke-opacity="1.000000" stroke-width="0.200000" stroke-linecap="round"/>
		<path id="Форма 71" d="M45.91 17.13L46.01 17.1C46.07 17.09 46.16 17.01 46.3 16.86C46.43 16.71 46.52 16.53 46.57 16.32C46.61 16.11 46.63 15.89 46.62 15.65" stroke="#D0D0D0" stroke-opacity="1.000000" stroke-width="0.200000" stroke-linecap="round"/>
		<path id="Форма 72" d="M46.22 15.08L46.15 15.04C46.11 15.01 45.94 14.86 45.64 14.6C45.33 14.33 45.11 14.13 44.97 13.99C44.83 13.86 44.65 13.7 44.42 13.52C44.2 13.34 44 13.19 43.85 13.08C43.69 12.96 43.53 12.85 43.37 12.72C43.21 12.6 43.03 12.43 42.83 12.21C42.62 12 42.43 11.78 42.24 11.55C42.05 11.32 41.83 11.09 41.56 10.87C41.3 10.64 41.02 10.43 40.74 10.23" stroke="#D0D0D0" stroke-opacity="1.000000" stroke-width="0.200000" stroke-linecap="round"/>
		<circle id="Эллипс 16" cx="44.500000" cy="13.500000" r="0.500000" fill="#FFFFFF" fill-opacity="1.000000"/>
		<path id="Форма 73" d="M41.86 9.78L41.88 9.83C41.9 9.86 41.95 9.95 42.04 10.07C42.13 10.2 42.24 10.34 42.36 10.5C42.49 10.66 42.61 10.83 42.74 11.01C42.87 11.2 42.99 11.37 43.1 11.52C43.22 11.67 43.37 11.82 43.55 11.97" stroke="#D0D0D0" stroke-opacity="1.000000" stroke-width="0.200000" stroke-linecap="round"/>
		<path id="Форма 74" d="M42.88 9.78L42.94 9.8C42.98 9.81 43.04 9.87 43.13 9.97C43.23 10.08 43.32 10.18 43.4 10.3C43.49 10.41 43.58 10.53 43.66 10.65C43.74 10.77 43.84 10.91 43.96 11.09C44.08 11.26 44.19 11.41 44.27 11.53C44.36 11.66 44.44 11.79 44.52 11.92C44.6 12.05 44.69 12.19 44.79 12.32C44.89 12.46 45.01 12.57 45.13 12.65C45.26 12.73 45.34 12.84 45.39 13C45.43 13.15 45.47 13.28 45.49 13.39" stroke="#D0D0D0" stroke-opacity="1.000000" stroke-width="0.200000" stroke-linecap="round"/>
		<path id="Форма 75" d="M27.74 9.14L27.83 9.29C27.9 9.38 28.04 9.63 28.26 10.03C28.48 10.43 28.65 10.73 28.78 10.94" stroke="#D0D0D0" stroke-opacity="1.000000" stroke-width="0.200000" stroke-linecap="round"/>
		<path id="Форма 76" d="M29.93 11.69L29.9 11.61C29.89 11.56 29.81 11.39 29.66 11.1C29.51 10.8 29.33 10.52 29.11 10.25" stroke="#D0D0D0" stroke-opacity="1.000000" stroke-width="0.200000" stroke-linecap="round"/>
		<path id="Форма 77" d="M29.49 8.88L29.54 8.95C29.57 9 29.66 9.14 29.82 9.38C29.97 9.61 30.07 9.82 30.12 10" stroke="#D0D0D0" stroke-opacity="1.000000" stroke-width="0.200000" stroke-linecap="round"/>
		<path id="Форма 78" d="M13.71 9.47L13.71 9.6C13.71 9.68 13.69 9.88 13.65 10.19C13.62 10.5 13.57 10.73 13.5 10.87" stroke="#D0D0D0" stroke-opacity="1.000000" stroke-width="0.200000" stroke-linecap="round"/>
		<path id="Форма 79" d="M37.05 16.83L36.57 16.77C36.25 16.73 35.67 16.62 34.83 16.43C34 16.25 33.43 16.05 33.13 15.84C32.83 15.62 32.58 15.39 32.37 15.15C32.17 14.9 32.02 14.71 31.94 14.57C31.87 14.43 31.79 14.31 31.72 14.21" stroke="#D0D0D0" stroke-opacity="1.000000" stroke-width="0.200000" stroke-linecap="round"/>
		<path id="Форма 80" d="M32.78 16.4L32.66 16.28C32.58 16.2 32.36 16.03 32.02 15.79C31.67 15.55 31.34 15.26 31.04 14.91C30.75 14.57 30.38 14.13 29.95 13.59C29.51 13.06 29.06 12.56 28.59 12.09C28.12 11.63 27.69 11.13 27.28 10.6C26.87 10.07 26.59 9.7 26.42 9.48" stroke="#D0D0D0" stroke-opacity="1.000000" stroke-width="0.200000" stroke-linecap="round"/>
		<circle id="Эллипс 16" cx="14.500000" cy="12.500000" r="0.500000" fill="#FFFFFF" fill-opacity="1.000000"/>
		<ellipse id="Эллипс 17" cx="24.500000" cy="3.500000" rx="19.500000" ry="3.500000" fill="#F1F1F1" fill-opacity="1.000000"/>
		<ellipse id="Эллипс 17" cx="24.500000" cy="3.500000" rx="19.350000" ry="3.350000" stroke="#C7C4C4" stroke-opacity="1.000000" stroke-width="0.300000"/>
		<path id="Прямоугольник 38" d="M5.38 3.07C5.88 3.52 15.69 6 25.09 6C39.57 6 43.19 2.51 43.99 3.07C44.8 3.64 45.77 9 43.99 10.2C42.22 11.4 34.74 12 25.09 12C15.43 12 7.89 11.4 5.38 10.2C2.86 9 4.36 2.18 5.38 3.07Z" fill="#F1F1F1" fill-opacity="1.000000" fill-rule="evenodd"/>
		<path id="Прямоугольник 38" d="M5.38 3.07C5.88 3.52 15.69 6 25.09 6C35.41 6 40.22 4.22 42.41 3.41C43.3 3.08 43.76 2.91 43.99 3.07C44.8 3.64 45.77 9 43.99 10.2C42.22 11.4 34.74 12 25.09 12C15.43 12 7.89 11.4 5.38 10.2C2.86 9 4.36 2.18 5.38 3.07ZM44.56 8.6Q44.35 9.6 43.83 9.95Q43.22 10.36 41.59 10.69Q39.97 11.02 37.47 11.25Q32.54 11.7 25.09 11.7Q17.68 11.7 12.58 11.25Q10 11.02 8.21 10.69Q6.4 10.35 5.5 9.93Q5.47 9.91 5.44 9.89Q4.74 9.52 4.46 8.38Q4.33 7.84 4.3 7.17Q4.28 6.55 4.35 5.89Q4.42 5.26 4.56 4.69Q4.69 4.15 4.87 3.77Q5.02 3.42 5.16 3.31Q5.17 3.31 5.18 3.3Q5.45 3.54 7.27 4.01Q9.27 4.53 11.84 5Q14.98 5.57 18.08 5.91Q21.8 6.3 25.09 6.3Q31.81 6.3 36.86 5.31Q38.68 4.95 40.32 4.45Q41.25 4.16 42.52 3.69Q43.28 3.41 43.52 3.35Q43.68 3.31 43.77 3.31Q43.81 3.31 43.82 3.32Q43.91 3.38 44.03 3.63Q44.17 3.91 44.3 4.34Q44.58 5.29 44.66 6.42Q44.76 7.68 44.56 8.6Z" fill="#C7C4C4" fill-opacity="1.000000" fill-rule="evenodd"/>
	</g>
</svg>
