<svg width="32.000000" height="49.000000" viewBox="0 0 32 49" fill="none" xmlns="http://www.w3.org/2000/svg" xmlns:xlink="http://www.w3.org/1999/xlink">
	<desc>
			Created with Pixso.
	</desc>
	<defs>
		<filter id="filter_70_334_dd" x="-0.152100" y="5.849792" width="34.303467" height="45.300232" filterUnits="userSpaceOnUse" color-interpolation-filters="sRGB">
			<feFlood flood-opacity="0" result="BackgroundImageFix"/>
			<feColorMatrix in="SourceAlpha" type="matrix" values="0 0 0 0 0 0 0 0 0 0 0 0 0 0 0 0 0 0 127 0" result="hardAlpha"/>
			<feOffset dx="4" dy="0"/>
			<feGaussianBlur stdDeviation="1"/>
			<feComposite in2="hardAlpha" operator="out" k2="-1" k3="1"/>
			<feColorMatrix type="matrix" values="0 0 0 0 0 0 0 0 0 0 0 0 0 0 0 0 0 0 0.2 0"/>
			<feBlend mode="normal" in2="BackgroundImageFix" result="effect_dropShadow_1"/>
			<feBlend mode="normal" in="SourceGraphic" in2="effect_dropShadow_1" result="shape"/>
		</filter>
		<filter id="filter_70_369_dd" x="0.000000" y="-1.000000" width="34.000000" height="17.000000" filterUnits="userSpaceOnUse" color-interpolation-filters="sRGB">
			<feFlood flood-opacity="0" result="BackgroundImageFix"/>
			<feColorMatrix in="SourceAlpha" type="matrix" values="0 0 0 0 0 0 0 0 0 0 0 0 0 0 0 0 0 0 127 0" result="hardAlpha"/>
			<feOffset dx="4" dy="0"/>
			<feGaussianBlur stdDeviation="1"/>
			<feComposite in2="hardAlpha" operator="out" k2="-1" k3="1"/>
			<feColorMatrix type="matrix" values="0 0 0 0 0 0 0 0 0 0 0 0 0 0 0 0 0 0 0.2 0"/>
			<feBlend mode="normal" in2="BackgroundImageFix" result="effect_dropShadow_1"/>
			<feBlend mode="normal" in="SourceGraphic" in2="effect_dropShadow_1" result="shape"/>
		</filter>
		<clipPath id="clip70_333">
			<rect id="банка8" width="32.000000" height="49.000000" fill="white" fill-opacity="0"/>
		</clipPath>
	</defs>
	<rect id="банка8" width="32.000000" height="49.000000" fill="#FFFFFF" fill-opacity="0"/>
	<g clip-path="url(#clip70_333)">
		<g filter="url(#filter_70_334_dd)">
			<path id="Прямоугольник 32" d="M1.05 9.1C1.71 11.43 7.34 12.99 13.64 12.99C19.93 12.99 25.57 11.43 26.23 9.1C26.89 6.77 27.55 44.88 26.23 45.66C24.91 46.44 21.26 48 14.97 48C8.67 48 3.04 47.22 1.05 45.66C-0.94 44.11 0.38 6.77 1.05 9.1Z" fill="#BB9235" fill-opacity="1.000000" fill-rule="evenodd"/>
			<path id="Прямоугольник 32" d="M26.23 45.66C24.91 46.44 21.26 48 14.97 48C8.67 48 3.04 47.22 1.05 45.66C-0.94 44.11 0.38 6.77 1.05 9.1C1.71 11.43 7.34 12.99 13.64 12.99C19.93 12.99 25.57 11.43 26.23 9.1C26.89 6.77 27.55 44.88 26.23 45.66Z" stroke="#444343" stroke-opacity="1.000000" stroke-width="0.300000"/>
		</g>
		<ellipse id="Эллипс 15" cx="5.305664" cy="43.351196" rx="0.416667" ry="0.414634" fill="#644646" fill-opacity="1.000000"/>
		<ellipse id="Эллипс 15" cx="19.750000" cy="33.317078" rx="0.416667" ry="0.414634" fill="#644646" fill-opacity="1.000000"/>
		<ellipse id="Эллипс 15" cx="22.157471" cy="40.199951" rx="0.416667" ry="0.414634" fill="#644646" fill-opacity="1.000000"/>
		<ellipse id="Эллипс 15" cx="14.379883" cy="43.351196" rx="0.416667" ry="0.414634" fill="#644646" fill-opacity="1.000000"/>
		<ellipse id="Эллипс 15" cx="4.009277" cy="37.048767" rx="0.416667" ry="0.414634" fill="#644646" fill-opacity="1.000000"/>
		<ellipse id="Эллипс 15" cx="23.453613" cy="30.746338" rx="0.416667" ry="0.414634" fill="#644646" fill-opacity="1.000000"/>
		<ellipse id="Эллипс 15" cx="20.861084" cy="26.019470" rx="0.416667" ry="0.414634" fill="#644646" fill-opacity="1.000000"/>
		<ellipse id="Эллипс 15" cx="18.916748" cy="29.170715" rx="0.416667" ry="0.414634" fill="#644646" fill-opacity="1.000000"/>
		<ellipse id="Эллипс 15" cx="1.416748" cy="27.595093" rx="0.416667" ry="0.414634" fill="#644646" fill-opacity="1.000000"/>
		<ellipse id="Эллипс 15" cx="2.713135" cy="21.292664" rx="0.416667" ry="0.414634" fill="#644646" fill-opacity="1.000000"/>
		<ellipse id="Эллипс 15" cx="17.250000" cy="36.634094" rx="0.416667" ry="0.414634" fill="#644646" fill-opacity="1.000000"/>
		<ellipse id="Эллипс 15" cx="5.305664" cy="32.321899" rx="0.416667" ry="0.414634" fill="#644646" fill-opacity="1.000000"/>
		<ellipse id="Эллипс 15" cx="23.453613" cy="19.717041" rx="0.416667" ry="0.414634" fill="#644646" fill-opacity="1.000000"/>
		<ellipse id="Эллипс 15" cx="23.453613" cy="13.414612" rx="0.416667" ry="0.414634" fill="#644646" fill-opacity="1.000000"/>
		<ellipse id="Эллипс 15" cx="18.268555" cy="13.414612" rx="0.416667" ry="0.414634" fill="#644646" fill-opacity="1.000000"/>
		<ellipse id="Эллипс 15" cx="12.250000" cy="16.731689" rx="0.416667" ry="0.414634" fill="#644646" fill-opacity="1.000000"/>
		<ellipse id="Эллипс 15" cx="7.898193" cy="14.990234" rx="0.416667" ry="0.414634" fill="#644646" fill-opacity="1.000000"/>
		<ellipse id="Эллипс 15" cx="2.713135" cy="13.414612" rx="0.416667" ry="0.414634" fill="#644646" fill-opacity="1.000000"/>
		<ellipse id="Эллипс 15" cx="13.083496" cy="39.121948" rx="0.416667" ry="0.414634" fill="#644646" fill-opacity="1.000000"/>
		<ellipse id="Эллипс 15" cx="9.750000" cy="45.756042" rx="0.416667" ry="0.414634" fill="#644646" fill-opacity="1.000000"/>
		<ellipse id="Эллипс 15" cx="17.250000" cy="46.585327" rx="0.416667" ry="0.414634" fill="#644646" fill-opacity="1.000000"/>
		<ellipse id="Эллипс 15" cx="23.083496" cy="44.926819" rx="0.416667" ry="0.414634" fill="#644646" fill-opacity="1.000000"/>
		<ellipse id="Эллипс 15" cx="8.916748" cy="39.951172" rx="0.416667" ry="0.414634" fill="#644646" fill-opacity="1.000000"/>
		<ellipse id="Эллипс 15" cx="17.250000" cy="39.951172" rx="0.416667" ry="0.414634" fill="#644646" fill-opacity="1.000000"/>
		<ellipse id="Эллипс 15" cx="25.583496" cy="35.804871" rx="0.416667" ry="0.414634" fill="#644646" fill-opacity="1.000000"/>
		<ellipse id="Эллипс 15" cx="24.750000" cy="25.853638" rx="0.416667" ry="0.414634" fill="#644646" fill-opacity="1.000000"/>
		<ellipse id="Эллипс 15" cx="8.083496" cy="20.048767" rx="0.416667" ry="0.414634" fill="#644646" fill-opacity="1.000000"/>
		<ellipse id="Эллипс 15" cx="2.250000" cy="35.804871" rx="0.416667" ry="0.414634" fill="#644646" fill-opacity="1.000000"/>
		<ellipse id="Эллипс 15" cx="3.916748" cy="41.609741" rx="0.416667" ry="0.414634" fill="#644646" fill-opacity="1.000000"/>
		<ellipse id="Эллипс 15" cx="6.416748" cy="27.512146" rx="0.416667" ry="0.414634" fill="#644646" fill-opacity="1.000000"/>
		<ellipse id="Эллипс 15" cx="3.916748" cy="18.390198" rx="0.416667" ry="0.414634" fill="#644646" fill-opacity="1.000000"/>
		<ellipse id="Эллипс 15" cx="22.250000" cy="16.731689" rx="0.416667" ry="0.414634" fill="#644646" fill-opacity="1.000000"/>
		<ellipse id="Эллипс 15" cx="17.250000" cy="17.560974" rx="0.416667" ry="0.414634" fill="#644646" fill-opacity="1.000000"/>
		<g filter="url(#filter_70_369_dd)">
			<path id="Эллипс 14" d="M0.09 9.07C0.09 7.67 -0.81 5.05 2.91 4.35C4.98 3.96 10.81 5.14 13.46 5.14C20.84 5.14 28.23 2 26.82 9.07C26.82 11.24 20.84 13 13.46 13C6.08 13 0.09 11.24 0.09 9.07Z" fill="#709773" fill-opacity="1.000000" fill-rule="evenodd"/>
			<path id="Эллипс 14" d="M26.82 9.07C26.82 11.24 20.84 13 13.46 13C6.08 13 0.09 11.24 0.09 9.07C0.09 8.85 0.07 8.61 0.05 8.36C-0.08 6.92 -0.25 4.94 2.91 4.35C4.12 4.12 6.62 4.43 9.01 4.73C10.71 4.94 12.36 5.14 13.46 5.14C15.33 5.14 17.2 4.94 18.92 4.75C24.02 4.2 27.87 3.79 26.82 9.07ZM26.52 9.04L26.52 9.07L26.52 9.07C26.52 9.5 26.21 9.92 25.6 10.35C24.95 10.8 24.02 11.2 22.82 11.56C21.61 11.91 20.2 12.19 18.62 12.39C16.98 12.59 15.26 12.7 13.46 12.7C11.66 12.7 9.93 12.59 8.29 12.39C6.71 12.19 5.31 11.91 4.09 11.56C2.89 11.2 1.96 10.8 1.31 10.35C0.7 9.92 0.39 9.5 0.39 9.07L0.39 9.07C0.39 8.92 0.38 8.67 0.35 8.33C0.33 8.09 0.31 7.91 0.31 7.78C0.29 7.57 0.29 7.39 0.3 7.22C0.31 6.81 0.39 6.46 0.52 6.16C0.56 6.08 0.6 6 0.65 5.92C0.8 5.67 1.01 5.45 1.28 5.27C1.7 4.99 2.26 4.78 2.96 4.65C3.47 4.55 4.32 4.55 5.49 4.64C5.97 4.68 6.53 4.74 7.18 4.81C7.58 4.85 8.17 4.93 8.97 5.02C10.1 5.16 10.92 5.26 11.43 5.31C12.28 5.4 12.96 5.44 13.46 5.44C14.29 5.44 15.23 5.4 16.27 5.31C16.88 5.26 17.78 5.18 18.95 5.05C19.79 4.96 20.4 4.9 20.79 4.86C21.44 4.8 22 4.77 22.46 4.75C23.59 4.71 24.46 4.8 25.08 5.01C25.42 5.12 25.71 5.27 25.93 5.46C26 5.52 26.07 5.59 26.13 5.66C26.27 5.82 26.38 6 26.47 6.2C26.75 6.86 26.77 7.8 26.53 9.01L26.52 9.04Z" fill="#444443" fill-opacity="1.000000" fill-rule="evenodd"/>
			<ellipse id="Эллипс 14" cx="13.461670" cy="5.928467" rx="13.364669" ry="3.928481" fill="#709773" fill-opacity="1.000000"/>
			<ellipse id="Эллипс 14" cx="13.461670" cy="5.928467" rx="13.214669" ry="3.778481" stroke="#444443" stroke-opacity="1.000000" stroke-width="0.300000"/>
		</g>
		<path id="é" d="M12.04 19.27Q12.19 19.42 12.47 19.42Q12.79 19.42 13.11 19.13Q13.43 18.85 13.63 18.69L14.07 18.35Q14.32 18.17 15.22 17.58Q16.01 17.05 16.1 16.43Q16.12 16.35 16.12 16.27Q16.12 16.03 16.02 15.84Q15.95 15.7 15.84 15.59Q15.56 15.32 14.98 15.32Q14.93 15.32 14.89 15.33Q14.36 15.38 13.89 16.08Q13.66 16.44 13.45 16.72L13.03 17.27Q12.58 17.86 12.23 18.18Q11.87 18.49 11.87 18.78Q11.87 19.12 12.04 19.27ZM18.17 28.87Q17.94 28.61 17.41 28.61Q17.33 28.61 17.24 28.63Q16.88 28.73 16.63 29.27Q16.48 29.58 16.25 29.8Q15.99 30.06 15.63 30.2Q14.93 30.46 13.74 30.46Q13.55 30.46 13.35 30.44Q12.37 30.32 11.45 29.63Q11.24 29.46 11.06 29.27Q10.32 28.47 10.16 27.13Q11.87 27.19 12.74 27.19Q16.02 27.19 17.19 26.48Q17.71 26.16 18 25.7Q18.36 25.12 18.36 24.31Q18.36 23.73 18.17 23.22Q17.88 22.46 17.16 21.87Q15.96 20.88 13.92 20.88Q12.45 20.88 11.29 21.47Q10.51 21.87 9.86 22.53Q9.23 23.18 8.84 23.95Q8.25 25.14 8.25 26.62Q8.25 27.84 8.69 28.87Q8.71 28.9 8.72 28.93Q9.19 29.96 9.95 30.67Q9.96 30.69 9.98 30.71Q10.76 31.42 11.67 31.78Q12.62 32.16 13.71 32.16Q15.87 32.16 17.2 31.21Q17.77 30.8 18.06 30.32Q18.36 29.85 18.36 29.46Q18.36 29.08 18.17 28.87ZM10.95 25.53L10.21 25.51Q10.37 24.74 10.78 24.14Q11.08 23.72 11.51 23.38Q11.59 23.31 11.68 23.25Q12.66 22.57 14.11 22.57Q14.57 22.57 15 22.71Q15.39 22.84 15.75 23.08Q16.36 23.5 16.47 24.02Q16.49 24.13 16.49 24.24Q16.49 24.53 16.37 24.76Q16.22 25.04 15.88 25.22Q15.27 25.54 13.29 25.54Q11.31 25.54 10.95 25.53Z" fill="#FFFFFF" fill-opacity="1.000000" fill-rule="evenodd"/>
	</g>
</svg>
