<svg width="350.000000" height="150.000000" viewBox="0 0 350 150" fill="none" xmlns="http://www.w3.org/2000/svg" xmlns:xlink="http://www.w3.org/1999/xlink">
	<desc>
			Created with Pixso.
	</desc>
	<defs>
		<clipPath id="clip45_154">
			<rect id="фасад шкафа выс готовый" width="350.000000" height="150.000000" transform="matrix(1 0 0 -1 0 150)" fill="white" fill-opacity="0"/>
		</clipPath>
		<linearGradient x1="176.000000" y1="150.000000" x2="176.000000" y2="38.000000" id="paint_linear_45_156_0" gradientUnits="userSpaceOnUse">
			<stop stop-color="#D2E8A3" stop-opacity="0.686275"/>
			<stop offset="0.432298" stop-color="#DAEBB4" stop-opacity="0.384314"/>
			<stop offset="0.921930" stop-color="#E5F1CB" stop-opacity="0.000000"/>
			<stop offset="1.000000" stop-color="#FFFFFF" stop-opacity="0.000000"/>
		</linearGradient>
	</defs>
	<rect id="фасад шкафа выс готовый" width="350.000000" height="150.000000" transform="matrix(1 0 0 -1 0 150)" fill="#FFFFFF" fill-opacity="0"/>
	<g clip-path="url(#clip45_154)">
		<path id="Прямоугольник 9" d="M0.01 150L349.9 150C349.9 150 346.4 6.52 349.9 4.51C353.4 2.5 262.43 0 174.95 0C87.48 0 -1.39 2.5 0.01 4.51C1.41 6.52 0.01 150 0.01 150Z" fill="#FFFFFF" fill-opacity="1.000000" fill-rule="evenodd"/>
		<path id="Прямоугольник 9" d="M348.9 150L0.01 150C0.01 150 0.01 149.65 0.02 149C0.14 136.27 1.34 6.42 0.01 4.51C-0.08 4.38 0.22 4.24 0.9 4.1Q0.95 4.28 1 4.62Q1.01 4.54 1.01 4.46Q1.01 4.28 0.93 4.1C10.56 2.18 93.37 0 174.95 0C255.68 0 339.38 2.13 349.07 4.04Q349.05 4.09 349.03 4.14Q349.01 4.21 349 4.27Q349.05 4.14 349.1 4.04C349.88 4.2 350.16 4.36 349.9 4.51C346.57 6.42 349.57 136.27 349.87 149C349.89 149.65 349.9 150 349.9 150L348.9 150ZM348.87 149Q345.69 17.86 348.79 5Q348.1 4.87 346.86 4.73Q343.44 4.35 336.28 3.96Q322.07 3.17 296.51 2.5Q239.53 1 174.95 1Q110.7 1 54.18 2.5Q28.91 3.17 14.51 3.96Q7.28 4.35 3.64 4.73Q1.89 4.92 1.05 5.09Q2.3 17.05 1.02 149L348.87 149Z" fill="#A8A8A8" fill-opacity="1.000000" fill-rule="evenodd"/>
		<path id="Прямоугольник 10" d="M46.73 148.44L309.3 150C306.88 106.83 306.8 82.66 310 40.28C310 40.28 243.92 38 177.23 38C110.54 38 45.01 39.03 42.54 39.57C40.08 40.11 46.73 148.44 46.73 148.44Z" fill="url(#paint_linear_45_156_0)" fill-opacity="1.000000" fill-rule="evenodd"/>
		<path id="Прямоугольник 10" d="M308.29 149.99L46.73 148.44C46.73 148.44 40.08 40.11 42.54 39.57C45.01 39.03 110.54 38 177.23 38C239.13 38 300.49 39.96 309 40.25C309.65 40.27 310 40.28 310 40.28C309.97 40.61 309.95 40.95 309.92 41.28C306.82 82.72 306.9 106.8 309.24 149C309.26 149.33 309.28 149.66 309.3 150L308.29 149.99ZM308.24 148.99Q306.44 116.51 306.54 94.84Q306.65 71.74 308.92 41.24Q243.38 39 177.23 39Q130.71 39 85.81 39.58Q44.73 40.12 42.76 40.55Q42.04 40.7 44.71 94.16Q46.04 120.83 47.67 147.44L308.24 148.99Z" fill="#A8A8A8" fill-opacity="1.000000" fill-rule="evenodd"/>
		<path id="Линия 2" d="M2.79 8.43C2.79 8.43 12.94 15.81 22.39 23.9C31.84 31.98 40.59 40.77 40.59 40.77" stroke="#A8A8A8" stroke-opacity="1.000000" stroke-width="1.000000"/>
		<path id="Линия 3" d="M307.29 42.87C320.91 28.58 329.38 21.31 345.8 9.84" stroke="#A8A8A8" stroke-opacity="1.000000" stroke-width="1.000000"/>
		<line id="Линия 4" x1="291.079956" y1="78.729431" x2="257.599854" y2="60.031250" stroke="#A8A8A8" stroke-opacity="1.000000" stroke-width="1.000000"/>
		<line id="Линия 9" x1="287.691162" y1="67.904053" x2="272.480103" y2="59.408691" stroke="#A8A8A8" stroke-opacity="1.000000" stroke-width="1.000000"/>
		<line id="Линия 8" x1="301.000000" y1="65.935913" x2="271.240112" y2="49.205872" stroke="#A8A8A8" stroke-opacity="1.000000" stroke-width="1.000000"/>
		<circle id="Эллипс 2" r="8.500000" transform="matrix(1 0 0 -1 294.5 21.5)" fill="#EAEAEA" fill-opacity="1.000000"/>
	</g>
</svg>
