<svg width="250.000000" height="59.000000" viewBox="0 0 250 59" fill="none" xmlns="http://www.w3.org/2000/svg" xmlns:xlink="http://www.w3.org/1999/xlink">
	<desc>
			Created with Pixso.
	</desc>
	<defs>
		<clipPath id="clip16_15">
			<rect id="фасад шкафа готовый" width="250.000000" height="59.000000" fill="white" fill-opacity="0"/>
		</clipPath>
		<linearGradient x1="124.551926" y1="-111.000000" x2="124.551926" y2="32.000000" id="paint_linear_16_19_0" gradientUnits="userSpaceOnUse">
			<stop offset="0.546983" stop-color="#D2E8A3"/>
			<stop offset="1.000000" stop-color="#FFFFFF" stop-opacity="0.000000"/>
		</linearGradient>
	</defs>
	<rect id="фасад шкафа готовый" width="250.000000" height="59.000000" fill="#FFFFFF" fill-opacity="0"/>
	<g clip-path="url(#clip16_15)">
		<path id="Прямоугольник 9" d="M0.01 0L249.93 0C249.93 0 247.43 56.43 249.93 57.22C252.42 58.01 187.45 59 124.97 59C62.49 59 -0.99 58.01 0.01 57.22C1.01 56.43 0.01 0 0.01 0Z" fill="#FFFFFF" fill-opacity="1.000000" fill-rule="evenodd"/>
		<path id="Прямоугольник 9" d="M248.92 0L0.01 0C0.01 0 0.01 0.35 0.02 1C0.15 8.56 0.93 56.49 0.01 57.22C-0.07 57.28 0.22 57.34 0.85 57.4Q0.89 57.18 0.93 56.88Q0.99 57.04 1 57.23Q1 57.33 0.98 57.41C9.21 58.16 67.51 59 124.97 59C181.8 59 240.7 58.18 249 57.44Q248.98 57.35 248.98 57.26Q249.01 57.35 249.05 57.43C249.84 57.36 250.15 57.29 249.93 57.22C249.76 57.17 249.62 56.89 249.5 56.41C249.5 56.4 249.5 56.39 249.5 56.39C247.89 49.9 249.58 8.02 249.88 1C249.91 0.35 249.93 0 249.93 0L248.92 0ZM248.88 1Q246.81 48.23 248.75 56.46Q248.34 56.49 247.77 56.52Q245.33 56.67 240.21 56.83Q230.06 57.14 211.8 57.4Q171.1 58 124.97 58Q79.06 58 38.7 57.4Q20.64 57.14 10.35 56.83Q5.19 56.68 2.58 56.52Q1.58 56.47 0.99 56.41Q1.85 48.42 1.02 1L248.88 1Z" fill="#A8A8A8" fill-opacity="1.000000" fill-rule="evenodd"/>
		<path id="Прямоугольник 10" d="M31.99 -109.01L220 -111C218.27 -55.9 218.21 -25.04 220.5 29.08C220.5 29.08 173.19 32 125.43 32C77.68 32 30.76 30.67 28.99 29.98C27.23 29.3 31.99 -109.01 31.99 -109.01Z" fill="url(#paint_linear_16_19_0)" fill-opacity="1.000000" fill-rule="evenodd"/>
		<path id="Прямоугольник 10" d="M218.99 -110.99L31.99 -109.01C31.99 -109.01 27.23 29.3 28.99 29.98C30.76 30.67 77.68 32 125.43 32C173.19 32 220.5 29.08 220.5 29.08C218.22 -24.71 218.27 -55.52 219.96 -110C219.97 -110.34 219.99 -110.67 220 -111L218.99 -110.99ZM218.96 -109.99Q216.72 -37.43 219.45 28.14Q172.66 31 125.43 31Q92.12 31 59.99 30.25Q30.67 29.57 29.35 29.05Q28.25 28.62 32.95 -108.03L218.96 -109.99Z" fill="#A8A8A8" fill-opacity="1.000000" fill-rule="evenodd"/>
		<path id="Линия 2" d="M2 53C2 53 9.25 47.74 16 41.99C22.75 36.24 29 30 29 30" stroke="#A8A8A8" stroke-opacity="1.000000" stroke-width="1.000000"/>
		<path id="Линия 3" d="M219.5 28.49C229.22 38.66 235.27 43.83 247 51.99" stroke="#A8A8A8" stroke-opacity="1.000000" stroke-width="1.000000"/>
		<line id="Линия 4" x1="207.914307" y1="3.000000" x2="184.000000" y2="16.299988" stroke="#A8A8A8" stroke-opacity="1.000000" stroke-width="1.000000"/>
		<line id="Линия 9" x1="205.493713" y1="10.700012" x2="194.628601" y2="16.742737" stroke="#A8A8A8" stroke-opacity="1.000000" stroke-width="1.000000"/>
		<line id="Линия 8" x1="215.000000" y1="12.099976" x2="193.742859" y2="24.000000" stroke="#A8A8A8" stroke-opacity="1.000000" stroke-width="1.000000"/>
		<circle id="Эллипс 2" cx="209.000000" cy="44.000000" r="6.000000" fill="#EAEAEA" fill-opacity="1.000000"/>
	</g>
</svg>
