<svg width="200.000000" height="70.000000" viewBox="0 0 200 70" fill="none" xmlns="http://www.w3.org/2000/svg" xmlns:xlink="http://www.w3.org/1999/xlink">
	<desc>
			Created with Pixso.
	</desc>
	<defs>
		<clipPath id="clip8_23">
			<rect id="fasad" width="200.000000" height="70.000000" fill="white" fill-opacity="0"/>
		</clipPath>
		<linearGradient x1="159.999954" y1="30.000061" x2="-9.499969" y2="-19.500000" id="paint_linear_8_34_0" gradientUnits="userSpaceOnUse">
			<stop stop-color="#F3F3F3"/>
			<stop offset="0.939166" stop-color="#E2E2E2"/>
		</linearGradient>
	</defs>
	<g clip-path="url(#clip8_23)">
		<path id="Прямоугольник 3" d="M34.99 35L165 35L200 70L0 70L34.99 35Z" fill="#F6F6F6" fill-opacity="1.000000" fill-rule="evenodd"/>
		<path id="Прямоугольник 3" d="M164.17 37L35.82 37L4.82 68L195.17 68L164.17 37ZM198 68L200 70L0 70L34.99 35L165 35L198 68Z" fill="#999999" fill-opacity="1.000000" fill-rule="evenodd"/>
		<path id="Прямоугольник 3" d="M165 35L165 -130L200 -130L200 70L165 35Z" fill="#F6F6F6" fill-opacity="1.000000" fill-rule="evenodd"/>
		<path id="Прямоугольник 3" d="M167 -130L165 -130L165 35L200 70L200 -130L167 -130ZM167 -128L198 -128L198 65.17L167 34.17L167 -128Z" fill="#999999" fill-opacity="1.000000" fill-rule="evenodd"/>
		<path id="Прямоугольник 3" d="M35 35L35 -130L0 -130L0 70L35 35Z" fill="#F6F6F6" fill-opacity="1.000000" fill-rule="evenodd"/>
		<path id="Прямоугольник 3" d="M33 -130L35 -130L35 35L0 70L0 -130L33 -130ZM33 -128L2 -128L2 65.17L33 34.17L33 -128Z" fill="#999999" fill-opacity="1.000000" fill-rule="evenodd"/>
		<path id="Domov" d="M75.25 45.38Q74.49 45.38 73.69 45.41L72.26 45.41L72.26 58L73.16 58Q74.13 58.07 75.01 58.07Q77.04 58.07 78.59 57.2Q78.96 56.99 79.31 56.73Q80.23 56.05 80.76 54.77Q81.29 53.48 81.29 51.86Q81.29 50.24 80.93 49.1Q80.57 47.97 79.99 47.28Q79.86 47.13 79.72 46.99Q79.22 46.49 78.56 46.14Q77.73 45.7 76.87 45.54Q76.02 45.38 75.25 45.38ZM74.7 57.89Q74.13 57.89 73.75 57.85L73.75 45.61Q74.31 45.56 74.9 45.56Q75.5 45.56 75.94 45.61Q76.4 45.66 77.15 46.02Q77.74 46.29 78.19 46.71Q78.32 46.83 78.44 46.96Q78.97 47.55 79.38 48.79Q79.8 50.02 79.8 51.71Q79.8 54.09 79.02 55.56Q78.68 56.19 78.2 56.65Q77.73 57.11 77.29 57.35Q76.86 57.58 76.36 57.72Q75.86 57.85 75.57 57.87Q75.28 57.89 74.7 57.89ZM85.58 57.36Q86.65 58.07 88.19 58.07Q89.4 58.07 90.34 57.56Q90.87 57.27 91.32 56.83Q91.45 56.69 91.57 56.55Q92.55 55.34 92.55 53.33Q92.55 51.21 91.49 50.13Q91.43 50.07 91.36 50.01Q91.13 49.8 90.88 49.63Q89.81 48.92 88.28 48.92Q87.07 48.92 86.14 49.42Q85.59 49.71 85.14 50.17Q85.02 50.3 84.9 50.43Q83.91 51.64 83.91 53.66Q83.91 55.79 84.98 56.87Q85.04 56.93 85.1 56.99Q85.33 57.19 85.58 57.36ZM105.2 49.52Q105.49 49.97 105.49 51.06L105.49 56.72L105.5 57.02Q105.52 57.35 105.91 57.67Q106.3 58 107.03 58L108.13 58L108.13 57.85L107.57 57.85L107.38 57.81Q107.16 57.8 106.95 57.52Q106.74 57.24 106.74 56.72L106.74 51.08Q106.74 50.69 106.73 50.47Q106.71 50.26 106.57 49.91Q106.46 49.61 106.24 49.44Q106.21 49.41 106.18 49.39Q105.92 49.21 105.39 49.07Q104.87 48.92 104.01 48.92Q103.83 48.92 103.66 48.95Q102.99 49.06 102.39 49.58Q101.63 50.24 101.35 51.01Q101.35 50.52 101.29 50.26Q101.24 49.98 101 49.62Q100.77 49.26 100.2 49.1Q99.64 48.92 98.68 48.92Q98.34 48.92 98.02 49.01Q97.45 49.16 96.95 49.59Q96.18 50.26 95.89 51.03L95.89 49L94.63 49L94.63 58L95.89 58L95.89 51.54Q95.96 50.8 96.8 49.93Q97.54 49.17 98.35 49.08Q98.46 49.07 98.57 49.07Q99.48 49.07 99.78 49.49Q99.79 49.5 99.8 49.52Q100.09 49.97 100.09 51.06L100.09 58L101.35 58L101.35 51.59Q101.35 50.87 102.18 49.97Q102.77 49.33 103.48 49.14Q103.78 49.07 104.1 49.07Q104.82 49.07 105.13 49.42Q105.16 49.47 105.2 49.52ZM111.16 57.36Q112.23 58.07 113.77 58.07Q114.98 58.07 115.92 57.56Q116.45 57.27 116.9 56.83Q117.03 56.69 117.15 56.55Q118.13 55.34 118.13 53.33Q118.13 51.21 117.07 50.13Q117.01 50.07 116.94 50.01Q116.71 49.8 116.46 49.63Q115.39 48.92 113.86 48.92Q112.65 48.92 111.72 49.42Q111.17 49.71 110.72 50.17Q110.6 50.3 110.48 50.43Q109.49 51.64 109.49 53.66Q109.49 55.79 110.56 56.87Q110.62 56.93 110.68 56.99Q110.91 57.19 111.16 57.36ZM126.78 49L126.67 49.1Q126.7 49.13 126.73 49.16Q126.96 49.43 126.96 49.9Q126.96 50.42 126.75 50.8L123.96 56.45L121.2 49L119.94 49L123.29 58L123.47 58L126.93 50.8Q127.14 50.29 127.14 49.8Q127.14 49.68 127.11 49.54Q127.09 49.39 126.97 49.21Q126.85 49.03 126.78 49ZM87.34 49.24Q87.79 49.07 88.3 49.07Q89.04 49.07 89.62 49.37Q90.12 49.63 90.5 50.11Q91.33 51.16 91.33 53.33Q91.33 55.49 90.42 56.71Q89.87 57.46 89.14 57.75Q88.68 57.92 88.16 57.92Q87.43 57.92 86.86 57.63Q86.35 57.37 85.96 56.88Q85.13 55.83 85.13 53.67Q85.13 51.5 86.03 50.28Q86.6 49.52 87.34 49.24ZM112.92 49.24Q113.37 49.07 113.88 49.07Q114.62 49.07 115.2 49.37Q115.7 49.63 116.08 50.11Q116.91 51.16 116.91 53.33Q116.91 55.49 116 56.71Q115.45 57.46 114.72 57.75Q114.26 57.92 113.74 57.92Q113.01 57.92 112.44 57.63Q111.93 57.37 111.54 56.88Q110.71 55.83 110.71 53.67Q110.71 51.5 111.61 50.28Q112.18 49.52 112.92 49.24Z" fill="#000000" fill-opacity="1.000000" fill-rule="evenodd"/>
		<path id="Прямоугольник 3" d="M39.99 30L160 30L165 35L34.99 35L39.99 30Z" fill="#F6F6F6" fill-opacity="1.000000" fill-rule="evenodd"/>
		<path id="Прямоугольник 3" d="M159.58 31L40.41 31L37.41 34L162.58 34L159.58 31ZM164 34L165 35L34.99 35L39.99 30L160 30L164 34Z" fill="#999999" fill-opacity="1.000000" fill-rule="evenodd"/>
		<path id="Прямоугольник 3" d="M160 30L160 -89.5L165 -95L165 35L160 30Z" fill="#F6F6F6" fill-opacity="1.000000" fill-rule="evenodd"/>
		<path id="Прямоугольник 3" d="M161 -89.12L161 29.58L164 32.58L164 -92.42L161 -89.12ZM164 -93.9L165 -95L165 35L160 30L160 -89.5L164 -93.9Z" fill="#999999" fill-opacity="1.000000" fill-rule="evenodd"/>
		<path id="Прямоугольник 3" d="M39.99 30L39.99 -89.5L34.99 -95L34.99 35L39.99 30Z" fill="#F6F6F6" fill-opacity="1.000000" fill-rule="evenodd"/>
		<path id="Прямоугольник 3" d="M38.99 -89.12L38.99 29.58L35.99 32.58L35.99 -92.42L38.99 -89.12ZM35.99 -93.9L34.99 -95L34.99 35L39.99 30L39.99 -89.5L35.99 -93.9Z" fill="#999999" fill-opacity="1.000000" fill-rule="evenodd"/>
		<circle id="Эллипс 1" cx="157.499939" cy="52.500061" r="7.500000" fill="#EBEBEB" fill-opacity="1.000000"/>
		<circle id="Эллипс 1" cx="157.499939" cy="52.500061" r="7.000000" stroke="#999999" stroke-opacity="1.000000" stroke-width="1.000000"/>
		<line id="Линия 1" x1="161.000000" y1="52.000000" x2="156.000000" y2="55.000000" stroke="#999999" stroke-opacity="1.000000" stroke-width="0.500000"/>
		<line id="Линия 1" x1="159.000000" y1="50.000000" x2="154.000000" y2="53.000000" stroke="#999999" stroke-opacity="1.000000" stroke-width="0.500000"/>
		<rect id="Прямоугольник 4" x="39.999939" y="-2.999939" width="120.000000" height="33.000000" fill="url(#paint_linear_8_34_0)" fill-opacity="1.000000"/>
	</g>
</svg>
