<svg width="330.000000" height="225.000000" viewBox="0 0 330 225" fill="none" xmlns="http://www.w3.org/2000/svg" xmlns:xlink="http://www.w3.org/1999/xlink">
	<desc>
			Created with Pixso.
	</desc>
	<defs>
		<filter id="filter_45_174_dd" x="76.000000" y="200.000000" width="144.865601" height="39.000000" filterUnits="userSpaceOnUse" color-interpolation-filters="sRGB">
			<feFlood flood-opacity="0" result="BackgroundImageFix"/>
			<feColorMatrix in="SourceAlpha" type="matrix" values="0 0 0 0 0 0 0 0 0 0 0 0 0 0 0 0 0 0 127 0" result="hardAlpha"/>
			<feOffset dx="7" dy="4"/>
			<feGaussianBlur stdDeviation="3.33333"/>
			<feComposite in2="hardAlpha" operator="out" k2="-1" k3="1"/>
			<feColorMatrix type="matrix" values="0 0 0 0 0 0 0 0 0 0 0 0 0 0 0 0 0 0 0.25 0"/>
			<feBlend mode="normal" in2="BackgroundImageFix" result="effect_dropShadow_1"/>
			<feBlend mode="normal" in="SourceGraphic" in2="effect_dropShadow_1" result="shape"/>
		</filter>
		<filter id="filter_45_180_dd" x="144.216064" y="16.082397" width="126.048950" height="108.271057" filterUnits="userSpaceOnUse" color-interpolation-filters="sRGB">
			<feFlood flood-opacity="0" result="BackgroundImageFix"/>
			<feColorMatrix in="SourceAlpha" type="matrix" values="0 0 0 0 0 0 0 0 0 0 0 0 0 0 0 0 0 0 127 0" result="hardAlpha"/>
			<feOffset dx="7" dy="4"/>
			<feGaussianBlur stdDeviation="3.33333"/>
			<feComposite in2="hardAlpha" operator="out" k2="-1" k3="1"/>
			<feColorMatrix type="matrix" values="0 0 0 0 0 0 0 0 0 0 0 0 0 0 0 0 0 0 0.25 0"/>
			<feBlend mode="normal" in2="BackgroundImageFix" result="effect_dropShadow_1"/>
			<feBlend mode="normal" in="SourceGraphic" in2="effect_dropShadow_1" result="shape"/>
		</filter>
		<filter id="filter_45_179_dd" x="184.744629" y="30.989014" width="133.406372" height="94.010803" filterUnits="userSpaceOnUse" color-interpolation-filters="sRGB">
			<feFlood flood-opacity="0" result="BackgroundImageFix"/>
			<feColorMatrix in="SourceAlpha" type="matrix" values="0 0 0 0 0 0 0 0 0 0 0 0 0 0 0 0 0 0 127 0" result="hardAlpha"/>
			<feOffset dx="7" dy="4"/>
			<feGaussianBlur stdDeviation="3.33333"/>
			<feComposite in2="hardAlpha" operator="out" k2="-1" k3="1"/>
			<feColorMatrix type="matrix" values="0 0 0 0 0 0 0 0 0 0 0 0 0 0 0 0 0 0 0.25 0"/>
			<feBlend mode="normal" in2="BackgroundImageFix" result="effect_dropShadow_1"/>
			<feBlend mode="normal" in="SourceGraphic" in2="effect_dropShadow_1" result="shape"/>
		</filter>
		<filter id="filter_45_175_dd" x="9.000000" y="116.000000" width="283.000000" height="107.668335" filterUnits="userSpaceOnUse" color-interpolation-filters="sRGB">
			<feFlood flood-opacity="0" result="BackgroundImageFix"/>
			<feColorMatrix in="SourceAlpha" type="matrix" values="0 0 0 0 0 0 0 0 0 0 0 0 0 0 0 0 0 0 127 0" result="hardAlpha"/>
			<feOffset dx="7" dy="4"/>
			<feGaussianBlur stdDeviation="3.33333"/>
			<feComposite in2="hardAlpha" operator="out" k2="-1" k3="1"/>
			<feColorMatrix type="matrix" values="0 0 0 0 0 0 0 0 0 0 0 0 0 0 0 0 0 0 0.25 0"/>
			<feBlend mode="normal" in2="BackgroundImageFix" result="effect_dropShadow_1"/>
			<feBlend mode="normal" in="SourceGraphic" in2="effect_dropShadow_1" result="shape"/>
		</filter>
		<filter id="filter_45_178_dd" x="-2.840820" y="96.784180" width="306.484741" height="48.220825" filterUnits="userSpaceOnUse" color-interpolation-filters="sRGB">
			<feFlood flood-opacity="0" result="BackgroundImageFix"/>
			<feColorMatrix in="SourceAlpha" type="matrix" values="0 0 0 0 0 0 0 0 0 0 0 0 0 0 0 0 0 0 127 0" result="hardAlpha"/>
			<feOffset dx="7" dy="4"/>
			<feGaussianBlur stdDeviation="3.33333"/>
			<feComposite in2="hardAlpha" operator="out" k2="-1" k3="1"/>
			<feColorMatrix type="matrix" values="0 0 0 0 0 0 0 0 0 0 0 0 0 0 0 0 0 0 0.25 0"/>
			<feBlend mode="normal" in2="BackgroundImageFix" result="effect_dropShadow_1"/>
			<feBlend mode="normal" in="SourceGraphic" in2="effect_dropShadow_1" result="shape"/>
		</filter>
		<clipPath id="clip45_173">
			<rect id="тарелка с фруктами" width="330.000000" height="225.000000" fill="white" fill-opacity="0"/>
		</clipPath>
		<linearGradient x1="68.266304" y1="37.845215" x2="68.266304" y2="132.000122" id="paint_linear_45_190_0" gradientUnits="userSpaceOnUse">
			<stop offset="0.039011" stop-color="#F39696"/>
			<stop offset="0.977099" stop-color="#5B0000"/>
		</linearGradient>
	</defs>
	<rect id="тарелка с фруктами" width="330.000000" height="225.000000" fill="#FFFFFF" fill-opacity="0"/>
	<g clip-path="url(#clip45_173)">
		<path id="яблоко2" d="M144 57.5C144 34.02 164.5 17.5 187 15C198.83 15 207.72 19.85 215.5 27.5C223.33 35.19 230 45.71 230 57.5C230 80.97 210.74 100 187 100C163.25 100 144 80.97 144 57.5Z" fill="#A9C79B" fill-opacity="1.000000" fill-rule="evenodd"/>
		<g filter="url(#filter_45_174_dd)">
			<path id="дно" d="M83 206L199 206C199 206 202.19 207.72 203.5 210.5C204.32 212.24 203.5 214.66 203.5 216.5C203.5 222 201 224.5 201 224.5L83 225C83 225 79 220.75 79 216C79 211.25 83 206 83 206Z" fill="#B4C0BE" fill-opacity="1.000000" fill-rule="evenodd"/>
		</g>
		<g filter="url(#filter_45_180_dd)">
			<path id="банан2" d="M237 23.02C242.66 20.2 251.93 24.57 252.5 25C252.86 25.27 253.68 30.86 253 40.5C252.8 43.21 253 47.5 252.5 50C251.94 52.78 253.28 49.93 245.5 65.49C237.71 81.06 230.83 92.91 230.83 92.91L192.41 103.35C192.41 103.35 164.39 108.81 154 110.27C143.6 111.73 147.28 92.94 151.07 89.47C154.86 86.01 175.1 84.56 196 68C199.87 64.93 203.78 59.59 207.5 56C211.2 52.41 215 49 218.07 45.22C221.92 40.48 224.75 37.14 227 34C230.95 28.45 233.38 24.81 237 23.02Z" fill="#F0E167" fill-opacity="1.000000" fill-rule="evenodd"/>
		</g>
		<g filter="url(#filter_45_179_dd)">
			<path id="банан1" d="M291.5 37.99C297.5 35.99 300.5 37.5 301 37.99C301.5 38.49 301.12 55.62 294 71.49C286.87 87.37 272 104.5 272 104.5L232.5 109.5C232.5 109.5 204 111 193.5 111C183 111 189.26 92.9 193.5 89.99C197.73 87.09 218 86.49 241 72.99C249.5 68 257.88 61.18 266 55.49C279.83 45.8 285.5 39.99 291.5 37.99Z" fill="#F4E77B" fill-opacity="1.000000" fill-rule="evenodd"/>
		</g>
		<path id="лемон" d="M83 46.99C83 32.08 101.58 18.99 124.5 18.99C139.34 19.84 158.44 28.18 158.54 32.96C158.59 35.01 155.71 37.29 161.22 40.1C166.73 42.92 164 46.99 164 46.99C164 46.99 163.45 49.94 162 51.5C161.5 52.02 161.28 52.38 160.5 53C159.71 53.61 159 54.5 159 55C159 58.31 140.19 74.7 124.5 73.99C101.58 73.99 83 61.91 83 46.99Z" fill="#E8E487" fill-opacity="0.971429" fill-rule="evenodd"/>
		<path id="Эллипс 7" d="M104 94.5C104 83.81 108.68 70.17 117.5 63.5C125.32 57.58 134.5 55.49 148 58C172.3 58 192 74.34 192 94.5C192 114.65 172.3 131 148 131C123.69 131 104 114.65 104 94.5Z" fill="#DA8965" fill-opacity="1.000000" fill-rule="evenodd"/>
		<path id="Форма 52" d="M144.35 67.95L144.59 67.95C144.75 67.95 145.13 68 145.72 68.09C146.32 68.19 147.29 68.37 148.62 68.65C149.95 68.93 150.91 69.16 151.5 69.35C152.08 69.53 152.48 69.69 152.68 69.83C152.88 69.96 153.05 70.1 153.17 70.24C153.29 70.38 153.39 70.5 153.45 70.6" stroke="#000000" stroke-opacity="1.000000" stroke-width="1.000000" stroke-linecap="round"/>
		<path id="Линия 15" d="M149 68C149 68 148.25 61.99 150.5 56.49C152.75 50.99 158 46 158 46" stroke="#000000" stroke-opacity="1.000000" stroke-width="3.000000"/>
		<path id="Прямоугольник 21" d="M70 -0.01L70.5 1.49C70.5 1.49 73 15.49 58 24.99C43 34.49 50 49.49 50 49.49L39.5 40.49C39.5 40.49 37.5 21.99 48.5 15.99C59.5 9.99 55.5 13.5 62 8.49C68.5 3.49 70 -0.01 70 -0.01Z" fill="#557552" fill-opacity="1.000000" fill-rule="evenodd"/>
		<path id="Прямоугольник 20" d="M26 35.47L32.25 28.99L48.49 47.49L44 50.49L26 35.47Z" fill="#3E2929" fill-opacity="1.000000" fill-rule="evenodd"/>
		<path id="Эллипс 8" d="M16.5 87.5C16.5 61.26 45.5 42.5 71.5 38C85.25 38 100.32 36.25 109.5 44.5C119.1 53.13 121 71.08 121 84.5C121 110.73 98.16 132 70 132C41.83 132 9.5 128.5 16.5 87.5Z" fill="url(#paint_linear_45_190_0)" fill-opacity="1.000000" fill-rule="evenodd"/>
		<g filter="url(#filter_45_175_dd)">
			<path id="чаша" d="M12 122C12 122 83.5 131 145.5 131C207.5 131 275 122 275 122C275 122 272.25 188.43 205.5 206C193.73 209.09 183.37 209.23 175 209.5C163.09 209.87 154.49 209.5 145.5 209.5C135.18 209.5 123.26 209.54 111.5 209.5C101.01 209.46 90.82 209.59 79.5 206C63.08 200.79 39.99 184.02 29 168.5C12.53 145.25 12 122 12 122Z" fill="#7E5C4A" fill-opacity="1.000000" fill-rule="evenodd"/>
		</g>
		<g filter="url(#filter_45_178_dd)">
			<path id="ободок" d="M7.5 104C21.32 102.06 73.65 108.67 126.5 110.5C169.22 111.97 210.5 108.5 243 106.5C255.65 105.72 260.34 104.45 267 103.5C274 102.5 279.87 102.31 282.49 104.5C289.36 110.23 286.5 120.5 282.49 121.5C278.49 122.5 216 130.75 148 131C80 131.25 10.49 122.5 10.49 122.5C10.49 122.5 5.58 121.83 2.5 117.5C0.23 114.32 -3.09 105.48 7.5 104Z" fill="#ABC9C4" fill-opacity="1.000000" fill-rule="evenodd"/>
		</g>
		<path id="Линия 14" d="M179 203C179 203 196.57 189.13 209.22 171.88C221.88 154.63 229.63 134 229.63 134" stroke="#432C21" stroke-opacity="1.000000" stroke-width="1.000000"/>
		<path id="Линия 14" d="M55 131C55 131 61.5 152 73 169.5C84.5 187 101 201 101 201" stroke="#432C21" stroke-opacity="1.000000" stroke-width="1.000000"/>
	</g>
</svg>
