<svg width="83.000000" height="126.000000" viewBox="0 0 83 126" fill="none" xmlns="http://www.w3.org/2000/svg" xmlns:xlink="http://www.w3.org/1999/xlink">
	<desc>
			Created with Pixso.
	</desc>
	<defs>
		<clipPath id="clip37_34">
			<rect id="подвес с полотенцем" width="83.000000" height="126.000000" fill="white" fill-opacity="0"/>
		</clipPath>
	</defs>
	<rect id="подвес с полотенцем" width="83.000000" height="126.000000" fill="#FFFFFF" fill-opacity="0"/>
	<g clip-path="url(#clip37_34)">
		<path id="треугольник" d="M33.78 3.61Q24.73 15.18 15.16 23.74Q6.8 31.23 4.6 36.27Q3.46 38.9 4.32 40.34Q5.32 42.03 9.12 42.5Q9.89 42.6 11.57 42.81Q44.63 47.04 58.69 42.54Q66.42 40.07 65.63 36.96Q65.06 34.69 58.21 28.37Q54.96 25.37 53.29 23.7Q43.37 13.79 35.22 3.62L36.77 2.37Q44.87 12.45 54.7 22.29Q56.34 23.93 59.56 26.9Q66.85 33.62 67.57 36.48Q68.81 41.41 59.3 44.45Q44.82 49.08 11.32 44.8Q9.64 44.58 8.87 44.49Q4.1 43.89 2.6 41.37Q1.21 39.04 2.77 35.47Q5.14 30.03 13.83 22.25Q23.26 13.81 32.21 2.38L33.78 3.61ZM32.21 2.41L32.21 2.38C32.55 1.94 33.17 1.86 33.61 2.21C34.05 2.55 34.13 3.17 33.78 3.61L33.75 3.61L32.21 2.41ZM35.24 3.62L35.22 3.62C34.86 3.18 34.93 2.57 35.37 2.22C35.81 1.86 36.42 1.93 36.77 2.37L36.77 2.4L35.24 3.62Z" fill="#AEAEAE" fill-opacity="1.000000" fill-rule="evenodd"/>
		<circle id="точка" cx="34.000000" cy="3.000000" r="3.000000" fill="#8C8C8C" fill-opacity="1.000000"/>
		<path id="Прямоугольник 18" d="M12.86 39.8C26.86 37.8 27.23 41.67 36.36 40.8C46.86 39.8 50.56 35.66 57.86 39.8C67.28 45.15 73.5 60.35 75.49 75.5C77.42 90.09 83.61 103.23 82 112C80.26 121.44 61.99 125.5 43 125.5C23.47 125.5 4.01 126.55 1.99 116.5C-2.01 96.5 -1.14 41.8 12.86 39.8Z" fill="#D1E6A1" fill-opacity="1.000000" fill-rule="evenodd"/>
		<circle id="Эллипс 6" cx="57.000000" cy="56.000000" r="1.000000" fill="#FFFFFF" fill-opacity="1.000000"/>
		<circle id="Эллипс 6" cx="45.000000" cy="58.000000" r="1.000000" fill="#FFFFFF" fill-opacity="1.000000"/>
		<circle id="Эллипс 6" cx="26.000000" cy="58.000000" r="1.000000" fill="#FFFFFF" fill-opacity="1.000000"/>
		<circle id="Эллипс 6" cx="9.000000" cy="117.000000" r="1.000000" fill="#FFFFFF" fill-opacity="1.000000"/>
		<circle id="Эллипс 6" cx="71.000000" cy="117.000000" r="1.000000" fill="#FFFFFF" fill-opacity="1.000000"/>
		<circle id="Эллипс 6" cx="19.000000" cy="117.000000" r="1.000000" fill="#FFFFFF" fill-opacity="1.000000"/>
		<circle id="Эллипс 6" cx="30.000000" cy="114.000000" r="1.000000" fill="#FFFFFF" fill-opacity="1.000000"/>
		<circle id="Эллипс 6" cx="40.000000" cy="120.000000" r="1.000000" fill="#FFFFFF" fill-opacity="1.000000"/>
		<circle id="Эллипс 6" cx="52.000000" cy="117.000000" r="1.000000" fill="#FFFFFF" fill-opacity="1.000000"/>
		<circle id="Эллипс 6" cx="63.000000" cy="112.000000" r="1.000000" fill="#FFFFFF" fill-opacity="1.000000"/>
		<circle id="Эллипс 6" cx="11.000000" cy="107.000000" r="1.000000" fill="#FFFFFF" fill-opacity="1.000000"/>
		<circle id="Эллипс 6" cx="79.000000" cy="109.000000" r="1.000000" fill="#FFFFFF" fill-opacity="1.000000"/>
		<circle id="Эллипс 6" cx="23.000000" cy="107.000000" r="1.000000" fill="#FFFFFF" fill-opacity="1.000000"/>
		<circle id="Эллипс 6" cx="32.000000" cy="104.000000" r="1.000000" fill="#FFFFFF" fill-opacity="1.000000"/>
		<circle id="Эллипс 6" cx="44.000000" cy="111.000000" r="1.000000" fill="#FFFFFF" fill-opacity="1.000000"/>
		<circle id="Эллипс 6" cx="49.000000" cy="104.000000" r="1.000000" fill="#FFFFFF" fill-opacity="1.000000"/>
		<circle id="Эллипс 6" cx="63.000000" cy="98.000000" r="1.000000" fill="#FFFFFF" fill-opacity="1.000000"/>
		<circle id="Эллипс 6" cx="4.000000" cy="98.000000" r="1.000000" fill="#FFFFFF" fill-opacity="1.000000"/>
		<circle id="Эллипс 6" cx="16.000000" cy="84.000000" r="1.000000" fill="#FFFFFF" fill-opacity="1.000000"/>
		<circle id="Эллипс 6" cx="18.000000" cy="93.000000" r="1.000000" fill="#FFFFFF" fill-opacity="1.000000"/>
		<circle id="Эллипс 6" cx="34.000000" cy="95.000000" r="1.000000" fill="#FFFFFF" fill-opacity="1.000000"/>
		<circle id="Эллипс 6" cx="44.000000" cy="92.000000" r="1.000000" fill="#FFFFFF" fill-opacity="1.000000"/>
		<circle id="Эллипс 6" cx="57.000000" cy="90.000000" r="1.000000" fill="#FFFFFF" fill-opacity="1.000000"/>
		<circle id="Эллипс 6" cx="74.000000" cy="99.000000" r="1.000000" fill="#FFFFFF" fill-opacity="1.000000"/>
		<circle id="Эллипс 6" cx="5.000000" cy="85.000000" r="1.000000" fill="#FFFFFF" fill-opacity="1.000000"/>
		<circle id="Эллипс 6" cx="88.000000" cy="79.000000" r="1.000000" fill="#FFFFFF" fill-opacity="1.000000"/>
		<rect id="фрейм 2" width="46.000000" height="2.000000" transform="translate(28.000000 80.000000)" fill="#FFFFFF" fill-opacity="0"/>
		<circle id="Эллипс 6" cx="29.000000" cy="81.000000" r="1.000000" fill="#FFFFFF" fill-opacity="1.000000"/>
		<circle id="Эллипс 6" cx="40.000000" cy="81.000000" r="1.000000" fill="#FFFFFF" fill-opacity="1.000000"/>
		<circle id="Эллипс 6" cx="51.000000" cy="81.000000" r="1.000000" fill="#FFFFFF" fill-opacity="1.000000"/>
		<circle id="Эллипс 6" cx="62.000000" cy="81.000000" r="1.000000" fill="#FFFFFF" fill-opacity="1.000000"/>
		<circle id="Эллипс 6" cx="73.000000" cy="81.000000" r="1.000000" fill="#FFFFFF" fill-opacity="1.000000"/>
		<circle id="Эллипс 6" cx="7.000000" cy="72.000000" r="1.000000" fill="#FFFFFF" fill-opacity="1.000000"/>
		<circle id="Эллипс 6" cx="87.000000" cy="72.000000" r="1.000000" fill="#FFFFFF" fill-opacity="1.000000"/>
		<circle id="Эллипс 6" cx="16.000000" cy="74.000000" r="1.000000" fill="#FFFFFF" fill-opacity="1.000000"/>
		<circle id="Эллипс 6" cx="38.000000" cy="74.000000" r="1.000000" fill="#FFFFFF" fill-opacity="1.000000"/>
		<circle id="Эллипс 6" cx="50.000000" cy="71.000000" r="1.000000" fill="#FFFFFF" fill-opacity="1.000000"/>
		<circle id="Эллипс 6" cx="65.000000" cy="74.000000" r="1.000000" fill="#FFFFFF" fill-opacity="1.000000"/>
		<circle id="Эллипс 6" cx="40.000000" cy="42.000000" r="1.000000" fill="#FFFFFF" fill-opacity="1.000000"/>
		<circle id="Эллипс 6" cx="20.000000" cy="43.000000" r="1.000000" fill="#FFFFFF" fill-opacity="1.000000"/>
		<circle id="Эллипс 6" cx="53.000000" cy="41.000000" r="1.000000" fill="#FFFFFF" fill-opacity="1.000000"/>
		<circle id="Эллипс 6" cx="7.000000" cy="57.000000" r="1.000000" fill="#FFFFFF" fill-opacity="1.000000"/>
		<circle id="Эллипс 6" cx="4.000000" cy="64.000000" r="1.000000" fill="#FFFFFF" fill-opacity="1.000000"/>
		<circle id="Эллипс 6" cx="66.000000" cy="64.000000" r="1.000000" fill="#FFFFFF" fill-opacity="1.000000"/>
		<circle id="Эллипс 6" cx="14.000000" cy="64.000000" r="1.000000" fill="#FFFFFF" fill-opacity="1.000000"/>
		<circle id="Эллипс 6" cx="25.000000" cy="64.000000" r="1.000000" fill="#FFFFFF" fill-opacity="1.000000"/>
		<circle id="Эллипс 6" cx="42.000000" cy="65.000000" r="1.000000" fill="#FFFFFF" fill-opacity="1.000000"/>
		<circle id="Эллипс 6" cx="58.000000" cy="66.000000" r="1.000000" fill="#FFFFFF" fill-opacity="1.000000"/>
		<path id="Линия 13" d="M63.5 108.5C63.5 108.5 55 102.5 53.5 85.99C52 69.49 49 45.49 49 45.49" stroke="#C0D78A" stroke-opacity="1.000000" stroke-width="0.100000" stroke-linecap="round"/>
		<path id="Линия 13" d="M32.49 52.5C32.49 52.5 32.49 74 30.99 90.5C29.49 107 30.99 116 30.99 116" stroke="#C0D78A" stroke-opacity="1.000000" stroke-width="0.300000" stroke-linecap="round"/>
		<line id="Линия 13" x1="18.500000" y1="43.000000" x2="18.500000" y2="43.000000" stroke="#C0D78A" stroke-opacity="1.000000" stroke-width="0.200000"/>
		<rect id="фрейм 2" width="46.000000" height="2.000000" transform="translate(12.000000 47.000000)" fill="#FFFFFF" fill-opacity="0"/>
		<circle id="Эллипс 6" cx="57.000000" cy="48.000000" r="1.000000" fill="#FFFFFF" fill-opacity="1.000000"/>
		<circle id="Эллипс 6" cx="46.000000" cy="48.000000" r="1.000000" fill="#FFFFFF" fill-opacity="1.000000"/>
		<circle id="Эллипс 6" cx="35.000000" cy="48.000000" r="1.000000" fill="#FFFFFF" fill-opacity="1.000000"/>
		<circle id="Эллипс 6" cx="24.000000" cy="48.000000" r="1.000000" fill="#FFFFFF" fill-opacity="1.000000"/>
		<circle id="Эллипс 6" cx="13.000000" cy="48.000000" r="1.000000" fill="#FFFFFF" fill-opacity="1.000000"/>
	</g>
</svg>
