<svg width="32578.000000" height="1044.000000" viewBox="0 0 32578 1044" fill="none" xmlns="http://www.w3.org/2000/svg" xmlns:xlink="http://www.w3.org/1999/xlink">
	<desc>
			Created with Pixso.
	</desc>
	<defs>
		<clipPath id="clip81_3">
			<rect id="фрейм 4" width="32578.000000" height="1044.000000" fill="white" fill-opacity="0"/>
		</clipPath>
	</defs>
	<rect id="фрейм 4" width="32578.000000" height="1044.000000" fill="#FFFFFF" fill-opacity="0.062857"/>
	<g clip-path="url(#clip81_3)">
		<path id="polka" d="M2 0L0 348L457 1030.5L32578.5 1043.5L32578.5 698.5L31761.2 0L2 0Z" fill="#6F3D00" fill-opacity="1.000000" fill-rule="evenodd"/>
		<path id="polka" d="M2 0L464.5 685.5L457 1030.5M0 348L2 0L31761.2 0L32578.5 698.5L32578.5 1043.5L457 1030.5L0 348ZM464.5 685.5L32578.5 698.5" stroke="#000000" stroke-opacity="1.000000" stroke-width="0.800000"/>
		<path id="Линия 34" d="M548.04 378.97C540.67 468.87 463.28 518.09 476.45 613.92" stroke="#000000" stroke-opacity="1.000000" stroke-width="0.600000"/>
		<path id="Линия 34" d="M578.81 475.99C565 544.88 487.53 565.16 492.85 643.59" stroke="#000000" stroke-opacity="1.000000" stroke-width="0.600000"/>
		<line id="Линия 34" x1="537.519531" y1="65.997414" x2="497.500000" y2="185.996918" stroke="#000000" stroke-opacity="1.000000" stroke-width="0.600000"/>
		<path id="Форма 81" d="M2 0L0 348L457 1030.5L464.5 685.5L2 0Z" fill="#482800" fill-opacity="1.000000" fill-rule="evenodd"/>
		<path id="Форма 81" d="M0 348L1.99 1.41L2 0L2.79 1.17L464.5 685.5L457 1030.5L456.22 1029.34L0 348ZM0.8 347.75L456.25 1027.94L463.69 685.73L2.78 2.59L0.8 347.75Z" fill="#000000" fill-opacity="1.000000" fill-rule="evenodd"/>
		<path id="Форма 82" d="M464 685.5L32578.5 698.5L32578.5 1043.5L457 1030.5L464 685.5Z" fill="#482800" fill-opacity="1.000000" fill-rule="evenodd"/>
		<path id="Форма 82" d="M32578.5 699.3L32578.5 698.5L32577.7 698.5L464.8 685.5L464 685.5L457.01 1029.69L457 1030.5L457.8 1030.52L457.8 1030.5L32577.7 1043.5L32578.5 1043.5L32578.5 699.3ZM32577.7 699.3L32577.7 1042.69L457.81 1029.69L464.78 686.3L32577.7 699.3Z" fill="#000000" fill-opacity="1.000000" fill-rule="evenodd"/>
	</g>
</svg>
