<svg  preserveAspectRatio="none" viewBox="0 0 650 62" fill="none" xmlns="http://www.w3.org/2000/svg" xmlns:xlink="http://www.w3.org/1999/xlink">
	<desc>
			Created with Pixso.
	</desc>
	<defs/>
	<path id="Прямоугольник 41" d="M626.59 0L20.48 0L0.03 13.22C0.03 13.22 646.5 14.74 648.26 13.22C650.01 11.69 626.59 0 626.59 0Z" fill="#DBDBDB" fill-opacity="1.000000" fill-rule="evenodd"/>
	<path id="Прямоугольник 41" d="M439.39 13.89L634.82 13.54C643.37 13.45 648.11 13.35 648.26 13.22C650.01 11.69 626.59 0 626.59 0L20.48 0L0.49 12.92L0.03 13.22C0.03 13.22 0.22 13.22 0.58 13.22C13.61 13.25 255.08 13.81 439.39 13.89ZM1.05 12.92L324.15 13.49L648.02 12.92Q647.92 12.73 647.62 12.43Q646.97 11.78 645.45 10.76Q642.86 9.02 637.96 6.31Q634.44 4.36 630.11 2.12Q627.99 1.03 626.52 0.29L20.57 0.29L1.05 12.92Z" fill="#696969" fill-opacity="1.000000" fill-rule="evenodd"/>
	<path id="Прямоугольник 42" d="M0 13.22C-0.01 11.69 26.3 13.41 82.45 12.71C138.6 12.01 149.98 12.02 181.54 12.01C272.51 11.98 347.94 12.05 363.05 12.43C394.73 13.22 476.19 12.36 478.94 12.2C487.71 11.69 570.71 12.32 579.87 12.2C618.42 11.69 647.19 12.2 647.36 12.2C648.24 12.2 650 13.98 650 15.76C650 16.92 649.62 18.08 649.36 18.75C649.22 19.1 648.88 19.32 648.5 19.32L1.33 19.32C1.04 19.32 0.77 19.19 0.63 18.93C0.37 18.43 0 17.42 0 15.76C0 14.33 0 13.89 0 13.22Z" fill="#C7C7C7" fill-opacity="1.000000" fill-rule="evenodd"/>
	<path id="Прямоугольник 42" d="M0 13.22C-0.01 12.43 7.04 12.51 21.64 12.67C35.23 12.82 55.37 13.05 82.45 12.71C137.29 12.03 149.42 12.02 179.36 12.01L181.54 12.01C272.51 11.98 347.94 12.05 363.05 12.43C394.73 13.22 476.19 12.36 478.94 12.2C484.64 11.87 521.67 12.02 549.43 12.13C564.39 12.19 576.66 12.24 579.87 12.2C616.59 11.72 644.44 12.15 647.15 12.2C647.28 12.2 647.36 12.2 647.36 12.2C648.24 12.2 650 13.98 650 15.76C650 16.92 649.62 18.08 649.36 18.75C649.22 19.1 648.88 19.32 648.5 19.32L1.33 19.32C1.04 19.32 0.77 19.19 0.63 18.93C0.37 18.43 0 17.42 0 15.76C0 15.19 0 14.78 0 14.45C0 13.95 0 13.62 0 13.22ZM363.05 12.73Q374.02 13 394.14 13.05Q410.7 13.09 431.85 12.97Q448.85 12.88 464.13 12.71Q470.4 12.65 474.48 12.59Q478.43 12.53 478.96 12.5Q482.71 12.28 505.91 12.3Q519.35 12.31 549.43 12.43Q563.71 12.49 569.06 12.51Q577.72 12.53 579.88 12.5Q603.04 12.2 626.26 12.3Q638.15 12.36 647.14 12.5Q647.35 12.5 647.36 12.5Q647.6 12.5 647.98 12.76Q648.39 13.04 648.78 13.5Q649.19 14.01 649.43 14.57Q649.7 15.19 649.7 15.76Q649.7 16.5 649.49 17.37Q649.33 18 649.08 18.64Q649.05 18.72 649 18.78Q648.94 18.86 648.86 18.91Q648.8 18.95 648.73 18.98Q648.62 19.02 648.5 19.02L1.33 19.02Q1.18 19.02 1.06 18.96Q0.99 18.92 0.94 18.86Q0.92 18.83 0.9 18.79Q0.66 18.33 0.51 17.71Q0.3 16.84 0.3 15.76L0.3 13.58L0.3 13.3Q0.34 13.27 0.42 13.25Q0.72 13.15 1.36 13.07Q2.61 12.93 5.35 12.89Q7.77 12.85 12.1 12.88Q14.81 12.89 21.63 12.97Q28.84 13.05 33.06 13.09Q40.3 13.15 46.98 13.17Q64.67 13.23 82.45 13.01L156.02 12.34L181.54 12.31L363.04 12.73L363.05 12.73L363.05 12.73Z" fill="#696969" fill-opacity="1.000000" fill-rule="evenodd"/>
	<path id="Форма 83" d="M55 19L83.29 19C83.29 19 78.3 61.69 75.8 61.69C73.31 61.69 69.24 62.38 67.11 61.69C64.97 61 67.11 42.49 67.11 42.49C67.11 42.49 67.59 36.91 60.65 30.82C54.63 25.55 55 19 55 19Z" fill="#C7C7C7" fill-opacity="1.000000" fill-rule="evenodd"/>
	<path id="Форма 83" d="M67.11 42.49C67.11 42.49 64.97 61 67.11 61.69C68.56 62.16 70.92 61.99 73.06 61.83C74.06 61.76 75.01 61.69 75.8 61.69C78.18 61.69 82.81 23.09 83.26 19.29C83.28 19.1 83.29 19 83.29 19L55 19C55 19 54.63 25.55 60.65 30.82C67.59 36.91 67.11 42.49 67.11 42.49ZM55.3 19.29C55.3 19.54 55.31 19.8 55.33 20.08C55.41 20.99 55.59 21.91 55.86 22.85C56 23.36 56.18 23.87 56.37 24.36C56.68 25.13 57.05 25.88 57.48 26.6C57.53 26.68 57.58 26.75 57.63 26.83C58.49 28.22 59.56 29.47 60.84 30.59C62.46 32.01 63.79 33.49 64.84 35.04C65.68 36.29 66.32 37.56 66.77 38.84C67.08 39.76 67.29 40.64 67.37 41.49C67.4 41.76 67.41 42.01 67.41 42.24C67.41 42.35 67.41 42.45 67.41 42.51L67.41 42.52L67.41 42.52C67.32 43.3 67.22 44.27 67.1 45.43C66.88 47.76 66.72 49.9 66.61 51.86C66.45 54.59 66.42 56.77 66.51 58.38C66.56 59.33 66.65 60.07 66.79 60.59C66.85 60.86 66.93 61.06 67.01 61.21C67.08 61.32 67.14 61.38 67.2 61.4C67.81 61.6 68.69 61.7 69.83 61.69C70.28 61.69 70.81 61.68 71.42 61.64C71.78 61.62 72.32 61.58 73.04 61.53C73.7 61.48 74.18 61.45 74.49 61.43C75 61.4 75.43 61.39 75.79 61.39C75.8 61.38 75.82 61.37 75.83 61.35C75.89 61.29 75.96 61.2 76.04 61.06C76.2 60.77 76.37 60.34 76.56 59.76C76.91 58.66 77.3 57.06 77.73 54.96C78.46 51.4 79.28 46.52 80.19 40.3C80.84 35.85 81.5 30.96 82.18 25.63C82.49 23.13 82.75 21.02 82.96 19.29L55.3 19.29Z" fill="#696969" fill-opacity="1.000000" fill-rule="evenodd"/>
	<path id="Форма 83" d="M65.17 19L90.14 19C92.07 20.41 90.14 51.4 90.14 52.75C90.14 54.11 75.94 61.69 75.94 61.69C75.94 61.69 74.97 49.29 75.94 42.35C76.92 35.4 76.37 36.8 70.21 30.81C64.84 25.58 65.17 19 65.17 19Z" fill="#DBDBDB" fill-opacity="1.000000" fill-rule="evenodd"/>
	<path id="Форма 83" d="M65.17 19L90.14 19C91.77 20.19 90.65 42.44 90.26 50.18C90.18 51.61 90.14 52.54 90.14 52.75C90.14 54 78.25 60.45 76.23 61.53C76.04 61.63 75.94 61.69 75.94 61.69C75.94 61.69 75.93 61.57 75.92 61.36C75.77 59.36 75.06 48.63 75.94 42.35C76.73 36.75 76.53 36.57 73.2 33.58C72.4 32.86 71.41 31.97 70.21 30.81C64.84 25.58 65.17 19 65.17 19L65.17 19ZM65.47 19.3L90.02 19.3C90.96 20.4 90.94 30.69 89.96 50.16C89.88 51.71 89.84 52.57 89.84 52.74C89.84 52.75 89.83 52.76 89.83 52.76C89.81 52.8 89.78 52.84 89.74 52.89C89.65 53 89.52 53.14 89.33 53.3C88.97 53.61 88.44 54 87.75 54.47C86.57 55.27 84.95 56.27 82.89 57.47C81.41 58.33 79.79 59.25 78.02 60.22C77.32 60.6 76.72 60.93 76.21 61.21C76.18 60.77 76.14 60.24 76.1 59.63C76 57.93 75.93 56.26 75.88 54.61C75.81 52.3 75.79 50.2 75.83 48.31C75.88 45.94 76.02 43.97 76.24 42.39C76.35 41.61 76.43 40.98 76.48 40.52C76.55 39.95 76.59 39.46 76.61 39.05C76.63 38.61 76.63 38.21 76.6 37.88C76.56 37.52 76.5 37.19 76.4 36.89C76.3 36.6 76.17 36.31 75.99 36.03C75.83 35.78 75.62 35.51 75.37 35.23C75.15 34.98 74.86 34.7 74.51 34.37C74.29 34.17 73.92 33.83 73.4 33.36C72.84 32.85 72.39 32.44 72.06 32.14C71.49 31.62 70.95 31.1 70.42 30.59C69.72 29.91 69.09 29.18 68.53 28.4C68.13 27.83 67.76 27.24 67.42 26.62C67.28 26.35 67.14 26.07 67.02 25.8C66.58 24.86 66.23 23.89 65.97 22.87C65.73 21.93 65.57 21 65.5 20.08C65.48 19.8 65.47 19.54 65.47 19.3Z" fill="#696969" fill-opacity="1.000000" fill-rule="evenodd"/>
	<path id="Форма 83" d="M600.99 19L572.7 19C572.7 19 577.69 61.69 580.19 61.69C582.69 61.69 586.75 62.38 588.88 61.69C591.02 61 588.88 42.49 588.88 42.49C588.88 42.49 588.4 36.91 595.34 30.82C601.36 25.55 600.99 19 600.99 19Z" fill="#C7C7C7" fill-opacity="1.000000" fill-rule="evenodd"/>
	<path id="Форма 83" d="M588.88 42.49C588.88 42.49 591.02 61 588.88 61.69C587.43 62.16 585.07 61.99 582.93 61.83C581.93 61.76 580.98 61.69 580.19 61.69C577.81 61.69 573.18 23.09 572.73 19.29C572.71 19.1 572.7 19 572.7 19L600.99 19C600.99 19 601.36 25.55 595.34 30.82C588.4 36.91 588.88 42.49 588.88 42.49ZM600.7 19.29C600.69 19.54 600.68 19.8 600.65 20.08C600.58 20.99 600.4 21.91 600.13 22.85C599.99 23.36 599.81 23.87 599.62 24.36C599.31 25.13 598.94 25.88 598.51 26.6C598.46 26.68 598.41 26.75 598.36 26.83C597.5 28.22 596.43 29.47 595.15 30.59C593.53 32.01 592.2 33.49 591.15 35.04C590.31 36.29 589.67 37.56 589.22 38.84C588.91 39.76 588.7 40.64 588.62 41.49C588.59 41.76 588.58 42.01 588.58 42.24C588.58 42.35 588.58 42.45 588.58 42.51L588.58 42.52L588.59 42.52C588.67 43.3 588.77 44.27 588.89 45.43C589.11 47.76 589.27 49.9 589.38 51.86C589.54 54.59 589.57 56.77 589.48 58.38C589.43 59.33 589.34 60.07 589.2 60.59C589.14 60.86 589.06 61.06 588.98 61.21C588.91 61.32 588.85 61.38 588.79 61.4C588.18 61.6 587.3 61.7 586.16 61.69C585.71 61.69 585.18 61.68 584.57 61.64C584.21 61.62 583.67 61.58 582.95 61.53C582.29 61.48 581.81 61.45 581.5 61.43C580.99 61.4 580.56 61.39 580.2 61.39C580.19 61.38 580.17 61.37 580.16 61.35C580.1 61.29 580.03 61.2 579.95 61.06C579.79 60.77 579.62 60.34 579.44 59.76C579.08 58.66 578.69 57.06 578.26 54.96C577.53 51.4 576.71 46.52 575.8 40.3C575.15 35.85 574.49 30.96 573.81 25.63C573.5 23.13 573.24 21.02 573.03 19.29L600.7 19.29Z" fill="#696969" fill-opacity="1.000000" fill-rule="evenodd"/>
	<path id="Форма 83" d="M590.82 19L565.85 19C563.92 20.41 565.85 51.4 565.85 52.75C565.85 54.11 580.05 61.69 580.05 61.69C580.05 61.69 581.02 49.29 580.05 42.35C579.07 35.4 579.62 36.8 585.78 30.81C591.15 25.58 590.82 19 590.82 19Z" fill="#DBDBDB" fill-opacity="1.000000" fill-rule="evenodd"/>
	<path id="Форма 83" d="M590.82 19L565.85 19C564.22 20.19 565.34 42.44 565.73 50.18C565.81 51.61 565.85 52.54 565.85 52.75C565.85 54 577.74 60.45 579.76 61.53C579.95 61.63 580.05 61.69 580.05 61.69C580.05 61.69 580.06 61.57 580.07 61.36C580.22 59.36 580.93 48.63 580.05 42.35C579.26 36.75 579.46 36.57 582.79 33.58C583.59 32.86 584.58 31.97 585.78 30.81C591.15 25.58 590.82 19 590.82 19L590.82 19ZM590.52 19.3L565.97 19.3C565.03 20.4 565.05 30.69 566.03 50.16C566.11 51.71 566.15 52.57 566.15 52.74C566.15 52.75 566.16 52.76 566.16 52.76C566.18 52.8 566.21 52.84 566.25 52.89C566.34 53 566.47 53.14 566.66 53.3C567.02 53.61 567.55 54 568.24 54.47C569.42 55.27 571.04 56.27 573.1 57.47C574.58 58.33 576.2 59.25 577.97 60.22C578.67 60.6 579.27 60.93 579.78 61.21C579.81 60.77 579.85 60.24 579.89 59.63C579.99 57.93 580.06 56.26 580.11 54.61C580.18 52.3 580.2 50.2 580.16 48.31C580.11 45.94 579.97 43.97 579.75 42.39C579.64 41.61 579.56 40.98 579.51 40.52C579.44 39.95 579.4 39.46 579.38 39.05C579.36 38.61 579.36 38.21 579.39 37.88C579.43 37.52 579.49 37.19 579.59 36.89C579.69 36.6 579.83 36.31 580 36.03C580.16 35.78 580.37 35.51 580.63 35.23C580.84 34.98 581.13 34.7 581.48 34.37C581.7 34.17 582.07 33.83 582.59 33.36C583.15 32.85 583.6 32.44 583.93 32.14C584.5 31.62 585.04 31.1 585.57 30.59C586.27 29.91 586.9 29.18 587.46 28.4C587.87 27.83 588.23 27.24 588.57 26.62C588.71 26.35 588.85 26.07 588.98 25.8C589.41 24.86 589.76 23.89 590.02 22.87C590.26 21.93 590.42 21 590.49 20.08C590.51 19.8 590.52 19.54 590.52 19.3Z" fill="#696969" fill-opacity="1.000000" fill-rule="evenodd"/>
</svg>
