<svg    preserveAspectRatio="none" viewBox="0 0 370.5 19.0023" fill="none" xmlns="http://www.w3.org/2000/svg" xmlns:xlink="http://www.w3.org/1999/xlink">
	<desc>
			Created with Pixso.
	</desc>
	<defs/>
	<path id="Прямоугольник 41" d="M357.16 0L11.67 0L0.02 13C0.02 13 368.51 14.5 369.51 13C370.5 11.5 357.16 0 357.16 0Z" fill="#DBDBDB" fill-opacity="1.000000" fill-rule="evenodd"/>
	<path id="Прямоугольник 41" d="M11.67 0L357.16 0C357.16 0 370.5 11.5 369.51 13C368.52 14.47 14.02 13.05 0.42 13C0.15 13 0.02 13 0.02 13L0.28 12.7L11.67 0ZM11.81 0.3L357.04 0.3C357.59 0.76 358.25 1.34 359.03 2.04C360.67 3.51 362.16 4.88 363.5 6.15C365.36 7.93 366.79 9.39 367.77 10.53C368.34 11.2 368.76 11.74 369 12.16C369.13 12.37 369.21 12.54 369.24 12.68C369.25 12.71 369.25 12.73 369.26 12.76C369.23 12.76 369.19 12.76 369.16 12.77C368.97 12.79 368.7 12.81 368.34 12.83C367.62 12.87 366.57 12.91 365.18 12.95C362.49 13.01 358.54 13.08 353.34 13.13C343.65 13.23 329.66 13.29 311.35 13.33C280.52 13.39 238.2 13.37 184.39 13.26C145.95 13.18 103.69 13.06 57.61 12.91C34.9 12.83 15.93 12.76 0.69 12.7L11.81 0.3Z" fill="#696969" fill-opacity="1.000000" fill-rule="evenodd"/>
	<path id="Прямоугольник 42" d="M0 13C-0.01 11.5 14.99 13.18 46.99 12.5C79 11.81 85.49 11.82 103.48 11.81C155.33 11.78 198.32 11.85 206.94 12.22C225 13 271.43 12.15 273 12C278 11.5 325.3 12.12 330.53 12C352.5 11.5 368.9 12 369 12C369.5 12 370.5 13.75 370.5 15.5C370.5 16.54 370.32 17.59 370.17 18.26C370.08 18.7 369.69 19 369.24 19L1.11 19C0.74 19 0.4 18.78 0.3 18.41C0.16 17.87 0 16.93 0 15.5C0 14.1 0 13.66 0 13Z" fill="#C7C7C7" fill-opacity="1.000000" fill-rule="evenodd"/>
	<path id="Прямоугольник 42" d="M0 13C-0.01 12.22 4.01 12.3 12.33 12.46C20.08 12.61 31.56 12.83 46.99 12.5C78.25 11.83 85.17 11.82 102.23 11.81L103.48 11.81C155.33 11.78 198.32 11.85 206.94 12.22C225 13 271.43 12.15 273 12C276.24 11.67 297.35 11.82 313.17 11.93C321.7 11.99 328.7 12.04 330.53 12C351.45 11.52 367.33 11.95 368.87 11.99C368.95 12 368.99 12 369 12C369.5 12 370.5 13.75 370.5 15.5C370.5 16.54 370.32 17.59 370.17 18.26C370.08 18.7 369.69 19 369.24 19L1.11 19C0.74 19 0.4 18.78 0.3 18.41C0.16 17.87 0 16.93 0 15.5C0 14.94 0 14.54 0 14.21C0 13.71 0 13.4 0 13ZM369.24 18.7L1.11 18.7C1.01 18.7 0.92 18.68 0.84 18.64C0.82 18.62 0.79 18.61 0.77 18.6C0.72 18.56 0.68 18.52 0.65 18.47C0.62 18.43 0.6 18.39 0.59 18.34C0.39 17.58 0.3 16.63 0.3 15.5L0.3 13.35L0.3 13.03C0.3 13.02 0.32 13.01 0.33 13.01C0.43 12.95 0.59 12.9 0.81 12.86C1.28 12.77 2.02 12.71 3.05 12.68C3.97 12.65 5.25 12.65 6.89 12.67C7.92 12.68 9.73 12.71 12.32 12.76C15.06 12.81 17.23 12.85 18.84 12.87C21.59 12.92 24.24 12.94 26.78 12.96C33.5 13 40.24 12.94 47 12.8C61.46 12.49 72.44 12.29 79.94 12.21C83.45 12.17 87.07 12.14 90.8 12.13C93.16 12.12 96.97 12.12 102.23 12.11L103.48 12.11C132.38 12.09 155.03 12.11 171.42 12.16C191.08 12.23 202.91 12.35 206.93 12.52C211.1 12.7 217.01 12.8 224.66 12.83C230.95 12.86 238.12 12.83 246.15 12.76C252.62 12.7 258.75 12.61 264.56 12.51C269.74 12.41 272.56 12.34 273.03 12.3C274.44 12.15 279.56 12.09 288.37 12.1C293.47 12.11 301.74 12.15 313.17 12.23C318.6 12.27 322.33 12.29 324.36 12.3C327.65 12.32 329.71 12.32 330.53 12.3C339.33 12.1 348.14 12.03 356.97 12.1C361.48 12.14 365.45 12.2 368.86 12.29C368.93 12.3 368.97 12.3 368.99 12.3L368.99 12.3C369 12.3 369.02 12.31 369.03 12.32C369.09 12.36 369.15 12.42 369.21 12.49C369.37 12.67 369.52 12.92 369.66 13.22C369.82 13.55 369.95 13.91 370.04 14.28C370.14 14.7 370.2 15.11 370.2 15.5C370.2 16.31 370.09 17.22 369.88 18.2C369.86 18.27 369.84 18.34 369.8 18.39C369.77 18.46 369.72 18.51 369.66 18.56C369.6 18.6 369.55 18.63 369.49 18.65C369.41 18.68 369.33 18.7 369.24 18.7Z" fill="#696969" fill-opacity="1.000000" fill-rule="evenodd"/>
</svg>
