<svg preserveAspectRatio="none" viewBox="0 0 370.5 49.2249" fill="none" xmlns="http://www.w3.org/2000/svg" xmlns:xlink="http://www.w3.org/1999/xlink">
	<desc>
			Created with Pixso.
	</desc>
	<defs>
		<clipPath id="clip152_1">
			<rect id="shelfUnderJarsSmallFirstVariant" width="370.500092" height="49.224861" fill="white" fill-opacity="0"/>
		</clipPath>
	</defs>
	<g clip-path="url(#clip152_1)">
		<path id="Форма 83" d="M338 18L321 18C321 18 324 49 325.5 49C327 49 330.95 49.5 330.72 49C330.5 48.5 330.72 35.06 330.72 35.06C330.72 35.06 330.43 31.01 334.61 26.58C338.22 22.76 338 18 338 18Z" fill="#C7C7C7" fill-opacity="1.000000" fill-rule="evenodd"/>
		<path id="Форма 83" d="M321.3 18L338 18C338 18 338.22 22.76 334.61 26.58C330.43 31.01 330.72 35.06 330.72 35.06C330.72 35.06 330.5 48.5 330.72 49C330.88 49.34 329.09 49.21 327.46 49.1C326.7 49.05 325.98 49 325.5 49C324.09 49 321.34 21.49 321.03 18.3C321.01 18.1 321 18 321 18L321.3 18ZM321.33 18.3Q321.51 20.15 321.79 22.81Q322.4 28.62 322.99 33.46Q323.81 40.24 324.46 44.1Q324.85 46.39 325.17 47.59Q325.33 48.21 325.48 48.52Q325.53 48.64 325.57 48.7Q326.09 48.7 327.48 48.8Q329.14 48.92 329.76 48.92Q330.19 48.92 330.4 48.89Q330.39 48.84 330.39 48.78Q330.37 48.59 330.36 48.27Q330.34 47.67 330.33 46.61Q330.32 44.83 330.34 41.84Q330.37 38.42 330.42 35.06Q330.41 34.79 330.45 34.33Q330.52 33.4 330.81 32.4Q331.21 30.99 331.98 29.63Q332.93 27.92 334.39 26.38Q334.83 25.91 335.21 25.4Q335.89 24.51 336.39 23.49Q336.41 23.47 336.42 23.44Q337.04 22.18 337.37 20.79Q337.61 19.77 337.68 18.78Q337.7 18.51 337.7 18.3L321.33 18.3Z" fill="#696969" fill-opacity="1.000000" fill-rule="evenodd"/>
		<path id="Форма 83" d="M331.89 18L316.89 18C316.89 18 316.58 24.14 316.5 30.27C316.43 36.39 316.59 42.51 316.89 42.51C317.5 42.51 324.34 48.5 325.42 49C326.5 49.5 325.42 34.95 325.42 34.95C325.42 34.95 325.16 30.93 328.86 26.57C332.09 22.78 331.89 18 331.89 18Z" fill="#DBDBDB" fill-opacity="1.000000" fill-rule="evenodd"/>
		<path id="Форма 83" d="M331.89 18L316.89 18C316.89 18 316.58 24.14 316.5 30.27C316.43 36.39 316.59 42.51 316.89 42.51C317.22 42.51 319.32 44.22 321.37 45.89L321.37 45.89C323.16 47.34 324.92 48.76 325.42 49C326.5 49.5 325.42 34.95 325.42 34.95C325.42 34.95 325.16 30.93 328.86 26.57C332.09 22.78 331.89 18 331.89 18ZM331.59 18.3L317.18 18.3Q317.1 19.75 317.03 21.84Q316.85 26.44 316.8 30.27Q316.74 35 316.85 38.68Q316.91 40.45 316.99 41.43Q317.03 41.93 317.08 42.18Q317.09 42.22 317.1 42.25Q317.16 42.28 317.24 42.32Q317.39 42.4 317.61 42.55Q318 42.82 318.67 43.33Q319.5 43.97 321.56 45.65Q323.34 47.1 324.06 47.66Q325.01 48.41 325.4 48.64Q325.42 48.57 325.44 48.48Q325.54 48 325.58 47Q325.64 45.29 325.53 42.18Q325.44 39.95 325.27 37.24Q325.19 35.89 325.12 34.98Q325.1 34.7 325.14 34.23Q325.21 33.32 325.46 32.32Q325.82 30.93 326.5 29.58Q327.34 27.9 328.63 26.38Q329.71 25.11 330.42 23.51Q330.99 22.23 331.29 20.8Q331.51 19.78 331.57 18.79Q331.59 18.51 331.59 18.3ZM316.92 42.21Q316.9 42.21 316.89 42.21Q316.9 42.21 316.92 42.21Z" fill="#696969" fill-opacity="1.000000" fill-rule="evenodd"/>
		<path id="Форма 83" d="M30 18L47 18C47 18 44 49 42.5 49C41 49 38 49 37.28 49C36.55 49 37.28 35.06 37.28 35.06C37.28 35.06 37.57 31.01 33.39 26.58C29.78 22.76 30 18 30 18Z" fill="#C7C7C7" fill-opacity="1.000000" fill-rule="evenodd"/>
		<path id="Форма 83" d="M46.7 18L30 18C30 18 29.78 22.76 33.39 26.58C37.57 31.01 37.28 35.06 37.28 35.06C37.28 35.06 36.55 49 37.28 49L42.5 49C43.91 49 46.66 21.49 46.97 18.3C46.99 18.1 47 18 47 18L46.7 18ZM46.67 18.3Q46.49 20.15 46.21 22.81Q45.6 28.62 45.02 33.46Q44.2 40.24 43.54 44.1Q43.15 46.39 42.83 47.59Q42.67 48.21 42.53 48.52Q42.47 48.64 42.43 48.7L40.24 48.7L37.43 48.7Q37.39 48.58 37.37 48.36Q37.3 47.83 37.27 46.81Q37.23 45.08 37.31 42.03Q37.36 39.86 37.47 37.25Q37.53 35.94 37.58 35.07Q37.6 34.8 37.56 34.33Q37.48 33.4 37.19 32.4Q36.79 30.99 36.02 29.63Q35.07 27.92 33.61 26.38Q33.17 25.91 32.79 25.4Q32.11 24.51 31.61 23.49Q31.59 23.47 31.58 23.44Q30.97 22.18 30.64 20.79Q30.39 19.77 30.32 18.78Q30.3 18.51 30.3 18.3L46.67 18.3Z" fill="#696969" fill-opacity="1.000000" fill-rule="evenodd"/>
		<path id="Форма 83" d="M36.12 18L51.11 18C51.11 18 51.11 41.02 51.11 42.51C51.11 44 42.59 49 42.59 49C42.59 49 42 40 42.59 34.95C43.17 29.91 42.84 30.93 39.14 26.57C35.92 22.78 36.12 18 36.12 18Z" fill="#DBDBDB" fill-opacity="1.000000" fill-rule="evenodd"/>
		<path id="Форма 83" d="M50.81 18L51.11 18L51.11 18.3L51.11 42.51C51.11 43.83 44.37 47.93 42.88 48.83C42.69 48.94 42.59 49 42.59 49C42.59 49 42.58 48.88 42.57 48.66C42.47 46.98 42.07 39.42 42.59 34.95C43.06 30.89 42.94 30.76 40.94 28.59C40.46 28.06 39.86 27.42 39.14 26.57C35.92 22.78 36.12 18 36.12 18L50.81 18ZM50.81 18.3L36.41 18.3Q36.42 18.51 36.43 18.79Q36.5 19.78 36.71 20.8Q37.02 22.23 37.58 23.51Q38.29 25.11 39.37 26.38Q40.09 27.22 41.16 28.39Q41.63 28.9 41.83 29.12Q42.15 29.48 42.35 29.75Q42.58 30.06 42.73 30.35Q42.87 30.63 42.96 30.92Q42.97 30.95 42.98 30.98Q43.15 31.6 43.11 32.56Q43.08 33.3 42.88 34.99Q42.52 38.12 42.67 43.86Q42.71 45.66 42.8 47.5Q42.83 48.06 42.86 48.49Q43.25 48.25 43.76 47.94Q45.35 46.96 46.68 46.06Q48.53 44.82 49.59 43.92Q50.2 43.4 50.52 43.02Q50.68 42.83 50.75 42.69Q50.81 42.57 50.81 42.51L50.81 30.29L50.81 18.3Z" fill="#696969" fill-opacity="1.000000" fill-rule="evenodd"/>
		<path id="Прямоугольник 41" d="M357.15 0L11.67 0L0.01 13C0.01 13 368.5 14.5 369.5 13C370.5 11.5 357.15 0 357.15 0Z" fill="#DBDBDB" fill-opacity="1.000000" fill-rule="evenodd"/>
		<path id="Прямоугольник 41" d="M11.67 0L357.15 0C357.15 0 370.5 11.5 369.5 13C368.52 14.47 14.01 13.05 0.41 13C0.15 13 0.01 13 0.01 13L0.28 12.7L11.67 0ZM11.8 0.3L357.04 0.3C357.58 0.76 358.24 1.34 359.02 2.04C360.67 3.51 362.16 4.88 363.49 6.15C365.36 7.93 366.79 9.39 367.77 10.53C368.34 11.2 368.75 11.74 369 12.16C369.12 12.37 369.2 12.54 369.24 12.68C369.24 12.71 369.25 12.73 369.25 12.76C369.22 12.76 369.19 12.76 369.15 12.77C368.97 12.79 368.7 12.81 368.34 12.83C367.62 12.87 366.57 12.91 365.18 12.95C362.49 13.01 358.54 13.08 353.33 13.13C343.65 13.23 329.65 13.29 311.35 13.33C280.52 13.39 238.2 13.37 184.38 13.26C145.95 13.18 103.69 13.06 57.61 12.91C34.9 12.83 15.92 12.76 0.68 12.7L11.8 0.3Z" fill="#696969" fill-opacity="1.000000" fill-rule="evenodd"/>
		<path id="Прямоугольник 42" d="M0 13C-0.01 11.5 17.49 11.5 46.99 12.5C62.78 13.03 85.49 11.82 103.48 11.81C155.33 11.78 198.32 11.85 206.94 12.22C225 13 271.43 12.15 273 12C278 11.5 325.3 12.12 330.53 12C352.5 11.5 368.9 12 369 12C369.5 12 370.5 13.75 370.5 15.5C370.5 16.54 370.32 17.59 370.17 18.26C370.08 18.7 369.69 19 369.24 19L1.11 19C0.74 19 0.4 18.78 0.3 18.41C0.16 17.87 0 16.93 0 15.5C0 14.1 0 13.66 0 13Z" fill="#C7C7C7" fill-opacity="1.000000" fill-rule="evenodd"/>
		<path id="Прямоугольник 42" d="M0 13C-0.01 11.5 17.49 11.5 46.99 12.5C56.35 12.81 68.14 12.52 79.93 12.22C88.04 12.02 96.15 11.82 103.48 11.81C155.33 11.78 198.32 11.85 206.94 12.22C225 13 271.43 12.15 273 12C276.24 11.67 297.35 11.82 313.17 11.93C321.7 11.99 328.7 12.04 330.53 12C351.45 11.52 367.33 11.95 368.87 11.99C368.95 12 368.99 12 369 12C369.5 12 370.5 13.75 370.5 15.5C370.5 16.54 370.32 17.59 370.17 18.26C370.08 18.7 369.69 19 369.24 19L1.11 19C0.74 19 0.4 18.78 0.3 18.41C0.16 17.87 0 16.93 0 15.5C0 14.94 0 14.54 0 14.21C0 13.71 0 13.4 0 13ZM369.24 18.7L1.11 18.7C1.01 18.7 0.92 18.68 0.84 18.64C0.82 18.62 0.79 18.61 0.77 18.6C0.72 18.56 0.68 18.52 0.65 18.47C0.62 18.43 0.6 18.39 0.59 18.34C0.39 17.58 0.3 16.63 0.3 15.5L0.3 13.35L0.3 13.03C0.31 13.02 0.33 13.01 0.35 12.99C0.46 12.92 0.64 12.86 0.88 12.79C1.4 12.66 2.18 12.54 3.22 12.44C5.28 12.25 8.35 12.14 12.43 12.11C20.18 12.05 31.7 12.28 46.98 12.8C51.15 12.94 56.34 12.97 62.55 12.89C65.04 12.86 67.9 12.81 71.13 12.74C73.07 12.69 76.01 12.62 79.94 12.52C85.34 12.39 89.37 12.29 92 12.24C96.4 12.16 100.22 12.11 103.48 12.11C132.38 12.09 155.03 12.11 171.42 12.16C191.08 12.23 202.91 12.35 206.93 12.52C211.1 12.7 217.01 12.8 224.66 12.83C230.95 12.86 238.12 12.84 246.15 12.76C252.62 12.7 258.75 12.61 264.56 12.51C269.74 12.41 272.56 12.34 273.03 12.3C274.44 12.15 279.56 12.09 288.37 12.1C293.47 12.11 301.74 12.15 313.17 12.23C318.6 12.27 322.33 12.29 324.36 12.3C327.65 12.32 329.71 12.32 330.53 12.3C339.33 12.1 348.14 12.03 356.97 12.1C361.48 12.14 365.45 12.2 368.86 12.29C368.93 12.3 368.97 12.3 368.99 12.3L368.99 12.3C369 12.3 369.02 12.31 369.03 12.32C369.09 12.36 369.15 12.42 369.21 12.49C369.37 12.67 369.52 12.92 369.66 13.22C369.82 13.55 369.95 13.91 370.04 14.28C370.14 14.7 370.2 15.11 370.2 15.5C370.2 16.31 370.09 17.22 369.88 18.2C369.86 18.27 369.84 18.34 369.8 18.39C369.77 18.46 369.72 18.51 369.66 18.56C369.6 18.6 369.55 18.63 369.49 18.65C369.41 18.68 369.33 18.7 369.24 18.7Z" fill="#696969" fill-opacity="1.000000" fill-rule="evenodd"/>
	</g>
</svg>
