<svg width="650.000000" height="65.000122" viewBox="0 0 650 65.0001" fill="none" xmlns="http://www.w3.org/2000/svg" xmlns:xlink="http://www.w3.org/1999/xlink">
	<desc>
			Created with Pixso.
	</desc>
	<defs/>
	<path id="Форма 83" d="M55 21L83.29 21C83.29 21 78.3 64.68 75.8 64.68C73.31 64.68 69.24 65.39 67.11 64.68C64.97 63.97 67.11 45.03 67.11 45.03C67.11 45.03 67.59 39.33 60.65 33.09C54.63 27.7 55 21 55 21Z" fill="#C7C7C7" fill-opacity="1.000000" fill-rule="evenodd"/>
	<path id="Форма 83" d="M67.11 45.03C67.11 45.03 67.59 39.33 60.65 33.09C54.63 27.7 55 21 55 21L83.29 21C83.29 21 83.28 21.1 83.26 21.3C82.81 25.14 78.18 64.68 75.8 64.68C75.01 64.68 74.06 64.75 73.06 64.83C70.92 64.99 68.56 65.16 67.11 64.68C64.97 63.97 67.11 45.03 67.11 45.03ZM82.96 21.3Q82.65 23.94 82.18 27.78Q81.16 35.97 80.19 42.8Q78.82 52.34 77.73 57.8Q77.09 61.02 76.55 62.71Q76.28 63.6 76.03 64.05Q75.92 64.25 75.83 64.34Q75.8 64.37 75.79 64.38Q75.25 64.38 74.49 64.43Q74.03 64.45 73.04 64.53Q71.96 64.61 71.42 64.64Q70.51 64.69 69.83 64.69Q68.12 64.7 67.2 64.4Q67.11 64.37 67.02 64.19Q66.89 63.97 66.79 63.56Q66.58 62.75 66.51 61.3Q66.37 58.81 66.61 54.61Q66.77 51.6 67.11 48.03Q67.27 46.25 67.41 45.07L67.41 45.06L67.41 45.06Q67.41 44.96 67.41 44.78Q67.41 44.43 67.37 44.02Q67.24 42.72 66.77 41.31Q66.1 39.34 64.84 37.42Q63.26 35.04 60.85 32.87Q59.06 31.27 57.81 29.32Q57.64 29.05 57.48 28.78Q56.9 27.79 56.47 26.73Q56.11 25.86 55.86 24.94Q55.45 23.5 55.33 22.1Q55.3 21.67 55.3 21.3L82.96 21.3Z" fill="#696969" fill-opacity="1.000000" fill-rule="evenodd"/>
	<path id="Форма 83" d="M65.17 21L90.14 21C92.07 22.44 90.14 54.15 90.14 55.54C90.14 56.93 75.94 64.68 75.94 64.68C75.94 64.68 74.97 52 75.94 44.89C76.92 37.78 76.37 39.22 70.21 33.08C64.84 27.74 65.17 21 65.17 21Z" fill="#DBDBDB" fill-opacity="1.000000" fill-rule="evenodd"/>
	<path id="Форма 83" d="M65.17 21L90.14 21C91.77 22.22 90.65 44.99 90.26 52.9C90.18 54.37 90.14 55.32 90.14 55.54C90.14 56.81 78.25 63.41 76.23 64.52C76.04 64.63 75.94 64.68 75.94 64.68C75.94 64.68 75.93 64.57 75.92 64.35C75.77 62.32 75.06 51.32 75.94 44.89C76.73 39.17 76.53 38.98 73.2 35.92C72.4 35.18 71.41 34.27 70.21 33.08C64.84 27.74 65.17 21 65.17 21L65.17 21ZM65.47 21.3L90.02 21.3Q91.43 23 89.96 52.89Q89.84 55.27 89.84 55.53Q89.83 55.54 89.83 55.56Q89.8 55.61 89.74 55.68Q89.61 55.86 89.33 56.11Q88.79 56.59 87.75 57.31Q85.98 58.53 82.89 60.37Q80.67 61.69 78.01 63.19Q76.98 63.77 76.21 64.19Q76.16 63.52 76.1 62.57Q75.95 59.98 75.88 57.44Q75.77 53.9 75.83 50.99Q75.91 47.36 76.24 44.93Q76.4 43.73 76.48 43.02Q76.58 42.14 76.61 41.52Q76.64 40.84 76.6 40.32Q76.55 39.77 76.4 39.32Q76.25 38.86 75.99 38.44Q75.75 38.04 75.37 37.61Q75.04 37.24 74.51 36.73Q74.19 36.42 73.4 35.7Q72.56 34.92 72.06 34.45Q71.21 33.65 70.42 32.87Q69.5 31.95 68.75 30.92Q68.01 29.91 67.42 28.8Q67.28 28.52 67.14 28.24Q66.4 26.68 65.97 24.96Q65.61 23.52 65.5 22.11Q65.47 21.67 65.47 21.3Z" fill="#696969" fill-opacity="1.000000" fill-rule="evenodd"/>
	<path id="Форма 83" d="M600.99 21L572.7 21C572.7 21 577.69 64.68 580.19 64.68C582.69 64.68 586.75 65.39 588.88 64.68C591.02 63.97 588.88 45.03 588.88 45.03C588.88 45.03 588.4 39.33 595.34 33.09C601.36 27.7 600.99 21 600.99 21Z" fill="#C7C7C7" fill-opacity="1.000000" fill-rule="evenodd"/>
	<path id="Форма 83" d="M588.88 45.03C588.88 45.03 588.4 39.33 595.34 33.09C601.36 27.7 600.99 21 600.99 21L572.7 21C572.7 21 572.71 21.1 572.73 21.3C573.18 25.14 577.81 64.68 580.19 64.68C580.98 64.68 581.93 64.75 582.93 64.83C585.07 64.99 587.43 65.16 588.88 64.68C591.02 63.97 588.88 45.03 588.88 45.03ZM573.03 21.3Q573.34 23.94 573.81 27.78Q574.83 35.97 575.8 42.8Q577.17 52.34 578.26 57.8Q578.9 61.02 579.44 62.71Q579.71 63.6 579.96 64.05Q580.07 64.25 580.16 64.34Q580.19 64.37 580.2 64.38Q580.74 64.38 581.5 64.43Q581.96 64.45 582.95 64.53Q584.03 64.61 584.57 64.64Q585.48 64.69 586.16 64.69Q587.87 64.7 588.79 64.4Q588.88 64.37 588.97 64.19Q589.1 63.97 589.2 63.56Q589.41 62.75 589.48 61.3Q589.62 58.81 589.38 54.61Q589.22 51.6 588.88 48.03Q588.72 46.25 588.59 45.07L588.58 45.06L588.58 45.06Q588.58 44.96 588.58 44.78Q588.58 44.43 588.62 44.02Q588.75 42.72 589.22 41.31Q589.89 39.34 591.15 37.42Q592.73 35.04 595.14 32.87Q596.93 31.27 598.18 29.32Q598.35 29.05 598.51 28.78Q599.09 27.79 599.52 26.73Q599.88 25.86 600.13 24.94Q600.54 23.5 600.65 22.1Q600.69 21.67 600.7 21.3L573.03 21.3Z" fill="#696969" fill-opacity="1.000000" fill-rule="evenodd"/>
	<path id="Форма 83" d="M590.82 21L565.85 21C563.92 22.44 565.85 54.15 565.85 55.54C565.85 56.93 580.05 64.68 580.05 64.68C580.05 64.68 581.02 52 580.05 44.89C579.07 37.78 579.62 39.22 585.78 33.08C591.15 27.74 590.82 21 590.82 21Z" fill="#DBDBDB" fill-opacity="1.000000" fill-rule="evenodd"/>
	<path id="Форма 83" d="M590.82 21L565.85 21C564.22 22.22 565.34 44.99 565.73 52.9C565.81 54.37 565.85 55.32 565.85 55.54C565.85 56.81 577.74 63.41 579.76 64.52C579.95 64.63 580.05 64.68 580.05 64.68C580.05 64.68 580.06 64.57 580.07 64.35C580.21 62.32 580.93 51.32 580.05 44.89C579.26 39.17 579.46 38.98 582.79 35.92C583.59 35.18 584.58 34.27 585.78 33.08C591.15 27.74 590.82 21 590.82 21L590.82 21ZM590.52 21.3L565.97 21.3Q564.56 23 566.03 52.89Q566.15 55.27 566.15 55.53Q566.16 55.54 566.16 55.56Q566.19 55.61 566.25 55.68Q566.38 55.86 566.66 56.11Q567.2 56.59 568.24 57.31Q570.01 58.53 573.1 60.37Q575.32 61.69 577.98 63.19Q579.02 63.77 579.78 64.19Q579.83 63.52 579.89 62.57Q580.04 59.98 580.11 57.44Q580.22 53.9 580.16 50.99Q580.08 47.36 579.75 44.93Q579.59 43.73 579.51 43.02Q579.4 42.14 579.38 41.52Q579.35 40.84 579.39 40.32Q579.45 39.77 579.59 39.32Q579.74 38.86 580 38.44Q580.24 38.04 580.62 37.61Q580.95 37.24 581.48 36.73Q581.8 36.42 582.59 35.7Q583.44 34.92 583.93 34.45Q584.78 33.65 585.57 32.87Q586.49 31.95 587.25 30.92Q587.98 29.91 588.57 28.8Q588.71 28.52 588.84 28.24Q589.59 26.68 590.02 24.96Q590.38 23.52 590.49 22.11Q590.52 21.67 590.52 21.3Z" fill="#696969" fill-opacity="1.000000" fill-rule="evenodd"/>
	<path id="Прямоугольник 41" d="M626.59 0L20.48 0L0.03 13.22C0.03 13.22 646.51 14.74 648.26 13.22C650.01 11.69 626.59 0 626.59 0Z" fill="#DBDBDB" fill-opacity="1.000000" fill-rule="evenodd"/>
	<path id="Прямоугольник 41" d="M439.39 13.89L634.82 13.54C643.37 13.45 648.11 13.35 648.26 13.22C650.01 11.69 626.59 0 626.59 0L20.48 0L0.5 12.92L0.03 13.22C0.03 13.22 0.22 13.22 0.58 13.22C13.61 13.25 255.08 13.81 439.39 13.89ZM1.05 12.92L324.15 13.49L648.02 12.92C647.96 12.79 647.83 12.63 647.62 12.43C647.19 12 646.46 11.44 645.45 10.76C643.73 9.6 641.23 8.12 637.96 6.31C635.61 5.01 633 3.62 630.11 2.12C628.7 1.39 627.5 0.78 626.52 0.29L20.57 0.29L1.05 12.92Z" fill="#696969" fill-opacity="1.000000" fill-rule="evenodd"/>
	<path id="Прямоугольник 42" d="M0 13.5C0 10.45 26.3 13.92 82.45 12.97C138.6 12.02 149.98 12.04 181.54 12.02C272.51 11.98 347.94 12.08 363.05 12.59C394.73 13.67 476.19 12.5 478.94 12.28C487.71 11.59 570.71 12.45 579.87 12.28C618.42 11.59 647.19 12.28 647.36 12.28C648.24 12.28 650 14.71 650 17.13C650 18.77 649.59 20.42 649.33 21.31C649.21 21.71 648.84 21.97 648.42 21.97L1.6 21.97C1.17 21.97 0.79 21.7 0.67 21.28C0.41 20.33 0 18.59 0 17.13C0 15 0 14.5 0 13.5Z" fill="#C7C7C7" fill-opacity="1.000000" fill-rule="evenodd"/>
	<path id="Прямоугольник 42" d="M302.86 12.1L314.16 12.14C339.13 12.23 356.59 12.37 363.05 12.59C394.73 13.67 476.19 12.5 478.94 12.28C484.64 11.83 521.67 12.04 549.43 12.19C564.39 12.27 576.66 12.34 579.87 12.28C616.59 11.62 644.44 12.22 647.15 12.28C647.28 12.28 647.36 12.28 647.36 12.28C648.24 12.28 650 14.71 650 17.13C650 18.77 649.59 20.42 649.33 21.31C649.21 21.71 648.84 21.97 648.42 21.97L1.6 21.97C1.17 21.97 0.79 21.7 0.67 21.28C0.41 20.33 0 18.59 0 17.13L0 16.27C0 14.83 0 14.34 0 13.5C0 11.9 7.25 12.1 22.27 12.51C35.85 12.88 55.79 13.43 82.45 12.97C137.29 12.05 149.42 12.04 179.36 12.03L181.54 12.02C228.03 12 270.46 12.01 302.86 12.1ZM363.05 12.89Q374.02 13.26 394.14 13.33Q410.7 13.38 431.85 13.22Q448.85 13.09 464.13 12.87Q470.41 12.78 474.48 12.7Q478.43 12.62 478.97 12.58Q482.71 12.29 505.91 12.31Q514.81 12.32 527.5 12.38Q534.97 12.41 549.42 12.49Q563.71 12.57 569.06 12.59Q577.72 12.62 579.88 12.58Q603.03 12.17 626.26 12.31Q638.15 12.39 647.14 12.58Q647.35 12.58 647.36 12.58Q647.45 12.58 647.59 12.66Q647.75 12.74 647.94 12.92Q648.36 13.31 648.75 13.95Q648.92 14.24 649.07 14.54Q649.28 14.97 649.42 15.44Q649.7 16.31 649.7 17.13Q649.7 18.2 649.46 19.45Q649.3 20.34 649.04 21.22Q649.02 21.32 648.96 21.4Q648.9 21.48 648.81 21.55Q648.74 21.6 648.66 21.63Q648.55 21.67 648.42 21.67L1.6 21.67Q1.48 21.67 1.36 21.63Q1.28 21.6 1.2 21.54Q1.1 21.47 1.04 21.38Q0.99 21.3 0.96 21.2Q0.7 20.24 0.53 19.34Q0.3 18.07 0.3 17.13L0.3 14.14L0.3 13.5L0.3 13.49Q0.3 13.36 0.5 13.23Q0.79 13.04 1.43 12.9Q2.71 12.62 5.51 12.55Q7.99 12.48 12.45 12.56Q15.24 12.62 22.26 12.81Q29.45 13 33.65 13.1Q40.83 13.27 47.45 13.35Q64.94 13.57 82.46 13.27Q102.8 12.93 116.52 12.74Q129.91 12.55 140.25 12.46Q149.47 12.38 159.3 12.35Q165.51 12.33 179.36 12.33L181.54 12.32L363.04 12.89L363.05 12.89L363.05 12.89L363.05 12.89Z" fill="#696969" fill-opacity="1.000000" fill-rule="evenodd"/>
</svg>
