<svg width="545.000000" height="62.000000" viewBox="0 0 545 62" fill="none" xmlns="http://www.w3.org/2000/svg" xmlns:xlink="http://www.w3.org/1999/xlink">
	<desc>
			Created with Pixso.
	</desc>
	<defs>
		<clipPath id="clip146_53">
			<rect id="shelfUnderJarsMedium" width="545.000000" height="62.000000" fill="white" fill-opacity="0"/>
		</clipPath>
	</defs>
	<g clip-path="url(#clip146_53)">
		<path id="Прямоугольник 41" d="M520.3 0L17.95 0L1 12L539 12L520.3 0Z" fill="#D2D2D2" fill-opacity="1.000000" fill-rule="evenodd"/>
		<rect id="Прямоугольник 42" y="12.000000" rx="1.000000" width="540.000000" height="7.000000" fill="#B9B8B5" fill-opacity="1.000000"/>
		<path id="Форма 83" d="M489.99 19L463.99 19L467.98 62L478.87 62L478.87 42.66C478.87 42.66 478.42 37.04 484.8 30.9C490.33 25.6 489.99 19 489.99 19Z" fill="#D2D2D2" fill-opacity="1.000000" fill-rule="evenodd"/>
		<path id="Форма 83" d="M464.29 19L489.99 19C489.99 19 490.33 25.6 484.8 30.9C478.42 37.04 478.87 42.66 478.87 42.66L478.87 61.7L478.87 62L478.57 62L467.98 62L464.02 19.29L463.99 19L464.29 19ZM464.32 19.29L468.26 61.7L478.57 61.7L478.57 42.67Q478.56 42.57 478.56 42.4Q478.56 42.06 478.6 41.66Q478.71 40.38 479.15 38.99Q479.77 37.06 480.93 35.17Q482.37 32.82 484.6 30.69Q485.85 29.48 486.82 28.07Q487.29 27.39 487.68 26.66Q488.02 26.04 488.3 25.4Q488.84 24.19 489.18 22.88Q489.55 21.46 489.66 20.09Q489.69 19.66 489.7 19.29L464.32 19.29Z" fill="#B9B8B5" fill-opacity="1.000000" fill-rule="evenodd"/>
		<path id="Форма 83" d="M478.98 19L453.98 19L453.98 53L468.2 62L468.2 42.52C468.2 42.52 467.76 36.93 473.94 30.89C479.31 25.63 478.98 19 478.98 19Z" fill="#C9C9C9" fill-opacity="1.000000" fill-rule="evenodd"/>
		<path id="Форма 83" d="M478.98 19L453.98 19L453.98 19.29L453.98 53L467.9 61.81L468.2 62L468.2 61.64L468.2 42.52C468.2 42.52 467.76 36.93 473.94 30.89C479.31 25.63 478.98 19 478.98 19ZM478.68 19.29Q478.68 19.67 478.65 20.09Q478.55 21.47 478.18 22.9Q477.78 24.47 477.11 25.92Q476.93 26.3 476.73 26.67Q476.21 27.65 475.57 28.54Q474.74 29.68 473.73 30.68Q471.58 32.78 470.18 35.1Q469.06 36.96 468.47 38.88Q468.04 40.25 467.93 41.52Q467.89 41.92 467.89 42.26Q467.89 42.43 467.9 42.53L467.9 61.45L454.28 52.83L454.28 19.29L478.68 19.29Z" fill="#B9B8B5" fill-opacity="1.000000" fill-rule="evenodd"/>
		<path id="Форма 83" d="M50 19L76 19L72.01 62L61.13 62L61.13 42.66C61.13 42.66 61.57 37.04 55.19 30.9C49.66 25.6 50 19 50 19Z" fill="#D2D2D2" fill-opacity="1.000000" fill-rule="evenodd"/>
		<path id="Форма 83" d="M75.7 19L50 19C50 19 49.66 25.6 55.19 30.9C61.57 37.04 61.13 42.66 61.13 42.66L61.13 61.7L61.13 62L61.43 62L72.01 62L75.97 19.29L76 19L75.7 19ZM75.67 19.29L71.73 61.7L61.43 61.7L61.43 42.67Q61.43 42.57 61.43 42.4Q61.43 42.06 61.39 41.66Q61.28 40.38 60.84 38.99Q60.23 37.06 59.06 35.17Q57.62 32.82 55.4 30.69Q54.14 29.48 53.17 28.07Q52.71 27.39 52.31 26.66Q51.97 26.04 51.69 25.4Q51.15 24.19 50.81 22.88Q50.44 21.46 50.33 20.09Q50.3 19.66 50.3 19.29L75.67 19.29Z" fill="#B9B8B5" fill-opacity="1.000000" fill-rule="evenodd"/>
		<path id="Форма 83" d="M61.01 19L86.01 19L86.01 53L71.79 62L71.79 42.52C71.79 42.52 72.23 36.93 66.05 30.89C60.68 25.63 61.01 19 61.01 19Z" fill="#C9C9C9" fill-opacity="1.000000" fill-rule="evenodd"/>
		<path id="Форма 83" d="M61.01 19L86.01 19L86.01 19.29L86.01 53L72.09 61.81L71.79 62L71.79 61.64L71.79 42.52C71.79 42.52 72.23 36.93 66.05 30.89C60.68 25.63 61.01 19 61.01 19ZM61.31 19.29Q61.31 19.67 61.34 20.09Q61.44 21.47 61.81 22.9Q62.21 24.47 62.89 25.92Q63.06 26.3 63.26 26.67Q63.78 27.65 64.43 28.54Q65.25 29.68 66.26 30.68Q68.41 32.78 69.81 35.1Q70.93 36.96 71.53 38.88Q71.95 40.25 72.06 41.52Q72.1 41.92 72.1 42.26Q72.1 42.43 72.09 42.53L72.09 61.45L85.71 52.83L85.71 19.29L61.31 19.29Z" fill="#B9B8B5" fill-opacity="1.000000" fill-rule="evenodd"/>
	</g>
</svg>
