<svg width="370.500000" height="49.224854" viewBox="0 0 370.5 49.2249" fill="none" xmlns="http://www.w3.org/2000/svg" xmlns:xlink="http://www.w3.org/1999/xlink">
	<desc>
			Created with Pixso.
	</desc>
	<defs>
		<clipPath id="clip154_1">
			<rect id="shelfUnderJarsSmallSecondVariant" width="370.500092" height="49.224861" fill="white" fill-opacity="0"/>
		</clipPath>
	</defs>
	<g clip-path="url(#clip154_1)">
		<path id="Форма 83" d="M338 18L321 18C321 18 324 49 325.5 49C327 49 330.95 49.5 330.72 49C330.5 48.5 330.72 35.06 330.72 35.06C330.72 35.06 330.43 31.01 334.61 26.58C338.22 22.76 338 18 338 18Z" fill="#C7C7C7" fill-opacity="1.000000" fill-rule="evenodd"/>
		<path id="Форма 83" d="M321.3 18L338 18C338 18 338.22 22.76 334.61 26.58C330.43 31.01 330.72 35.06 330.72 35.06C330.72 35.06 330.5 48.5 330.72 49C330.88 49.34 329.09 49.21 327.46 49.1C326.7 49.05 325.98 49 325.5 49C324.09 49 321.34 21.49 321.03 18.3C321.01 18.1 321 18 321 18L321.3 18ZM321.33 18.3C321.45 19.53 321.6 21.03 321.79 22.81C322.2 26.68 322.6 30.23 322.99 33.46C323.53 37.98 324.02 41.53 324.46 44.1C324.72 45.63 324.95 46.79 325.17 47.59C325.28 48.01 325.38 48.32 325.48 48.52C325.51 48.6 325.54 48.66 325.57 48.7C325.92 48.7 326.55 48.74 327.48 48.8C328.58 48.88 329.35 48.92 329.76 48.92C330.04 48.92 330.26 48.91 330.4 48.89C330.4 48.86 330.39 48.82 330.39 48.78C330.38 48.66 330.37 48.48 330.36 48.27C330.35 47.87 330.34 47.32 330.33 46.61C330.32 45.43 330.32 43.84 330.34 41.84C330.36 39.56 330.39 37.3 330.42 35.06C330.41 34.88 330.42 34.64 330.45 34.33C330.5 33.71 330.62 33.07 330.81 32.4C331.08 31.46 331.47 30.54 331.98 29.63C332.61 28.49 333.41 27.41 334.39 26.38C334.68 26.07 334.96 25.74 335.21 25.4C335.66 24.81 336.06 24.17 336.39 23.49C336.4 23.47 336.41 23.46 336.42 23.44C336.83 22.6 337.15 21.72 337.37 20.79C337.53 20.11 337.63 19.44 337.68 18.78C337.69 18.6 337.7 18.44 337.7 18.3L321.33 18.3Z" fill="#696969" fill-opacity="1.000000" fill-rule="evenodd"/>
		<path id="Форма 83" d="M331.89 18L316.89 18C316.89 18 316.58 24.14 316.5 30.27C316.43 36.39 316.59 42.51 316.89 42.51C317.5 42.51 324.34 48.5 325.42 49C326.5 49.5 325.42 34.95 325.42 34.95C325.42 34.95 325.16 30.93 328.86 26.57C332.09 22.78 331.89 18 331.89 18Z" fill="#DBDBDB" fill-opacity="1.000000" fill-rule="evenodd"/>
		<path id="Форма 83" d="M331.89 18L316.89 18C316.89 18 316.58 24.14 316.5 30.27C316.43 36.39 316.59 42.51 316.89 42.51C317.22 42.51 319.32 44.22 321.37 45.89L321.37 45.89C323.16 47.34 324.92 48.76 325.42 49C326.5 49.5 325.42 34.95 325.42 34.95C325.42 34.95 325.16 30.93 328.86 26.57C332.09 22.78 331.89 18 331.89 18ZM331.59 18.3L317.18 18.3C317.13 19.27 317.08 20.45 317.03 21.84C316.91 24.91 316.84 27.72 316.8 30.27C316.76 33.42 316.78 36.22 316.85 38.68C316.89 39.86 316.94 40.78 316.99 41.43C317.02 41.76 317.05 42.01 317.08 42.18C317.08 42.21 317.09 42.23 317.1 42.25C317.14 42.27 317.19 42.29 317.24 42.32C317.34 42.38 317.46 42.45 317.61 42.55C317.87 42.73 318.23 42.99 318.67 43.33C319.22 43.76 320.19 44.53 321.56 45.65C322.75 46.62 323.58 47.29 324.06 47.66C324.7 48.16 325.14 48.48 325.4 48.64C325.41 48.6 325.42 48.54 325.44 48.48C325.5 48.16 325.55 47.67 325.58 47C325.62 45.86 325.6 44.26 325.53 42.18C325.47 40.69 325.39 39.05 325.27 37.24C325.22 36.34 325.17 35.58 325.12 34.98C325.11 34.79 325.11 34.54 325.14 34.23C325.18 33.62 325.29 32.98 325.46 32.32C325.7 31.4 326.04 30.48 326.5 29.58C327.06 28.46 327.77 27.39 328.63 26.38C329.35 25.53 329.95 24.58 330.42 23.51C330.8 22.66 331.09 21.76 331.29 20.8C331.44 20.12 331.53 19.45 331.57 18.79C331.58 18.6 331.59 18.44 331.59 18.3ZM316.92 42.21C316.91 42.21 316.9 42.21 316.89 42.21C316.9 42.21 316.91 42.21 316.92 42.21Z" fill="#696969" fill-opacity="1.000000" fill-rule="evenodd"/>
		<path id="Форма 83" d="M30 18L47 18C47 18 44 49 42.5 49C41 49 38.56 49.5 37.28 49C36 48.5 37.28 35.06 37.28 35.06C37.28 35.06 37.57 31 33.39 26.58C29.78 22.76 30 18 30 18Z" fill="#C7C7C7" fill-opacity="1.000000" fill-rule="evenodd"/>
		<path id="Форма 83" d="M37.28 35.06C37.28 35.06 37.57 31 33.39 26.58C29.78 22.76 30 18 30 18L47 18C47 18 46.99 18.1 46.97 18.3C46.66 21.48 43.91 49 42.5 49C42.02 49 41.45 49.05 40.86 49.1C39.57 49.21 38.15 49.34 37.28 49C36 48.5 37.28 35.06 37.28 35.06ZM46.67 18.3C46.55 19.53 46.4 21.03 46.21 22.81C45.8 26.68 45.41 30.23 45.02 33.46C44.47 37.98 43.98 41.52 43.54 44.1C43.28 45.63 43.05 46.79 42.83 47.59C42.72 48.01 42.62 48.32 42.53 48.52C42.49 48.6 42.46 48.66 42.43 48.7C42.23 48.7 41.98 48.71 41.7 48.73C41.52 48.74 41.23 48.77 40.83 48.8C40.4 48.84 40.07 48.87 39.86 48.88C39.5 48.91 39.18 48.92 38.91 48.92C38.25 48.92 37.75 48.86 37.4 48.72C37.39 48.72 37.39 48.72 37.39 48.72C37.37 48.7 37.35 48.67 37.34 48.63C37.29 48.53 37.24 48.38 37.2 48.19C37.12 47.81 37.07 47.28 37.04 46.59C36.98 45.42 37 43.84 37.1 41.85C37.16 40.43 37.26 38.87 37.4 37.19C37.46 36.34 37.52 35.64 37.58 35.08L37.58 35.08L37.58 35.08C37.59 34.89 37.58 34.64 37.56 34.33C37.5 33.71 37.38 33.07 37.19 32.4C36.92 31.46 36.53 30.54 36.02 29.63C35.39 28.49 34.59 27.41 33.61 26.38C33.32 26.07 33.04 25.74 32.79 25.4C32.34 24.81 31.95 24.17 31.61 23.49C31.6 23.47 31.59 23.45 31.58 23.43C31.17 22.6 30.86 21.71 30.64 20.79C30.47 20.11 30.37 19.44 30.32 18.78C30.31 18.6 30.3 18.44 30.3 18.3L46.67 18.3Z" fill="#696969" fill-opacity="1.000000" fill-rule="evenodd"/>
		<path id="Форма 83" d="M36.11 18L51.11 18C52.27 19.02 51.11 41.52 51.11 42.51C51.11 43.5 42.58 49 42.58 49C42.58 49 42 40 42.58 34.95C43.17 29.91 42.84 30.93 39.14 26.57C35.92 22.78 36.11 18 36.11 18Z" fill="#DBDBDB" fill-opacity="1.000000" fill-rule="evenodd"/>
		<path id="Форма 83" d="M36.11 18L51.11 18C52.09 18.86 51.42 35.02 51.18 40.64C51.14 41.68 51.11 42.36 51.11 42.51C51.11 43.39 44.36 47.84 42.87 48.81C42.69 48.93 42.58 49 42.58 49C42.58 49 42.58 48.88 42.56 48.65C42.46 46.96 42.07 39.41 42.58 34.95C43.06 30.89 42.94 30.76 40.94 28.59C40.45 28.06 39.86 27.42 39.14 26.57C35.92 22.78 36.11 18 36.11 18ZM36.41 18.3L50.95 18.3C50.96 18.33 50.98 18.37 50.99 18.42C51.03 18.57 51.07 18.77 51.11 19.03C51.18 19.54 51.23 20.23 51.27 21.12C51.33 22.69 51.34 24.82 51.3 27.53C51.27 29.63 51.21 32.07 51.11 34.84C51.06 36.39 50.98 38.32 50.88 40.63C50.84 41.73 50.81 42.36 50.81 42.5C50.81 42.5 50.81 42.5 50.81 42.5C50.8 42.52 50.79 42.55 50.77 42.58C50.72 42.66 50.64 42.75 50.53 42.86C50.32 43.09 50 43.37 49.59 43.7C48.89 44.28 47.92 45 46.68 45.87C45.8 46.5 44.82 47.16 43.76 47.87C43.42 48.09 43.12 48.29 42.85 48.47C42.84 48.19 42.82 47.86 42.8 47.5C42.74 46.27 42.7 45.06 42.66 43.86C42.57 40.03 42.64 37.08 42.88 34.99C43.01 33.86 43.09 33.05 43.11 32.56C43.13 31.92 43.09 31.39 42.98 30.98C42.97 30.96 42.97 30.94 42.96 30.92C42.9 30.72 42.82 30.53 42.73 30.35C42.63 30.16 42.5 29.96 42.34 29.75C42.21 29.57 42.04 29.36 41.83 29.12C41.7 28.97 41.47 28.73 41.16 28.39C40.44 27.61 39.85 26.94 39.37 26.38C38.65 25.53 38.05 24.58 37.58 23.51C37.21 22.66 36.91 21.76 36.71 20.8C36.57 20.12 36.48 19.45 36.43 18.79C36.42 18.6 36.41 18.44 36.41 18.3Z" fill="#696969" fill-opacity="1.000000" fill-rule="evenodd"/>
		<path id="Прямоугольник 41" d="M357.15 0L11.67 0L0.01 13C0.01 13 368.5 14.5 369.5 13C370.5 11.5 357.15 0 357.15 0Z" fill="#DBDBDB" fill-opacity="1.000000" fill-rule="evenodd"/>
		<path id="Прямоугольник 41" d="M11.67 0L357.15 0C357.15 0 370.5 11.5 369.5 13C368.52 14.47 14.01 13.05 0.41 13C0.15 13 0.01 13 0.01 13L0.28 12.7L11.67 0ZM11.8 0.3L357.04 0.3C357.58 0.76 358.24 1.34 359.02 2.04C360.67 3.51 362.16 4.88 363.49 6.15C365.36 7.93 366.78 9.39 367.76 10.53C368.34 11.2 368.75 11.74 369 12.16C369.12 12.37 369.2 12.54 369.24 12.68C369.24 12.71 369.25 12.73 369.25 12.76C369.22 12.76 369.19 12.76 369.15 12.77C368.97 12.79 368.69 12.81 368.34 12.83C367.62 12.87 366.57 12.91 365.18 12.95C362.49 13.01 358.54 13.08 353.33 13.13C343.65 13.23 329.65 13.29 311.35 13.33C280.51 13.39 238.19 13.37 184.38 13.26C145.95 13.18 103.69 13.06 57.6 12.91C34.89 12.83 15.92 12.76 0.68 12.7L11.8 0.3Z" fill="#696969" fill-opacity="1.000000" fill-rule="evenodd"/>
		<path id="Прямоугольник 42" d="M-0.01 13C-0.01 11.5 14.98 13.18 46.99 12.5C79 11.81 85.48 11.82 103.47 11.81C155.33 11.78 198.32 11.85 206.93 12.22C224.99 13 271.42 12.15 272.99 12C277.99 11.5 325.29 12.12 330.52 12C352.49 11.5 368.89 12 368.99 12C369.49 12 370.49 13.75 370.49 15.5C370.49 16.54 370.31 17.59 370.17 18.26C370.07 18.7 369.68 19 369.24 19L1.11 19C0.73 19 0.39 18.78 0.3 18.41C0.16 17.87 -0.01 16.93 -0.01 15.5C-0.01 14.1 -0.01 13.66 -0.01 13Z" fill="#C7C7C7" fill-opacity="1.000000" fill-rule="evenodd"/>
		<path id="Прямоугольник 42" d="M-0.01 13C-0.01 12.22 4.01 12.3 12.32 12.46C20.07 12.61 31.55 12.83 46.99 12.5C78.25 11.83 85.16 11.82 102.23 11.81L103.47 11.81C155.33 11.78 198.32 11.85 206.93 12.22C224.99 13 271.42 12.15 272.99 12C276.24 11.67 297.34 11.82 313.17 11.93C321.7 11.99 328.69 12.04 330.52 12C351.45 11.52 367.32 11.95 368.87 11.99C368.94 12 368.99 12 368.99 12C369.49 12 370.49 13.75 370.49 15.5C370.49 16.54 370.31 17.59 370.17 18.26C370.07 18.7 369.68 19 369.24 19L1.11 19C0.73 19 0.39 18.78 0.3 18.41C0.16 17.87 -0.01 16.93 -0.01 15.5C-0.01 14.94 -0.01 14.54 -0.01 14.21C-0.01 13.71 -0.01 13.4 -0.01 13ZM369.24 18.7L1.11 18.7C1.01 18.7 0.92 18.68 0.83 18.64C0.81 18.62 0.79 18.61 0.77 18.6C0.72 18.56 0.68 18.52 0.65 18.47C0.62 18.43 0.6 18.39 0.59 18.34C0.39 17.58 0.29 16.63 0.29 15.5L0.29 13.35L0.29 13.03C0.3 13.02 0.31 13.01 0.33 13.01C0.42 12.95 0.58 12.9 0.81 12.86C1.27 12.77 2.02 12.71 3.05 12.68C3.96 12.65 5.24 12.65 6.89 12.67C7.92 12.68 9.73 12.71 12.32 12.76C15.06 12.81 17.23 12.85 18.83 12.87C21.58 12.92 24.23 12.94 26.77 12.96C33.5 13 40.24 12.94 47 12.8C61.46 12.49 72.44 12.29 79.93 12.21C83.44 12.17 87.06 12.14 90.79 12.13C93.15 12.12 96.96 12.12 102.23 12.11L103.47 12.11C132.37 12.09 155.02 12.11 171.42 12.16C191.07 12.23 202.91 12.35 206.92 12.52C211.09 12.7 217 12.8 224.65 12.83C230.95 12.86 238.11 12.83 246.15 12.76C252.61 12.7 258.75 12.61 264.55 12.51C269.74 12.41 272.56 12.34 273.02 12.3C274.44 12.15 279.55 12.09 288.36 12.1C293.47 12.11 301.74 12.15 313.16 12.23C318.59 12.27 322.32 12.29 324.35 12.3C327.65 12.32 329.7 12.32 330.53 12.3C339.33 12.1 348.14 12.03 356.96 12.1C361.48 12.14 365.44 12.2 368.86 12.29C368.92 12.3 368.96 12.3 368.98 12.3L368.98 12.3C369 12.3 369.01 12.31 369.03 12.32C369.08 12.36 369.14 12.42 369.21 12.49C369.36 12.67 369.51 12.92 369.66 13.22C369.82 13.55 369.94 13.91 370.04 14.28C370.14 14.7 370.19 15.11 370.19 15.5C370.19 16.31 370.09 17.22 369.87 18.2C369.86 18.27 369.83 18.34 369.8 18.39C369.76 18.46 369.71 18.51 369.65 18.56C369.6 18.6 369.55 18.63 369.49 18.65C369.41 18.68 369.33 18.7 369.24 18.7Z" fill="#696969" fill-opacity="1.000000" fill-rule="evenodd"/>
	</g>
</svg>
