<svg width="649.999756" height="62.000000" viewBox="0 0 650 62" fill="none" xmlns="http://www.w3.org/2000/svg" xmlns:xlink="http://www.w3.org/1999/xlink">
	<desc>
			Created with Pixso.
	</desc>
	<defs>
		<clipPath id="clip143_36">
			<rect id="shelfUnderJarsLarge" width="649.999756" height="62.000000" fill="white" fill-opacity="0"/>
		</clipPath>
	</defs>
	<g clip-path="url(#clip143_36)">
		<path id="Прямоугольник 41" d="M626.47 0L21.41 0L0.99 12L649 12L626.47 0Z" fill="#D2D2D2" fill-opacity="1.000000" fill-rule="evenodd"/>
		<rect id="Прямоугольник 42" y="12.000000" rx="1.000000" width="649.999756" height="7.000000" fill="#B9B8B5" fill-opacity="1.000000"/>
		<path id="Форма 83" d="M600 19L574 19L577.99 62L588.88 62L588.88 42.66C588.88 42.66 588.43 37.04 594.81 30.9C600.34 25.6 600 19 600 19Z" fill="#D2D2D2" fill-opacity="1.000000" fill-rule="evenodd"/>
		<path id="Форма 83" d="M574.3 19L600 19C600 19 600.34 25.6 594.81 30.9C588.43 37.04 588.88 42.66 588.88 42.66L588.88 61.7L588.88 62L588.58 62L577.99 62L574.03 19.29L574 19L574.3 19ZM574.33 19.29L578.27 61.7L588.58 61.7L588.58 42.67C588.57 42.6 588.57 42.51 588.57 42.4C588.57 42.17 588.58 41.92 588.61 41.66C588.69 40.8 588.87 39.92 589.16 38.99C589.57 37.7 590.16 36.43 590.94 35.17C591.9 33.61 593.12 32.11 594.61 30.69C595.44 29.88 596.19 29.01 596.83 28.07C597.14 27.61 597.43 27.15 597.69 26.66C597.92 26.25 598.12 25.83 598.31 25.4C598.67 24.59 598.96 23.75 599.19 22.88C599.44 21.94 599.6 21 599.67 20.09C599.69 19.8 599.7 19.54 599.71 19.29L574.33 19.29Z" fill="#B9B8B5" fill-opacity="1.000000" fill-rule="evenodd"/>
		<path id="Форма 83" d="M588.99 19L563.99 19L563.99 53L578.21 62L578.21 42.52C578.21 42.52 577.78 36.93 583.95 30.89C589.32 25.63 588.99 19 588.99 19Z" fill="#C9C9C9" fill-opacity="1.000000" fill-rule="evenodd"/>
		<path id="Форма 83" d="M588.99 19L563.99 19L563.99 19.29L563.99 53L577.91 61.81L578.21 62L578.21 61.64L578.21 42.52C578.21 42.52 577.78 36.93 583.95 30.89C589.32 25.63 588.99 19 588.99 19ZM588.7 19.29C588.69 19.54 588.68 19.81 588.66 20.09C588.59 21.01 588.44 21.95 588.19 22.9C587.93 23.95 587.57 24.95 587.12 25.92C587 26.17 586.87 26.42 586.74 26.67C586.39 27.32 586 27.95 585.58 28.54C585.03 29.3 584.42 30.01 583.74 30.68C582.3 32.08 581.12 33.55 580.19 35.1C579.44 36.34 578.87 37.6 578.48 38.88C578.19 39.8 578.01 40.68 577.94 41.52C577.91 41.79 577.9 42.03 577.9 42.26C577.9 42.37 577.9 42.46 577.91 42.53L577.91 61.45L564.29 52.83L564.29 19.29L588.7 19.29Z" fill="#B9B8B5" fill-opacity="1.000000" fill-rule="evenodd"/>
		<path id="Форма 83" d="M50 19L76 19L72.01 62L61.13 62L61.13 42.66C61.13 42.66 61.57 37.04 55.19 30.9C49.66 25.6 50 19 50 19Z" fill="#D2D2D2" fill-opacity="1.000000" fill-rule="evenodd"/>
		<path id="Форма 83" d="M75.7 19L50 19C50 19 49.66 25.6 55.19 30.9C61.57 37.04 61.13 42.66 61.13 42.66L61.13 61.7L61.13 62L61.43 62L72.01 62L75.97 19.29L76 19L75.7 19ZM75.67 19.29L71.73 61.7L61.43 61.7L61.43 42.67C61.43 42.6 61.43 42.51 61.43 42.4C61.43 42.17 61.42 41.92 61.39 41.66C61.32 40.8 61.13 39.92 60.84 38.99C60.43 37.7 59.84 36.43 59.06 35.17C58.1 33.61 56.88 32.11 55.4 30.69C54.56 29.88 53.81 29.01 53.17 28.07C52.86 27.61 52.57 27.15 52.31 26.66C52.08 26.25 51.88 25.83 51.69 25.4C51.33 24.59 51.04 23.75 50.81 22.88C50.56 21.94 50.4 21 50.33 20.09C50.31 19.8 50.3 19.54 50.3 19.29L75.67 19.29Z" fill="#B9B8B5" fill-opacity="1.000000" fill-rule="evenodd"/>
		<path id="Форма 83" d="M61.01 19L86.01 19L86.01 53L71.79 62L71.79 42.52C71.79 42.52 72.23 36.93 66.05 30.89C60.68 25.63 61.01 19 61.01 19Z" fill="#C9C9C9" fill-opacity="1.000000" fill-rule="evenodd"/>
		<path id="Форма 83" d="M61.01 19L86.01 19L86.01 19.29L86.01 53L72.09 61.81L71.79 62L71.79 61.64L71.79 42.52C71.79 42.52 72.23 36.93 66.05 30.89C60.68 25.63 61.01 19 61.01 19ZM61.31 19.29C61.31 19.54 61.32 19.81 61.34 20.09C61.41 21.01 61.57 21.95 61.81 22.9C62.07 23.95 62.43 24.95 62.89 25.92C63 26.17 63.13 26.42 63.26 26.67C63.61 27.32 64 27.95 64.43 28.54C64.97 29.3 65.59 30.01 66.26 30.68C67.7 32.08 68.88 33.55 69.81 35.1C70.56 36.34 71.13 37.6 71.53 38.88C71.81 39.8 71.99 40.68 72.06 41.52C72.09 41.79 72.1 42.03 72.1 42.26C72.1 42.37 72.1 42.46 72.09 42.53L72.09 61.45L85.71 52.83L85.71 19.29L61.31 19.29Z" fill="#B9B8B5" fill-opacity="1.000000" fill-rule="evenodd"/>
	</g>
</svg>
