<svg width="948.000000" height="58.000000" viewBox="0 0 948 58" fill="none" xmlns="http://www.w3.org/2000/svg" xmlns:xlink="http://www.w3.org/1999/xlink">
	<desc>
			Created with Pixso.
	</desc>
	<defs>
		<clipPath id="clip96_23">
			<rect id="TilesBackgroundSmall" width="948.000000" height="58.000000" fill="white" fill-opacity="0"/>
		</clipPath>
	</defs>
	<rect id="TilesBackgroundSmall" width="948.000000" height="58.000000" fill="#FFFFFF" fill-opacity="1.000000"/>
	<g clip-path="url(#clip96_23)">
		<path id="Прямоугольник 5" d="M37.07 29.04C37.07 29.04 55.82 28.93 73.91 29.04C91.55 29.15 108.52 29.49 109.37 29.04C111.09 28.14 109.37 57.99 109.37 57.99C109.37 57.99 90.61 57.52 72.53 57.43C54.29 57.33 36.73 57.63 37.07 57.99C37.42 58.35 37.67 43.12 37.58 35.72C37.5 28.47 37.07 29.04 37.07 29.04Z" fill="#FFFFFF" fill-opacity="1.000000" fill-rule="evenodd"/>
		<path id="Прямоугольник 5" d="M38.16 57.82C42.24 57.54 57.14 57.35 72.53 57.43C90.61 57.52 109.37 57.99 109.37 57.99C109.37 57.99 111.09 28.14 109.37 29.04C108.75 29.37 99.62 29.28 87.91 29.16C83.5 29.12 78.73 29.07 73.91 29.04C58.44 28.95 42.48 29.02 38.19 29.04C37.61 29.04 37.24 29.04 37.12 29.04C37.09 29.02 37.07 29.04 37.07 29.04C37.07 29.04 37.09 29.04 37.12 29.04C37.13 29.06 37.15 29.08 37.16 29.11C37.21 29.22 37.28 29.46 37.34 30C37.34 30.02 37.34 30.03 37.34 30.04C37.45 30.94 37.55 32.61 37.58 35.72C37.66 41.85 37.5 53.33 37.24 56.9C37.24 56.93 37.24 56.96 37.23 56.99C37.2 57.49 37.16 57.82 37.12 57.94C37.07 57.96 37.06 57.97 37.07 57.99C37.09 58.01 37.1 57.99 37.12 57.94C37.24 57.9 37.57 57.87 38.08 57.83C38.11 57.83 38.13 57.83 38.16 57.82ZM38.25 56.82Q38.9 56.77 39.86 56.74Q42.71 56.62 47.81 56.54Q58.94 56.36 72.53 56.43Q90.16 56.51 108.43 56.96Q108.82 49.99 109.02 43.14Q109.21 36.74 109.1 33.21Q109.04 31.16 108.88 30.19Q108.87 30.12 108.86 30.07Q105.15 30.33 87.9 30.16Q78.72 30.07 73.9 30.04L72.03 30.03L38.35 30.04Q38.54 31.78 38.58 35.71Q38.65 41.72 38.49 49.79Q38.41 53.57 38.31 55.75Q38.28 56.36 38.25 56.82ZM109.34 30.03Q109.38 30.03 109.42 30.03Q109.63 30.04 109.84 29.93Q109.74 29.98 109.34 30.03Z" fill="#E9E9E9" fill-opacity="1.000000" fill-rule="evenodd"/>
		<path id="Прямоугольник 5" d="M182.55 29.04C182.55 29.04 201.3 28.93 219.38 29.04C237.03 29.15 254 29.49 254.85 29.04C256.57 28.14 254.85 57.99 254.85 57.99C254.85 57.99 236.09 57.52 218.01 57.43C199.76 57.33 182.2 57.63 182.55 57.99C182.9 58.35 183.15 43.12 183.06 35.72C182.97 28.47 182.55 29.04 182.55 29.04Z" fill="#FFFFFF" fill-opacity="1.000000" fill-rule="evenodd"/>
		<path id="Прямоугольник 5" d="M183.64 57.82C187.72 57.54 202.62 57.35 218.01 57.43C236.09 57.52 254.85 57.99 254.85 57.99C254.85 57.99 256.57 28.14 254.85 29.04C254.23 29.37 245.1 29.28 233.38 29.16C228.98 29.12 224.21 29.07 219.38 29.04C203.91 28.95 187.95 29.02 183.66 29.04C183.09 29.04 182.72 29.04 182.6 29.04C182.57 29.02 182.55 29.04 182.55 29.04C182.55 29.04 182.56 29.04 182.6 29.04C182.61 29.06 182.62 29.08 182.64 29.11C182.69 29.22 182.75 29.46 182.82 30C182.82 30.02 182.82 30.03 182.82 30.04C182.92 30.94 183.02 32.61 183.06 35.72C183.13 41.85 182.97 53.33 182.72 56.9C182.72 56.93 182.72 56.96 182.71 56.99C182.68 57.49 182.64 57.82 182.6 57.94C182.55 57.96 182.53 57.97 182.55 57.99C182.56 58.01 182.58 57.99 182.6 57.94C182.72 57.9 183.04 57.87 183.56 57.83C183.58 57.83 183.61 57.83 183.64 57.82ZM183.73 56.82Q184.38 56.77 185.34 56.74Q188.18 56.62 193.29 56.54Q204.42 56.36 218.01 56.43Q235.64 56.51 253.91 56.96Q254.3 49.99 254.5 43.14Q254.68 36.74 254.58 33.21Q254.51 31.16 254.36 30.19Q254.35 30.12 254.34 30.07Q250.63 30.33 233.37 30.16Q224.2 30.07 219.38 30.04L217.5 30.03L183.83 30.04Q184.01 31.78 184.06 35.71Q184.13 41.72 183.97 49.79Q183.89 53.57 183.79 55.75Q183.76 56.36 183.73 56.82ZM254.81 30.03Q254.86 30.03 254.9 30.03Q255.1 30.04 255.31 29.93Q255.21 29.98 254.81 30.03Z" fill="#E9E9E9" fill-opacity="1.000000" fill-rule="evenodd"/>
		<path id="Прямоугольник 5" d="M110.14 29.04C110.14 29.04 118.72 28.93 136.76 29.04C154.36 29.15 181.42 29.49 182.27 29.04C183.14 28.59 183.35 36.58 183.13 43.99C182.91 51.26 182.27 57.95 182.27 57.95C182.27 57.95 163.21 58.05 145.17 57.95C126.97 57.86 109.8 57.59 110.14 57.95C110.49 58.32 110.74 43.11 110.65 35.71C110.57 28.47 110.14 29.04 110.14 29.04Z" fill="#FFFFFF" fill-opacity="1.000000" fill-rule="evenodd"/>
		<path id="Прямоугольник 5" d="M110.41 30.04C110.52 30.93 110.62 32.6 110.65 35.71C110.73 41.84 110.57 53.32 110.31 56.88C110.31 56.91 110.31 56.93 110.31 56.96C110.27 57.46 110.23 57.79 110.19 57.91C110.14 57.93 110.13 57.94 110.14 57.95C110.16 57.97 110.17 57.96 110.19 57.91C110.31 57.88 110.63 57.85 111.13 57.83C111.16 57.83 111.19 57.83 111.22 57.83C113.94 57.72 121.45 57.78 130.75 57.86C135.26 57.89 140.17 57.93 145.17 57.95C163.21 58.05 182.27 57.95 182.27 57.95C182.27 57.95 182.91 51.26 183.13 43.99C183.35 36.58 183.14 28.59 182.27 29.04C181.6 29.4 164.59 29.26 148.79 29.13C144.58 29.1 140.46 29.07 136.76 29.04C122.46 28.96 114.11 29.01 111.26 29.03C110.66 29.04 110.31 29.04 110.19 29.04C110.16 29.02 110.14 29.04 110.14 29.04C110.14 29.04 110.16 29.04 110.19 29.04C110.2 29.05 110.22 29.08 110.23 29.11C110.28 29.22 110.35 29.46 110.41 30C110.41 30.02 110.41 30.03 110.41 30.04ZM111.42 30.03Q111.61 31.76 111.65 35.7Q111.72 41.71 111.56 49.76Q111.48 53.54 111.38 55.72Q111.35 56.36 111.32 56.82Q111.43 56.82 111.56 56.82Q112.97 56.77 115.89 56.77Q119.6 56.77 130.76 56.86Q140.18 56.93 145.18 56.95L147.93 56.97L181.36 56.96Q181.93 50.71 182.13 43.96Q182.31 37.91 182.11 33.61Q182.01 31.41 181.82 30.31Q181.79 30.17 181.77 30.05Q176.95 30.36 148.78 30.13Q140.45 30.07 136.75 30.04Q120 29.94 111.42 30.03ZM182.18 30.02Q182.23 30.03 182.28 30.04Q182.5 30.05 182.74 29.93Q182.64 29.98 182.18 30.02Z" fill="#E9E9E9" fill-opacity="1.000000" fill-rule="evenodd"/>
		<path id="Прямоугольник 5" d="M255.62 29.02C255.62 29.02 326.2 29.92 327.92 29.02C329.64 28.11 327.92 57.98 327.92 57.98C327.92 57.98 254.93 57.26 255.62 57.98C256.31 58.71 255.62 29.02 255.62 29.02Z" fill="#FFFFFF" fill-opacity="1.000000" fill-rule="evenodd"/>
		<path id="Прямоугольник 5" d="M256.74 57.84C265.89 57.37 327.92 57.98 327.92 57.98C327.92 57.98 329.64 28.11 327.92 29.02C326.32 29.86 265.22 29.13 256.62 29.03C255.97 29.02 255.62 29.02 255.62 29.02C255.62 29.02 255.63 29.38 255.64 30.02C255.74 34.45 256.1 52.29 255.82 56.9C255.82 56.93 255.82 56.97 255.81 57C255.78 57.48 255.74 57.8 255.69 57.93C255.63 57.95 255.6 57.96 255.62 57.98C255.65 58.01 255.67 57.99 255.69 57.93C255.83 57.9 256.15 57.87 256.64 57.84C256.67 57.84 256.7 57.84 256.74 57.84ZM256.82 56.83Q257.5 56.8 258.5 56.77Q261.27 56.7 266.62 56.68Q275.62 56.63 291.52 56.71Q309.2 56.8 326.98 56.97Q327.37 49.99 327.57 43.12Q327.75 36.72 327.65 33.19Q327.59 31.14 327.43 30.16Q327.42 30.12 327.41 30.08Q319.85 30.83 256.64 30.03Q256.8 36.93 256.88 43.76Q256.95 50.19 256.91 53.77Q256.89 55.75 256.82 56.83ZM327.97 30.01Q328.18 30.01 328.39 29.9Q328.28 29.96 327.97 30.01Z" fill="#E9E9E9" fill-opacity="1.000000" fill-rule="evenodd"/>
		<path id="Прямоугольник 5" d="M328.69 29.04C328.69 29.04 347.44 28.93 365.52 29.04C383.17 29.15 400.14 29.49 400.99 29.04C402.71 28.14 400.99 57.99 400.99 57.99C400.99 57.99 382.23 57.52 364.15 57.43C345.91 57.33 328.35 57.63 328.69 57.99C329.04 58.35 329.29 43.12 329.2 35.72C329.12 28.47 328.69 29.04 328.69 29.04Z" fill="#FFFFFF" fill-opacity="1.000000" fill-rule="evenodd"/>
		<path id="Прямоугольник 5" d="M329.78 57.82C333.86 57.54 348.76 57.35 364.15 57.43C382.23 57.52 400.99 57.99 400.99 57.99C400.99 57.99 402.71 28.14 400.99 29.04C400.37 29.37 391.24 29.28 379.53 29.16C375.12 29.12 370.35 29.07 365.52 29.04C350.06 28.95 334.1 29.02 329.81 29.04C329.23 29.04 328.86 29.04 328.74 29.04C328.71 29.02 328.69 29.04 328.69 29.04C328.69 29.04 328.71 29.04 328.74 29.04C328.75 29.06 328.77 29.08 328.78 29.11C328.83 29.22 328.9 29.46 328.96 30C328.96 30.02 328.96 30.03 328.96 30.04C329.07 30.94 329.17 32.61 329.2 35.72C329.28 41.85 329.12 53.33 328.86 56.9C328.86 56.93 328.86 56.96 328.85 56.99C328.82 57.49 328.78 57.82 328.74 57.94C328.69 57.96 328.68 57.97 328.69 57.99C328.71 58.01 328.72 57.99 328.74 57.94C328.86 57.9 329.19 57.87 329.7 57.83C329.73 57.83 329.75 57.83 329.78 57.82ZM329.87 56.82Q330.52 56.77 331.48 56.74Q334.33 56.62 339.43 56.54Q350.56 56.36 364.15 56.43Q381.78 56.51 400.05 56.96Q400.44 49.99 400.64 43.14Q400.83 36.74 400.72 33.21Q400.66 31.16 400.5 30.19Q400.49 30.12 400.48 30.07Q396.77 30.33 379.52 30.16Q370.34 30.07 365.52 30.04L363.65 30.03L329.97 30.04Q330.16 31.78 330.2 35.71Q330.27 41.72 330.11 49.79Q330.03 53.57 329.93 55.75Q329.9 56.36 329.87 56.82ZM400.96 30.03Q401 30.03 401.04 30.03Q401.25 30.04 401.46 29.93Q401.35 29.98 400.96 30.03Z" fill="#E9E9E9" fill-opacity="1.000000" fill-rule="evenodd"/>
		<path id="Прямоугольник 5" d="M401.76 29.04C401.76 29.04 410.34 28.93 428.38 29.04C445.98 29.15 473.04 29.49 473.89 29.04C474.76 28.59 474.97 36.58 474.75 43.99C474.53 51.26 473.89 57.95 473.89 57.95C473.89 57.95 454.83 58.05 436.79 57.95C418.59 57.86 401.42 57.59 401.76 57.95C402.11 58.32 402.36 43.11 402.27 35.71C402.19 28.47 401.76 29.04 401.76 29.04Z" fill="#FFFFFF" fill-opacity="1.000000" fill-rule="evenodd"/>
		<path id="Прямоугольник 5" d="M402.03 30.04C402.14 30.93 402.23 32.6 402.27 35.71C402.35 41.84 402.19 53.32 401.93 56.88C401.93 56.91 401.93 56.93 401.93 56.96C401.89 57.46 401.85 57.79 401.81 57.91C401.76 57.93 401.75 57.94 401.76 57.95C401.78 57.97 401.79 57.96 401.81 57.91C401.93 57.88 402.25 57.85 402.75 57.83C402.78 57.83 402.81 57.83 402.84 57.83C405.55 57.72 413.07 57.78 422.37 57.86C426.88 57.89 431.8 57.93 436.79 57.95C454.83 58.05 473.89 57.95 473.89 57.95C473.89 57.95 474.53 51.26 474.75 43.99C474.97 36.58 474.76 28.59 473.89 29.04C473.22 29.4 456.21 29.26 440.41 29.13C436.2 29.1 432.08 29.07 428.38 29.04C414.08 28.96 405.73 29.01 402.88 29.03C402.28 29.04 401.93 29.04 401.81 29.04C401.78 29.02 401.76 29.04 401.76 29.04C401.76 29.04 401.78 29.04 401.81 29.04C401.82 29.05 401.84 29.08 401.85 29.11C401.9 29.22 401.97 29.46 402.03 30C402.03 30.02 402.03 30.03 402.03 30.04ZM403.04 30.03Q403.22 31.76 403.27 35.7Q403.34 41.71 403.18 49.76Q403.1 53.54 403 55.72Q402.97 56.36 402.94 56.82Q403.05 56.82 403.18 56.82Q404.59 56.77 407.51 56.77Q411.22 56.77 422.38 56.86Q431.8 56.93 436.8 56.95L439.55 56.97L472.98 56.96Q473.55 50.71 473.75 43.96Q473.93 37.91 473.73 33.61Q473.63 31.41 473.44 30.31Q473.41 30.17 473.39 30.05Q468.57 30.36 440.4 30.13Q432.07 30.07 428.37 30.04Q411.62 29.94 403.04 30.03ZM473.8 30.02Q473.85 30.03 473.9 30.04Q474.12 30.05 474.36 29.93Q474.26 29.98 473.8 30.02Z" fill="#E9E9E9" fill-opacity="1.000000" fill-rule="evenodd"/>
		<path id="Прямоугольник 5" d="M547.89 57.77C547.89 57.77 545.02 57.11 526.99 57.77C508.72 58.45 476.61 57.33 475.76 57.77C474.9 58.23 474.69 50.29 474.91 42.91C475.13 35.69 474.91 29.04 474.91 29.04C474.91 29.04 494.82 28.94 512.86 29.04C531.06 29.13 548.24 29.4 547.89 29.04C547.55 28.67 547.29 43.8 547.38 51.15C547.47 58.35 547.89 57.77 547.89 57.77Z" fill="#FFFFFF" fill-opacity="1.000000" fill-rule="evenodd"/>
		<path id="Прямоугольник 5" d="M547.61 56.71C547.51 55.8 547.42 54.15 547.38 51.15C547.31 45.06 547.47 33.65 547.72 30.11C547.73 30.08 547.73 30.06 547.73 30.03C547.77 29.53 547.81 29.19 547.85 29.08C547.89 29.06 547.91 29.05 547.89 29.04C547.88 29.02 547.86 29.03 547.85 29.08C547.73 29.11 547.41 29.14 546.9 29.16C546.87 29.16 546.84 29.16 546.81 29.16C544.1 29.27 536.58 29.21 527.28 29.13C522.78 29.1 517.86 29.06 512.86 29.04C497.22 28.96 480.16 29.01 475.91 29.03C475.26 29.03 474.91 29.04 474.91 29.04C474.91 29.04 474.92 29.39 474.94 30.04C474.99 32.16 475.08 37.37 474.91 42.91C474.69 50.29 474.9 58.23 475.76 57.77C476.11 57.59 481.75 57.67 489.53 57.78C500.68 57.95 516.24 58.17 526.99 57.77C539.53 57.31 544.73 57.49 546.74 57.65C547.4 57.7 547.72 57.74 547.84 57.76C547.87 57.8 547.89 57.77 547.89 57.77C547.89 57.77 547.88 57.77 547.84 57.76C547.82 57.75 547.81 57.73 547.8 57.71C547.75 57.6 547.69 57.35 547.62 56.82C547.62 56.78 547.62 56.74 547.61 56.71ZM546.59 56.6Q546.43 54.86 546.38 51.16Q546.31 45.19 546.48 37.18Q546.55 33.43 546.65 31.26Q546.69 30.63 546.72 30.17Q546.6 30.17 546.48 30.17Q545.07 30.21 542.14 30.22Q538.44 30.22 527.27 30.13Q517.85 30.06 512.86 30.04L508.18 30.02L475.94 30.03Q476.11 36.24 475.91 42.94Q475.73 48.96 475.93 53.23Q476.03 55.42 476.22 56.51Q476.24 56.66 476.27 56.78Q479.04 56.63 489.55 56.78Q516.23 57.17 526.96 56.77Q541.93 56.22 546.59 56.6ZM475.87 56.8Q475.82 56.79 475.76 56.78Q475.53 56.77 475.3 56.89Q475.4 56.84 475.87 56.8Z" fill="#E9E9E9" fill-opacity="1.000000" fill-rule="evenodd"/>
		<path id="Прямоугольник 5" d="M547.9 29.02C547.9 29.02 618.48 29.92 620.2 29.02C621.93 28.11 620.2 57.98 620.2 57.98C620.2 57.98 547.21 57.26 547.9 57.98C548.59 58.71 547.9 29.02 547.9 29.02Z" fill="#FFFFFF" fill-opacity="1.000000" fill-rule="evenodd"/>
		<path id="Прямоугольник 5" d="M549.02 57.84C558.17 57.37 620.2 57.98 620.2 57.98C620.2 57.98 621.93 28.11 620.2 29.02C618.6 29.86 557.5 29.13 548.9 29.03C548.25 29.02 547.9 29.02 547.9 29.02C547.9 29.02 547.91 29.38 547.93 30.02C548.02 34.45 548.39 52.29 548.1 56.9C548.1 56.93 548.1 56.97 548.1 57C548.07 57.48 548.03 57.8 547.98 57.93C547.91 57.95 547.89 57.96 547.9 57.98C547.93 58.01 547.95 57.99 547.98 57.93C548.12 57.9 548.44 57.87 548.92 57.84C548.95 57.84 548.99 57.84 549.02 57.84ZM549.11 56.83Q549.78 56.8 550.79 56.77Q553.55 56.7 558.9 56.68Q567.9 56.63 583.8 56.71Q601.49 56.8 619.26 56.97Q619.65 49.99 619.85 43.12Q620.04 36.72 619.93 33.19Q619.87 31.14 619.71 30.16Q619.7 30.12 619.7 30.08Q612.14 30.83 548.93 30.03Q549.08 36.93 549.16 43.76Q549.24 50.19 549.19 53.77Q549.17 55.75 549.11 56.83ZM620.26 30.01Q620.46 30.01 620.67 29.9Q620.56 29.96 620.26 30.01Z" fill="#E9E9E9" fill-opacity="1.000000" fill-rule="evenodd"/>
		<path id="Прямоугольник 5" d="M620.97 29.04C620.97 29.04 639.73 28.93 657.81 29.04C675.45 29.15 692.43 29.49 693.28 29.04C695 28.14 693.28 57.99 693.28 57.99C693.28 57.99 674.51 57.52 656.43 57.43C638.19 57.33 620.63 57.63 620.97 57.99C621.32 58.35 621.57 43.12 621.49 35.72C621.4 28.47 620.97 29.04 620.97 29.04Z" fill="#FFFFFF" fill-opacity="1.000000" fill-rule="evenodd"/>
		<path id="Прямоугольник 5" d="M622.06 57.82C626.14 57.54 641.04 57.35 656.43 57.43C674.51 57.52 693.28 57.99 693.28 57.99C693.28 57.99 695 28.14 693.28 29.04C692.66 29.37 683.53 29.28 671.81 29.16C667.4 29.12 662.63 29.07 657.81 29.04C642.34 28.95 626.38 29.02 622.09 29.04C621.51 29.04 621.15 29.04 621.02 29.04C620.99 29.02 620.97 29.04 620.97 29.04C620.97 29.04 620.99 29.04 621.02 29.04C621.03 29.06 621.05 29.08 621.07 29.11C621.12 29.22 621.18 29.46 621.24 30C621.24 30.02 621.25 30.03 621.25 30.04C621.35 30.94 621.45 32.61 621.49 35.72C621.56 41.85 621.4 53.33 621.14 56.9C621.14 56.93 621.14 56.96 621.14 56.99C621.1 57.49 621.06 57.82 621.02 57.94C620.98 57.96 620.96 57.97 620.97 57.99C620.99 58.01 621.01 57.99 621.02 57.94C621.14 57.9 621.47 57.87 621.98 57.83C622.01 57.83 622.03 57.83 622.06 57.82ZM622.15 56.82Q622.8 56.77 623.76 56.74Q626.61 56.62 631.72 56.54Q642.84 56.36 656.44 56.43Q674.06 56.51 692.33 56.96Q692.72 49.99 692.92 43.14Q693.11 36.74 693 33.21Q692.94 31.16 692.78 30.19Q692.77 30.12 692.76 30.07Q689.06 30.33 671.8 30.16Q662.62 30.07 657.8 30.04L655.93 30.03L622.25 30.04Q622.44 31.78 622.49 35.71Q622.56 41.72 622.39 49.79Q622.32 53.57 622.21 55.75Q622.18 56.36 622.15 56.82ZM693.24 30.03Q693.28 30.03 693.32 30.03Q693.53 30.04 693.74 29.93Q693.64 29.98 693.24 30.03Z" fill="#E9E9E9" fill-opacity="1.000000" fill-rule="evenodd"/>
		<path id="Прямоугольник 5" d="M766.45 29.04C766.45 29.04 785.21 28.93 803.29 29.04C820.93 29.15 837.9 29.49 838.75 29.04C840.47 28.14 838.75 57.99 838.75 57.99C838.75 57.99 819.99 57.52 801.91 57.43C783.67 57.33 766.11 57.63 766.45 57.99C766.8 58.35 767.05 43.12 766.96 35.72C766.88 28.47 766.45 29.04 766.45 29.04Z" fill="#FFFFFF" fill-opacity="1.000000" fill-rule="evenodd"/>
		<path id="Прямоугольник 5" d="M767.54 57.82C771.62 57.54 786.52 57.35 801.91 57.43C819.99 57.52 838.75 57.99 838.75 57.99C838.75 57.99 840.47 28.14 838.75 29.04C838.14 29.37 829 29.28 817.29 29.16C812.88 29.12 808.11 29.07 803.29 29.04C787.82 28.95 771.86 29.02 767.57 29.04C766.99 29.04 766.62 29.04 766.5 29.04C766.47 29.02 766.45 29.04 766.45 29.04C766.45 29.04 766.47 29.04 766.5 29.04C766.51 29.06 766.53 29.08 766.54 29.11C766.59 29.22 766.66 29.46 766.72 30C766.72 30.02 766.72 30.03 766.73 30.04C766.83 30.94 766.93 32.61 766.96 35.72C767.04 41.85 766.88 53.33 766.62 56.9C766.62 56.93 766.62 56.96 766.62 56.99C766.58 57.49 766.54 57.82 766.5 57.94C766.45 57.96 766.44 57.97 766.45 57.99C766.47 58.01 766.48 57.99 766.5 57.94C766.62 57.9 766.95 57.87 767.46 57.83C767.49 57.83 767.51 57.83 767.54 57.82ZM767.63 56.82Q768.28 56.77 769.24 56.74Q772.09 56.62 777.19 56.54Q788.32 56.36 801.91 56.43Q819.54 56.51 837.81 56.96Q838.2 49.99 838.4 43.14Q838.59 36.74 838.48 33.21Q838.42 31.16 838.26 30.19Q838.25 30.12 838.24 30.07Q834.53 30.33 817.28 30.16Q808.1 30.07 803.28 30.04L801.41 30.03L767.73 30.04Q767.92 31.78 767.96 35.71Q768.04 41.72 767.87 49.79Q767.79 53.57 767.69 55.75Q767.66 56.36 767.63 56.82ZM838.72 30.03Q838.76 30.03 838.8 30.03Q839.01 30.04 839.22 29.93Q839.12 29.98 838.72 30.03Z" fill="#E9E9E9" fill-opacity="1.000000" fill-rule="evenodd"/>
		<path id="Прямоугольник 5" d="M694.05 29.04C694.05 29.04 702.62 28.93 720.66 29.04C738.26 29.15 765.33 29.49 766.18 29.04C767.04 28.59 767.25 36.58 767.03 43.99C766.81 51.26 766.18 57.95 766.18 57.95C766.18 57.95 747.11 58.05 729.08 57.95C710.88 57.86 693.7 57.59 694.05 57.95C694.39 58.32 694.64 43.11 694.56 35.71C694.47 28.47 694.05 29.04 694.05 29.04Z" fill="#FFFFFF" fill-opacity="1.000000" fill-rule="evenodd"/>
		<path id="Прямоугольник 5" d="M694.32 30.04C694.42 30.93 694.52 32.6 694.56 35.71C694.63 41.84 694.47 53.32 694.21 56.88C694.21 56.91 694.21 56.93 694.21 56.96C694.17 57.46 694.13 57.79 694.09 57.91C694.05 57.93 694.03 57.94 694.05 57.95C694.06 57.97 694.08 57.96 694.09 57.91C694.21 57.88 694.53 57.85 695.04 57.83C695.07 57.83 695.1 57.83 695.13 57.83C697.84 57.72 705.35 57.78 714.66 57.86C719.16 57.89 724.08 57.93 729.08 57.95C747.11 58.05 766.18 57.95 766.18 57.95C766.18 57.95 766.81 51.26 767.03 43.99C767.25 36.58 767.04 28.59 766.18 29.04C765.51 29.4 748.49 29.26 732.7 29.13C728.49 29.1 724.36 29.07 720.66 29.04C706.36 28.96 698.01 29.01 695.16 29.03C694.57 29.04 694.21 29.04 694.09 29.04C694.06 29.02 694.05 29.04 694.05 29.04C694.05 29.04 694.06 29.04 694.09 29.04C694.11 29.05 694.12 29.08 694.14 29.11C694.19 29.22 694.25 29.46 694.31 30C694.32 30.02 694.32 30.03 694.32 30.04ZM695.32 30.03Q695.51 31.76 695.56 35.7Q695.63 41.71 695.46 49.76Q695.39 53.54 695.28 55.72Q695.25 56.36 695.22 56.82Q695.34 56.82 695.46 56.82Q696.87 56.77 699.8 56.77Q703.5 56.77 714.67 56.86Q724.09 56.93 729.08 56.95L731.83 56.97L765.26 56.96Q765.83 50.71 766.03 43.96Q766.21 37.91 766.01 33.61Q765.91 31.41 765.72 30.31Q765.7 30.17 765.67 30.05Q760.85 30.36 732.69 30.13Q724.36 30.07 720.65 30.04Q703.91 29.94 695.32 30.03ZM766.08 30.02Q766.13 30.03 766.18 30.04Q766.41 30.05 766.64 29.93Q766.55 29.98 766.08 30.02Z" fill="#E9E9E9" fill-opacity="1.000000" fill-rule="evenodd"/>
		<path id="Прямоугольник 5" d="M839.52 29.02C839.52 29.02 910.1 29.92 911.82 29.02C913.55 28.11 911.82 57.98 911.82 57.98C911.82 57.98 838.83 57.26 839.52 57.98C840.21 58.71 839.52 29.02 839.52 29.02Z" fill="#FFFFFF" fill-opacity="1.000000" fill-rule="evenodd"/>
		<path id="Прямоугольник 5" d="M840.64 57.84C849.79 57.37 911.82 57.98 911.82 57.98C911.82 57.98 913.55 28.11 911.82 29.02C910.22 29.86 849.12 29.13 840.52 29.03C839.87 29.02 839.52 29.02 839.52 29.02C839.52 29.02 839.53 29.38 839.55 30.02C839.64 34.45 840.01 52.29 839.72 56.9C839.72 56.93 839.72 56.97 839.72 57C839.69 57.48 839.65 57.8 839.6 57.93C839.53 57.95 839.51 57.96 839.52 57.98C839.55 58.01 839.57 57.99 839.6 57.93C839.74 57.9 840.06 57.87 840.54 57.84C840.57 57.84 840.61 57.84 840.64 57.84ZM840.73 56.83Q841.4 56.8 842.41 56.77Q845.17 56.7 850.52 56.68Q859.52 56.63 875.42 56.71Q893.1 56.8 910.88 56.97Q911.27 49.99 911.47 43.12Q911.66 36.72 911.55 33.19Q911.49 31.14 911.33 30.16Q911.32 30.12 911.32 30.08Q903.76 30.83 840.55 30.03Q840.7 36.93 840.78 43.76Q840.86 50.19 840.81 53.77Q840.79 55.75 840.73 56.83ZM911.88 30.01Q912.08 30.01 912.29 29.9Q912.18 29.96 911.88 30.01Z" fill="#E9E9E9" fill-opacity="1.000000" fill-rule="evenodd"/>
		<path id="Прямоугольник 5" d="M911.93 29.04C911.93 29.04 930.68 28.93 948.76 29.04C966.41 29.15 983.38 29.49 984.23 29.04C985.95 28.14 984.23 57.99 984.23 57.99C984.23 57.99 965.47 57.52 947.39 57.43C929.15 57.33 911.58 57.63 911.93 57.99C912.28 58.35 912.53 43.12 912.44 35.72C912.35 28.47 911.93 29.04 911.93 29.04Z" fill="#FFFFFF" fill-opacity="1.000000" fill-rule="evenodd"/>
		<path id="Прямоугольник 5" d="M913.02 57.82C917.1 57.54 932 57.35 947.39 57.43C965.47 57.52 984.23 57.99 984.23 57.99C984.23 57.99 985.95 28.14 984.23 29.04C983.61 29.37 974.48 29.28 962.76 29.16C958.36 29.12 953.59 29.07 948.76 29.04C933.3 28.95 917.33 29.02 913.05 29.04C912.47 29.04 912.1 29.04 911.98 29.04C911.95 29.02 911.93 29.04 911.93 29.04C911.93 29.04 911.95 29.04 911.98 29.04C911.99 29.06 912.01 29.08 912.02 29.11C912.07 29.22 912.14 29.46 912.2 30C912.2 30.02 912.2 30.03 912.2 30.04C912.3 30.94 912.4 32.61 912.44 35.72C912.51 41.85 912.35 53.33 912.1 56.9C912.1 56.93 912.1 56.96 912.09 56.99C912.06 57.49 912.02 57.82 911.98 57.94C911.93 57.96 911.92 57.97 911.93 57.99C911.95 58.01 911.96 57.99 911.98 57.94C912.1 57.9 912.43 57.87 912.94 57.83C912.96 57.83 912.99 57.83 913.02 57.82ZM913.11 56.82Q913.76 56.77 914.72 56.74Q917.57 56.62 922.67 56.54Q933.8 56.36 947.39 56.43Q965.02 56.51 983.29 56.96Q983.68 49.99 983.88 43.14Q984.06 36.74 983.96 33.21Q983.9 31.16 983.74 30.19Q983.73 30.12 983.72 30.07Q980.01 30.33 962.76 30.16Q953.58 30.07 948.76 30.04L946.89 30.03L913.21 30.04Q913.39 31.78 913.44 35.71Q913.51 41.72 913.35 49.79Q913.27 53.57 913.17 55.75Q913.14 56.36 913.11 56.82ZM984.19 30.03Q984.24 30.03 984.28 30.03Q984.48 30.04 984.7 29.93Q984.59 29.98 984.19 30.03Z" fill="#E9E9E9" fill-opacity="1.000000" fill-rule="evenodd"/>
		<path id="Прямоугольник 5" d="M-36 29.04C-36 29.04 -17.25 28.93 0.83 29.04C18.48 29.15 35.45 29.49 36.3 29.04C38.02 28.14 36.3 57.99 36.3 57.99C36.3 57.99 17.54 57.52 -0.54 57.43C-18.78 57.33 -36.35 57.63 -36 57.99C-35.65 58.35 -35.4 43.12 -35.49 35.72C-35.58 28.47 -36 29.04 -36 29.04Z" fill="#FFFFFF" fill-opacity="1.000000" fill-rule="evenodd"/>
		<path id="Прямоугольник 5" d="M-34.91 57.82C-30.83 57.54 -15.93 57.35 -0.54 57.43C17.54 57.52 36.3 57.99 36.3 57.99C36.3 57.99 38.02 28.14 36.3 29.04C35.68 29.37 26.55 29.28 14.84 29.16C10.43 29.12 5.66 29.07 0.83 29.04C-14.63 28.95 -30.6 29.02 -34.88 29.04C-35.46 29.04 -35.83 29.04 -35.95 29.04C-35.98 29.02 -36 29.04 -36 29.04C-36 29.04 -35.98 29.04 -35.95 29.04C-35.94 29.06 -35.92 29.08 -35.91 29.11C-35.86 29.22 -35.79 29.46 -35.73 30C-35.73 30.02 -35.73 30.03 -35.73 30.04C-35.63 30.94 -35.53 32.61 -35.49 35.72C-35.41 41.85 -35.58 53.33 -35.83 56.9C-35.83 56.93 -35.83 56.96 -35.84 56.99C-35.87 57.49 -35.91 57.82 -35.95 57.94C-36 57.96 -36.01 57.97 -36 57.99C-35.98 58.01 -35.97 57.99 -35.95 57.94C-35.83 57.9 -35.5 57.87 -34.99 57.83C-34.97 57.83 -34.94 57.83 -34.91 57.82ZM-34.82 56.82Q-34.17 56.77 -33.21 56.74Q-30.36 56.62 -25.26 56.54Q-14.13 56.36 -0.54 56.43Q17.09 56.51 35.36 56.96Q35.75 49.99 35.95 43.14Q36.13 36.74 36.03 33.21Q35.97 31.16 35.81 30.19Q35.8 30.12 35.79 30.07Q32.08 30.33 14.83 30.16Q5.65 30.07 0.83 30.04L-1.04 30.03L-34.72 30.04Q-34.54 31.78 -34.49 35.71Q-34.42 41.72 -34.58 49.79Q-34.66 53.57 -34.76 55.75Q-34.79 56.36 -34.82 56.82ZM36.27 30.03Q36.31 30.03 36.35 30.03Q36.55 30.04 36.77 29.93Q36.66 29.98 36.27 30.03Z" fill="#E9E9E9" fill-opacity="1.000000" fill-rule="evenodd"/>
		<path id="Прямоугольник 5" d="M947.99 28.95C947.99 28.95 929.24 29.06 911.15 28.95C893.51 28.84 876.53 28.5 875.68 28.95C873.96 29.85 875.68 0 875.68 0C875.68 0 894.45 0.47 912.53 0.56C930.77 0.66 948.34 0.36 947.99 0C947.64 -0.36 947.99 14.69 947.99 22.11C947.99 29.36 947.99 28.95 947.99 28.95Z" fill="#FFFFFF" fill-opacity="1.000000" fill-rule="evenodd"/>
		<path id="Прямоугольник 5" d="M946.99 27.95L913.03 27.96L911.16 27.95Q906.34 27.92 897.16 27.83Q879.9 27.66 876.2 27.92Q876.19 27.86 876.18 27.8Q876.02 26.82 875.96 24.77Q875.85 21.24 876.04 14.84Q876.24 7.98 876.63 1.03Q894.9 1.48 912.53 1.56Q926.12 1.63 937.25 1.45Q942.35 1.37 945.2 1.25Q946.2 1.21 946.86 1.17Q946.84 2.14 946.84 3.92Q946.84 6.37 946.91 12.99Q946.99 19.64 946.99 22.11L946.99 27.95ZM875.72 27.96Q875.68 27.96 875.64 27.96Q875.43 27.95 875.22 28.06Q875.32 28.01 875.72 27.96ZM946.92 0.16C942.86 0.45 927.94 0.64 912.53 0.56C894.45 0.47 875.68 0 875.68 0C875.68 0 873.96 29.85 875.68 28.95C876.3 28.62 885.43 28.71 897.15 28.83C901.56 28.87 906.33 28.92 911.15 28.95C926.77 29.04 942.88 28.97 946.99 28.95C947.06 28.95 947.13 28.95 947.2 28.95C947.72 28.95 947.99 28.95 947.99 28.95L947.99 28.95L947.99 28.95C947.99 28.92 947.99 28.76 947.99 27.95C947.99 27.04 947.99 25.33 947.99 22.11C947.99 19.63 947.95 16.3 947.91 12.98C947.86 8.08 947.8 3.19 947.87 1.08C947.87 1.07 947.87 1.05 947.87 1.04C947.89 0.51 947.91 0.17 947.95 0.04C947.99 0.03 948 0.02 947.99 0C947.97 -0.02 947.96 0 947.95 0.04C947.83 0.08 947.5 0.12 946.98 0.16C946.96 0.16 946.94 0.16 946.92 0.16Z" fill="#E9E9E9" fill-opacity="1.000000" fill-rule="evenodd"/>
		<path id="Прямоугольник 5" d="M802.5 28.95C802.5 28.95 783.75 29.06 765.67 28.95C748.02 28.84 731.05 28.5 730.2 28.95C728.47 29.85 730.2 0 730.2 0C730.2 0 748.96 0.47 767.04 0.56C785.28 0.66 802.85 0.37 802.5 0C802.15 -0.36 801.9 14.87 801.99 22.27C802.08 29.52 802.5 28.95 802.5 28.95Z" fill="#FFFFFF" fill-opacity="1.000000" fill-rule="evenodd"/>
		<path id="Прямоугольник 5" d="M801.41 0.17C797.33 0.45 782.43 0.64 767.04 0.56C748.96 0.47 730.2 0 730.2 0C730.2 0 728.47 29.85 730.2 28.95C730.81 28.62 739.95 28.71 751.66 28.83C756.07 28.87 760.84 28.92 765.67 28.95C781.13 29.04 797.1 28.97 801.39 28.95C801.96 28.95 802.33 28.95 802.46 28.95C802.48 28.97 802.5 28.95 802.5 28.95C802.5 28.95 802.49 28.95 802.46 28.95C802.44 28.93 802.43 28.91 802.41 28.88C802.36 28.77 802.3 28.53 802.23 27.99C802.23 27.97 802.23 27.96 802.23 27.95C802.13 27.05 802.03 25.38 801.99 22.27C801.92 16.15 802.08 4.66 802.33 1.09C802.33 1.06 802.34 1.03 802.34 1C802.38 0.5 802.41 0.17 802.46 0.05C802.5 0.03 802.52 0.02 802.5 0C802.49 -0.01 802.47 0 802.46 0.05C802.33 0.09 802.01 0.12 801.49 0.16C801.47 0.16 801.44 0.16 801.41 0.17ZM801.32 1.17Q800.67 1.22 799.71 1.26Q796.87 1.37 791.76 1.45Q780.63 1.63 767.04 1.56Q749.41 1.48 731.14 1.03Q730.75 7.98 730.55 14.84Q730.36 21.24 730.47 24.77Q730.53 26.82 730.69 27.8Q730.7 27.87 730.71 27.92Q734.41 27.66 751.67 27.83Q760.85 27.92 765.67 27.95L767.54 27.96L801.22 27.95Q801.04 26.21 800.99 22.28Q800.92 16.27 801.08 8.2Q801.16 4.42 801.26 2.24Q801.29 1.63 801.32 1.17ZM730.23 27.96Q730.19 27.96 730.15 27.96Q729.94 27.95 729.73 28.06Q729.83 28.01 730.23 27.96Z" fill="#E9E9E9" fill-opacity="1.000000" fill-rule="evenodd"/>
		<path id="Прямоугольник 5" d="M874.91 28.95C874.91 28.95 866.34 29.06 848.3 28.95C830.69 28.84 803.63 28.5 802.78 28.95C801.91 29.4 801.7 21.41 801.92 14C802.14 6.73 802.78 0.04 802.78 0.04C802.78 0.04 821.84 -0.05 839.88 0.04C858.08 0.13 875.26 0.4 874.91 0.04C874.57 -0.33 874.31 14.88 874.4 22.28C874.49 29.52 874.91 28.95 874.91 28.95Z" fill="#FFFFFF" fill-opacity="1.000000" fill-rule="evenodd"/>
		<path id="Прямоугольник 5" d="M874.64 27.95C874.54 27.06 874.44 25.39 874.4 22.28C874.33 16.15 874.49 4.67 874.74 1.11C874.75 1.08 874.75 1.06 874.75 1.03C874.79 0.53 874.83 0.2 874.87 0.08C874.91 0.06 874.93 0.05 874.91 0.04C874.9 0.02 874.88 0.03 874.87 0.08C874.75 0.11 874.43 0.14 873.92 0.16C873.89 0.16 873.86 0.16 873.83 0.16C871.12 0.27 863.6 0.21 854.3 0.14C849.8 0.1 844.88 0.06 839.88 0.04C821.84 -0.05 802.78 0.04 802.78 0.04C802.78 0.04 802.14 6.73 801.92 14C801.7 21.41 801.91 29.4 802.78 28.95C803.45 28.59 820.46 28.73 836.26 28.86C840.47 28.89 844.59 28.92 848.3 28.95C862.6 29.03 870.95 28.98 873.8 28.96C874.39 28.95 874.75 28.95 874.87 28.95C874.9 28.97 874.91 28.95 874.91 28.95C874.91 28.95 874.9 28.95 874.87 28.95C874.85 28.94 874.84 28.91 874.82 28.88C874.77 28.77 874.71 28.53 874.65 27.99C874.64 27.97 874.64 27.96 874.64 27.95ZM873.64 27.96Q873.45 26.23 873.4 22.29Q873.33 16.28 873.5 8.23Q873.57 4.45 873.68 2.27Q873.71 1.64 873.74 1.17Q873.62 1.17 873.5 1.18Q872.09 1.22 869.16 1.22Q865.46 1.22 854.29 1.14Q844.87 1.06 839.88 1.04L837.13 1.02L803.69 1.04Q803.13 7.28 802.92 14.03Q802.74 20.08 802.94 24.38Q803.04 26.58 803.23 27.68Q803.26 27.82 803.28 27.94Q808.1 27.63 836.27 27.86Q844.6 27.92 848.3 27.95Q865.05 28.05 873.64 27.96ZM802.87 27.97Q802.82 27.96 802.77 27.95Q802.55 27.94 802.31 28.06Q802.41 28.01 802.87 27.97Z" fill="#E9E9E9" fill-opacity="1.000000" fill-rule="evenodd"/>
		<path id="Прямоугольник 5" d="M729.43 28.97C729.43 28.97 658.84 28.07 657.12 28.97C655.4 29.88 657.12 0.01 657.12 0.01C657.12 0.01 730.11 0.73 729.43 0.01C728.74 -0.72 729.43 28.97 729.43 28.97Z" fill="#FFFFFF" fill-opacity="1.000000" fill-rule="evenodd"/>
		<path id="Прямоугольник 5" d="M728.31 0.15C719.16 0.62 657.12 0.01 657.12 0.01C657.12 0.01 655.4 29.88 657.12 28.97C658.72 28.13 719.83 28.86 728.43 28.96C729.08 28.97 729.43 28.97 729.43 28.97C729.43 28.97 729.42 28.61 729.4 27.97C729.31 23.54 728.94 5.7 729.23 1.09C729.23 1.06 729.23 1.03 729.23 0.99C729.26 0.51 729.3 0.19 729.35 0.06C729.42 0.04 729.44 0.03 729.43 0.01C729.4 -0.02 729.37 0 729.35 0.06C729.21 0.09 728.89 0.12 728.41 0.15C728.38 0.15 728.34 0.15 728.31 0.15ZM728.22 1.16Q727.55 1.19 726.54 1.22Q723.78 1.29 718.42 1.31Q709.42 1.36 693.53 1.28Q675.83 1.19 658.06 1.02Q657.67 7.99 657.47 14.86Q657.29 21.27 657.39 24.8Q657.45 26.85 657.61 27.83Q657.62 27.87 657.63 27.91Q665.19 27.16 728.4 27.96Q728.25 21.06 728.17 14.23Q728.09 7.8 728.14 4.22Q728.16 2.24 728.22 1.16ZM657.07 27.98Q656.86 27.98 656.65 28.09Q656.76 28.03 657.07 27.98Z" fill="#E9E9E9" fill-opacity="1.000000" fill-rule="evenodd"/>
		<path id="Прямоугольник 5" d="M656.35 28.95C656.35 28.95 637.59 29.06 619.51 28.95C601.87 28.84 584.89 28.5 584.04 28.95C582.32 29.85 584.04 0 584.04 0C584.04 0 602.81 0.47 620.89 0.56C639.13 0.66 656.7 0.37 656.35 0C656 -0.36 655.75 14.87 655.84 22.27C655.92 29.52 656.35 28.95 656.35 28.95Z" fill="#FFFFFF" fill-opacity="1.000000" fill-rule="evenodd"/>
		<path id="Прямоугольник 5" d="M655.26 0.17C651.18 0.45 636.28 0.64 620.89 0.56C602.81 0.47 584.04 0 584.04 0C584.04 0 582.32 29.85 584.04 28.95C584.66 28.62 593.79 28.71 605.51 28.83C609.92 28.87 614.69 28.92 619.51 28.95C634.98 29.04 650.94 28.97 655.23 28.95C655.81 28.95 656.18 28.95 656.3 28.95C656.33 28.97 656.35 28.95 656.35 28.95C656.35 28.95 656.33 28.95 656.3 28.95C656.29 28.93 656.27 28.91 656.26 28.88C656.21 28.77 656.14 28.53 656.08 27.99C656.08 27.97 656.08 27.96 656.08 27.95C655.97 27.05 655.87 25.38 655.84 22.27C655.76 16.15 655.92 4.66 656.18 1.09C656.18 1.06 656.18 1.03 656.19 1C656.22 0.5 656.26 0.17 656.3 0.05C656.35 0.03 656.36 0.02 656.35 0C656.33 -0.01 656.32 0 656.3 0.05C656.18 0.09 655.85 0.12 655.34 0.16C655.31 0.16 655.29 0.16 655.26 0.17ZM655.17 1.17Q654.52 1.22 653.56 1.26Q650.71 1.37 645.61 1.45Q634.48 1.63 620.88 1.56Q603.26 1.48 584.99 1.03Q584.6 7.98 584.4 14.84Q584.21 21.24 584.32 24.77Q584.38 26.82 584.53 27.8Q584.55 27.87 584.56 27.92Q588.26 27.66 605.52 27.83Q614.7 27.92 619.52 27.95L621.39 27.96L655.07 27.95Q654.88 26.21 654.84 22.28Q654.77 16.27 654.93 8.2Q655.01 4.42 655.11 2.24Q655.14 1.63 655.17 1.17ZM584.08 27.96Q584.04 27.96 584 27.96Q583.79 27.95 583.58 28.06Q583.68 28.01 584.08 27.96Z" fill="#E9E9E9" fill-opacity="1.000000" fill-rule="evenodd"/>
		<path id="Прямоугольник 5" d="M583.27 28.95C583.27 28.95 574.7 29.06 556.66 28.95C539.05 28.84 511.99 28.5 511.14 28.95C510.27 29.4 510.06 21.41 510.28 14C510.5 6.73 511.14 0.04 511.14 0.04C511.14 0.04 530.2 -0.05 548.24 0.04C566.44 0.13 583.62 0.4 583.27 0.04C582.93 -0.33 582.67 14.88 582.76 22.28C582.85 29.52 583.27 28.95 583.27 28.95Z" fill="#FFFFFF" fill-opacity="1.000000" fill-rule="evenodd"/>
		<path id="Прямоугольник 5" d="M583 27.95C582.9 27.06 582.8 25.39 582.76 22.28C582.69 16.15 582.85 4.67 583.1 1.11C583.11 1.08 583.11 1.06 583.11 1.03C583.15 0.53 583.19 0.2 583.23 0.08C583.27 0.06 583.29 0.05 583.27 0.04C583.26 0.02 583.24 0.03 583.23 0.08C583.11 0.11 582.78 0.14 582.28 0.16C582.25 0.16 582.22 0.16 582.19 0.16C579.48 0.27 571.96 0.21 562.66 0.14C558.16 0.1 553.24 0.06 548.24 0.04C530.2 -0.05 511.14 0.04 511.14 0.04C511.14 0.04 510.5 6.73 510.28 14C510.06 21.41 510.27 29.4 511.14 28.95C511.81 28.59 528.82 28.73 544.62 28.86C548.83 28.89 552.95 28.92 556.66 28.95C570.96 29.03 579.31 28.98 582.16 28.96C582.75 28.95 583.11 28.95 583.23 28.95C583.26 28.97 583.27 28.95 583.27 28.95C583.27 28.95 583.26 28.95 583.23 28.95C583.21 28.94 583.2 28.91 583.18 28.88C583.13 28.77 583.07 28.53 583 27.99C583 27.97 583 27.96 583 27.95ZM582 27.96Q581.81 26.23 581.76 22.29Q581.69 16.28 581.85 8.23Q581.93 4.45 582.03 2.27Q582.07 1.64 582.1 1.17Q581.98 1.17 581.86 1.18Q580.45 1.22 577.52 1.22Q573.82 1.22 562.65 1.14Q553.23 1.06 548.24 1.04L545.48 1.02L512.05 1.04Q511.48 7.28 511.28 14.03Q511.1 20.08 511.3 24.38Q511.4 26.58 511.59 27.68Q511.62 27.82 511.64 27.94Q516.46 27.63 544.63 27.86Q552.96 27.92 556.66 27.95Q573.41 28.05 582 27.96ZM511.23 27.97Q511.18 27.96 511.13 27.95Q510.91 27.94 510.67 28.06Q510.77 28.01 511.23 27.97Z" fill="#E9E9E9" fill-opacity="1.000000" fill-rule="evenodd"/>
		<path id="Прямоугольник 5" d="M437.13 0.22C437.13 0.22 440 0.88 458.03 0.22C476.3 -0.45 508.42 0.66 509.27 0.22C510.13 -0.24 510.34 7.71 510.12 15.08C509.9 22.3 510.12 28.95 510.12 28.95C510.12 28.95 490.2 29.05 472.16 28.95C453.96 28.86 436.79 28.59 437.13 28.95C437.48 29.32 437.73 14.2 437.64 6.84C437.55 -0.36 437.13 0.22 437.13 0.22Z" fill="#FFFFFF" fill-opacity="1.000000" fill-rule="evenodd"/>
		<path id="Прямоугольник 5" d="M437.41 1.28C437.51 2.19 437.6 3.84 437.64 6.84C437.71 12.93 437.55 24.34 437.3 27.88C437.3 27.91 437.3 27.93 437.29 27.96C437.26 28.46 437.22 28.8 437.18 28.91C437.13 28.93 437.12 28.94 437.13 28.95C437.15 28.97 437.16 28.96 437.18 28.91C437.29 28.88 437.62 28.85 438.12 28.83C438.15 28.83 438.18 28.83 438.21 28.83C440.92 28.72 448.44 28.78 457.74 28.86L457.74 28.86C462.25 28.89 467.17 28.93 472.16 28.95C487.81 29.03 504.87 28.98 509.12 28.96C509.77 28.96 510.12 28.95 510.12 28.95C510.12 28.95 510.11 28.6 510.09 27.96C510.04 25.83 509.95 20.62 510.12 15.08C510.34 7.71 510.13 -0.24 509.27 0.22C508.92 0.4 503.28 0.32 495.5 0.21C484.35 0.05 468.79 -0.18 458.03 0.22C445.5 0.68 440.29 0.5 438.28 0.34C437.62 0.3 437.31 0.25 437.19 0.23C437.15 0.19 437.13 0.22 437.13 0.22C437.13 0.22 437.15 0.22 437.19 0.23C437.2 0.24 437.21 0.26 437.22 0.29C437.27 0.39 437.34 0.64 437.4 1.17C437.4 1.21 437.41 1.25 437.41 1.28ZM438.43 1.39Q438.6 3.13 438.64 6.83Q438.71 12.8 438.55 20.81Q438.47 24.56 438.37 26.73Q438.34 27.36 438.31 27.82Q438.42 27.82 438.54 27.82Q439.96 27.78 442.88 27.77Q446.58 27.77 457.75 27.86Q467.18 27.93 472.17 27.96L476.85 27.97L509.09 27.96Q508.92 21.74 509.12 15.05Q509.3 9.03 509.1 4.76Q509 2.57 508.81 1.48Q508.79 1.33 508.76 1.21Q505.99 1.36 495.48 1.21Q468.8 0.82 458.07 1.22Q443.1 1.77 438.43 1.39ZM509.15 1.19Q509.21 1.2 509.27 1.21Q509.5 1.22 509.73 1.1Q509.63 1.15 509.15 1.19Z" fill="#E9E9E9" fill-opacity="1.000000" fill-rule="evenodd"/>
		<path id="Прямоугольник 5" d="M437.12 28.97C437.12 28.97 366.54 28.07 364.81 28.97C363.09 29.88 364.81 0.01 364.81 0.01C364.81 0.01 437.81 0.73 437.12 0.01C436.43 -0.72 437.12 28.97 437.12 28.97Z" fill="#FFFFFF" fill-opacity="1.000000" fill-rule="evenodd"/>
		<path id="Прямоугольник 5" d="M436 0.15C426.85 0.62 364.81 0.01 364.81 0.01C364.81 0.01 363.09 29.88 364.81 28.97C366.41 28.13 427.52 28.86 436.12 28.96C436.77 28.97 437.12 28.97 437.12 28.97C437.12 28.97 437.11 28.61 437.1 27.97C437 23.54 436.64 5.7 436.92 1.09C436.92 1.06 436.92 1.03 436.93 0.99C436.96 0.51 437 0.19 437.05 0.06C437.11 0.04 437.14 0.03 437.12 0.01C437.09 -0.02 437.07 0 437.05 0.06C436.91 0.09 436.59 0.12 436.1 0.15C436.07 0.15 436.04 0.15 436 0.15ZM435.91 1.16Q435.24 1.19 434.24 1.22Q431.47 1.29 426.12 1.31Q417.12 1.36 401.22 1.28Q383.53 1.19 365.76 1.02Q365.37 7.99 365.17 14.86Q364.98 21.27 365.09 24.8Q365.15 26.85 365.31 27.83Q365.31 27.87 365.32 27.91Q372.88 27.16 436.1 27.96Q435.94 21.06 435.86 14.23Q435.79 7.8 435.83 4.22Q435.85 2.24 435.91 1.16ZM364.76 27.98Q364.56 27.98 364.35 28.09Q364.45 28.03 364.76 27.98Z" fill="#E9E9E9" fill-opacity="1.000000" fill-rule="evenodd"/>
		<path id="Прямоугольник 5" d="M364.04 28.95C364.04 28.95 345.29 29.06 327.21 28.95C309.56 28.84 292.59 28.5 291.74 28.95C290.01 29.85 291.74 0 291.74 0C291.74 0 310.5 0.47 328.58 0.56C346.83 0.66 364.39 0.37 364.04 0C363.7 -0.36 363.44 14.87 363.53 22.27C363.62 29.52 364.04 28.95 364.04 28.95Z" fill="#FFFFFF" fill-opacity="1.000000" fill-rule="evenodd"/>
		<path id="Прямоугольник 5" d="M362.96 0.17C358.88 0.45 343.97 0.64 328.58 0.56C310.5 0.47 291.74 0 291.74 0C291.74 0 290.01 29.85 291.74 28.95C292.35 28.62 301.49 28.71 313.2 28.83C317.61 28.87 322.38 28.92 327.21 28.95C342.68 29.04 358.64 28.97 362.93 28.95C363.51 28.95 363.87 28.95 364 28.95C364.03 28.97 364.04 28.95 364.04 28.95C364.04 28.95 364.03 28.95 364 28.95C363.98 28.93 363.97 28.91 363.95 28.88C363.9 28.77 363.84 28.53 363.78 27.99C363.77 27.97 363.77 27.96 363.77 27.95C363.67 27.05 363.57 25.38 363.53 22.27C363.46 16.15 363.62 4.66 363.87 1.09C363.88 1.06 363.88 1.03 363.88 1C363.92 0.5 363.96 0.17 364 0.05C364.04 0.03 364.06 0.02 364.04 0C364.03 -0.01 364.01 0 364 0.05C363.88 0.09 363.55 0.12 363.03 0.16C363.01 0.16 362.98 0.16 362.96 0.17ZM362.86 1.17Q362.22 1.22 361.26 1.26Q358.41 1.37 353.3 1.45Q342.17 1.63 328.58 1.56Q310.95 1.48 292.68 1.03Q292.29 7.98 292.09 14.84Q291.9 21.24 292.01 24.77Q292.07 26.82 292.23 27.8Q292.24 27.87 292.25 27.92Q295.96 27.66 313.21 27.83Q322.39 27.92 327.21 27.95L329.09 27.96L362.76 27.95Q362.58 26.21 362.53 22.28Q362.46 16.27 362.62 8.2Q362.7 4.42 362.81 2.24Q362.83 1.63 362.86 1.17ZM291.77 27.96Q291.73 27.96 291.69 27.96Q291.48 27.95 291.27 28.06Q291.37 28.01 291.77 27.96Z" fill="#E9E9E9" fill-opacity="1.000000" fill-rule="evenodd"/>
		<path id="Прямоугольник 5" d="M218.56 28.95C218.56 28.95 199.8 29.06 181.72 28.95C164.07 28.84 147.1 28.5 146.25 28.95C144.53 29.85 146.25 0 146.25 0C146.25 0 165.01 0.47 183.1 0.56C201.34 0.66 218.9 0.37 218.56 0C218.21 -0.36 217.95 14.87 218.04 22.27C218.13 29.52 218.56 28.95 218.56 28.95Z" fill="#FFFFFF" fill-opacity="1.000000" fill-rule="evenodd"/>
		<path id="Прямоугольник 5" d="M217.47 0.17C213.39 0.45 198.48 0.64 183.1 0.56C165.01 0.47 146.25 0 146.25 0C146.25 0 144.53 29.85 146.25 28.95C146.87 28.62 156 28.71 167.72 28.83C172.12 28.87 176.9 28.92 181.72 28.95C197.19 29.04 213.15 28.97 217.44 28.95C218.02 28.95 218.38 28.95 218.51 28.95C218.54 28.97 218.56 28.95 218.56 28.95C218.56 28.95 218.54 28.95 218.51 28.95C218.5 28.93 218.48 28.91 218.46 28.88C218.41 28.77 218.35 28.53 218.29 27.99C218.29 27.97 218.28 27.96 218.28 27.95C218.18 27.05 218.08 25.38 218.04 22.27C217.97 16.15 218.13 4.66 218.38 1.09C218.39 1.06 218.39 1.03 218.39 1C218.43 0.5 218.47 0.17 218.51 0.05C218.55 0.03 218.57 0.02 218.56 0C218.54 -0.01 218.52 0 218.51 0.05C218.39 0.09 218.06 0.12 217.55 0.16C217.52 0.16 217.49 0.16 217.47 0.17ZM217.38 1.17Q216.73 1.22 215.77 1.26Q212.92 1.37 207.81 1.45Q196.69 1.63 183.09 1.56Q165.46 1.48 147.19 1.03Q146.8 7.98 146.6 14.84Q146.42 21.24 146.52 24.77Q146.58 26.82 146.74 27.8Q146.75 27.87 146.76 27.92Q150.47 27.66 167.73 27.83Q176.9 27.92 181.72 27.95L183.6 27.96L217.28 27.95Q217.09 26.21 217.04 22.28Q216.97 16.27 217.14 8.2Q217.21 4.42 217.32 2.24Q217.35 1.63 217.38 1.17ZM146.28 27.96Q146.24 27.96 146.2 27.96Q146 27.95 145.78 28.06Q145.89 28.01 146.28 27.96Z" fill="#E9E9E9" fill-opacity="1.000000" fill-rule="evenodd"/>
		<path id="Прямоугольник 5" d="M290.97 28.95C290.97 28.95 282.39 29.06 264.35 28.95C246.75 28.84 219.68 28.5 218.83 28.95C217.96 29.4 217.76 21.41 217.98 14C218.19 6.73 218.83 0.04 218.83 0.04C218.83 0.04 237.89 -0.05 255.93 0.04C274.13 0.13 291.31 0.4 290.97 0.04C290.62 -0.33 290.37 14.88 290.46 22.28C290.54 29.52 290.97 28.95 290.97 28.95Z" fill="#FFFFFF" fill-opacity="1.000000" fill-rule="evenodd"/>
		<path id="Прямоугольник 5" d="M290.69 27.95C290.59 27.06 290.49 25.39 290.46 22.28C290.38 16.15 290.54 4.67 290.8 1.11C290.8 1.08 290.8 1.06 290.8 1.03C290.84 0.53 290.88 0.2 290.92 0.08C290.97 0.06 290.98 0.05 290.97 0.04C290.95 0.02 290.94 0.03 290.92 0.08C290.8 0.11 290.48 0.14 289.98 0.16C289.95 0.16 289.92 0.16 289.89 0.16C287.17 0.27 279.66 0.21 270.35 0.14C265.85 0.1 260.93 0.06 255.93 0.04C237.89 -0.05 218.83 0.04 218.83 0.04C218.83 0.04 218.19 6.73 217.98 14C217.76 21.41 217.96 29.4 218.83 28.95C219.5 28.59 236.52 28.73 252.31 28.86C256.52 28.89 260.65 28.92 264.35 28.95C278.65 29.03 287 28.98 289.85 28.96C290.45 28.95 290.8 28.95 290.92 28.95C290.95 28.97 290.97 28.95 290.97 28.95C290.97 28.95 290.95 28.95 290.92 28.95C290.91 28.94 290.89 28.91 290.87 28.88C290.82 28.77 290.76 28.53 290.7 27.99C290.7 27.97 290.7 27.96 290.69 27.95ZM289.69 27.96Q289.5 26.23 289.46 22.29Q289.38 16.28 289.55 8.23Q289.63 4.45 289.73 2.27Q289.76 1.64 289.79 1.17Q289.68 1.17 289.55 1.18Q288.14 1.22 285.21 1.22Q281.51 1.22 270.34 1.14Q260.93 1.06 255.93 1.04L253.18 1.02L219.74 1.04Q219.18 7.28 218.98 14.03Q218.8 20.08 219 24.38Q219.1 26.58 219.29 27.68Q219.31 27.82 219.34 27.94Q224.16 27.63 252.32 27.86Q260.65 27.92 264.36 27.95Q281.11 28.05 289.69 27.96ZM218.93 27.97Q218.88 27.96 218.82 27.95Q218.6 27.94 218.37 28.06Q218.46 28.01 218.93 27.97Z" fill="#E9E9E9" fill-opacity="1.000000" fill-rule="evenodd"/>
		<path id="Прямоугольник 5" d="M145.48 28.97C145.48 28.97 74.89 28.07 73.17 28.97C71.45 29.88 73.17 0.01 73.17 0.01C73.17 0.01 146.17 0.73 145.48 0.01C144.79 -0.72 145.48 28.97 145.48 28.97Z" fill="#FFFFFF" fill-opacity="1.000000" fill-rule="evenodd"/>
		<path id="Прямоугольник 5" d="M144.36 0.15C135.21 0.62 73.17 0.01 73.17 0.01C73.17 0.01 71.45 29.88 73.17 28.97C74.77 28.13 135.88 28.86 144.48 28.96C145.13 28.97 145.48 28.97 145.48 28.97C145.48 28.97 145.47 28.61 145.46 27.97C145.36 23.54 145 5.7 145.28 1.09C145.28 1.06 145.28 1.03 145.28 0.99C145.32 0.51 145.36 0.19 145.41 0.06C145.47 0.04 145.5 0.03 145.48 0.01C145.45 -0.02 145.43 0 145.41 0.06C145.27 0.09 144.95 0.12 144.46 0.15C144.43 0.15 144.4 0.15 144.36 0.15ZM144.27 1.16Q143.6 1.19 142.6 1.22Q139.83 1.29 134.48 1.31Q125.48 1.36 109.58 1.28Q91.89 1.19 74.12 1.02Q73.73 7.99 73.53 14.86Q73.34 21.27 73.45 24.8Q73.51 26.85 73.67 27.83Q73.67 27.87 73.68 27.91Q81.24 27.16 144.46 27.96Q144.3 21.06 144.22 14.23Q144.14 7.8 144.19 4.22Q144.21 2.24 144.27 1.16ZM73.12 27.98Q72.91 27.98 72.71 28.09Q72.81 28.03 73.12 27.98Z" fill="#E9E9E9" fill-opacity="1.000000" fill-rule="evenodd"/>
		<path id="Прямоугольник 5" d="M73.07 28.95C73.07 28.95 54.31 29.06 36.23 28.95C18.58 28.84 1.61 28.5 0.76 28.95C-0.96 29.85 0.76 0 0.76 0C0.76 0 19.52 0.47 37.61 0.56C55.85 0.66 73.41 0.37 73.07 0C72.72 -0.36 72.47 14.87 72.55 22.27C72.64 29.52 73.07 28.95 73.07 28.95Z" fill="#FFFFFF" fill-opacity="1.000000" fill-rule="evenodd"/>
		<path id="Прямоугольник 5" d="M71.98 0.17C67.9 0.45 52.99 0.64 37.61 0.56C19.52 0.47 0.76 0 0.76 0C0.76 0 -0.96 29.85 0.76 28.95C1.38 28.62 10.51 28.71 22.23 28.83C26.63 28.87 31.41 28.92 36.23 28.95C51.7 29.04 67.66 28.97 71.95 28.95C72.53 28.95 72.9 28.95 73.02 28.95C73.05 28.97 73.07 28.95 73.07 28.95C73.07 28.95 73.05 28.95 73.02 28.95C73.01 28.93 72.99 28.91 72.97 28.88C72.92 28.77 72.86 28.53 72.8 27.99C72.8 27.97 72.79 27.96 72.79 27.95C72.69 27.05 72.59 25.38 72.55 22.27C72.48 16.15 72.64 4.66 72.9 1.09C72.9 1.06 72.9 1.03 72.9 1C72.94 0.5 72.98 0.17 73.02 0.05C73.06 0.03 73.08 0.02 73.07 0C73.05 -0.01 73.04 0 73.02 0.05C72.9 0.09 72.57 0.12 72.06 0.16C72.03 0.16 72.01 0.16 71.98 0.17ZM71.89 1.17Q71.24 1.22 70.28 1.26Q67.43 1.37 62.32 1.45Q51.2 1.63 37.6 1.56Q19.98 1.48 1.7 1.03Q1.31 7.98 1.11 14.84Q0.93 21.24 1.03 24.77Q1.1 26.82 1.25 27.8Q1.26 27.87 1.27 27.92Q4.98 27.66 22.24 27.83Q31.41 27.92 36.24 27.95L38.11 27.96L71.79 27.95Q71.6 26.21 71.55 22.28Q71.48 16.27 71.65 8.2Q71.72 4.42 71.83 2.24Q71.86 1.63 71.89 1.17ZM0.8 27.96Q0.75 27.96 0.71 27.96Q0.51 27.95 0.3 28.06Q0.4 28.01 0.8 27.96Z" fill="#E9E9E9" fill-opacity="1.000000" fill-rule="evenodd"/>
	</g>
</svg>
