<svg width="1427.000000" height="80.000000" viewBox="0 0 1427 80" fill="none" xmlns="http://www.w3.org/2000/svg" xmlns:xlink="http://www.w3.org/1999/xlink">
	<desc>
			Created with Pixso.
	</desc>
	<defs>
		<clipPath id="clip11_159">
			<rect id="фрейм 2" width="1427.000000" height="80.000000" fill="white" fill-opacity="0"/>
		</clipPath>
	</defs>
	<rect id="фрейм 2" width="1427.000000" height="80.000000" fill="#FFFFFF" fill-opacity="1.000000"/>
	<g clip-path="url(#clip11_159)">
		<path id="Прямоугольник 5" d="M55 40.06C55 40.06 83.23 39.91 110.45 40.06C137.02 40.21 162.56 40.68 163.84 40.06C166.44 38.82 163.84 79.99 163.84 79.99C163.84 79.99 135.6 79.33 108.38 79.21C80.92 79.08 54.48 79.48 55 79.99C55.53 80.49 55.91 59.48 55.77 49.27C55.64 39.27 55 40.06 55 40.06Z" fill="#FFFFFF" fill-opacity="1.000000" fill-rule="evenodd"/>
		<path id="Прямоугольник 5" d="M56.13 79.8C61.42 79.39 84.51 79.1 108.38 79.21C135.6 79.33 163.84 79.99 163.84 79.99C163.84 79.99 166.44 38.82 163.84 40.06C162.91 40.51 149.17 40.39 131.53 40.23C124.9 40.17 117.71 40.1 110.45 40.06C86.49 39.93 61.75 40.03 56.17 40.06C55.59 40.06 55.22 40.06 55.07 40.06C55.03 40.03 55 40.06 55 40.06C55 40.06 55.03 40.06 55.07 40.06C55.1 40.08 55.12 40.12 55.16 40.19C55.21 40.31 55.28 40.55 55.35 41C55.36 41.02 55.36 41.04 55.36 41.06C55.53 42.18 55.71 44.49 55.77 49.27C55.89 57.96 55.63 74.46 55.23 78.88C55.22 78.92 55.22 78.96 55.21 79C55.17 79.48 55.12 79.79 55.07 79.92C55.01 79.95 54.98 79.97 55 79.99C55.03 80.01 55.05 79.99 55.07 79.92C55.21 79.88 55.53 79.84 56.01 79.8C56.05 79.8 56.09 79.8 56.13 79.8ZM56.24 78.78Q57.32 78.71 59.22 78.64Q63.5 78.48 71.18 78.36Q87.93 78.12 108.38 78.21Q135.15 78.33 162.91 78.96Q163.51 69.17 163.82 59.52Q164.1 50.68 163.94 45.81Q163.84 42.96 163.6 41.59Q163.55 41.29 163.5 41.09Q159.12 41.48 131.52 41.23Q117.71 41.1 110.45 41.06L107.62 41.05L56.37 41.06Q56.7 43.35 56.77 49.25Q56.88 57.55 56.63 68.67Q56.52 73.88 56.36 76.89Q56.3 78.04 56.24 78.78ZM163.73 41.07Q163.96 41.12 164.28 40.96Q164.16 41.02 163.73 41.07Z" fill="#E9E9E9" fill-opacity="1.000000" fill-rule="evenodd"/>
		<path id="Прямоугольник 5" d="M274 40.06C274 40.06 302.23 39.91 329.45 40.06C356.02 40.21 381.56 40.68 382.84 40.06C385.44 38.82 382.84 79.99 382.84 79.99C382.84 79.99 354.6 79.33 327.38 79.21C299.92 79.08 273.48 79.48 274 79.99C274.53 80.49 274.91 59.48 274.77 49.27C274.64 39.27 274 40.06 274 40.06Z" fill="#FFFFFF" fill-opacity="1.000000" fill-rule="evenodd"/>
		<path id="Прямоугольник 5" d="M275.13 79.8C280.42 79.39 303.51 79.1 327.38 79.21C354.6 79.33 382.84 79.99 382.84 79.99C382.84 79.99 385.44 38.82 382.84 40.06C381.91 40.51 368.17 40.39 350.53 40.23C343.9 40.17 336.71 40.1 329.45 40.06C305.49 39.93 280.75 40.03 275.17 40.06C274.59 40.06 274.22 40.06 274.07 40.06C274.03 40.03 274 40.06 274 40.06C274 40.06 274.03 40.06 274.07 40.06C274.1 40.08 274.13 40.12 274.16 40.19C274.21 40.31 274.28 40.55 274.35 41C274.35 41.02 274.36 41.04 274.36 41.06C274.53 42.18 274.71 44.49 274.77 49.27C274.89 57.96 274.63 74.46 274.23 78.88C274.22 78.92 274.22 78.96 274.22 79C274.17 79.48 274.12 79.79 274.07 79.92C274.01 79.95 273.98 79.97 274 79.99C274.03 80.01 274.05 79.99 274.07 79.92C274.21 79.88 274.53 79.84 275.01 79.8C275.05 79.8 275.09 79.8 275.13 79.8ZM275.24 78.78Q276.32 78.71 278.22 78.64Q282.5 78.48 290.18 78.36Q306.93 78.12 327.38 78.21Q354.15 78.33 381.91 78.96Q382.51 69.17 382.82 59.52Q383.1 50.68 382.94 45.81Q382.84 42.96 382.6 41.59Q382.55 41.29 382.5 41.09Q378.12 41.48 350.52 41.23Q336.71 41.1 329.45 41.06L326.62 41.05L275.37 41.06Q275.7 43.35 275.77 49.25Q275.88 57.55 275.63 68.67Q275.52 73.88 275.36 76.89Q275.3 78.04 275.24 78.78ZM382.73 41.07Q382.96 41.12 383.28 40.96Q383.16 41.02 382.73 41.07Z" fill="#E9E9E9" fill-opacity="1.000000" fill-rule="evenodd"/>
		<path id="Прямоугольник 5" d="M165 40.06C165 40.06 177.91 39.91 205.07 40.06C231.57 40.21 272.31 40.68 273.59 40.06C274.89 39.43 275.2 50.45 274.87 60.68C274.55 70.71 273.59 79.94 273.59 79.94C273.59 79.94 244.89 80.06 217.74 79.94C190.34 79.81 164.48 79.44 165 79.94C165.53 80.44 165.9 59.46 165.77 49.26C165.64 39.27 165 40.06 165 40.06Z" fill="#FFFFFF" fill-opacity="1.000000" fill-rule="evenodd"/>
		<path id="Прямоугольник 5" d="M165.36 41.06C165.53 42.17 165.71 44.48 165.77 49.26C165.89 57.94 165.63 74.44 165.23 78.85C165.22 78.88 165.22 78.92 165.22 78.96C165.17 79.43 165.12 79.75 165.07 79.88C165.01 79.9 164.98 79.92 165 79.94C165.03 79.96 165.05 79.94 165.07 79.88C165.21 79.85 165.52 79.82 165.99 79.79C166.03 79.79 166.08 79.79 166.12 79.78C169.69 79.61 181.39 79.7 196.03 79.8L196.03 79.8C202.81 79.85 210.21 79.9 217.74 79.94C244.89 80.06 273.59 79.94 273.59 79.94C273.59 79.94 274.55 70.71 274.87 60.68C275.2 50.45 274.89 39.43 273.59 40.06C272.58 40.55 246.97 40.36 223.19 40.19C216.85 40.14 210.64 40.09 205.07 40.06C182.6 39.94 169.89 40.02 166.17 40.05C165.58 40.06 165.22 40.06 165.07 40.06C165.03 40.03 165 40.06 165 40.06C165 40.06 165.03 40.06 165.07 40.06C165.1 40.08 165.12 40.12 165.16 40.19C165.21 40.31 165.28 40.55 165.35 41C165.35 41.02 165.36 41.04 165.36 41.06ZM166.37 41.05Q166.69 43.33 166.77 49.24Q166.88 57.53 166.63 68.64Q166.52 73.84 166.36 76.84Q166.3 78.02 166.24 78.78Q166.63 78.76 167.15 78.75Q169.27 78.69 173.66 78.69Q179.23 78.68 196.04 78.8Q210.22 78.9 217.74 78.94L221.89 78.96L272.68 78.94Q273.56 70.15 273.87 60.65Q274.14 52.29 273.85 46.35Q273.69 43.3 273.4 41.77Q273.32 41.34 273.24 41.08Q267.64 41.51 223.18 41.19Q210.64 41.09 205.06 41.06Q179.3 40.92 166.37 41.05ZM273.41 41.06Q273.65 41.14 274.02 40.96Q273.91 41.02 273.41 41.06Z" fill="#E9E9E9" fill-opacity="1.000000" fill-rule="evenodd"/>
		<path id="Прямоугольник 5" d="M384 40.02C384 40.02 490.25 41.27 492.84 40.02C495.44 38.77 492.84 79.98 492.84 79.98C492.84 79.98 382.97 78.98 384 79.98C385.04 80.98 384 40.02 384 40.02Z" fill="#FFFFFF" fill-opacity="1.000000" fill-rule="evenodd"/>
		<path id="Прямоугольник 5" d="M385.17 79.81C396.92 79.11 492.84 79.98 492.84 79.98C492.84 79.98 495.44 38.77 492.84 40.02C490.4 41.2 395.8 40.16 385 40.03C384.35 40.03 384 40.02 384 40.02C384 40.02 384.01 40.38 384.03 41.02C384.16 46.53 384.76 73.07 384.28 78.87C384.27 78.92 384.27 78.97 384.26 79.01C384.22 79.46 384.17 79.77 384.11 79.91C384.02 79.93 383.98 79.95 384 79.98C384.04 80.02 384.08 79.99 384.11 79.91C384.27 79.87 384.58 79.84 385.02 79.81C385.07 79.81 385.12 79.81 385.17 79.81ZM385.28 78.8Q386.39 78.74 388.36 78.69Q392.52 78.59 400.57 78.56Q414.11 78.49 438.04 78.6Q464.91 78.73 491.9 78.97Q492.51 69.15 492.82 59.49Q493.1 50.65 492.94 45.77Q492.84 42.92 492.6 41.55Q492.55 41.28 492.51 41.08Q483.77 42.19 385.03 41.03Q385.27 50.75 385.39 60.36Q385.5 69.22 385.44 74.17Q385.4 77.12 385.3 78.62Q385.29 78.71 385.28 78.8ZM492.82 41.04Q493.02 41.05 493.28 40.92Q493.15 40.98 492.82 41.04Z" fill="#E9E9E9" fill-opacity="1.000000" fill-rule="evenodd"/>
		<path id="Прямоугольник 5" d="M494 40.06C494 40.06 522.23 39.91 549.45 40.06C576.02 40.21 601.56 40.68 602.84 40.06C605.44 38.82 602.84 79.99 602.84 79.99C602.84 79.99 574.6 79.33 547.38 79.21C519.92 79.08 493.48 79.48 494 79.99C494.53 80.49 494.91 59.48 494.77 49.27C494.64 39.27 494 40.06 494 40.06Z" fill="#FFFFFF" fill-opacity="1.000000" fill-rule="evenodd"/>
		<path id="Прямоугольник 5" d="M495.13 79.8C500.42 79.39 523.51 79.1 547.38 79.21C574.6 79.33 602.84 79.99 602.84 79.99C602.84 79.99 605.44 38.82 602.84 40.06C601.91 40.51 588.17 40.39 570.53 40.23C563.9 40.17 556.71 40.1 549.45 40.06C525.49 39.93 500.75 40.03 495.17 40.06C494.59 40.06 494.22 40.06 494.07 40.06C494.03 40.03 494 40.06 494 40.06C494 40.06 494.03 40.06 494.07 40.06C494.1 40.08 494.13 40.12 494.16 40.19C494.21 40.31 494.28 40.55 494.35 41C494.36 41.02 494.36 41.04 494.36 41.06C494.53 42.18 494.71 44.49 494.77 49.27C494.89 57.96 494.63 74.46 494.23 78.88C494.22 78.92 494.22 78.96 494.22 79C494.17 79.48 494.12 79.79 494.07 79.92C494.01 79.95 493.98 79.97 494 79.99C494.03 80.01 494.05 79.99 494.07 79.92C494.21 79.88 494.53 79.84 495.01 79.8C495.05 79.8 495.09 79.8 495.13 79.8ZM495.24 78.78Q496.32 78.71 498.22 78.64Q502.5 78.48 510.18 78.36Q526.93 78.12 547.38 78.21Q574.15 78.33 601.9 78.96Q602.51 69.17 602.82 59.52Q603.1 50.68 602.94 45.81Q602.84 42.96 602.6 41.59Q602.55 41.29 602.5 41.09Q598.12 41.48 570.52 41.23Q556.71 41.1 549.45 41.06L546.62 41.05L495.37 41.06Q495.7 43.35 495.77 49.25Q495.88 57.55 495.63 68.67Q495.52 73.88 495.36 76.89Q495.3 78.04 495.24 78.78ZM602.73 41.07Q602.96 41.12 603.28 40.96Q603.16 41.02 602.73 41.07Z" fill="#E9E9E9" fill-opacity="1.000000" fill-rule="evenodd"/>
		<path id="Прямоугольник 5" d="M604 40.06C604 40.06 616.91 39.91 644.07 40.06C670.57 40.21 711.31 40.68 712.59 40.06C713.89 39.43 714.2 50.45 713.87 60.68C713.55 70.71 712.59 79.94 712.59 79.94C712.59 79.94 683.89 80.06 656.74 79.94C629.34 79.81 603.48 79.44 604 79.94C604.53 80.44 604.9 59.46 604.77 49.26C604.64 39.27 604 40.06 604 40.06Z" fill="#FFFFFF" fill-opacity="1.000000" fill-rule="evenodd"/>
		<path id="Прямоугольник 5" d="M604.36 41.06C604.53 42.17 604.71 44.48 604.77 49.26C604.89 57.94 604.63 74.44 604.23 78.85C604.22 78.88 604.22 78.92 604.21 78.96C604.17 79.43 604.12 79.75 604.07 79.88C604.01 79.9 603.98 79.92 604 79.94C604.03 79.96 604.05 79.94 604.07 79.88C604.21 79.85 604.52 79.82 604.99 79.79C605.03 79.79 605.08 79.79 605.12 79.78C608.69 79.61 620.39 79.7 635.03 79.8L635.03 79.8C641.81 79.85 649.21 79.9 656.74 79.94C683.89 80.06 712.59 79.94 712.59 79.94C712.59 79.94 713.55 70.71 713.87 60.68C714.2 50.45 713.89 39.43 712.59 40.06C711.58 40.55 685.97 40.36 662.19 40.19C655.85 40.14 649.64 40.09 644.07 40.06C621.6 39.94 608.89 40.02 605.17 40.05C604.58 40.06 604.22 40.06 604.07 40.06C604.03 40.03 604 40.06 604 40.06C604 40.06 604.03 40.06 604.07 40.06C604.1 40.08 604.12 40.12 604.16 40.19C604.21 40.31 604.28 40.55 604.35 41C604.35 41.02 604.36 41.04 604.36 41.06ZM605.37 41.05Q605.69 43.33 605.77 49.24Q605.88 57.53 605.63 68.64Q605.52 73.84 605.36 76.84Q605.3 78.02 605.24 78.78Q605.63 78.76 606.15 78.75Q608.27 78.69 612.66 78.69Q618.23 78.68 635.04 78.8Q649.22 78.9 656.74 78.94L660.89 78.96L711.68 78.94Q712.56 70.15 712.87 60.65Q713.14 52.29 712.85 46.35Q712.69 43.3 712.4 41.77Q712.32 41.34 712.24 41.08Q706.64 41.51 662.18 41.19Q649.64 41.09 644.06 41.06Q618.3 40.92 605.37 41.05ZM712.41 41.06Q712.65 41.14 713.02 40.96Q712.91 41.02 712.41 41.06Z" fill="#E9E9E9" fill-opacity="1.000000" fill-rule="evenodd"/>
		<path id="Прямоугольник 5" d="M823.99 79.69C823.99 79.69 819.66 78.78 792.52 79.69C765.02 80.62 716.68 79.08 715.4 79.69C714.1 80.32 713.79 69.36 714.12 59.19C714.44 49.23 714.12 40.05 714.12 40.05C714.12 40.05 744.1 39.93 771.25 40.05C798.65 40.18 824.51 40.55 823.99 40.05C823.47 39.55 823.09 60.41 823.22 70.55C823.35 80.48 823.99 79.69 823.99 79.69Z" fill="#FFFFFF" fill-opacity="1.000000" fill-rule="evenodd"/>
		<path id="Прямоугольник 5" d="M823.62 78.61C823.45 77.47 823.28 75.17 823.22 70.55C823.11 61.92 823.36 45.53 823.76 41.14C823.77 41.11 823.77 41.07 823.78 41.03C823.82 40.56 823.87 40.24 823.92 40.11C823.99 40.09 824.01 40.07 823.99 40.05C823.96 40.03 823.94 40.05 823.92 40.11C823.78 40.14 823.47 40.17 823 40.2C822.96 40.2 822.92 40.2 822.87 40.2C819.3 40.38 807.6 40.29 792.96 40.19C786.18 40.14 778.78 40.08 771.25 40.05C747.02 39.94 720.54 40.03 715.12 40.05C714.47 40.05 714.12 40.05 714.12 40.05C714.12 40.05 714.13 40.4 714.15 41.05C714.22 43.69 714.38 51.19 714.12 59.19C713.79 69.36 714.1 80.32 715.4 79.69C715.93 79.44 724.41 79.55 736.13 79.71C752.91 79.93 776.33 80.24 792.52 79.69C812.6 79.01 820.19 79.34 822.78 79.55C823.42 79.61 823.76 79.65 823.9 79.67C823.95 79.73 823.99 79.69 823.99 79.69C823.99 79.69 823.96 79.68 823.9 79.67C823.88 79.65 823.86 79.62 823.83 79.57C823.78 79.44 823.71 79.2 823.64 78.76C823.63 78.71 823.62 78.66 823.62 78.61ZM822.59 78.49Q822.29 76.17 822.22 70.56Q822.11 62.33 822.36 51.29Q822.47 46.12 822.63 43.13Q822.69 41.96 822.76 41.21Q822.36 41.23 821.84 41.24Q819.72 41.3 815.33 41.3Q809.76 41.31 792.95 41.19Q778.78 41.08 771.25 41.05L764.2 41.02L715.15 41.05Q715.43 49.79 715.12 59.23Q714.85 67.54 715.15 73.44Q715.3 76.47 715.59 78Q715.67 78.43 715.75 78.69Q719.08 78.48 736.15 78.71Q776.32 79.24 792.49 78.69Q816.09 77.9 822.59 78.49ZM715.59 78.7Q715.35 78.6 714.97 78.79Q715.08 78.74 715.59 78.7Z" fill="#E9E9E9" fill-opacity="1.000000" fill-rule="evenodd"/>
		<path id="Прямоугольник 5" d="M824 40.02C824 40.02 930.25 41.27 932.84 40.02C935.44 38.77 932.84 79.98 932.84 79.98C932.84 79.98 822.97 78.98 824 79.98C825.04 80.98 824 40.02 824 40.02Z" fill="#FFFFFF" fill-opacity="1.000000" fill-rule="evenodd"/>
		<path id="Прямоугольник 5" d="M825.17 79.81C836.92 79.11 932.84 79.98 932.84 79.98C932.84 79.98 935.44 38.77 932.84 40.02C930.4 41.2 835.8 40.16 825 40.03C824.35 40.03 824 40.02 824 40.02C824 40.02 824.01 40.38 824.03 41.02C824.16 46.53 824.76 73.07 824.28 78.87C824.27 78.92 824.27 78.97 824.26 79.01C824.22 79.46 824.17 79.77 824.11 79.91C824.02 79.93 823.98 79.95 824 79.98C824.04 80.02 824.08 79.99 824.11 79.91C824.27 79.87 824.58 79.84 825.02 79.81C825.07 79.81 825.12 79.81 825.17 79.81ZM825.28 78.8Q826.39 78.74 828.36 78.69Q832.52 78.59 840.57 78.56Q854.11 78.49 878.04 78.6Q904.91 78.73 931.9 78.97Q932.51 69.15 932.82 59.49Q933.1 50.65 932.94 45.77Q932.84 42.92 932.6 41.55Q932.55 41.28 932.51 41.08Q923.77 42.19 825.03 41.03Q825.27 50.75 825.39 60.36Q825.5 69.22 825.44 74.17Q825.4 77.12 825.3 78.62Q825.29 78.71 825.28 78.8ZM932.82 41.04Q933.02 41.05 933.28 40.92Q933.15 40.98 932.82 41.04Z" fill="#E9E9E9" fill-opacity="1.000000" fill-rule="evenodd"/>
		<path id="Прямоугольник 5" d="M934 40.06C934 40.06 962.23 39.91 989.45 40.06C1016.02 40.21 1041.56 40.68 1042.85 40.06C1045.43 38.82 1042.85 79.99 1042.85 79.99C1042.85 79.99 1014.6 79.33 987.38 79.21C959.92 79.08 933.48 79.48 934 79.99C934.53 80.49 934.91 59.48 934.77 49.27C934.64 39.27 934 40.06 934 40.06Z" fill="#FFFFFF" fill-opacity="1.000000" fill-rule="evenodd"/>
		<path id="Прямоугольник 5" d="M935.13 79.8C940.42 79.39 963.51 79.1 987.38 79.21C1014.6 79.33 1042.85 79.99 1042.85 79.99C1042.85 79.99 1045.43 38.82 1042.85 40.06C1041.92 40.51 1028.17 40.39 1010.53 40.23C1003.9 40.17 996.71 40.1 989.45 40.06C965.49 39.93 940.75 40.03 935.17 40.06C934.59 40.06 934.22 40.06 934.07 40.06C934.03 40.03 934 40.06 934 40.06C934 40.06 934.03 40.06 934.07 40.06C934.1 40.08 934.13 40.12 934.16 40.19C934.21 40.31 934.28 40.55 934.35 41C934.36 41.02 934.36 41.04 934.36 41.06C934.53 42.18 934.71 44.49 934.77 49.27C934.89 57.96 934.63 74.46 934.23 78.88C934.22 78.92 934.22 78.96 934.22 79C934.17 79.48 934.12 79.79 934.07 79.92C934.01 79.95 933.98 79.97 934 79.99C934.03 80.01 934.05 79.99 934.07 79.92C934.21 79.88 934.53 79.84 935.01 79.8C935.05 79.8 935.09 79.8 935.13 79.8ZM935.24 78.78Q936.32 78.71 938.22 78.64Q942.5 78.48 950.18 78.36Q966.93 78.12 987.38 78.21Q1014.16 78.33 1041.91 78.96Q1042.51 69.17 1042.81 59.52Q1043.1 50.68 1042.93 45.81Q1042.85 42.96 1042.61 41.59Q1042.55 41.29 1042.5 41.09Q1038.13 41.48 1010.53 41.23Q996.71 41.1 989.45 41.06L986.62 41.05L935.37 41.06Q935.7 43.35 935.77 49.25Q935.88 57.55 935.63 68.67Q935.52 73.88 935.36 76.89Q935.3 78.04 935.24 78.78ZM1042.74 41.07Q1042.96 41.12 1043.28 40.96Q1043.17 41.02 1042.74 41.07Z" fill="#E9E9E9" fill-opacity="1.000000" fill-rule="evenodd"/>
		<path id="Прямоугольник 5" d="M1153.01 40.06C1153.01 40.06 1181.24 39.91 1208.46 40.06C1235.02 40.21 1260.56 40.68 1261.85 40.06C1264.43 38.82 1261.85 79.99 1261.85 79.99C1261.85 79.99 1233.6 79.33 1206.38 79.21C1178.92 79.08 1152.49 79.48 1153.01 79.99C1153.53 80.49 1153.91 59.48 1153.78 49.27C1153.65 39.27 1153.01 40.06 1153.01 40.06Z" fill="#FFFFFF" fill-opacity="1.000000" fill-rule="evenodd"/>
		<path id="Прямоугольник 5" d="M1154.13 79.8C1159.42 79.39 1182.52 79.1 1206.38 79.21C1233.6 79.33 1261.85 79.99 1261.85 79.99C1261.85 79.99 1264.43 38.82 1261.85 40.06C1260.92 40.51 1247.17 40.39 1229.53 40.23C1222.9 40.17 1215.72 40.1 1208.46 40.06C1184.5 39.93 1159.75 40.03 1154.17 40.06C1153.6 40.06 1153.22 40.06 1153.07 40.06C1153.03 40.03 1153.01 40.06 1153.01 40.06C1153.01 40.06 1153.03 40.06 1153.07 40.06C1153.1 40.08 1153.13 40.12 1153.16 40.19C1153.22 40.31 1153.29 40.55 1153.36 41C1153.36 41.02 1153.36 41.04 1153.37 41.06C1153.54 42.18 1153.72 44.49 1153.78 49.27C1153.89 57.96 1153.63 74.46 1153.23 78.88C1153.23 78.92 1153.22 78.96 1153.22 79C1153.17 79.48 1153.13 79.79 1153.07 79.92C1153.01 79.95 1152.99 79.97 1153.01 79.99C1153.03 80.01 1153.05 79.99 1153.07 79.92C1153.22 79.88 1153.53 79.84 1154.02 79.8C1154.05 79.8 1154.09 79.8 1154.13 79.8ZM1154.24 78.78Q1155.31 78.71 1157.23 78.64Q1161.51 78.48 1169.18 78.36Q1185.93 78.12 1206.39 78.21Q1233.16 78.33 1260.91 78.96Q1261.51 69.17 1261.81 59.52Q1262.1 50.68 1261.93 45.81Q1261.85 42.96 1261.61 41.59Q1261.55 41.29 1261.5 41.09Q1257.13 41.48 1229.53 41.23Q1215.71 41.1 1208.44 41.06L1205.63 41.05L1154.38 41.06Q1154.69 43.35 1154.78 49.25Q1154.89 57.55 1154.64 68.67Q1154.52 73.88 1154.37 76.89Q1154.31 78.04 1154.24 78.78ZM1261.74 41.07Q1261.96 41.12 1262.28 40.96Q1262.17 41.02 1261.74 41.07Z" fill="#E9E9E9" fill-opacity="1.000000" fill-rule="evenodd"/>
		<path id="Прямоугольник 5" d="M1044.01 40.06C1044.01 40.06 1056.92 39.91 1084.06 40.06C1110.56 40.21 1151.31 40.68 1152.59 40.06C1153.9 39.43 1154.21 50.45 1153.88 60.68C1153.55 70.71 1152.59 79.94 1152.59 79.94C1152.59 79.94 1123.9 80.06 1096.74 79.94C1069.35 79.81 1043.49 79.44 1044.01 79.94C1044.53 80.44 1044.91 59.46 1044.78 49.26C1044.65 39.27 1044.01 40.06 1044.01 40.06Z" fill="#FFFFFF" fill-opacity="1.000000" fill-rule="evenodd"/>
		<path id="Прямоугольник 5" d="M1044.37 41.06C1044.54 42.17 1044.71 44.48 1044.78 49.26C1044.89 57.94 1044.63 74.44 1044.23 78.85C1044.23 78.88 1044.22 78.92 1044.22 78.96C1044.17 79.43 1044.13 79.75 1044.07 79.88C1044.01 79.9 1043.99 79.92 1044.01 79.94C1044.03 79.96 1044.05 79.94 1044.07 79.88C1044.21 79.85 1044.52 79.82 1045 79.79C1045.04 79.79 1045.07 79.79 1045.12 79.78C1048.68 79.61 1060.39 79.7 1075.04 79.8L1075.04 79.8C1081.81 79.85 1089.22 79.9 1096.74 79.94C1123.9 80.06 1152.59 79.94 1152.59 79.94C1152.59 79.94 1153.55 70.71 1153.88 60.68C1154.21 50.45 1153.9 39.43 1152.59 40.06C1151.57 40.55 1125.97 40.36 1102.18 40.19C1095.86 40.14 1089.65 40.09 1084.06 40.06C1061.61 39.94 1048.89 40.02 1045.17 40.05C1044.57 40.06 1044.22 40.06 1044.07 40.06C1044.03 40.03 1044.01 40.06 1044.01 40.06C1044.01 40.06 1044.03 40.06 1044.07 40.06C1044.1 40.08 1044.13 40.12 1044.16 40.19C1044.22 40.31 1044.29 40.55 1044.36 41C1044.36 41.02 1044.36 41.04 1044.37 41.06ZM1045.38 41.05Q1045.69 43.33 1045.78 49.24Q1045.88 57.53 1045.64 68.64Q1045.52 73.84 1045.37 76.84Q1045.3 78.02 1045.24 78.78Q1045.64 78.76 1046.15 78.75Q1048.27 78.69 1052.67 78.69Q1058.24 78.68 1075.05 78.8Q1089.23 78.9 1096.74 78.94L1100.89 78.96L1151.68 78.94Q1152.56 70.15 1152.88 60.65Q1153.15 52.29 1152.85 46.35Q1152.69 43.3 1152.41 41.77Q1152.32 41.34 1152.25 41.08Q1146.64 41.51 1102.18 41.19Q1089.64 41.09 1084.06 41.06Q1058.31 40.92 1045.38 41.05ZM1152.42 41.06Q1152.66 41.14 1153.03 40.96Q1152.92 41.02 1152.42 41.06Z" fill="#E9E9E9" fill-opacity="1.000000" fill-rule="evenodd"/>
		<path id="Прямоугольник 5" d="M1263.01 40.02C1263.01 40.02 1369.26 41.27 1371.85 40.02C1374.44 38.77 1371.85 79.98 1371.85 79.98C1371.85 79.98 1261.97 78.98 1263.01 79.98C1264.04 80.98 1263.01 40.02 1263.01 40.02Z" fill="#FFFFFF" fill-opacity="1.000000" fill-rule="evenodd"/>
		<path id="Прямоугольник 5" d="M1264.17 79.81C1275.92 79.11 1371.85 79.98 1371.85 79.98C1371.85 79.98 1374.44 38.77 1371.85 40.02C1369.4 41.2 1274.81 40.16 1264.01 40.03C1263.35 40.03 1263.01 40.02 1263.01 40.02C1263.01 40.02 1263.02 40.38 1263.03 41.02C1263.16 46.53 1263.77 73.07 1263.28 78.87C1263.28 78.92 1263.27 78.97 1263.27 79.01C1263.23 79.46 1263.18 79.77 1263.12 79.91C1263.02 79.93 1262.98 79.95 1263.01 79.98C1263.05 80.02 1263.07 79.99 1263.12 79.91C1263.27 79.87 1263.57 79.84 1264.03 79.81C1264.06 79.81 1264.12 79.81 1264.17 79.81ZM1264.29 78.8Q1265.39 78.74 1267.36 78.69Q1271.52 78.59 1279.56 78.56Q1293.11 78.49 1317.04 78.6Q1343.91 78.73 1370.91 78.97Q1371.51 69.15 1371.82 59.49Q1372.1 50.65 1371.94 45.77Q1371.85 42.92 1371.61 41.55Q1371.56 41.28 1371.51 41.08Q1362.78 42.19 1264.03 41.03Q1264.27 50.75 1264.4 60.36Q1264.51 69.22 1264.43 74.17Q1264.41 77.12 1264.3 78.62Q1264.3 78.71 1264.29 78.8ZM1371.83 41.04Q1372.02 41.05 1372.28 40.92Q1372.16 40.98 1371.83 41.04Z" fill="#E9E9E9" fill-opacity="1.000000" fill-rule="evenodd"/>
		<path id="Прямоугольник 5" d="M1372.01 40.06C1372.01 40.06 1400.24 39.91 1427.46 40.06C1454.02 40.21 1479.57 40.68 1480.85 40.06C1483.44 38.82 1480.85 79.99 1480.85 79.99C1480.85 79.99 1452.6 79.33 1425.38 79.21C1397.92 79.08 1371.49 79.48 1372.01 79.99C1372.53 80.49 1372.91 59.48 1372.78 49.27C1372.65 39.27 1372.01 40.06 1372.01 40.06Z" fill="#FFFFFF" fill-opacity="1.000000" fill-rule="evenodd"/>
		<path id="Прямоугольник 5" d="M1373.13 79.8C1378.42 79.39 1401.52 79.1 1425.38 79.21C1452.6 79.33 1480.85 79.99 1480.85 79.99C1480.85 79.99 1483.44 38.82 1480.85 40.06C1479.92 40.51 1466.17 40.39 1448.53 40.23C1441.9 40.17 1434.72 40.1 1427.46 40.06C1403.5 39.93 1378.75 40.03 1373.17 40.06C1372.6 40.06 1372.22 40.06 1372.08 40.06C1372.03 40.03 1372.01 40.06 1372.01 40.06C1372.01 40.06 1372.03 40.06 1372.08 40.06C1372.1 40.08 1372.13 40.12 1372.16 40.19C1372.22 40.31 1372.29 40.55 1372.36 41C1372.36 41.02 1372.36 41.04 1372.37 41.06C1372.54 42.18 1372.72 44.49 1372.78 49.27C1372.89 57.96 1372.63 74.46 1372.23 78.88C1372.23 78.92 1372.22 78.96 1372.22 79C1372.17 79.48 1372.13 79.79 1372.08 79.92C1372.01 79.95 1371.99 79.97 1372.01 79.99C1372.03 80.01 1372.05 79.99 1372.08 79.92C1372.22 79.88 1372.53 79.84 1373.02 79.8C1373.05 79.8 1373.09 79.8 1373.13 79.8ZM1373.24 78.78Q1374.32 78.71 1376.23 78.64Q1380.51 78.48 1388.19 78.36Q1404.93 78.12 1425.39 78.21Q1452.16 78.33 1479.91 78.96Q1480.51 69.17 1480.82 59.52Q1481.1 50.68 1480.94 45.81Q1480.85 42.96 1480.61 41.59Q1480.55 41.29 1480.5 41.09Q1476.13 41.48 1448.53 41.23Q1434.71 41.1 1427.45 41.06L1424.63 41.05L1373.38 41.06Q1373.7 43.35 1373.78 49.25Q1373.89 57.55 1373.64 68.67Q1373.52 73.88 1373.37 76.89Q1373.31 78.04 1373.24 78.78ZM1480.74 41.07Q1480.96 41.12 1481.28 40.96Q1481.17 41.02 1480.74 41.07Z" fill="#E9E9E9" fill-opacity="1.000000" fill-rule="evenodd"/>
		<path id="Прямоугольник 5" d="M-55 40.06C-55 40.06 -26.77 39.91 0.45 40.06C27.01 40.21 52.56 40.68 53.84 40.06C56.43 38.82 53.84 79.99 53.84 79.99C53.84 79.99 25.6 79.33 -1.62 79.21C-29.08 79.08 -55.52 79.48 -55 79.99C-54.47 80.49 -54.09 59.48 -54.23 49.27C-54.36 39.27 -55 40.06 -55 40.06Z" fill="#FFFFFF" fill-opacity="1.000000" fill-rule="evenodd"/>
		<path id="Прямоугольник 5" d="M-53.87 79.8C-48.58 79.39 -25.49 79.1 -1.62 79.21C25.6 79.33 53.84 79.99 53.84 79.99C53.84 79.99 56.43 38.82 53.84 40.06C52.91 40.51 39.17 40.39 21.53 40.23C14.9 40.17 7.71 40.1 0.45 40.06C-23.51 39.93 -48.25 40.03 -53.83 40.06C-54.41 40.06 -54.78 40.06 -54.93 40.06C-54.97 40.03 -55 40.06 -55 40.06C-55 40.06 -54.97 40.06 -54.93 40.06C-54.9 40.08 -54.88 40.12 -54.84 40.19C-54.79 40.31 -54.72 40.55 -54.65 41C-54.64 41.02 -54.64 41.04 -54.64 41.06C-54.47 42.18 -54.29 44.49 -54.23 49.27C-54.11 57.96 -54.37 74.46 -54.77 78.88C-54.78 78.92 -54.78 78.96 -54.79 79C-54.83 79.48 -54.88 79.79 -54.93 79.92C-54.99 79.95 -55.02 79.97 -55 79.99C-54.97 80.01 -54.95 79.99 -54.93 79.92C-54.79 79.88 -54.47 79.84 -53.99 79.8C-53.95 79.8 -53.91 79.8 -53.87 79.8ZM-53.76 78.78Q-52.68 78.71 -50.78 78.64Q-46.5 78.48 -38.82 78.36Q-22.07 78.12 -1.62 78.21Q25.15 78.33 52.9 78.96Q53.51 69.17 53.82 59.52Q54.1 50.68 53.94 45.81Q53.84 42.96 53.6 41.59Q53.55 41.29 53.5 41.09Q49.12 41.48 21.52 41.23Q7.7 41.1 0.45 41.06L-2.38 41.05L-53.63 41.06Q-53.3 43.35 -53.23 49.25Q-53.12 57.55 -53.37 68.67Q-53.48 73.88 -53.64 76.89Q-53.7 78.04 -53.76 78.78ZM53.73 41.07Q53.96 41.12 54.28 40.96Q54.16 41.02 53.73 41.07Z" fill="#E9E9E9" fill-opacity="1.000000" fill-rule="evenodd"/>
		<path id="Прямоугольник 5" d="M1426.99 39.93C1426.99 39.93 1398.76 40.08 1371.54 39.93C1344.98 39.78 1319.43 39.31 1318.15 39.93C1315.56 41.17 1318.15 0 1318.15 0C1318.15 0 1346.4 0.65 1373.62 0.78C1401.08 0.91 1427.51 0.5 1426.99 0C1426.47 -0.5 1426.99 20.27 1426.99 30.49C1426.99 40.5 1426.99 39.93 1426.99 39.93Z" fill="#FFFFFF" fill-opacity="1.000000" fill-rule="evenodd"/>
		<path id="Прямоугольник 5" d="M1425.89 0.19C1420.63 0.6 1397.51 0.89 1373.62 0.78C1346.4 0.65 1318.15 0 1318.15 0C1318.15 0 1315.56 41.17 1318.15 39.93C1319.08 39.48 1332.83 39.6 1350.47 39.76C1357.1 39.82 1364.28 39.88 1371.54 39.93C1395.74 40.06 1420.75 39.96 1425.99 39.93C1426.65 39.93 1426.99 39.93 1426.99 39.93L1426.99 39.93L1426.99 39.93L1426.99 39.93C1426.99 39.89 1426.99 39.72 1426.99 38.93C1426.99 37.8 1426.99 35.44 1426.99 30.49C1426.99 27.08 1426.93 22.49 1426.88 17.9C1426.79 10.82 1426.7 3.76 1426.82 1.1C1426.82 1.07 1426.82 1.05 1426.83 1.02C1426.85 0.53 1426.88 0.2 1426.93 0.06C1426.99 0.04 1427.01 0.02 1426.99 0C1426.97 -0.02 1426.95 0 1426.93 0.06C1426.79 0.1 1426.47 0.15 1425.98 0.18C1425.95 0.19 1425.92 0.19 1425.89 0.19ZM1425.82 1.2Q1424.73 1.28 1422.77 1.35Q1418.49 1.51 1410.81 1.63Q1394.07 1.87 1373.61 1.78Q1346.82 1.66 1319.03 1.02Q1318.68 4.72 1318.18 20.46Q1317.9 29.3 1318.06 34.18Q1318.15 37.03 1318.39 38.4Q1318.45 38.7 1318.5 38.9Q1322.87 38.51 1350.47 38.76Q1364.29 38.88 1371.55 38.93L1374.37 38.94L1425.99 38.93L1425.99 30.49Q1425.99 27.09 1425.88 17.92Q1425.76 8.78 1425.76 5.4Q1425.76 2.68 1425.81 1.34Q1425.81 1.27 1425.82 1.2ZM1318.26 38.92Q1318.04 38.87 1317.72 39.02Q1317.83 38.97 1318.26 38.92Z" fill="#E9E9E9" fill-opacity="1.000000" fill-rule="evenodd"/>
		<path id="Прямоугольник 5" d="M1207.99 39.93C1207.99 39.93 1179.76 40.08 1152.54 39.93C1125.98 39.78 1100.43 39.31 1099.15 39.93C1096.56 41.17 1099.15 0 1099.15 0C1099.15 0 1127.4 0.65 1154.62 0.78C1182.07 0.91 1208.51 0.5 1207.99 0C1207.47 -0.5 1207.09 20.51 1207.22 30.72C1207.35 40.72 1207.99 39.93 1207.99 39.93Z" fill="#FFFFFF" fill-opacity="1.000000" fill-rule="evenodd"/>
		<path id="Прямоугольник 5" d="M1206.87 0.19C1201.57 0.6 1178.48 0.89 1154.62 0.78C1127.4 0.65 1099.15 0 1099.15 0C1099.15 0 1096.56 41.17 1099.15 39.93C1100.07 39.48 1113.82 39.6 1131.47 39.76C1138.1 39.82 1145.28 39.89 1152.54 39.93C1176.5 40.06 1201.25 39.96 1206.82 39.93C1207.4 39.93 1207.78 39.93 1207.92 39.93C1207.97 39.96 1207.99 39.93 1207.99 39.93C1207.99 39.93 1207.97 39.93 1207.92 39.93C1207.9 39.91 1207.87 39.87 1207.84 39.8C1207.78 39.68 1207.71 39.44 1207.64 38.99C1207.64 38.97 1207.64 38.95 1207.63 38.93C1207.46 37.81 1207.28 35.5 1207.22 30.72C1207.11 22.03 1207.37 5.53 1207.77 1.11C1207.77 1.07 1207.78 1.03 1207.78 0.99C1207.82 0.51 1207.87 0.2 1207.92 0.06C1207.99 0.04 1208.01 0.02 1207.99 0C1207.97 -0.02 1207.94 0 1207.92 0.06C1207.78 0.11 1207.47 0.15 1206.98 0.19C1206.94 0.19 1206.91 0.19 1206.87 0.19ZM1206.76 1.21Q1205.68 1.28 1203.77 1.35Q1199.49 1.51 1191.81 1.63Q1175.06 1.87 1154.61 1.78Q1127.84 1.66 1100.09 1.03Q1099.49 10.82 1099.18 20.47Q1098.9 29.31 1099.06 34.18Q1099.15 37.03 1099.39 38.4Q1099.44 38.7 1099.5 38.9Q1103.87 38.51 1131.47 38.76Q1145.29 38.89 1152.55 38.93L1155.37 38.94L1206.62 38.93Q1206.3 36.63 1206.22 30.74Q1206.11 22.44 1206.36 11.32Q1206.48 6.11 1206.63 3.1Q1206.68 1.95 1206.76 1.21ZM1099.26 38.92Q1099.04 38.87 1098.72 39.03Q1098.82 38.97 1099.26 38.92Z" fill="#E9E9E9" fill-opacity="1.000000" fill-rule="evenodd"/>
		<path id="Прямоугольник 5" d="M1316.99 39.93C1316.99 39.93 1304.07 40.08 1276.93 39.93C1250.43 39.78 1209.68 39.31 1208.41 39.93C1207.1 40.56 1206.79 29.54 1207.12 19.31C1207.44 9.28 1208.41 0.05 1208.41 0.05C1208.41 0.05 1237.1 -0.07 1264.26 0.05C1291.65 0.18 1317.51 0.55 1316.99 0.05C1316.47 -0.45 1316.09 20.53 1316.22 30.73C1316.35 40.72 1316.99 39.93 1316.99 39.93Z" fill="#FFFFFF" fill-opacity="1.000000" fill-rule="evenodd"/>
		<path id="Прямоугольник 5" d="M1316.63 38.93C1316.46 37.82 1316.29 35.51 1316.22 30.73C1316.11 22.05 1316.37 5.55 1316.77 1.14C1316.77 1.11 1316.78 1.07 1316.78 1.03C1316.83 0.56 1316.87 0.24 1316.92 0.11C1316.99 0.09 1317.01 0.07 1316.99 0.05C1316.97 0.03 1316.95 0.05 1316.92 0.11C1316.79 0.14 1316.48 0.17 1316 0.2C1315.96 0.2 1315.92 0.2 1315.88 0.21C1312.31 0.38 1300.61 0.29 1285.96 0.19L1285.96 0.19C1279.18 0.14 1271.78 0.08 1264.26 0.05C1237.1 -0.07 1208.41 0.05 1208.41 0.05C1208.41 0.05 1207.44 9.28 1207.12 19.31C1206.79 29.54 1207.1 40.56 1208.41 39.93C1209.42 39.44 1235.03 39.63 1258.81 39.8C1265.14 39.85 1271.35 39.89 1276.93 39.93C1299.39 40.05 1312.11 39.97 1315.83 39.94C1316.42 39.93 1316.78 39.93 1316.92 39.93C1316.97 39.96 1316.99 39.93 1316.99 39.93C1316.99 39.93 1316.97 39.93 1316.92 39.93C1316.9 39.91 1316.87 39.87 1316.84 39.8C1316.78 39.68 1316.71 39.44 1316.64 38.99C1316.64 38.97 1316.64 38.95 1316.63 38.93ZM1315.62 38.94Q1315.3 36.66 1315.22 30.75Q1315.12 22.46 1315.36 11.35Q1315.48 6.15 1315.63 3.15Q1315.7 1.97 1315.76 1.21Q1315.36 1.23 1314.85 1.24Q1312.73 1.3 1308.32 1.3Q1302.76 1.31 1285.94 1.19Q1271.77 1.08 1264.26 1.05L1260.11 1.03L1209.31 1.05Q1208.43 9.84 1208.12 19.34Q1207.85 27.7 1208.15 33.64Q1208.3 36.69 1208.59 38.22Q1208.67 38.65 1208.75 38.91Q1214.36 38.48 1258.81 38.8Q1271.36 38.89 1276.93 38.93Q1302.68 39.07 1315.62 38.94ZM1208.57 38.93Q1208.34 38.85 1207.97 39.03Q1208.07 38.97 1208.57 38.93Z" fill="#E9E9E9" fill-opacity="1.000000" fill-rule="evenodd"/>
		<path id="Прямоугольник 5" d="M1097.99 39.97C1097.99 39.97 991.74 38.72 989.15 39.97C986.56 41.22 989.15 0.01 989.15 0.01C989.15 0.01 1099.03 1.01 1097.99 0.01C1096.96 -0.99 1097.99 39.97 1097.99 39.97Z" fill="#FFFFFF" fill-opacity="1.000000" fill-rule="evenodd"/>
		<path id="Прямоугольник 5" d="M1096.82 0.18C1085.07 0.88 989.15 0.01 989.15 0.01C989.15 0.01 986.56 41.22 989.15 39.97C991.59 38.79 1086.18 39.83 1096.99 39.96C1097.65 39.96 1097.99 39.97 1097.99 39.97C1097.99 39.97 1097.98 39.61 1097.97 38.97C1097.84 33.46 1097.23 6.92 1097.72 1.12C1097.72 1.07 1097.73 1.02 1097.73 0.98C1097.77 0.53 1097.81 0.22 1097.88 0.08C1097.98 0.06 1098.02 0.04 1097.99 0.01C1097.94 -0.03 1097.92 0 1097.88 0.08C1097.73 0.11 1097.42 0.15 1096.97 0.18C1096.93 0.18 1096.88 0.18 1096.82 0.18ZM1096.71 1.19Q1095.61 1.25 1093.64 1.3Q1089.48 1.4 1081.43 1.43Q1067.89 1.5 1043.96 1.39Q1017.09 1.26 990.09 1.02Q989.48 10.84 989.17 20.5Q988.89 29.34 989.05 34.22Q989.15 37.07 989.39 38.44Q989.44 38.71 989.49 38.91Q998.22 37.8 1096.97 38.95Q1096.73 29.24 1096.6 19.63Q1096.49 10.77 1096.56 5.82Q1096.59 2.86 1096.69 1.37Q1096.69 1.28 1096.71 1.19ZM989.17 38.95Q988.97 38.94 988.71 39.07Q988.84 39.01 989.17 38.95Z" fill="#E9E9E9" fill-opacity="1.000000" fill-rule="evenodd"/>
		<path id="Прямоугольник 5" d="M987.99 39.93C987.99 39.93 959.76 40.08 932.54 39.93C905.98 39.78 880.43 39.31 879.15 39.93C876.56 41.17 879.15 0 879.15 0C879.15 0 907.39 0.65 934.61 0.78C962.07 0.91 988.51 0.5 987.99 0C987.46 -0.5 987.08 20.51 987.22 30.72C987.35 40.72 987.99 39.93 987.99 39.93Z" fill="#FFFFFF" fill-opacity="1.000000" fill-rule="evenodd"/>
		<path id="Прямоугольник 5" d="M986.87 0.19C981.57 0.6 958.48 0.89 934.61 0.78C907.39 0.65 879.15 0 879.15 0C879.15 0 876.56 41.17 879.15 39.93C880.08 39.48 893.82 39.6 911.46 39.76C918.09 39.82 925.28 39.89 932.54 39.93C956.5 40.06 981.24 39.96 986.82 39.93C987.4 39.93 987.77 39.93 987.92 39.93C987.96 39.96 987.99 39.93 987.99 39.93C987.99 39.93 987.96 39.93 987.92 39.93C987.89 39.91 987.87 39.87 987.83 39.8C987.78 39.68 987.71 39.44 987.64 38.99C987.64 38.97 987.63 38.95 987.63 38.93C987.46 37.81 987.28 35.5 987.22 30.72C987.1 22.03 987.36 5.53 987.76 1.11C987.77 1.07 987.77 1.03 987.78 0.99C987.82 0.51 987.87 0.2 987.92 0.06C987.99 0.04 988.01 0.02 987.99 0C987.96 -0.02 987.94 0 987.92 0.06C987.78 0.11 987.46 0.15 986.98 0.19C986.94 0.19 986.9 0.19 986.87 0.19ZM986.75 1.21Q985.67 1.28 983.77 1.35Q979.49 1.51 971.81 1.63Q955.06 1.87 934.61 1.78Q907.84 1.66 880.09 1.03Q879.48 10.82 879.17 20.47Q878.89 29.31 879.05 34.18Q879.15 37.03 879.39 38.4Q879.44 38.7 879.49 38.9Q883.87 38.51 911.47 38.76Q925.29 38.89 932.54 38.93L935.37 38.94L986.62 38.93Q986.3 36.63 986.22 30.74Q986.11 22.44 986.36 11.32Q986.47 6.11 986.63 3.1Q986.69 1.95 986.75 1.21ZM879.26 38.92Q879.03 38.87 878.71 39.03Q878.83 38.97 879.26 38.92Z" fill="#E9E9E9" fill-opacity="1.000000" fill-rule="evenodd"/>
		<path id="Прямоугольник 5" d="M877.99 39.93C877.99 39.93 865.08 40.08 837.92 39.93C811.42 39.78 770.68 39.31 769.4 39.93C768.1 40.56 767.79 29.54 768.12 19.31C768.44 9.28 769.4 0.05 769.4 0.05C769.4 0.05 798.1 -0.07 825.25 0.05C852.65 0.18 878.51 0.55 877.99 0.05C877.47 -0.45 877.09 20.53 877.22 30.73C877.35 40.72 877.99 39.93 877.99 39.93Z" fill="#FFFFFF" fill-opacity="1.000000" fill-rule="evenodd"/>
		<path id="Прямоугольник 5" d="M877.63 38.93C877.46 37.82 877.28 35.51 877.22 30.73C877.11 22.05 877.36 5.55 877.77 1.14C877.77 1.11 877.77 1.07 877.78 1.03C877.82 0.56 877.87 0.24 877.92 0.11C877.99 0.09 878.01 0.07 877.99 0.05C877.96 0.03 877.94 0.05 877.92 0.11C877.78 0.14 877.47 0.17 877 0.2C876.96 0.2 876.92 0.2 876.87 0.21C873.3 0.38 861.6 0.29 846.96 0.19L846.96 0.19C840.18 0.14 832.78 0.08 825.25 0.05C798.1 -0.07 769.4 0.05 769.4 0.05C769.4 0.05 768.44 9.28 768.12 19.31C767.79 29.54 768.1 40.56 769.4 39.93C770.41 39.44 796.02 39.63 819.8 39.8C826.14 39.85 832.35 39.89 837.92 39.93C860.39 40.05 873.1 39.97 876.83 39.94C877.41 39.93 877.77 39.93 877.92 39.93C877.96 39.96 877.99 39.93 877.99 39.93C877.99 39.93 877.96 39.93 877.92 39.93C877.89 39.91 877.87 39.87 877.83 39.8C877.78 39.68 877.71 39.44 877.64 38.99C877.64 38.97 877.63 38.95 877.63 38.93ZM876.62 38.94Q876.3 36.66 876.22 30.75Q876.11 22.46 876.36 11.35Q876.47 6.15 876.63 3.15Q876.69 1.97 876.76 1.21Q876.36 1.23 875.84 1.24Q873.72 1.3 869.33 1.3Q863.76 1.31 846.95 1.19Q832.77 1.08 825.25 1.05L821.11 1.03L770.31 1.05Q769.43 9.84 769.12 19.34Q768.85 27.7 769.15 33.64Q769.3 36.69 769.59 38.22Q769.67 38.65 769.75 38.91Q775.35 38.48 819.81 38.8Q832.35 38.89 837.93 38.93Q863.69 39.07 876.62 38.94ZM769.58 38.93Q769.34 38.85 768.97 39.03Q769.08 38.97 769.58 38.93Z" fill="#E9E9E9" fill-opacity="1.000000" fill-rule="evenodd"/>
		<path id="Прямоугольник 5" d="M658 0.3C658 0.3 662.33 1.21 689.47 0.3C716.97 -0.63 765.31 0.91 766.59 0.3C767.89 -0.33 768.2 10.63 767.87 20.79C767.55 30.76 767.87 39.94 767.87 39.94C767.87 39.94 737.89 40.06 710.74 39.94C683.34 39.81 657.48 39.44 658 39.94C658.53 40.44 658.9 19.58 658.77 9.44C658.64 -0.49 658 0.3 658 0.3Z" fill="#FFFFFF" fill-opacity="1.000000" fill-rule="evenodd"/>
		<path id="Прямоугольник 5" d="M658.37 1.38C658.54 2.52 658.71 4.81 658.77 9.44C658.89 18.07 658.63 34.46 658.23 38.85C658.22 38.88 658.22 38.92 658.22 38.96C658.17 39.43 658.12 39.75 658.07 39.88C658.01 39.9 657.98 39.92 658 39.94C658.03 39.96 658.05 39.94 658.07 39.88C658.21 39.85 658.52 39.82 658.99 39.79C659.03 39.79 659.08 39.79 659.12 39.79C662.69 39.61 674.39 39.7 689.03 39.8C695.81 39.85 703.21 39.91 710.74 39.94C734.97 40.05 761.45 39.96 766.87 39.94C767.53 39.94 767.87 39.94 767.87 39.94C767.87 39.94 767.86 39.58 767.84 38.94C767.77 36.3 767.61 28.8 767.87 20.79C768.2 10.63 767.89 -0.33 766.59 0.3C766.06 0.55 757.58 0.44 745.86 0.28C729.08 0.06 705.66 -0.25 689.47 0.3C669.39 0.98 661.8 0.65 659.21 0.44C658.57 0.38 658.23 0.34 658.09 0.31C658.04 0.26 658 0.3 658 0.3C658 0.3 658.03 0.31 658.09 0.31C658.11 0.34 658.13 0.37 658.16 0.42C658.21 0.55 658.28 0.79 658.35 1.23C658.36 1.28 658.37 1.33 658.37 1.38ZM659.4 1.5Q659.7 3.82 659.77 9.43Q659.88 17.66 659.63 28.7Q659.52 33.87 659.36 36.86Q659.3 38.03 659.24 38.78Q659.63 38.76 660.15 38.75Q662.27 38.69 666.66 38.69Q672.24 38.68 689.04 38.8Q703.21 38.9 710.74 38.94L717.79 38.97L766.84 38.94Q766.56 30.2 766.87 20.76Q767.14 12.45 766.85 6.55Q766.69 3.52 766.4 1.99Q766.32 1.56 766.24 1.3Q762.91 1.51 745.85 1.28Q705.67 0.75 689.5 1.3Q665.9 2.09 659.4 1.5ZM766.4 1.29Q766.64 1.38 767.02 1.2Q766.91 1.25 766.4 1.29Z" fill="#E9E9E9" fill-opacity="1.000000" fill-rule="evenodd"/>
		<path id="Прямоугольник 5" d="M657.99 39.97C657.99 39.97 551.74 38.72 549.15 39.97C546.56 41.22 549.15 0.01 549.15 0.01C549.15 0.01 659.02 1.01 657.99 0.01C656.95 -0.99 657.99 39.97 657.99 39.97Z" fill="#FFFFFF" fill-opacity="1.000000" fill-rule="evenodd"/>
		<path id="Прямоугольник 5" d="M656.82 0.18C645.07 0.88 549.15 0.01 549.15 0.01C549.15 0.01 546.56 41.22 549.15 39.97C551.59 38.79 646.19 39.83 656.99 39.96C657.64 39.96 657.99 39.97 657.99 39.97C657.99 39.97 657.98 39.61 657.96 38.97C657.83 33.46 657.23 6.92 657.72 1.12C657.72 1.07 657.72 1.02 657.73 0.98C657.77 0.53 657.82 0.22 657.88 0.08C657.97 0.06 658.01 0.04 657.99 0.01C657.95 -0.03 657.91 0 657.88 0.08C657.72 0.11 657.41 0.15 656.97 0.18C656.92 0.18 656.87 0.18 656.82 0.18ZM656.71 1.19Q655.6 1.25 653.63 1.3Q649.47 1.4 641.42 1.43Q627.88 1.5 603.95 1.39Q577.08 1.26 550.09 1.02Q549.48 10.84 549.17 20.5Q548.89 29.34 549.05 34.22Q549.15 37.07 549.39 38.44Q549.44 38.71 549.49 38.91Q558.22 37.8 656.96 38.95Q656.72 29.24 656.6 19.63Q656.49 10.77 656.55 5.82Q656.59 2.86 656.69 1.37Q656.7 1.28 656.71 1.19ZM549.17 38.95Q548.97 38.94 548.71 39.07Q548.84 39.01 549.17 38.95Z" fill="#E9E9E9" fill-opacity="1.000000" fill-rule="evenodd"/>
		<path id="Прямоугольник 5" d="M547.99 39.93C547.99 39.93 519.76 40.08 492.54 39.93C465.98 39.78 440.43 39.31 439.15 39.93C436.56 41.17 439.15 0 439.15 0C439.15 0 467.39 0.65 494.61 0.78C522.07 0.91 548.51 0.5 547.99 0C547.46 -0.5 547.08 20.51 547.22 30.72C547.35 40.72 547.99 39.93 547.99 39.93Z" fill="#FFFFFF" fill-opacity="1.000000" fill-rule="evenodd"/>
		<path id="Прямоугольник 5" d="M546.87 0.19C541.57 0.6 518.48 0.89 494.61 0.78C467.39 0.65 439.15 0 439.15 0C439.15 0 436.56 41.17 439.15 39.93C440.08 39.48 453.82 39.6 471.46 39.76C478.09 39.82 485.28 39.89 492.54 39.93C516.5 40.06 541.24 39.96 546.82 39.93C547.4 39.93 547.77 39.93 547.92 39.93C547.96 39.96 547.99 39.93 547.99 39.93C547.99 39.93 547.96 39.93 547.92 39.93C547.89 39.91 547.87 39.87 547.83 39.8C547.78 39.68 547.71 39.44 547.64 38.99C547.64 38.97 547.63 38.95 547.63 38.93C547.46 37.81 547.28 35.5 547.22 30.72C547.1 22.03 547.36 5.53 547.76 1.11C547.77 1.07 547.77 1.03 547.78 0.99C547.82 0.51 547.87 0.2 547.92 0.06C547.99 0.04 548.01 0.02 547.99 0C547.96 -0.02 547.94 0 547.92 0.06C547.78 0.11 547.46 0.15 546.98 0.19C546.94 0.19 546.9 0.19 546.87 0.19ZM546.75 1.21Q545.67 1.28 543.77 1.35Q539.49 1.51 531.81 1.63Q515.06 1.87 494.61 1.78Q467.84 1.66 440.09 1.03Q439.48 10.82 439.17 20.47Q438.89 29.31 439.05 34.18Q439.15 37.03 439.39 38.4Q439.44 38.7 439.49 38.9Q443.87 38.51 471.47 38.76Q485.29 38.89 492.54 38.93L495.37 38.94L546.62 38.93Q546.3 36.63 546.22 30.74Q546.11 22.44 546.36 11.32Q546.47 6.11 546.63 3.1Q546.69 1.95 546.75 1.21ZM439.26 38.92Q439.03 38.87 438.71 39.03Q438.83 38.97 439.26 38.92Z" fill="#E9E9E9" fill-opacity="1.000000" fill-rule="evenodd"/>
		<path id="Прямоугольник 5" d="M328.99 39.93C328.99 39.93 300.76 40.08 273.54 39.93C246.98 39.78 221.43 39.31 220.15 39.93C217.56 41.17 220.15 0 220.15 0C220.15 0 248.39 0.65 275.61 0.78C303.07 0.91 329.51 0.5 328.99 0C328.46 -0.5 328.08 20.51 328.22 30.72C328.35 40.72 328.99 39.93 328.99 39.93Z" fill="#FFFFFF" fill-opacity="1.000000" fill-rule="evenodd"/>
		<path id="Прямоугольник 5" d="M327.87 0.19C322.57 0.6 299.48 0.89 275.61 0.78C248.39 0.65 220.15 0 220.15 0C220.15 0 217.56 41.17 220.15 39.93C221.08 39.48 234.82 39.6 252.46 39.76C259.09 39.82 266.28 39.89 273.54 39.93C297.5 40.06 322.24 39.96 327.82 39.93C328.4 39.93 328.77 39.93 328.92 39.93C328.96 39.96 328.99 39.93 328.99 39.93C328.99 39.93 328.96 39.93 328.92 39.93C328.89 39.91 328.87 39.87 328.83 39.8C328.78 39.68 328.71 39.44 328.64 38.99C328.64 38.97 328.63 38.95 328.63 38.93C328.46 37.81 328.28 35.5 328.22 30.72C328.1 22.03 328.36 5.53 328.76 1.11C328.77 1.07 328.77 1.03 328.78 0.99C328.82 0.51 328.87 0.2 328.92 0.06C328.99 0.04 329.01 0.02 328.99 0C328.96 -0.02 328.94 0 328.92 0.06C328.78 0.11 328.46 0.15 327.98 0.19C327.94 0.19 327.9 0.19 327.87 0.19ZM327.75 1.21Q326.67 1.28 324.77 1.35Q320.49 1.51 312.81 1.63Q296.06 1.87 275.61 1.78Q248.84 1.66 221.09 1.03Q220.48 10.82 220.17 20.47Q219.89 29.31 220.05 34.18Q220.15 37.03 220.39 38.4Q220.44 38.7 220.49 38.9Q224.87 38.51 252.47 38.76Q266.29 38.89 273.54 38.93L276.37 38.94L327.62 38.93Q327.29 36.63 327.22 30.74Q327.11 22.44 327.36 11.32Q327.47 6.11 327.63 3.1Q327.69 1.95 327.75 1.21ZM220.26 38.92Q220.03 38.87 219.71 39.03Q219.83 38.97 220.26 38.92Z" fill="#E9E9E9" fill-opacity="1.000000" fill-rule="evenodd"/>
		<path id="Прямоугольник 5" d="M437.99 39.93C437.99 39.93 425.08 40.08 397.92 39.93C371.42 39.78 330.68 39.31 329.4 39.93C328.1 40.56 327.79 29.54 328.12 19.31C328.44 9.28 329.4 0.05 329.4 0.05C329.4 0.05 358.1 -0.07 385.25 0.05C412.65 0.18 438.51 0.55 437.99 0.05C437.47 -0.45 437.09 20.53 437.22 30.73C437.35 40.72 437.99 39.93 437.99 39.93Z" fill="#FFFFFF" fill-opacity="1.000000" fill-rule="evenodd"/>
		<path id="Прямоугольник 5" d="M437.63 38.93C437.46 37.82 437.28 35.51 437.22 30.73C437.11 22.05 437.36 5.55 437.77 1.14C437.77 1.11 437.77 1.07 437.78 1.03C437.82 0.56 437.87 0.24 437.92 0.11C437.99 0.09 438.01 0.07 437.99 0.05C437.96 0.03 437.94 0.05 437.92 0.11C437.78 0.14 437.47 0.17 437 0.2C436.96 0.2 436.92 0.2 436.87 0.21C433.3 0.38 421.6 0.29 406.96 0.19L406.96 0.19C400.18 0.14 392.78 0.08 385.25 0.05C358.1 -0.07 329.4 0.05 329.4 0.05C329.4 0.05 328.44 9.28 328.12 19.31C327.79 29.54 328.1 40.56 329.4 39.93C330.41 39.44 356.02 39.63 379.8 39.8C386.14 39.85 392.35 39.89 397.92 39.93C420.39 40.05 433.1 39.97 436.83 39.94C437.41 39.93 437.77 39.93 437.92 39.93C437.96 39.96 437.99 39.93 437.99 39.93C437.99 39.93 437.96 39.93 437.92 39.93C437.89 39.91 437.87 39.87 437.83 39.8C437.78 39.68 437.71 39.44 437.64 38.99C437.64 38.97 437.63 38.95 437.63 38.93ZM436.62 38.94Q436.3 36.66 436.22 30.75Q436.11 22.46 436.36 11.35Q436.47 6.15 436.63 3.15Q436.69 1.97 436.76 1.21Q436.36 1.23 435.84 1.24Q433.72 1.3 429.33 1.3Q423.76 1.31 406.95 1.19Q392.77 1.08 385.25 1.05L381.11 1.03L330.31 1.05Q329.43 9.84 329.12 19.34Q328.85 27.7 329.15 33.64Q329.3 36.69 329.59 38.22Q329.67 38.65 329.75 38.91Q335.35 38.48 379.81 38.8Q392.35 38.89 397.93 38.93Q423.69 39.07 436.62 38.94ZM329.58 38.93Q329.34 38.85 328.97 39.03Q329.08 38.97 329.58 38.93Z" fill="#E9E9E9" fill-opacity="1.000000" fill-rule="evenodd"/>
		<path id="Прямоугольник 5" d="M218.99 39.97C218.99 39.97 112.74 38.72 110.15 39.97C107.56 41.22 110.15 0.01 110.15 0.01C110.15 0.01 220.02 1.01 218.99 0.01C217.95 -0.99 218.99 39.97 218.99 39.97Z" fill="#FFFFFF" fill-opacity="1.000000" fill-rule="evenodd"/>
		<path id="Прямоугольник 5" d="M217.82 0.18C206.07 0.88 110.15 0.01 110.15 0.01C110.15 0.01 107.56 41.22 110.15 39.97C112.59 38.79 207.19 39.83 217.99 39.96C218.64 39.96 218.99 39.97 218.99 39.97C218.99 39.97 218.98 39.61 218.96 38.97C218.83 33.46 218.23 6.92 218.72 1.12C218.72 1.07 218.72 1.02 218.73 0.98C218.77 0.53 218.82 0.22 218.88 0.08C218.97 0.06 219.01 0.04 218.99 0.01C218.95 -0.03 218.91 0 218.88 0.08C218.72 0.11 218.41 0.15 217.97 0.18C217.92 0.18 217.87 0.18 217.82 0.18ZM217.71 1.19Q216.6 1.25 214.63 1.3Q210.47 1.4 202.42 1.43Q188.88 1.5 164.95 1.39Q138.08 1.26 111.09 1.02Q110.48 10.84 110.17 20.5Q109.89 29.34 110.05 34.22Q110.15 37.07 110.39 38.44Q110.44 38.71 110.49 38.91Q119.22 37.8 217.96 38.95Q217.72 29.24 217.6 19.63Q217.49 10.77 217.55 5.82Q217.59 2.86 217.69 1.37Q217.7 1.28 217.71 1.19ZM110.17 38.95Q109.97 38.94 109.71 39.07Q109.84 39.01 110.17 38.95Z" fill="#E9E9E9" fill-opacity="1.000000" fill-rule="evenodd"/>
		<path id="Прямоугольник 5" d="M109.99 39.93C109.99 39.93 81.76 40.08 54.54 39.93C27.98 39.78 2.43 39.31 1.15 39.93C-1.44 41.17 1.15 0 1.15 0C1.15 0 29.39 0.65 56.61 0.78C84.07 0.91 110.51 0.5 109.99 0C109.46 -0.5 109.08 20.51 109.22 30.72C109.35 40.72 109.99 39.93 109.99 39.93Z" fill="#FFFFFF" fill-opacity="1.000000" fill-rule="evenodd"/>
		<path id="Прямоугольник 5" d="M108.87 0.19C103.57 0.6 80.48 0.89 56.61 0.78C29.39 0.65 1.15 0 1.15 0C1.15 0 -1.44 41.17 1.15 39.93C2.08 39.48 15.82 39.6 33.46 39.76C40.09 39.82 47.28 39.89 54.54 39.93C78.5 40.06 103.24 39.96 108.82 39.93C109.4 39.93 109.77 39.93 109.92 39.93C109.96 39.96 109.99 39.93 109.99 39.93C109.99 39.93 109.96 39.93 109.92 39.93C109.89 39.91 109.87 39.87 109.83 39.8C109.78 39.68 109.71 39.44 109.64 38.99C109.64 38.97 109.63 38.95 109.63 38.93C109.46 37.81 109.28 35.5 109.22 30.72C109.1 22.03 109.36 5.53 109.76 1.11C109.77 1.07 109.77 1.03 109.78 0.99C109.82 0.51 109.87 0.2 109.92 0.06C109.99 0.04 110.01 0.02 109.99 0C109.96 -0.02 109.94 0 109.92 0.06C109.78 0.11 109.46 0.15 108.98 0.19C108.94 0.19 108.9 0.19 108.87 0.19ZM108.75 1.21Q107.67 1.28 105.77 1.35Q101.49 1.51 93.81 1.63Q77.06 1.87 56.61 1.78Q29.84 1.66 2.09 1.03Q1.48 10.82 1.17 20.47Q0.89 29.31 1.05 34.18Q1.15 37.03 1.39 38.4Q1.44 38.7 1.49 38.9Q5.87 38.51 33.47 38.76Q47.29 38.89 54.54 38.93L57.37 38.94L108.62 38.93Q108.3 36.63 108.22 30.74Q108.11 22.44 108.36 11.32Q108.47 6.11 108.63 3.1Q108.69 1.95 108.75 1.21ZM1.26 38.92Q1.03 38.87 0.71 39.03Q0.83 38.97 1.26 38.92Z" fill="#E9E9E9" fill-opacity="1.000000" fill-rule="evenodd"/>
	</g>
</svg>
