<svg width="236.000000" height="136.000000" viewBox="0 0 236 136" fill="none" xmlns="http://www.w3.org/2000/svg" xmlns:xlink="http://www.w3.org/1999/xlink">
	<desc>
			Created with Pixso.
	</desc>
	<defs>
		<filter id="filter_28_16_dd" x="42.612305" y="10.000000" width="18.000000" height="43.000000" filterUnits="userSpaceOnUse" color-interpolation-filters="sRGB">
			<feFlood flood-opacity="0" result="BackgroundImageFix"/>
			<feColorMatrix in="SourceAlpha" type="matrix" values="0 0 0 0 0 0 0 0 0 0 0 0 0 0 0 0 0 0 127 0" result="hardAlpha"/>
			<feOffset dx="0" dy="4"/>
			<feGaussianBlur stdDeviation="1.33333"/>
			<feComposite in2="hardAlpha" operator="out" k2="-1" k3="1"/>
			<feColorMatrix type="matrix" values="0 0 0 0 0 0 0 0 0 0 0 0 0 0 0 0 0 0 0.25 0"/>
			<feBlend mode="normal" in2="BackgroundImageFix" result="effect_dropShadow_1"/>
			<feBlend mode="normal" in="SourceGraphic" in2="effect_dropShadow_1" result="shape"/>
		</filter>
		<filter id="filter_28_32_dd" x="34.612305" y="94.000000" width="34.312012" height="40.224854" filterUnits="userSpaceOnUse" color-interpolation-filters="sRGB">
			<feFlood flood-opacity="0" result="BackgroundImageFix"/>
			<feColorMatrix in="SourceAlpha" type="matrix" values="0 0 0 0 0 0 0 0 0 0 0 0 0 0 0 0 0 0 127 0" result="hardAlpha"/>
			<feOffset dx="0" dy="4"/>
			<feGaussianBlur stdDeviation="1.33333"/>
			<feComposite in2="hardAlpha" operator="out" k2="-1" k3="1"/>
			<feColorMatrix type="matrix" values="0 0 0 0 0 0 0 0 0 0 0 0 0 0 0 0 0 0 0.25 0"/>
			<feBlend mode="normal" in2="BackgroundImageFix" result="effect_dropShadow_1"/>
			<feBlend mode="normal" in="SourceGraphic" in2="effect_dropShadow_1" result="shape"/>
		</filter>
		<filter id="filter_28_17_dd" x="34.612305" y="93.999939" width="34.312012" height="40.224823" filterUnits="userSpaceOnUse" color-interpolation-filters="sRGB">
			<feFlood flood-opacity="0" result="BackgroundImageFix"/>
			<feColorMatrix in="SourceAlpha" type="matrix" values="0 0 0 0 0 0 0 0 0 0 0 0 0 0 0 0 0 0 127 0" result="hardAlpha"/>
			<feOffset dx="0" dy="4"/>
			<feGaussianBlur stdDeviation="1.33333"/>
			<feComposite in2="hardAlpha" operator="out" k2="-1" k3="1"/>
			<feColorMatrix type="matrix" values="0 0 0 0 0 0 0 0 0 0 0 0 0 0 0 0 0 0 0.25 0"/>
			<feBlend mode="normal" in2="BackgroundImageFix" result="effect_dropShadow_1"/>
			<feBlend mode="normal" in="SourceGraphic" in2="effect_dropShadow_1" result="shape"/>
		</filter>
		<filter id="filter_28_33_dd" x="45.305176" y="43.879333" width="12.470459" height="59.293091" filterUnits="userSpaceOnUse" color-interpolation-filters="sRGB">
			<feFlood flood-opacity="0" result="BackgroundImageFix"/>
			<feColorMatrix in="SourceAlpha" type="matrix" values="0 0 0 0 0 0 0 0 0 0 0 0 0 0 0 0 0 0 127 0" result="hardAlpha"/>
			<feOffset dx="0" dy="4"/>
			<feGaussianBlur stdDeviation="1.33333"/>
			<feComposite in2="hardAlpha" operator="out" k2="-1" k3="1"/>
			<feColorMatrix type="matrix" values="0 0 0 0 0 0 0 0 0 0 0 0 0 0 0 0 0 0 0.25 0"/>
			<feBlend mode="normal" in2="BackgroundImageFix" result="effect_dropShadow_1"/>
			<feBlend mode="normal" in="SourceGraphic" in2="effect_dropShadow_1" result="shape"/>
		</filter>
		<filter id="filter_28_34_dd" x="84.600098" y="52.719543" width="22.399902" height="89.241394" filterUnits="userSpaceOnUse" color-interpolation-filters="sRGB">
			<feFlood flood-opacity="0" result="BackgroundImageFix"/>
			<feColorMatrix in="SourceAlpha" type="matrix" values="0 0 0 0 0 0 0 0 0 0 0 0 0 0 0 0 0 0 127 0" result="hardAlpha"/>
			<feOffset dx="0" dy="4"/>
			<feGaussianBlur stdDeviation="1.33333"/>
			<feComposite in2="hardAlpha" operator="out" k2="-1" k3="1"/>
			<feColorMatrix type="matrix" values="0 0 0 0 0 0 0 0 0 0 0 0 0 0 0 0 0 0 0.25 0"/>
			<feBlend mode="normal" in2="BackgroundImageFix" result="effect_dropShadow_1"/>
			<feBlend mode="normal" in="SourceGraphic" in2="effect_dropShadow_1" result="shape"/>
		</filter>
		<filter id="filter_28_36_dd" x="82.718994" y="10.000000" width="20.951660" height="47.511383" filterUnits="userSpaceOnUse" color-interpolation-filters="sRGB">
			<feFlood flood-opacity="0" result="BackgroundImageFix"/>
			<feColorMatrix in="SourceAlpha" type="matrix" values="0 0 0 0 0 0 0 0 0 0 0 0 0 0 0 0 0 0 127 0" result="hardAlpha"/>
			<feOffset dx="0" dy="4"/>
			<feGaussianBlur stdDeviation="1.33333"/>
			<feComposite in2="hardAlpha" operator="out" k2="-1" k3="1"/>
			<feColorMatrix type="matrix" values="0 0 0 0 0 0 0 0 0 0 0 0 0 0 0 0 0 0 0.25 0"/>
			<feBlend mode="normal" in2="BackgroundImageFix" result="effect_dropShadow_1"/>
			<feBlend mode="normal" in="SourceGraphic" in2="effect_dropShadow_1" result="shape"/>
		</filter>
		<filter id="filter_29_1_dd" x="-1.500000" y="-0.500183" width="240.000122" height="22.000031" filterUnits="userSpaceOnUse" color-interpolation-filters="sRGB">
			<feFlood flood-opacity="0" result="BackgroundImageFix"/>
			<feColorMatrix in="SourceAlpha" type="matrix" values="0 0 0 0 0 0 0 0 0 0 0 0 0 0 0 0 0 0 127 0" result="hardAlpha"/>
			<feOffset dx="0" dy="2"/>
			<feGaussianBlur stdDeviation="1"/>
			<feComposite in2="hardAlpha" operator="out" k2="-1" k3="1"/>
			<feColorMatrix type="matrix" values="0 0 0 0 0 0 0 0 0 0 0 0 0 0 0 0 0 0 0.25 0"/>
			<feBlend mode="normal" in2="BackgroundImageFix" result="effect_dropShadow_1"/>
			<feBlend mode="normal" in="SourceGraphic" in2="effect_dropShadow_1" result="shape"/>
		</filter>
		<filter id="filter_29_32_dd" x="160.672363" y="10.759552" width="15.339844" height="49.188934" filterUnits="userSpaceOnUse" color-interpolation-filters="sRGB">
			<feFlood flood-opacity="0" result="BackgroundImageFix"/>
			<feColorMatrix in="SourceAlpha" type="matrix" values="0 0 0 0 0 0 0 0 0 0 0 0 0 0 0 0 0 0 127 0" result="hardAlpha"/>
			<feOffset dx="0" dy="4"/>
			<feGaussianBlur stdDeviation="1.33333"/>
			<feComposite in2="hardAlpha" operator="out" k2="-1" k3="1"/>
			<feColorMatrix type="matrix" values="0 0 0 0 0 0 0 0 0 0 0 0 0 0 0 0 0 0 0.25 0"/>
			<feBlend mode="normal" in2="BackgroundImageFix" result="effect_dropShadow_1"/>
			<feBlend mode="normal" in="SourceGraphic" in2="effect_dropShadow_1" result="shape"/>
		</filter>
		<filter id="filter_29_31_dd" x="156.371094" y="49.460968" width="49.232788" height="39.536041" filterUnits="userSpaceOnUse" color-interpolation-filters="sRGB">
			<feFlood flood-opacity="0" result="BackgroundImageFix"/>
			<feColorMatrix in="SourceAlpha" type="matrix" values="0 0 0 0 0 0 0 0 0 0 0 0 0 0 0 0 0 0 127 0" result="hardAlpha"/>
			<feOffset dx="0" dy="4"/>
			<feGaussianBlur stdDeviation="1.33333"/>
			<feComposite in2="hardAlpha" operator="out" k2="-1" k3="1"/>
			<feColorMatrix type="matrix" values="0 0 0 0 0 0 0 0 0 0 0 0 0 0 0 0 0 0 0.25 0"/>
			<feBlend mode="normal" in2="BackgroundImageFix" result="effect_dropShadow_1"/>
			<feBlend mode="normal" in="SourceGraphic" in2="effect_dropShadow_1" result="shape"/>
		</filter>
		<clipPath id="clip28_10">
			<rect id="подвес с приборами" width="236.000000" height="136.000000" fill="white" fill-opacity="0"/>
		</clipPath>
	</defs>
	<rect id="подвес с приборами" width="236.000000" height="136.000000" fill="#FFFFFF" fill-opacity="0"/>
	<g clip-path="url(#clip28_10)">
		<g filter="url(#filter_28_16_dd)">
			<path id="Прямоугольник 11" d="M48.61 10L53.82 10C54.85 10 55.71 10.78 55.8 11.81C56.16 16.32 57 28.13 56.4 34.7C56.02 38.87 55.83 41.46 55.73 43C55.67 44.1 54.75 45 53.64 45L48.61 45C47.5 45 46.61 44.1 46.61 43L46.61 12C46.61 10.89 47.5 10 48.61 10Z" fill="#351C1C" fill-opacity="1.000000" fill-rule="evenodd"/>
		</g>
		<g filter="url(#filter_28_32_dd)">
			<mask id="mask_28_32" fill="white">
				<path id="Убрать верхний слой" d="M62.3198 94.0014L41.1973 94.7865C40.1414 94.8257 39.2983 95.6795 39.2722 96.7357L38.613 123.42C38.5823 124.665 39.6875 125.651 40.9287 125.551C43.2683 125.364 47.0288 125.231 50.7893 125.808C55.1831 126.482 60.3662 126.188 62.938 125.968C63.8809 125.888 64.6099 125.133 64.6704 124.188C64.8657 121.146 65.1797 114.468 64.554 109.863C64.0107 105.865 64.2393 99.5008 64.4172 96.1498C64.4805 94.959 63.5115 93.9571 62.3198 94.0014ZM44.5115 97.6704L44.0701 97.6704C43.7617 97.6704 43.5237 97.9472 43.5596 98.2534C43.7324 99.7264 44.0889 103.909 43.4819 109.864C42.8511 116.053 43.261 120.328 43.4241 121.636C43.4543 121.879 43.6619 122.057 43.907 122.057L44.5115 122.057C44.7876 122.057 45.0115 121.833 45.0115 121.557L45.0115 116.429L45.0115 109.864L45.0115 98.1704C45.0115 97.8943 44.7876 97.6704 44.5115 97.6704ZM48.5703 97.6704L49.0613 97.6704C49.3521 97.6704 49.5813 97.9175 49.561 98.2075C49.1116 104.595 49.2556 108.762 49.416 113.403C49.4973 115.752 49.5828 118.223 49.5974 121.163C49.5974 121.554 49.1714 121.794 48.8384 121.59L48.3088 121.265C48.1606 121.174 48.0703 121.013 48.0703 120.839L48.0703 98.1704C48.0703 97.8943 48.2942 97.6704 48.5703 97.6704ZM53.1584 97.6704L53.3386 97.6704C53.6411 97.6704 53.877 97.9372 53.8479 98.2382C53.7068 99.6974 53.4116 103.888 53.9099 109.864C54.4241 116.032 54.0928 120.298 53.9587 121.622C53.9333 121.871 53.7227 122.057 53.4722 122.057L53.1584 122.057C52.8823 122.057 52.6584 121.833 52.6584 121.557L52.6584 116.429L52.6584 109.864L52.6584 98.1704C52.6584 97.8943 52.8823 97.6704 53.1584 97.6704ZM57.7468 97.6704L58.2378 97.6704C58.5283 97.6704 58.7578 97.9175 58.7373 98.2075C58.2881 104.595 58.4321 108.762 58.5925 113.403C58.6738 115.752 58.759 118.223 58.7739 121.163C58.7739 121.554 58.3479 121.794 58.0149 121.59L57.4854 121.265C57.3372 121.174 57.2468 121.013 57.2468 120.839L57.2468 98.1704C57.2468 97.8943 57.4707 97.6704 57.7468 97.6704Z" clip-rule="evenodd" fill="" fill-opacity="1.000000" fill-rule="evenodd"/>
			</mask>
			<path id="Убрать верхний слой" d="M62.3198 94.0014L41.1973 94.7865C40.1414 94.8257 39.2983 95.6795 39.2722 96.7357L38.613 123.42C38.5823 124.665 39.6875 125.651 40.9287 125.551C43.2683 125.364 47.0288 125.231 50.7893 125.808C55.1831 126.482 60.3662 126.188 62.938 125.968C63.8809 125.888 64.6099 125.133 64.6704 124.188C64.8657 121.146 65.1797 114.468 64.554 109.863C64.0107 105.865 64.2393 99.5008 64.4172 96.1498C64.4805 94.959 63.5115 93.9571 62.3198 94.0014ZM44.5115 97.6704L44.0701 97.6704C43.7617 97.6704 43.5237 97.9472 43.5596 98.2534C43.7324 99.7264 44.0889 103.909 43.4819 109.864C42.8511 116.053 43.261 120.328 43.4241 121.636C43.4543 121.879 43.6619 122.057 43.907 122.057L44.5115 122.057C44.7876 122.057 45.0115 121.833 45.0115 121.557L45.0115 116.429L45.0115 109.864L45.0115 98.1704C45.0115 97.8943 44.7876 97.6704 44.5115 97.6704ZM48.5703 97.6704L49.0613 97.6704C49.3521 97.6704 49.5813 97.9175 49.561 98.2075C49.1116 104.595 49.2556 108.762 49.416 113.403C49.4973 115.752 49.5828 118.223 49.5974 121.163C49.5974 121.554 49.1714 121.794 48.8384 121.59L48.3088 121.265C48.1606 121.174 48.0703 121.013 48.0703 120.839L48.0703 98.1704C48.0703 97.8943 48.2942 97.6704 48.5703 97.6704ZM53.1584 97.6704L53.3386 97.6704C53.6411 97.6704 53.877 97.9372 53.8479 98.2382C53.7068 99.6974 53.4116 103.888 53.9099 109.864C54.4241 116.032 54.0928 120.298 53.9587 121.622C53.9333 121.871 53.7227 122.057 53.4722 122.057L53.1584 122.057C52.8823 122.057 52.6584 121.833 52.6584 121.557L52.6584 116.429L52.6584 109.864L52.6584 98.1704C52.6584 97.8943 52.8823 97.6704 53.1584 97.6704ZM57.7468 97.6704L58.2378 97.6704C58.5283 97.6704 58.7578 97.9175 58.7373 98.2075C58.2881 104.595 58.4321 108.762 58.5925 113.403C58.6738 115.752 58.759 118.223 58.7739 121.163C58.7739 121.554 58.3479 121.794 58.0149 121.59L57.4854 121.265C57.3372 121.174 57.2468 121.013 57.2468 120.839L57.2468 98.1704C57.2468 97.8943 57.4707 97.6704 57.7468 97.6704Z" clip-rule="evenodd" fill="#FFFFFF" fill-opacity="1.000000" fill-rule="evenodd" mask="url(#mask_28_32)"/>
			<path id="Убрать верхний слой" d="M41.1973 94.7865L62.3198 94.0014C63.5115 93.9571 64.4805 94.959 64.4172 96.1498C64.2393 99.5008 64.0107 105.865 64.554 109.863C65.1797 114.468 64.8657 121.146 64.6704 124.188C64.6099 125.133 63.8809 125.888 62.938 125.968C60.3662 126.188 55.1831 126.482 50.7893 125.808C47.0288 125.231 43.2683 125.364 40.9287 125.551C39.6875 125.651 38.5823 124.665 38.613 123.42L39.2722 96.7357C39.2983 95.6795 40.1414 94.8257 41.1973 94.7865ZM41.2344 95.7858L62.3569 95.0007Q62.4865 94.9959 62.6093 95.0226Q62.695 95.0413 62.7773 95.0753C62.9075 95.1289 63.0225 95.2072 63.1226 95.31C63.2231 95.4134 63.2993 95.5319 63.3508 95.6655C63.4038 95.8033 63.4265 95.9471 63.4187 96.0967C63.2925 98.4734 63.2246 100.694 63.2151 102.759C63.2012 105.777 63.3171 108.189 63.563 109.998C63.8303 111.964 63.9492 114.499 63.9202 117.602C63.9006 119.683 63.8181 121.857 63.6726 124.124C63.658 124.352 63.573 124.546 63.4175 124.706C63.2637 124.864 63.0754 124.953 62.853 124.972C61.0464 125.126 59.2751 125.21 57.5391 125.223C55.0215 125.242 52.822 125.108 50.9407 124.82C49.2061 124.554 47.3374 124.411 45.3352 124.393C43.8547 124.38 42.3594 124.433 40.8489 124.554C40.6855 124.567 40.5264 124.547 40.3713 124.492C40.2205 124.439 40.0857 124.358 39.9673 124.25C39.8511 124.144 39.762 124.022 39.7004 123.884C39.6382 123.745 39.6089 123.598 39.6125 123.444L40.272 96.7604C40.2783 96.4963 40.3745 96.2704 40.5601 96.0824C40.7456 95.8945 40.9705 95.7956 41.2344 95.7858ZM45.0955 96.7887C44.9092 96.7099 44.7144 96.6704 44.5115 96.6704L44.0701 96.6704C43.8452 96.6704 43.6313 96.7183 43.4285 96.8141C43.2371 96.9044 43.0713 97.0299 42.9316 97.1903C42.7935 97.3489 42.6924 97.5282 42.6284 97.7282C42.5613 97.9375 42.5408 98.1515 42.5664 98.37Q42.7733 100.133 42.8132 102.396C42.8552 104.763 42.7463 107.218 42.4871 109.762C42.2109 112.473 42.1003 115.086 42.1555 117.603C42.1899 119.173 42.282 120.559 42.4316 121.759C42.4546 121.944 42.5103 122.117 42.5984 122.28C42.6838 122.438 42.7942 122.575 42.9299 122.693C43.064 122.809 43.2139 122.898 43.3801 122.961C43.5498 123.025 43.7253 123.057 43.907 123.057L44.5115 123.057C44.7144 123.057 44.9092 123.017 45.0955 122.938C45.2751 122.862 45.4338 122.755 45.572 122.617C45.7102 122.479 45.8171 122.32 45.8931 122.141C45.9719 121.954 46.0115 121.76 46.0115 121.557L46.0115 98.1704C46.0115 97.9674 45.9719 97.7727 45.8931 97.5863C45.8171 97.4067 45.7102 97.2479 45.572 97.1098C45.4338 96.9717 45.2751 96.8647 45.0955 96.7887ZM49.0613 96.6704L48.5703 96.6704C48.3672 96.6704 48.1726 96.7099 47.9861 96.7887C47.8066 96.8647 47.6477 96.9717 47.5095 97.1098C47.3716 97.2479 47.2646 97.4067 47.1885 97.5863C47.1096 97.7727 47.0703 97.9674 47.0703 98.1704L47.0703 120.839C47.0703 121.1 47.134 121.344 47.2615 121.571C47.3889 121.799 47.5637 121.981 47.7861 122.117L48.3154 122.442C48.5562 122.59 48.8162 122.664 49.0957 122.664C49.3577 122.665 49.6033 122.6 49.8328 122.472C50.0618 122.343 50.2441 122.167 50.3801 121.943C50.5249 121.705 50.5974 121.443 50.5974 121.158C50.5908 119.847 50.5688 118.473 50.5312 117.035C50.509 116.18 50.4705 114.958 50.4155 113.369L50.4155 113.369C50.3628 111.844 50.3269 110.703 50.3076 109.944C50.2756 108.691 50.2598 107.53 50.2598 106.46C50.26 103.833 50.3594 101.106 50.5583 98.2776C50.5735 98.0655 50.5447 97.8598 50.4724 97.6605C50.4031 97.4691 50.2991 97.2987 50.1602 97.1493C50.021 96.9997 49.8584 96.8834 49.6724 96.8004C49.4783 96.7137 49.2747 96.6704 49.0613 96.6704ZM53.3386 96.6704L53.1584 96.6704C52.9556 96.6704 52.7607 96.7099 52.5742 96.7887C52.3948 96.8647 52.2358 96.9717 52.0979 97.1098C51.9597 97.2479 51.8528 97.4067 51.7769 97.5863C51.698 97.7727 51.6584 97.9674 51.6584 98.1704L51.6584 121.557C51.6584 121.76 51.698 121.954 51.7769 122.141C51.8528 122.32 51.9597 122.479 52.0979 122.617C52.2358 122.755 52.3948 122.862 52.5742 122.938C52.7607 123.017 52.9556 123.057 53.1584 123.057L53.4722 123.057C53.6577 123.057 53.8367 123.023 54.0093 122.957C54.178 122.892 54.3298 122.8 54.4646 122.68C54.6011 122.558 54.7109 122.417 54.7949 122.255C54.8816 122.088 54.9346 121.911 54.9536 121.723C55.0752 120.524 55.1497 119.142 55.1772 117.577C55.2214 115.074 55.1311 112.475 54.9062 109.78C54.6931 107.222 54.604 104.752 54.6389 102.372C54.6614 100.858 54.7295 99.5124 54.8433 98.3343C54.864 98.1184 54.8398 97.9077 54.7705 97.7025C54.7041 97.506 54.6018 97.3304 54.4636 97.1755C54.324 97.0191 54.1594 96.897 53.97 96.8093Q53.8244 96.7419 53.6714 96.7072Q53.5092 96.6704 53.3386 96.6704ZM58.2378 96.6704L57.7468 96.6704C57.5437 96.6704 57.3491 96.7099 57.1626 96.7887C56.9829 96.8647 56.8242 96.9717 56.686 97.1098C56.5481 97.2479 56.4409 97.4067 56.365 97.5863C56.2861 97.7727 56.2468 97.9674 56.2468 98.1704L56.2468 120.839C56.2468 121.1 56.3105 121.344 56.438 121.571C56.5654 121.799 56.7402 121.981 56.9626 122.117L57.4919 122.442C57.7327 122.59 57.9927 122.664 58.2722 122.664C58.5342 122.665 58.7798 122.6 59.0093 122.472C59.2383 122.343 59.4207 122.167 59.5566 121.943C59.7014 121.705 59.7739 121.443 59.7739 121.158C59.7673 119.847 59.7454 118.473 59.7078 117.035C59.6855 116.18 59.647 114.958 59.592 113.369C59.5393 111.845 59.5032 110.703 59.4839 109.944C59.4521 108.691 59.4363 107.53 59.4363 106.46C59.4365 103.833 59.5359 101.106 59.7349 98.2776C59.7498 98.0655 59.7212 97.8598 59.6489 97.6605C59.5796 97.4691 59.4753 97.2987 59.3367 97.1493C59.1975 96.9997 59.0349 96.8834 58.8489 96.8004C58.6548 96.7137 58.4509 96.6704 58.2378 96.6704ZM44.0701 97.6704L44.5115 97.6704C44.7876 97.6704 45.0115 97.8943 45.0115 98.1704L45.0115 121.557C45.0115 121.833 44.7876 122.057 44.5115 122.057L43.907 122.057C43.6619 122.057 43.4543 121.879 43.4241 121.636C43.261 120.328 42.8511 116.053 43.4819 109.864C44.0889 103.909 43.7324 99.7264 43.5596 98.2534C43.5237 97.9472 43.7617 97.6704 44.0701 97.6704ZM49.0613 97.6704L48.5703 97.6704C48.2942 97.6704 48.0703 97.8943 48.0703 98.1704L48.0703 120.839C48.0703 121.013 48.1606 121.174 48.3088 121.265L48.8384 121.59C49.1714 121.794 49.5974 121.554 49.5974 121.163C49.5828 118.223 49.4973 115.752 49.416 113.403L49.416 113.403C49.2556 108.762 49.1116 104.594 49.561 98.2075C49.5813 97.9175 49.3521 97.6704 49.0613 97.6704ZM53.3386 97.6704L53.1584 97.6704C52.8823 97.6704 52.6584 97.8943 52.6584 98.1704L52.6584 121.557C52.6584 121.833 52.8823 122.057 53.1584 122.057L53.4722 122.057C53.7227 122.057 53.9333 121.871 53.9587 121.622C54.0928 120.298 54.4241 116.032 53.9099 109.864C53.772 108.21 53.6949 106.693 53.6584 105.333C53.6186 103.848 53.6274 102.549 53.6584 101.464C53.7018 99.9513 53.7885 98.8526 53.8479 98.2382C53.877 97.9372 53.6411 97.6704 53.3386 97.6704ZM58.2378 97.6704L57.7468 97.6704C57.4707 97.6704 57.2468 97.8943 57.2468 98.1704L57.2468 120.839C57.2468 121.013 57.3372 121.174 57.4854 121.265L58.0149 121.59C58.3479 121.794 58.7739 121.554 58.7739 121.163C58.759 118.223 58.6738 115.752 58.5925 113.403L58.5925 113.403C58.4321 108.762 58.2881 104.594 58.7373 98.2075C58.7578 97.9175 58.5283 97.6704 58.2378 97.6704Z" clip-rule="evenodd" fill="#C4C4C4" fill-opacity="1.000000" fill-rule="evenodd"/>
		</g>
		<g filter="url(#filter_28_33_dd)">
			<path id="Прямоугольник 14" d="M49.71 43.87L53.36 43.87C53.36 43.87 54.28 65.42 53.36 75.68C53.36 85.68 53.36 95.17 53.36 95.17L49.71 95.17C49.71 95.17 50.59 79.47 49.71 69.52C48.79 59.26 49.71 43.87 49.71 43.87Z" fill="#FFFFFF" fill-opacity="1.000000" fill-rule="evenodd"/>
			<path id="Прямоугольник 14" d="M53.36 75.68C54.28 65.42 53.36 43.87 53.36 43.87L49.71 43.87C49.71 43.87 48.79 59.26 49.71 69.52C50.46 77.97 49.93 90.56 49.76 94.17C49.73 94.81 49.71 95.17 49.71 95.17L53.36 95.17L53.36 75.68ZM52.36 94.17L52.36 75.63L52.37 75.59C52.58 73.26 52.7 70.19 52.75 66.37C52.79 63.3 52.77 59.83 52.71 55.95C52.66 53.17 52.59 50.33 52.49 47.43C52.46 46.45 52.43 45.6 52.4 44.87L50.65 44.87C50.63 45.34 50.6 45.88 50.58 46.48C50.48 48.61 50.41 50.74 50.36 52.87C50.3 55.85 50.28 58.62 50.32 61.17C50.37 64.35 50.5 67.11 50.7 69.43C50.91 71.74 51.03 74.5 51.08 77.71C51.12 80.28 51.1 83.07 51.04 86.1C50.99 88.26 50.92 90.43 50.83 92.6C50.81 93.19 50.78 93.71 50.76 94.17L52.36 94.17Z" fill="#C4C4C4" fill-opacity="1.000000" fill-rule="evenodd"/>
		</g>
		<path id="Форма 18" d="M65.6 124.24L65.62 124.18C65.64 124.14 65.72 124 65.86 123.75C66.01 123.5 66.25 123.15 66.58 122.7C66.9 122.25 67.1 121.94 67.17 121.77C67.24 121.6 67.35 121.41 67.5 121.21C67.66 121.01 67.79 120.84 67.91 120.69C68.02 120.54 68.13 120.36 68.22 120.15C68.32 119.95 68.42 119.75 68.52 119.55C68.63 119.35 68.71 119.21 68.76 119.11" stroke="#C4C4C4" stroke-opacity="1.000000" stroke-width="0.300000" stroke-linecap="round"/>
		<path id="Форма 19" d="M67.43 123.47L67.43 123.39C67.43 123.34 67.43 123.15 67.43 122.81C67.43 122.48 67.54 122.25 67.76 122.12C67.97 121.98 68.15 121.82 68.3 121.62C68.46 121.43 68.58 121.24 68.69 121.07C68.79 120.89 68.86 120.73 68.91 120.59" stroke="#C4C4C4" stroke-opacity="1.000000" stroke-width="0.300000" stroke-linecap="round"/>
		<path id="Форма 20" d="M38.68 98.65L38.68 98.79C38.68 98.89 38.57 99.18 38.36 99.67C38.15 100.16 38.03 100.48 38 100.63" stroke="#C4C4C4" stroke-opacity="1.000000" stroke-width="0.300000" stroke-linecap="round"/>
		<path id="Форма 21" d="M38.31 101.59L38.38 101.45C38.43 101.35 38.53 101.21 38.69 101.02" stroke="#C4C4C4" stroke-opacity="1.000000" stroke-width="0.300000" stroke-linecap="round"/>
		<g filter="url(#filter_28_34_dd)">
			<path id="Многоугольник 1" d="M100.9 133.74C105.61 138.85 100.9 52.71 100.9 52.71L88.6 52.71C88.6 52.71 89.27 73.09 91.92 93.59C94.34 112.37 98.65 131.29 100.9 133.74Z" fill="#FDFDFD" fill-opacity="1.000000" fill-rule="evenodd"/>
			<path id="Многоугольник 1" d="M100.9 133.74C105.61 138.85 100.9 52.71 100.9 52.71L88.6 52.71C88.6 52.71 88.61 53.06 88.63 53.71C88.81 58.05 89.62 75.77 91.92 93.59C94.34 112.37 98.65 131.29 100.9 133.74ZM89.63 53.71C89.66 54.4 89.7 55.22 89.74 56.17C89.88 59.14 90.05 62.22 90.26 65.4C90.55 69.86 90.89 74.21 91.28 78.47C91.76 83.78 92.31 88.78 92.91 93.46C93.5 98.03 94.2 102.63 95.01 107.27C95.79 111.69 96.6 115.79 97.45 119.57C98.29 123.31 99.09 126.38 99.84 128.78C100.22 129.97 100.57 130.94 100.89 131.69C100.97 131.89 101.06 132.07 101.14 132.23C101.18 132.03 101.23 131.8 101.27 131.55C101.57 129.82 101.77 127.04 101.89 123.2C102.09 116.68 102.01 107.34 101.67 95.17C101.42 86.47 101.06 76.79 100.57 66.14C100.41 62.81 100.26 59.58 100.1 56.46C100.04 55.39 99.99 54.47 99.95 53.71L89.63 53.71Z" fill="#C4C4C4" fill-opacity="1.000000" fill-rule="evenodd"/>
		</g>
		<path id="Прямоугольник 15" d="M86.93 49.32C88.62 49.03 92.04 48.57 94.45 48.97C96.26 49.28 98.83 49.06 100.68 48.81C101.88 48.65 103 49.57 103 50.79C103 51.85 102.13 52.71 101.07 52.71L87.28 52.71C86.13 52.71 85.3 51.62 85.61 50.52C85.79 49.9 86.29 49.43 86.93 49.32Z" fill="#FDFDFD" fill-opacity="1.000000" fill-rule="evenodd"/>
		<path id="Прямоугольник 15" d="M86.93 49.32C88.62 49.03 92.04 48.57 94.45 48.97C96.26 49.28 98.83 49.06 100.68 48.81C101.88 48.65 103 49.57 103 50.79C103 51.85 102.13 52.71 101.07 52.71L87.28 52.71C86.13 52.71 85.3 51.62 85.61 50.52C85.79 49.9 86.29 49.43 86.93 49.32ZM101.07 52.21L87.28 52.21C87.16 52.21 87.04 52.2 86.93 52.17C86.86 52.15 86.79 52.12 86.72 52.08C86.64 52.04 86.58 52 86.51 51.95C86.43 51.89 86.36 51.81 86.3 51.73C86.23 51.64 86.18 51.55 86.14 51.46C86.11 51.39 86.09 51.31 86.07 51.23C86.05 51.15 86.05 51.08 86.05 51C86.04 50.88 86.06 50.77 86.09 50.65C86.13 50.53 86.18 50.41 86.25 50.31C86.3 50.23 86.36 50.16 86.43 50.09C86.52 50.01 86.62 49.95 86.72 49.9C86.81 49.86 86.91 49.83 87.01 49.81C88.22 49.61 89.37 49.47 90.46 49.38C92.05 49.27 93.35 49.29 94.36 49.47C95.22 49.61 96.29 49.66 97.57 49.6C98.54 49.56 99.6 49.46 100.74 49.31C100.86 49.29 100.97 49.29 101.09 49.3C101.19 49.31 101.3 49.33 101.4 49.36C101.51 49.39 101.61 49.43 101.7 49.48C101.79 49.53 101.88 49.59 101.97 49.66C102.07 49.76 102.17 49.86 102.24 49.97C102.28 50.03 102.32 50.09 102.35 50.16C102.4 50.25 102.43 50.34 102.45 50.44C102.48 50.55 102.5 50.67 102.5 50.79C102.5 50.9 102.48 51.01 102.46 51.11C102.44 51.19 102.42 51.27 102.38 51.34C102.35 51.42 102.31 51.49 102.27 51.56C102.21 51.65 102.15 51.72 102.08 51.8C102.01 51.87 101.93 51.93 101.85 51.98C101.78 52.03 101.7 52.07 101.62 52.1C101.55 52.13 101.47 52.16 101.39 52.18C101.29 52.2 101.18 52.21 101.07 52.21Z" fill="#C4C4C4" fill-opacity="1.000000" fill-rule="evenodd"/>
		<g filter="url(#filter_28_36_dd)">
			<path id="Многоугольник 2" d="M92 10.01C82 9.01 89.27 49.51 89.27 49.51L99.67 49.51C99.67 49.51 99.22 38.78 99.45 28.46C99.67 19.01 96.71 10.48 92 10.01Z" fill="#4C3E23" fill-opacity="1.000000" fill-rule="evenodd"/>
		</g>
		<path id="Форма 1" d="M90.24 56.2L90.48 56.15C90.65 56.12 90.93 56.04 91.33 55.93C91.72 55.82 92.08 55.71 92.4 55.59C92.71 55.47 93.01 55.36 93.29 55.27C93.58 55.17 94.03 55.11 94.66 55.09" stroke="#C4C4C4" stroke-opacity="1.000000" stroke-width="0.100000" stroke-linecap="round"/>
		<path id="Форма 2" d="M90.39 57.79L90.63 57.65C90.79 57.56 91.11 57.38 91.59 57.11C92.07 56.85 92.46 56.62 92.77 56.41C93.08 56.21 93.44 55.87 93.84 55.39C94.24 54.91 94.51 54.59 94.67 54.41" stroke="#C4C4C4" stroke-opacity="1.000000" stroke-width="0.100000" stroke-linecap="round"/>
		<path id="Форма 3" d="M90.39 58.47L90.52 58.39C90.6 58.34 90.82 58.22 91.19 58.03C91.55 57.83 91.95 57.65 92.38 57.47C92.81 57.29 93.2 57.1 93.56 56.91C93.93 56.71 94.22 56.59 94.45 56.55" stroke="#C4C4C4" stroke-opacity="1.000000" stroke-width="0.100000" stroke-linecap="round"/>
		<path id="Линия 10" d="M91.69 67.59C93.49 91.11 95.37 105.22 99.79 127.45" stroke="#C4C4C4" stroke-opacity="1.000000" stroke-width="0.500000"/>
		<path id="Форма 4" d="M97.53 116.18L97.87 116.1C98.1 116.05 98.41 115.94 98.83 115.78C99.24 115.61 99.57 115.42 99.83 115.19C100.09 114.97 100.48 114.62 101.01 114.17" stroke="#C4C4C4" stroke-opacity="1.000000" stroke-width="0.200000" stroke-linecap="round"/>
		<path id="Форма 5" d="M97.6 118.62L97.63 118.58C97.66 118.56 97.7 118.49 97.75 118.38C97.8 118.26 97.88 118.15 97.99 118.03C98.1 117.9 98.25 117.74 98.43 117.54C98.64 117.32 98.88 117.12 99.15 116.96C99.47 116.78 99.81 116.57 100.16 116.36C100.57 116.1 100.93 115.67 101.2 115.08" stroke="#C4C4C4" stroke-opacity="1.000000" stroke-width="0.200000" stroke-linecap="round"/>
		<path id="Форма 6" d="M97.6 115.29L98.35 114.84C98.69 114.64 99.15 114.38 99.58 114.13C99.85 113.98 100.01 113.86 100.12 113.75C100.2 113.66 100.28 113.6 100.35 113.57C100.41 113.54 100.46 113.5 100.51 113.46" stroke="#C4C4C4" stroke-opacity="1.000000" stroke-width="0.200000" stroke-linecap="round"/>
		<path id="Форма 7" d="M50 67L50.33 66.71C50.52 66.55 50.79 66.3 51.1 66.02C51.34 65.81 51.48 65.66 51.56 65.56C51.63 65.46 51.7 65.39 51.76 65.35C51.83 65.31 51.88 65.27 51.93 65.24C51.98 65.2 52.02 65.16 52.06 65.1C52.1 65.04 52.13 65.01 52.15 64.98" stroke="#C4C4C4" stroke-opacity="1.000000" stroke-width="0.200000" stroke-linecap="round"/>
		<path id="Форма 8" d="M50.36 68L50.57 67.8C50.7 67.68 51.19 67.14 51.7 66.54C51.99 66.19 52.12 66.04 52.15 66" stroke="#C4C4C4" stroke-opacity="1.000000" stroke-width="0.200000" stroke-linecap="round"/>
		<g filter="url(#filter_29_1_dd)">
			<path id="держак" d="M16.36 9.45Q16.22 10.21 15.93 10.91Q15.38 12.23 14.27 13.32Q13.17 14.42 11.84 14.96Q10.51 15.5 8.96 15.49Q7.41 15.49 6.08 14.93Q4.76 14.38 3.67 13.27Q2.57 12.17 2.03 10.84Q1.49 9.51 1.5 7.96Q1.5 6.41 2.06 5.08Q2.61 3.76 3.72 2.67C5.19 1.21 6.96 0.49 9.03 0.49Q10.58 0.5 11.91 1.06Q13.23 1.61 14.32 2.72Q15.42 3.82 15.96 5.15Q16.22 5.78 16.35 6.45Q17.27 6.45 18.27 6.45C26.15 6.43 34.31 6.44 42.75 6.49Q60.48 6.6 77.37 6.92Q98.47 7.31 117.05 8Q135.58 8.68 157.11 8.76Q174.34 8.82 192.69 8.5Q205.81 8.26 218.17 7.86C219.01 7.83 219.82 7.8 220.59 7.78C220.82 6.21 221.53 4.84 222.72 3.67C224.19 2.21 225.96 1.49 228.03 1.49Q229.58 1.5 230.91 2.06Q232.23 2.61 233.32 3.72Q234.42 4.82 234.96 6.15Q235.5 7.48 235.5 9.03Q235.49 10.58 234.93 11.91Q234.38 13.23 233.27 14.32Q232.17 15.42 230.84 15.96Q229.51 16.5 227.96 16.49C225.89 16.49 224.13 15.75 222.67 14.27C221.66 13.25 221 12.08 220.69 10.77C219.92 10.8 219.11 10.83 218.27 10.85C210.01 11.13 201.5 11.34 192.75 11.5C180.49 11.71 168.61 11.8 157.1 11.76Q135.52 11.68 116.94 10.99Q98.39 10.31 77.31 9.92C66.07 9.71 54.54 9.57 42.74 9.49Q30.09 9.42 18.28 9.45C17.62 9.45 16.98 9.45 16.36 9.45Z" fill="#AEAEAE" fill-opacity="1.000000" fill-rule="evenodd"/>
		</g>
		<g filter="url(#filter_29_32_dd)">
			<path id="Прямоугольник 17" d="M167.35 10.75L171 10.99C171 10.99 173.29 21.69 170.97 31.95C170.15 35.54 169.84 38.07 169.64 41.14C169.26 47.12 168.31 51.94 168.31 51.94L164.67 51.7C164.67 51.7 165.95 40.64 164.97 30.42C163.98 20.2 167.35 10.75 167.35 10.75Z" fill="#C4C4C4" fill-opacity="1.000000" fill-rule="evenodd"/>
			<path id="Прямоугольник 17" d="M167.35 10.75L171 10.99C171 10.99 173.29 21.69 170.97 31.95C170.15 35.54 169.84 38.07 169.64 41.14C169.26 47.12 168.31 51.94 168.31 51.94L164.67 51.7C164.67 51.7 164.71 51.35 164.77 50.71C165.06 47.77 165.78 38.81 164.97 30.42C163.98 20.2 167.35 10.75 167.35 10.75ZM165.77 50.77L167.49 50.89C167.61 50.18 167.73 49.43 167.85 48.64C168.22 46.06 168.49 43.54 168.64 41.08C168.75 39.44 168.89 37.94 169.08 36.6C169.29 35.1 169.59 33.48 169.99 31.72C170.51 29.43 170.83 26.96 170.95 24.3C171.05 22.16 171.02 19.96 170.86 17.69C170.74 16.07 170.56 14.5 170.33 12.98C170.27 12.59 170.21 12.24 170.16 11.94L168.06 11.8C167.98 12.06 167.89 12.34 167.8 12.67C167.41 14.03 167.06 15.46 166.77 16.95C166.36 19.03 166.08 21.09 165.92 23.11C165.73 25.64 165.74 28.04 165.96 30.32C166.19 32.7 166.32 35.27 166.34 38.05C166.35 40.27 166.3 42.57 166.19 44.94C166.1 46.64 165.99 48.29 165.85 49.9C165.82 50.22 165.8 50.51 165.77 50.77Z" fill="#AEAEAE" fill-opacity="1.000000" fill-rule="evenodd"/>
		</g>
		<g filter="url(#filter_29_31_dd)">
			<path id="Прямоугольник 16" d="M162.74 49.46C162.74 49.46 166.55 50.8 172.12 51.26C175.09 51.5 178.78 51.2 182.17 51.11C191.22 50.87 201.6 52.76 201.6 52.76C201.6 52.76 200.64 58.2 200.04 65.17C199.45 72.15 199.23 80.66 199.23 80.66C199.23 80.66 194.81 81.29 189.18 80.81C186.24 80.56 183.2 80.3 179.8 79.01C176.59 77.79 173.35 77.46 170.42 77.21C164.79 76.72 160.37 77.36 160.37 77.36L162.74 49.46Z" fill="#FFFFFF" fill-opacity="1.000000" fill-rule="evenodd"/>
			<path id="Прямоугольник 16" d="M163.72 49.76C165.19 50.19 168.23 50.94 172.12 51.26C175.09 51.5 178.78 51.2 182.17 51.11C189.55 50.92 197.82 52.14 200.61 52.59C201 52.66 201.28 52.71 201.44 52.73C201.55 52.75 201.6 52.76 201.6 52.76C201.6 52.76 200.64 58.2 200.04 65.17C199.45 72.15 199.23 80.66 199.23 80.66C199.23 80.66 194.81 81.29 189.18 80.81C186.24 80.56 183.2 80.3 179.8 79.01C176.59 77.79 173.35 77.46 170.42 77.21C166.4 76.86 163 77.08 161.38 77.24C160.73 77.3 160.37 77.36 160.37 77.36L162.74 49.46C162.74 49.46 163.08 49.58 163.72 49.76ZM163.63 50.8L161.47 76.21C164.18 75.92 167.19 75.92 170.5 76.21C174.59 76.56 177.81 77.18 180.15 78.07C182.32 78.9 185.34 79.47 189.21 79.81L189.26 79.81C192.59 80.1 195.58 80.09 198.25 79.78C198.4 74.42 198.67 69.52 199.05 65.09C199.41 60.82 199.87 56.99 200.45 53.57C193.96 52.45 187.88 51.96 182.2 52.11C181.56 52.12 180.59 52.16 179.28 52.22C175.92 52.36 173.5 52.37 172.04 52.25C168.81 51.99 166.01 51.5 163.63 50.8Z" fill="#AEAEAE" fill-opacity="1.000000" fill-rule="evenodd"/>
		</g>
		<ellipse id="Эллипс 3" rx="3.500000" ry="14.000000" transform="matrix(0.996402 0.084752 -0.084752 0.996402 162.056 63.4528)" fill="#FFFFFF" fill-opacity="1.000000"/>
		<ellipse id="Эллипс 3" rx="3.200000" ry="13.700000" transform="matrix(0.996402 0.084752 -0.084752 0.996402 162.056 63.4528)" stroke="#AEAEAE" stroke-opacity="1.000000" stroke-width="0.600000"/>
		<path id="Форма 22" d="M160.42 60.51L160.42 60.57C160.41 60.62 160.4 60.74 160.39 60.93C160.37 61.13 160.3 61.34 160.18 61.58C160.07 61.81 159.97 62.01 159.9 62.18C159.83 62.35 159.76 62.57 159.71 62.83C159.65 63.1 159.59 63.34 159.53 63.56" stroke="#C4C4C4" stroke-opacity="1.000000" stroke-width="0.300000" stroke-linecap="round"/>
		<path id="Форма 23" d="M160.15 63.71L160.23 63.68C160.28 63.66 160.32 63.55 160.37 63.37C160.41 63.18 160.45 63.01 160.48 62.85C160.51 62.69 160.54 62.48 160.59 62.23" stroke="#C4C4C4" stroke-opacity="1.000000" stroke-width="0.300000" stroke-linecap="round"/>
		<path id="Форма 24" d="M160.39 64.93L160.45 64.78C160.49 64.67 160.55 64.5 160.61 64.25C160.68 64 160.75 63.75 160.83 63.51" stroke="#C4C4C4" stroke-opacity="1.000000" stroke-width="0.300000" stroke-linecap="round"/>
		<path id="Форма 10" d="M170.76 54.18L170.67 54.18C170.6 54.18 170.38 54.34 170 54.65C169.62 54.97 169.31 55.16 169.06 55.24C168.81 55.31 168.57 55.43 168.32 55.58C168.08 55.74 167.84 55.92 167.61 56.13C167.39 56.33 167.26 56.54 167.24 56.74" stroke="#C4C4C4" stroke-opacity="1.000000" stroke-width="0.500000" stroke-linecap="round"/>
		<path id="Форма 11" d="M167.83 57.73L167.91 57.73C167.97 57.73 168.15 57.69 168.44 57.61C168.74 57.53 168.94 57.44 169.05 57.35C169.16 57.25 169.26 57.13 169.35 56.98C169.45 56.83 169.54 56.7 169.65 56.6C169.76 56.49 169.9 56.32 170.09 56.08" stroke="#C4C4C4" stroke-opacity="1.000000" stroke-width="0.500000" stroke-linecap="round"/>
		<path id="Форма 12" d="M171.61 56.11L171.55 56.11C171.5 56.11 171.4 56.12 171.24 56.15C171.08 56.17 170.93 56.25 170.78 56.36C170.63 56.48 170.46 56.64 170.27 56.83" stroke="#C4C4C4" stroke-opacity="1.000000" stroke-width="0.500000" stroke-linecap="round"/>
		<path id="Форма 13" d="M193.56 76.49L193.64 76.49C193.7 76.49 193.86 76.47 194.14 76.42C194.41 76.38 194.67 76.24 194.92 76.01C195.16 75.77 195.36 75.58 195.53 75.42C195.69 75.26 195.86 75.11 196.03 74.99C196.2 74.87 196.37 74.73 196.55 74.58C196.73 74.43 196.9 74.3 197.06 74.18C197.23 74.07 197.37 73.95 197.49 73.83C197.6 73.71 197.72 73.56 197.85 73.37" stroke="#C4C4C4" stroke-opacity="1.000000" stroke-width="0.500000" stroke-linecap="round"/>
		<path id="Форма 14" d="M195.72 77.03L195.78 76.98C195.83 76.96 195.99 76.82 196.28 76.56C196.57 76.31 196.83 76.09 197.07 75.91" stroke="#C4C4C4" stroke-opacity="1.000000" stroke-width="0.500000" stroke-linecap="round"/>
		<path id="Форма 15" d="M195.87 78.73L195.94 78.7C195.99 78.69 196.09 78.57 196.26 78.36C196.43 78.15 196.58 77.97 196.72 77.82C196.86 77.66 197.03 77.55 197.21 77.48C197.4 77.4 197.61 77.3 197.85 77.16C198.09 77.02 198.28 76.86 198.43 76.68" stroke="#C4C4C4" stroke-opacity="1.000000" stroke-width="0.500000" stroke-linecap="round"/>
		<path id="Форма 16" d="M181.05 63.52L181.01 63.58C180.98 63.63 180.71 63.95 180.19 64.56C179.67 65.17 179.03 65.81 178.26 66.49C177.5 67.17 176.8 67.81 176.17 68.39C175.54 68.98 175.04 69.44 174.69 69.76C174.34 70.09 174.06 70.34 173.85 70.5C173.65 70.67 173.44 70.85 173.24 71.03C173.04 71.22 172.77 71.47 172.44 71.78" stroke="#C4C4C4" stroke-opacity="1.000000" stroke-width="0.500000" stroke-linecap="round"/>
		<path id="Форма 17" d="M179.05 69.62L178.96 69.64C178.9 69.65 178.74 69.71 178.48 69.8C178.21 69.9 177.86 70.12 177.43 70.46C177 70.81 176.58 71.16 176.14 71.51C175.71 71.87 175.38 72.19 175.13 72.46C174.89 72.73 174.7 72.96 174.55 73.17" stroke="#C4C4C4" stroke-opacity="1.000000" stroke-width="0.500000" stroke-linecap="round"/>
		<ellipse id="Эллипс 5" rx="1.500000" ry="3.500000" transform="matrix(0.997836 0.0657478 -0.0657478 0.997836 168.5 21.5)" fill="#FFFFFF" fill-opacity="1.000000"/>
		<ellipse id="Эллипс 5" rx="1.200000" ry="3.200000" transform="matrix(0.997836 0.0657478 -0.0657478 0.997836 168.5 21.5)" stroke="#C4C4C4" stroke-opacity="1.000000" stroke-width="0.600000"/>
	</g>
</svg>
