<svg width="139.000000" height="142.000000" viewBox="0 0 139 142" fill="none" xmlns="http://www.w3.org/2000/svg" xmlns:xlink="http://www.w3.org/1999/xlink">
	<desc>
			Created with Pixso.
	</desc>
	<defs>
		<clipPath id="clip61_4">
			<rect id="тостер2" width="139.000000" height="142.000000" fill="white" fill-opacity="0"/>
		</clipPath>
	</defs>
	<rect id="тостер2" width="139.000000" height="142.000000" fill="#FFFFFF" fill-opacity="0"/>
	<g clip-path="url(#clip61_4)">
		<path id="Прямоугольник 28" d="M126 99L134.92 99C134.92 99 135.49 104.16 133.5 106.53C131.52 108.89 127.74 108.03 126.87 106.53C126 105.02 126 99 126 99Z" fill="#272525" fill-opacity="1.000000" fill-rule="evenodd"/>
		<path id="Прямоугольник 28" d="M134.92 99C134.92 99 135.49 104.16 133.5 106.53C131.52 108.89 127.74 108.03 126.87 106.53C126 105.02 126 99 126 99L134.92 99Z" stroke="#000000" stroke-opacity="1.000000" stroke-width="2.000000"/>
		<path id="Прямоугольник 28" d="M47 133L55.92 133C55.92 133 56.49 138.16 54.5 140.53C52.52 142.89 48.74 142.03 47.87 140.53C47 139.02 47 133 47 133Z" fill="#272525" fill-opacity="1.000000" fill-rule="evenodd"/>
		<path id="Прямоугольник 28" d="M55.92 133C55.92 133 56.49 138.16 54.5 140.53C52.52 142.89 48.74 142.03 47.87 140.53C47 139.02 47 133 47 133L55.92 133Z" stroke="#000000" stroke-opacity="1.000000" stroke-width="1.000000"/>
		<path id="Прямоугольник 28" d="M2.1 102L11 102C11 102 9.72 107.59 7.74 109.83C5.76 112.07 3.4 110.64 2.54 109.22C1.67 107.79 2.1 102 2.1 102Z" fill="#272525" fill-opacity="1.000000" fill-rule="evenodd"/>
		<path id="Прямоугольник 28" d="M11 102C11 102 9.72 107.59 7.74 109.83C5.76 112.07 3.4 110.64 2.54 109.22C1.67 107.79 2.1 102 2.1 102L11 102Z" stroke="#000000" stroke-opacity="1.000000" stroke-width="2.000000"/>
		<path id="Форма 53" d="M129.44 38.93C119.72 25.29 79.3 26.03 79.3 26.03C79.3 26.03 37.09 24.31 15.98 45.81C8.24 53.69 5.05 63.94 2.79 73.31C1.4 79.06 1.39 82.6 1.1 85.37C0.57 90.41 0.59 92.5 0.04 97.96C-0.46 102.99 2.95 106.47 7.75 110.66C11.02 113.5 14.57 116.89 19.36 120.49C31.18 129.38 39.83 134.03 49.01 135.83C56.68 137.33 80.36 128.27 102.52 119.12C124.69 109.97 138.93 96.69 138.93 96.69C138.93 96.69 139.49 79.53 137.25 64.53C135 49.54 130.49 40.41 129.44 38.93Z" fill="#92B7C7" fill-opacity="1.000000" fill-rule="evenodd"/>
		<path id="Форма 53" d="M79.3 26.03C79.3 26.03 37.09 24.31 15.98 45.81C8.24 53.69 5.05 63.94 2.79 73.31C1.4 79.06 1.39 82.6 1.1 85.37C0.57 90.41 0.59 92.5 0.04 97.96C-0.46 102.99 2.95 106.47 7.75 110.66C11.02 113.5 14.57 116.89 19.36 120.49C31.18 129.38 39.83 134.03 49.01 135.83C56.68 137.33 80.36 128.27 102.52 119.12C124.69 109.97 138.93 96.69 138.93 96.69C138.93 96.69 139.49 79.53 137.25 64.53C135 49.54 130.49 40.41 129.44 38.93C119.72 25.29 79.3 26.03 79.3 26.03ZM136.96 95.79Q137.43 79.28 135.27 64.83Q133.85 55.33 131.01 47.33Q129.07 41.87 127.81 40.09Q122.24 32.28 100.46 29.35Q89.29 27.85 79.34 28.03L79.28 28.03L79.22 28.03Q68.88 27.6 55.9 29.83Q30.15 34.23 17.41 47.21Q9.1 55.67 4.73 73.78Q3.69 78.12 3.26 83.59Q3.15 84.95 3.09 85.58Q2.82 88.11 2.57 91.74Q2.3 95.45 2.03 98.16Q1.59 102.63 9.06 109.15Q9.86 109.84 11.51 111.31Q16.99 116.21 20.56 118.89Q37.34 131.51 49.4 133.87Q57.64 135.48 101.76 117.27Q115.41 111.64 127.89 102.84Q133.58 98.83 136.96 95.79Z" fill="#000000" fill-opacity="1.000000" fill-rule="evenodd"/>
		<line id="Линия 20" x1="125.748047" y1="38.542664" x2="125.748047" y2="38.542664" stroke="#000000" stroke-opacity="1.000000" stroke-width="2.000000"/>
		<line id="Линия 21" x1="18.834961" y1="49.341003" x2="18.834961" y2="49.341003" stroke="#000000" stroke-opacity="1.000000" stroke-width="2.000000"/>
		<path id="Прямоугольник 29" d="M25.28 72.33C25.8 69.96 26.37 68.11 27.01 67.39C28.13 66.14 29.59 67.95 28.74 71.49C27.42 77.06 25.25 86.69 24.33 95.69C24.05 98.44 23.45 105.1 22.43 104.99C18.93 104.62 19.41 103.59 19.07 102.74C18.82 102.1 19.23 99.92 19.48 98.78C19.66 97.92 19.78 96.64 19.98 95.69C21.88 86.92 23.76 79.26 25.28 72.33Z" fill="#595A5A" fill-opacity="0.850980" fill-rule="evenodd"/>
		<path id="Прямоугольник 29" d="M24.33 95.69C24.05 98.44 23.45 105.1 22.43 104.99C18.93 104.62 19.41 103.59 19.07 102.74C18.82 102.1 19.23 99.92 19.48 98.78C19.66 97.92 19.78 96.64 19.98 95.69C21.88 86.92 23.76 79.26 25.28 72.33C25.8 69.96 26.37 68.11 27.01 67.39C28.13 66.14 29.59 67.95 28.74 71.49C27.42 77.06 25.25 86.69 24.33 95.69Z" stroke="#000000" stroke-opacity="1.000000" stroke-width="2.000000"/>
		<path id="Прямоугольник 30" d="M8.48 73.9C8.48 73.9 8.53 71.93 9.33 70.72C9.9 69.86 11.14 69.74 11.76 69.34C14.09 67.84 16.8 65 17.45 65C18.83 65 31.67 72.34 35.82 75.06C37.22 75.97 37.13 78.1 35.82 79.61C34.9 80.68 33.14 81.16 31.81 81.94C29.41 83.36 28.12 84.17 25.69 84.16C18.37 80.99 8.48 73.9 8.48 73.9Z" fill="#143136" fill-opacity="1.000000" fill-rule="evenodd"/>
		<path id="Прямоугольник 30" d="M8.48 73.9C8.48 73.9 8.53 71.93 9.33 70.72C9.9 69.86 11.14 69.74 11.76 69.34C14.09 67.84 16.8 65 17.45 65C18.83 65 31.67 72.34 35.82 75.06C37.22 75.97 37.13 78.1 35.82 79.61C34.9 80.68 33.14 81.16 31.81 81.94C29.41 83.36 28.12 84.17 25.69 84.16C18.37 80.99 8.48 73.9 8.48 73.9ZM10.6 72.94Q10.91 73.16 11.27 73.4Q13.33 74.81 15.42 76.15Q18.34 78.02 20.9 79.48Q23.81 81.13 26.08 82.15Q26.53 82.13 26.92 82.06Q27.43 81.96 27.95 81.75Q28.45 81.56 29.11 81.19Q29.56 80.95 30.61 80.33Q30.73 80.25 30.8 80.22Q31.17 80 31.65 79.76Q31.91 79.63 32.44 79.39Q33.32 78.98 33.68 78.77Q34.13 78.52 34.31 78.3Q34.58 77.99 34.72 77.65Q34.84 77.35 34.84 77.08Q34.84 76.81 34.73 76.74Q33.21 75.74 30.38 74.07Q27.52 72.38 24.63 70.76Q21.48 69.01 19.43 67.98Q18.35 67.44 17.7 67.17Q17.69 67.17 17.69 67.17Q17.31 67.47 16.42 68.23Q15.32 69.17 14.72 69.65Q13.67 70.49 12.84 71.03Q12.55 71.21 12.17 71.37Q11.99 71.45 11.65 71.57Q11.19 71.74 11.04 71.83Q10.99 71.85 10.97 71.87Q10.86 72.05 10.76 72.36Q10.67 72.62 10.6 72.94Z" fill="#000000" fill-opacity="1.000000" fill-rule="evenodd"/>
		<line id="Линия 22" x1="10.919189" y1="71.572632" x2="10.919189" y2="71.572632" stroke="#000000" stroke-opacity="1.000000" stroke-width="2.000000"/>
		<line id="Линия 23" x1="27.594727" y1="83.006226" x2="27.172607" y2="80.465454" stroke="#000000" stroke-opacity="1.000000" stroke-width="1.000000"/>
		<path id="Эллипс 11" d="M85.42 95.23C85.42 85.75 93.84 75.94 102.91 75.94C111.98 75.94 114.74 82.03 114.74 91.5C114.74 100.97 108.35 111 99.28 111C90.21 111 85.42 104.7 85.42 95.23Z" fill="#C4C4C4" fill-opacity="0.508571" fill-rule="evenodd"/>
		<path id="Эллипс 11" d="M102.91 75.94C111.98 75.94 114.74 82.03 114.74 91.5C114.74 100.97 108.35 111 99.28 111C90.21 111 85.42 104.7 85.42 95.23C85.42 85.75 93.84 75.94 102.91 75.94Z" stroke="#000000" stroke-opacity="1.000000" stroke-width="2.000000"/>
		<line id="Линия 24" x1="108.350586" y1="79.571533" x2="108.350586" y2="79.571533" stroke="#000000" stroke-opacity="1.000000" stroke-width="2.000000"/>
		<ellipse id="Эллипс 12" cx="103.019043" cy="83.513428" rx="0.639810" ry="1.384988" fill="#272525" fill-opacity="1.000000"/>
		<line id="Линия 25" x1="78.066406" y1="91.929810" x2="80.199219" y2="92.142944" stroke="#000000" stroke-opacity="1.000000" stroke-width="2.000000"/>
		<line id="Линия 26" x1="77.000000" y1="102.583496" x2="79.132812" y2="101.731201" stroke="#000000" stroke-opacity="1.000000" stroke-width="2.000000"/>
		<line id="Линия 27" x1="81.052246" y1="81.489136" x2="83.824707" y2="82.767578" stroke="#000000" stroke-opacity="1.000000" stroke-width="2.000000"/>
		<line id="Линия 28" x1="88.729736" y1="72.753052" x2="90.862549" y2="74.670776" stroke="#000000" stroke-opacity="1.000000" stroke-width="2.000000"/>
		<line id="Линия 29" x1="97.900391" y1="67.000000" x2="97.900391" y2="70.196167" stroke="#000000" stroke-opacity="1.000000" stroke-width="2.000000"/>
		<line id="Линия 30" x1="107.497559" y1="68.491577" x2="107.071045" y2="71.261597" stroke="#000000" stroke-opacity="1.000000" stroke-width="2.000000"/>
		<line id="Линия 31" x1="114.962158" y1="73.179199" x2="112.829346" y2="75.736084" stroke="#000000" stroke-opacity="1.000000" stroke-width="2.000000"/>
		<line id="Линия 32" x1="119.867188" y1="80.210693" x2="117.734375" y2="81.489136" stroke="#000000" stroke-opacity="1.000000" stroke-width="2.000000"/>
		<line id="Линия 33" x1="122.000000" y1="87.881348" x2="118.801025" y2="88.733643" stroke="#000000" stroke-opacity="1.000000" stroke-width="2.000000"/>
		<path id="Прямоугольник 31" d="M39.87 22.37C54.17 11.53 73.94 3.07 93.99 3.98C114.03 4.9 103.33 26.28 103.33 26.28C103.33 26.28 89.96 25.93 72.66 31.46C55.36 36.98 33.93 49 33.93 49C33.93 49 34.25 39.7 35.52 33.04C36.8 26.38 34.72 26.28 39.87 22.37Z" fill="#E7D29D" fill-opacity="1.000000" fill-rule="evenodd"/>
		<path id="Прямоугольник 31" d="M39.87 22.37C54.17 11.53 73.94 3.07 93.99 3.98C114.03 4.9 103.33 26.28 103.33 26.28C103.33 26.28 89.96 25.93 72.66 31.46C58.57 35.95 41.73 44.76 35.98 47.87C34.67 48.58 33.93 49 33.93 49C33.93 49 33.96 48.09 34.04 46.64C34.22 43.45 34.65 37.62 35.52 33.04C36.8 26.38 34.72 26.28 39.87 22.37ZM36.09 45.51Q55.85 34.72 72.05 29.55Q88.83 24.19 102.07 24.26Q104.03 19.86 104.17 15.41Q104.29 11.67 102.52 9.41Q100.04 6.26 93.9 5.98Q80.05 5.35 65.46 10.65Q61.58 12.06 57.86 13.8Q49.03 17.94 41.08 23.96Q38.89 25.63 38.41 26.49Q38.15 26.98 38.05 28.69Q37.89 31.31 37.49 33.42Q36.49 38.62 36.09 45.51Z" fill="#000000" fill-opacity="1.000000" fill-rule="evenodd"/>
		<path id="Форма 54" d="M101.73 6.41C102.98 6.12 96.1 -0.59 80.72 -0.24C65.35 0.11 57.38 3.56 49 8C40.62 12.44 43.91 10.29 38.49 14.02C34.78 16.58 30.27 19.31 29.37 23.21C27.14 32.83 26.93 42.34 26.61 44.03C26.29 45.72 33.72 48.57 33.72 48.57C33.72 48.57 34.15 48.88 34.35 46.46C34.45 45.29 34.61 42.21 34.89 40.65C35.2 38.85 35.42 36.95 36.05 33.15C36.78 28.82 35.81 26.4 38.49 23.95C41.31 21.39 45.84 18.28 49.42 16.24C56.43 12.25 64.38 9.27 64.38 9.27C80.88 4.1 89.31 3.02 101.73 6.41Z" fill="#904A25" fill-opacity="1.000000" fill-rule="evenodd"/>
		<path id="Форма 54" d="M64.38 9.27C80.39 4.25 88.81 3.09 100.66 6.13C100.73 6.15 100.8 6.17 100.88 6.19C101.16 6.26 101.45 6.34 101.73 6.41C101.88 6.38 101.92 6.25 101.83 6.06C101.78 5.94 101.69 5.79 101.55 5.63C101.51 5.58 101.46 5.52 101.41 5.47C101.34 5.39 101.26 5.31 101.17 5.23C99.08 3.24 92.31 -0.51 80.72 -0.24C65.35 0.11 57.38 3.56 49 8C40.62 12.44 43.91 10.29 38.49 14.02C34.78 16.58 30.27 19.31 29.37 23.21C27.14 32.83 26.93 42.34 26.61 44.03C26.29 45.72 33.72 48.57 33.72 48.57C33.72 48.57 33.98 48.76 34.19 47.69C34.2 47.69 34.2 47.69 34.2 47.69C34.26 47.39 34.31 46.99 34.35 46.46C34.45 45.29 34.61 42.21 34.89 40.65C35.2 38.85 35.42 36.95 36.05 33.15C36.27 31.84 36.34 30.7 36.39 29.69C36.52 27.35 36.62 25.66 38.49 23.95C41.31 21.39 45.84 18.28 49.42 16.24C56.43 12.25 64.38 9.27 64.38 9.27ZM34.11 47.65Q34.08 47.64 34.05 47.63Q34.06 47.63 34.08 47.64L34.11 47.65ZM33.25 47.32Q33.31 46.95 33.36 46.38Q33.38 46.1 33.44 45.25Q33.68 41.71 33.9 40.47Q34.04 39.67 34.31 37.82Q34.72 35.07 35.07 32.98Q35.28 31.73 35.39 29.63Q35.64 25.19 37.82 23.21Q42.28 19.16 48.93 15.37Q55.99 11.35 64.03 8.33L64.03 8.33L64.06 8.32L64.08 8.31Q76.95 4.28 84.5 3.63Q91.28 3.05 98.72 4.65Q97.97 4.19 97.03 3.75Q90.34 0.54 80.75 0.76Q70.36 0.99 62.52 3.3Q56.84 4.98 49.47 8.88Q46.7 10.35 44.24 11.58Q42.6 12.4 40.29 13.99Q39.53 14.52 39.06 14.85Q38.71 15.09 38 15.57Q31.07 20.28 30.34 23.44Q28.71 30.46 27.87 41.3Q27.68 43.72 27.59 44.21Q27.44 45.03 33.25 47.32Z" fill="#000000" fill-opacity="1.000000" fill-rule="evenodd"/>
		<ellipse id="Эллипс 13" cx="49.086670" cy="20.667664" rx="0.318327" ry="0.211318" fill="#000000" fill-opacity="1.000000"/>
		<ellipse id="Эллипс 13" cx="39.749268" cy="27.218506" rx="0.318327" ry="0.211318" fill="#000000" fill-opacity="1.000000"/>
		<ellipse id="Эллипс 13" cx="58.000000" cy="15.384705" rx="0.318327" ry="0.211318" fill="#000000" fill-opacity="1.000000"/>
		<ellipse id="Эллипс 13" cx="85.375977" cy="5.875366" rx="0.318327" ry="0.211318" fill="#000000" fill-opacity="1.000000"/>
		<ellipse id="Эллипс 13" cx="76.887207" cy="7.354553" rx="0.318327" ry="0.211318" fill="#000000" fill-opacity="1.000000"/>
		<ellipse id="Эллипс 13" cx="66.700928" cy="12.003601" rx="0.318327" ry="0.211318" fill="#000000" fill-opacity="1.000000"/>
		<ellipse id="Эллипс 13" cx="42.720215" cy="29.543030" rx="0.318327" ry="0.211318" fill="#000000" fill-opacity="1.000000"/>
		<path id="Прямоугольник 31" d="M53.87 28.37C68.17 17.53 87.94 9.07 107.99 9.98C128.03 10.9 117.33 32.28 117.33 32.28C117.33 32.28 103.96 31.93 86.66 37.46C69.36 42.98 47.93 55 47.93 55C47.93 55 48.25 45.7 49.52 39.04C50.8 32.38 48.72 32.28 53.87 28.37Z" fill="#E7D29D" fill-opacity="1.000000" fill-rule="evenodd"/>
		<path id="Прямоугольник 31" d="M53.87 28.37C68.17 17.53 87.94 9.07 107.99 9.98C128.03 10.9 117.33 32.28 117.33 32.28C117.33 32.28 103.96 31.93 86.66 37.46C72.57 41.95 55.73 50.76 49.98 53.87C48.67 54.58 47.93 55 47.93 55C47.93 55 47.96 54.09 48.04 52.64C48.22 49.45 48.65 43.62 49.52 39.04C50.8 32.38 48.72 32.28 53.87 28.37ZM50.09 51.51Q69.85 40.72 86.05 35.55Q102.83 30.19 116.07 30.26Q118.03 25.86 118.17 21.41Q118.29 17.67 116.52 15.41Q114.04 12.26 107.9 11.98Q94.05 11.35 79.46 16.65Q75.58 18.06 71.86 19.8Q63.03 23.94 55.08 29.96Q52.89 31.63 52.41 32.49Q52.15 32.98 52.05 34.69Q51.89 37.31 51.49 39.42Q50.49 44.62 50.09 51.51Z" fill="#000000" fill-opacity="1.000000" fill-rule="evenodd"/>
		<path id="Форма 54" d="M115.73 12.41C116.98 12.12 110.1 5.41 94.72 5.76C79.35 6.11 71.38 9.56 63 14C54.62 18.44 57.91 16.29 52.49 20.02C48.78 22.58 44.27 25.31 43.37 29.21C41.14 38.83 40.93 48.34 40.61 50.03C40.29 51.72 47.72 54.57 47.72 54.57C47.72 54.57 48.15 54.88 48.35 52.46C48.45 51.29 48.61 48.21 48.89 46.65C49.2 44.85 49.42 42.95 50.05 39.15C50.78 34.82 49.81 32.4 52.49 29.95C55.31 27.39 59.84 24.28 63.42 22.24C70.43 18.25 78.38 15.27 78.38 15.27C94.88 10.1 103.31 9.02 115.73 12.41Z" fill="#904A25" fill-opacity="1.000000" fill-rule="evenodd"/>
		<path id="Форма 54" d="M78.38 15.27C93.32 10.59 101.64 9.26 112.31 11.57C112.84 11.69 113.37 11.81 113.9 11.94C114.5 12.09 115.11 12.25 115.73 12.41C115.88 12.38 115.92 12.25 115.83 12.06C115.78 11.94 115.69 11.79 115.55 11.63C115.34 11.38 115.03 11.08 114.61 10.75C114.2 10.42 113.69 10.07 113.07 9.7C109.82 7.77 103.73 5.55 94.72 5.76C79.35 6.11 71.38 9.56 63 14C54.62 18.44 57.91 16.29 52.49 20.02C48.78 22.58 44.27 25.31 43.37 29.21C41.14 38.83 40.93 48.34 40.61 50.03C40.29 51.72 47.72 54.57 47.72 54.57C47.72 54.57 48.13 54.86 48.34 52.67Q48.33 52.67 48.33 52.66Q48.33 52.67 48.34 52.67C48.34 52.6 48.35 52.53 48.35 52.46C48.45 51.29 48.61 48.21 48.89 46.65C49.2 44.85 49.42 42.95 50.05 39.15C50.27 37.84 50.34 36.7 50.39 35.69C50.52 33.35 50.62 31.66 52.49 29.95C55.31 27.39 59.84 24.28 63.42 22.24C70.43 18.25 78.38 15.27 78.38 15.27ZM46.4 51.85Q46.41 51.58 46.44 51.18Q46.69 47.59 46.92 46.3Q47.06 45.51 47.32 43.67Q47.73 40.91 48.08 38.82Q48.28 37.62 48.4 35.58Q48.67 30.73 51.15 28.47Q55.69 24.34 62.43 20.5Q69.57 16.44 77.68 13.39L77.68 13.39L77.73 13.38L77.79 13.36Q90.76 9.3 98.41 8.64Q101.24 8.4 104.17 8.52Q99.9 7.64 94.77 7.76Q84.52 7.99 76.8 10.26Q71.22 11.91 63.93 15.77Q61.16 17.24 58.69 18.47Q57.12 19.26 54.86 20.82Q54.1 21.34 53.63 21.67Q53.28 21.91 52.56 22.4Q45.96 26.88 45.32 29.67Q43.71 36.61 42.87 47.38Q42.75 48.96 42.66 49.75Q42.73 49.81 42.81 49.87Q43.53 50.43 44.95 51.15Q45.67 51.52 46.4 51.85Z" fill="#000000" fill-opacity="1.000000" fill-rule="evenodd"/>
		<ellipse id="Эллипс 13" cx="101.095703" cy="27.528564" rx="0.318327" ry="0.211318" fill="#000000" fill-opacity="1.000000"/>
		<ellipse id="Эллипс 13" cx="115.526611" cy="22.879578" rx="0.318327" ry="0.211318" fill="#000000" fill-opacity="1.000000"/>
		<ellipse id="Эллипс 13" cx="112.343262" cy="29.007812" rx="0.318327" ry="0.211318" fill="#000000" fill-opacity="1.000000"/>
		<ellipse id="Эллипс 13" cx="104.279053" cy="22.245605" rx="0.318327" ry="0.211318" fill="#000000" fill-opacity="1.000000"/>
		<ellipse id="Эллипс 13" cx="98.336914" cy="22.245605" rx="0.318327" ry="0.211318" fill="#000000" fill-opacity="1.000000"/>
		<ellipse id="Эллипс 13" cx="95.578125" cy="33.234131" rx="0.318327" ry="0.211318" fill="#000000" fill-opacity="1.000000"/>
		<ellipse id="Эллипс 13" cx="81.359375" cy="30.909668" rx="0.318327" ry="0.211318" fill="#000000" fill-opacity="1.000000"/>
		<ellipse id="Эллипс 13" cx="85.391602" cy="17.596619" rx="0.318327" ry="0.211318" fill="#000000" fill-opacity="1.000000"/>
		<ellipse id="Эллипс 13" cx="105.764648" cy="12.947571" rx="0.318327" ry="0.211318" fill="#000000" fill-opacity="1.000000"/>
		<ellipse id="Эллипс 13" cx="115.950928" cy="15.694702" rx="0.318327" ry="0.211318" fill="#000000" fill-opacity="1.000000"/>
		<ellipse id="Эллипс 13" cx="52.922363" cy="49.928284" rx="0.318327" ry="0.211318" fill="#000000" fill-opacity="1.000000"/>
		<ellipse id="Эллипс 13" cx="54.620117" cy="35.136047" rx="0.318327" ry="0.211318" fill="#000000" fill-opacity="1.000000"/>
		<ellipse id="Эллипс 13" cx="65.230957" cy="41.686890" rx="0.318327" ry="0.211318" fill="#000000" fill-opacity="1.000000"/>
		<ellipse id="Эллипс 13" cx="56.317871" cy="41.898193" rx="0.318327" ry="0.211318" fill="#000000" fill-opacity="1.000000"/>
		<ellipse id="Эллипс 13" cx="73.295166" cy="35.136047" rx="0.318327" ry="0.211318" fill="#000000" fill-opacity="1.000000"/>
		<ellipse id="Эллипс 13" cx="66.928711" cy="25.626709" rx="0.318327" ry="0.211318" fill="#000000" fill-opacity="1.000000"/>
		<ellipse id="Эллипс 13" cx="59.288818" cy="30.698364" rx="0.318327" ry="0.211318" fill="#000000" fill-opacity="1.000000"/>
		<ellipse id="Эллипс 13" cx="72.021973" cy="19.287170" rx="0.318327" ry="0.211318" fill="#000000" fill-opacity="1.000000"/>
		<ellipse id="Эллипс 13" cx="63.533203" cy="33.234131" rx="0.318327" ry="0.211318" fill="#000000" fill-opacity="1.000000"/>
		<ellipse id="Эллипс 13" cx="94.941406" cy="16.117371" rx="0.318327" ry="0.211318" fill="#000000" fill-opacity="1.000000"/>
		<ellipse id="Эллипс 13" cx="89.423828" cy="25.838013" rx="0.318327" ry="0.211318" fill="#000000" fill-opacity="1.000000"/>
		<ellipse id="Эллипс 13" cx="81.783936" cy="23.302185" rx="0.318327" ry="0.211318" fill="#000000" fill-opacity="1.000000"/>
		<ellipse id="Эллипс 13" cx="73.083008" cy="25.204041" rx="0.318327" ry="0.211318" fill="#000000" fill-opacity="1.000000"/>
	</g>
</svg>
