<svg width="27.531250" height="45.999939" viewBox="0 0 27.5312 45.9999" fill="none" xmlns="http://www.w3.org/2000/svg" xmlns:xlink="http://www.w3.org/1999/xlink">
	<desc>
			Created with Pixso.
	</desc>
	<defs>
		<clipPath id="clip117_400">
			<rect id="banka9NoText" width="27.531254" height="45.999939" transform="matrix(-1 0 0 1 27.5312 0)" fill="white" fill-opacity="0"/>
		</clipPath>
	</defs>
	<g clip-path="url(#clip117_400)">
		<path id="Прямоугольник 32" d="M26.44 7.1C25.78 9.43 20.15 10.99 13.85 10.99C7.56 10.99 1.92 9.43 1.26 7.1C0.92 5.89 0 16.14 0 25.28C0 34.42 0.62 43.29 1.26 43.66C2.58 44.44 6.23 45.99 12.52 45.99C18.82 45.99 24.45 45.22 26.44 43.66C27.39 42.92 27.62 27.8 27.49 19C27.36 9.27 26.79 5.88 26.44 7.1Z" fill="#B7202B" fill-opacity="1.000000" fill-rule="evenodd"/>
		<path id="Прямоугольник 32" d="M26.43 7.13C25.73 9.45 20.12 10.99 13.85 10.99C7.8 10.99 2.36 9.55 1.36 7.37C1.35 7.34 1.33 7.31 1.32 7.27C1.3 7.22 1.28 7.16 1.26 7.1C1.21 6.92 1.15 6.99 1.07 7.27C1.07 7.31 1.06 7.35 1.05 7.4C0.63 9.29 0 17.67 0 25.28C0 34.42 0.62 43.29 1.26 43.66C2.58 44.44 6.23 45.99 12.52 45.99C18.82 45.99 24.45 45.22 26.44 43.66C27.39 42.92 27.62 27.8 27.49 19C27.39 11.83 27.06 8.1 26.75 7.12C26.75 7.12 26.75 7.11 26.74 7.1C26.64 6.78 26.53 6.78 26.44 7.1C26.44 7.1 26.44 7.11 26.44 7.11C26.44 7.12 26.44 7.12 26.43 7.13ZM26.56 7.61Q26.66 8.1 26.75 8.97Q26.91 10.49 27.02 12.88Q27.15 15.53 27.2 19Q27.24 22.48 27.22 26.46Q27.19 30.77 27.07 34.34Q26.94 38.36 26.73 40.71Q26.61 41.98 26.47 42.69Q26.4 43.05 26.33 43.26Q26.3 43.35 26.27 43.4Q26.26 43.42 26.25 43.43Q25.56 43.96 24.22 44.4Q22.91 44.82 21.05 45.12Q19.25 45.4 17.06 45.55Q14.9 45.7 12.52 45.7Q8.42 45.7 5.1 44.83Q3.86 44.5 2.81 44.08Q2.02 43.75 1.44 43.42Q1.43 43.4 1.41 43.37Q1.37 43.26 1.31 43.06Q1.2 42.64 1.09 41.87Q0.87 40.34 0.69 37.74Q0.51 35.12 0.4 31.95Q0.3 28.62 0.3 25.28Q0.3 22.05 0.44 18.43Q0.58 15.21 0.8 12.33Q1 9.64 1.21 8.19Q1.24 7.99 1.27 7.82Q1.66 8.42 2.46 8.94Q3.56 9.67 5.36 10.21Q7.1 10.73 9.28 11.01Q11.49 11.29 13.85 11.29Q16.22 11.29 18.42 11.01Q20.6 10.73 22.35 10.21Q24.14 9.67 25.25 8.94Q26.18 8.32 26.56 7.61Z" fill="#444343" fill-opacity="1.000000" fill-rule="evenodd"/>
		<ellipse id="Эллипс 15" rx="0.416667" ry="0.414634" transform="matrix(-1 0 0 1 22.1941 41.3512)" fill="#482706" fill-opacity="1.000000"/>
		<ellipse id="Эллипс 15" rx="0.416667" ry="0.414634" transform="matrix(-1 0 0 1 7.74976 31.3171)" fill="#482706" fill-opacity="1.000000"/>
		<ellipse id="Эллипс 15" rx="0.416667" ry="0.414634" transform="matrix(-1 0 0 1 5.34229 38.2)" fill="#482706" fill-opacity="1.000000"/>
		<ellipse id="Эллипс 15" rx="0.416667" ry="0.414634" transform="matrix(-1 0 0 1 13.1199 41.3512)" fill="#482706" fill-opacity="1.000000"/>
		<ellipse id="Эллипс 15" rx="0.416667" ry="0.414634" transform="matrix(-1 0 0 1 23.4905 35.0488)" fill="#482706" fill-opacity="1.000000"/>
		<ellipse id="Эллипс 15" rx="0.416667" ry="0.414634" transform="matrix(-1 0 0 1 4.04614 28.7463)" fill="#482706" fill-opacity="1.000000"/>
		<ellipse id="Эллипс 15" rx="0.416667" ry="0.414634" transform="matrix(-1 0 0 1 6.63867 24.0195)" fill="#482706" fill-opacity="1.000000"/>
		<ellipse id="Эллипс 15" rx="0.416667" ry="0.414634" transform="matrix(-1 0 0 1 8.58301 27.1707)" fill="#482706" fill-opacity="1.000000"/>
		<ellipse id="Эллипс 15" rx="0.416667" ry="0.414634" transform="matrix(-1 0 0 1 26.083 25.5951)" fill="#482706" fill-opacity="1.000000"/>
		<ellipse id="Эллипс 15" rx="0.416667" ry="0.414634" transform="matrix(-1 0 0 1 24.7866 19.2927)" fill="#482706" fill-opacity="1.000000"/>
		<ellipse id="Эллипс 15" rx="0.416667" ry="0.414634" transform="matrix(-1 0 0 1 10.2498 34.6341)" fill="#482706" fill-opacity="1.000000"/>
		<ellipse id="Эллипс 15" rx="0.416667" ry="0.414634" transform="matrix(-1 0 0 1 22.1941 30.3219)" fill="#482706" fill-opacity="1.000000"/>
		<ellipse id="Эллипс 15" rx="0.416667" ry="0.414634" transform="matrix(-1 0 0 1 4.04614 17.717)" fill="#482706" fill-opacity="1.000000"/>
		<ellipse id="Эллипс 15" rx="0.416667" ry="0.414634" transform="matrix(-1 0 0 1 4.04614 11.4146)" fill="#482706" fill-opacity="1.000000"/>
		<ellipse id="Эллипс 15" rx="0.416667" ry="0.414634" transform="matrix(-1 0 0 1 9.2312 11.4146)" fill="#482706" fill-opacity="1.000000"/>
		<ellipse id="Эллипс 15" rx="0.416667" ry="0.414634" transform="matrix(-1 0 0 1 15.2498 14.7317)" fill="#482706" fill-opacity="1.000000"/>
		<ellipse id="Эллипс 15" rx="0.416667" ry="0.414634" transform="matrix(-1 0 0 1 19.6016 12.9902)" fill="#482706" fill-opacity="1.000000"/>
		<ellipse id="Эллипс 15" rx="0.416667" ry="0.414634" transform="matrix(-1 0 0 1 24.7866 11.4146)" fill="#482706" fill-opacity="1.000000"/>
		<ellipse id="Эллипс 15" rx="0.416667" ry="0.414634" transform="matrix(-1 0 0 1 14.4163 37.1219)" fill="#482706" fill-opacity="1.000000"/>
		<ellipse id="Эллипс 15" rx="0.416667" ry="0.414634" transform="matrix(-1 0 0 1 17.7498 43.756)" fill="#482706" fill-opacity="1.000000"/>
		<ellipse id="Эллипс 15" rx="0.416667" ry="0.414634" transform="matrix(-1 0 0 1 10.2498 44.5853)" fill="#482706" fill-opacity="1.000000"/>
		<ellipse id="Эллипс 15" rx="0.416667" ry="0.414634" transform="matrix(-1 0 0 1 4.41626 42.9268)" fill="#482706" fill-opacity="1.000000"/>
		<ellipse id="Эллипс 15" rx="0.416667" ry="0.414634" transform="matrix(-1 0 0 1 18.583 37.9512)" fill="#482706" fill-opacity="1.000000"/>
		<ellipse id="Эллипс 15" rx="0.416667" ry="0.414634" transform="matrix(-1 0 0 1 10.2498 37.9512)" fill="#482706" fill-opacity="1.000000"/>
		<ellipse id="Эллипс 15" rx="0.416667" ry="0.414634" transform="matrix(-1 0 0 1 1.91626 33.8049)" fill="#482706" fill-opacity="1.000000"/>
		<ellipse id="Эллипс 15" rx="0.416667" ry="0.414634" transform="matrix(-1 0 0 1 2.74976 23.8536)" fill="#482706" fill-opacity="1.000000"/>
		<ellipse id="Эллипс 15" rx="0.416667" ry="0.414634" transform="matrix(-1 0 0 1 19.4163 18.0488)" fill="#482706" fill-opacity="1.000000"/>
		<ellipse id="Эллипс 15" rx="0.416667" ry="0.414634" transform="matrix(-1 0 0 1 25.2498 33.8049)" fill="#482706" fill-opacity="1.000000"/>
		<ellipse id="Эллипс 15" rx="0.416667" ry="0.414634" transform="matrix(-1 0 0 1 23.583 39.6097)" fill="#482706" fill-opacity="1.000000"/>
		<ellipse id="Эллипс 15" rx="0.416667" ry="0.414634" transform="matrix(-1 0 0 1 21.083 25.5121)" fill="#482706" fill-opacity="1.000000"/>
		<ellipse id="Эллипс 15" rx="0.416667" ry="0.414634" transform="matrix(-1 0 0 1 23.583 16.3902)" fill="#482706" fill-opacity="1.000000"/>
		<ellipse id="Эллипс 15" rx="0.416667" ry="0.414634" transform="matrix(-1 0 0 1 5.24976 14.7317)" fill="#482706" fill-opacity="1.000000"/>
		<ellipse id="Эллипс 15" rx="0.416667" ry="0.414634" transform="matrix(-1 0 0 1 10.2498 15.561)" fill="#482706" fill-opacity="1.000000"/>
		<path id="Эллипс 14" d="M27.4 7.07C27.4 5.67 28.3 3.05 24.58 2.35C22.51 1.96 16.68 3.14 14.03 3.14C6.65 3.14 -0.74 6.1e-5 0.67 7.07C0.67 9.24 6.65 11 14.03 11C21.41 11 27.4 9.24 27.4 7.07Z" fill="#6D7FE0" fill-opacity="1.000000" fill-rule="evenodd"/>
		<path id="Эллипс 14" d="M0.67 7.07C0.67 9.24 6.65 11 14.03 11C21.41 11 27.4 9.24 27.4 7.07C27.4 6.85 27.42 6.61 27.44 6.36C27.57 4.92 27.74 2.94 24.58 2.35C23.37 2.12 20.87 2.43 18.48 2.73C16.78 2.94 15.13 3.14 14.03 3.14C12.16 3.14 10.29 2.94 8.57 2.75C3.47 2.2 -0.38 1.79 0.67 7.07ZM0.97 7.04L0.97 7.07L0.97 7.07C0.97 7.5 1.28 7.92 1.89 8.35C2.54 8.8 3.47 9.2 4.67 9.56C5.88 9.91 7.29 10.19 8.87 10.39C10.51 10.59 12.23 10.7 14.03 10.7C15.83 10.7 17.55 10.59 19.2 10.39C20.78 10.19 22.18 9.91 23.4 9.56C24.6 9.2 25.53 8.8 26.18 8.35C26.79 7.92 27.1 7.5 27.1 7.07L27.1 7.07C27.1 6.92 27.11 6.67 27.14 6.33C27.16 6.09 27.18 5.91 27.18 5.78C27.2 5.57 27.2 5.39 27.19 5.22C27.17 4.81 27.1 4.46 26.97 4.16C26.93 4.08 26.89 4 26.84 3.92C26.69 3.67 26.48 3.45 26.21 3.27C25.79 2.99 25.23 2.78 24.53 2.65C24.02 2.55 23.17 2.55 22 2.64C21.52 2.68 20.96 2.74 20.31 2.81C19.91 2.85 19.32 2.93 18.52 3.02C17.39 3.16 16.57 3.26 16.06 3.31C15.21 3.4 14.53 3.44 14.03 3.44C13.2 3.44 12.26 3.4 11.22 3.31C10.61 3.26 9.71 3.18 8.53 3.05C7.7 2.96 7.09 2.9 6.69 2.86C6.05 2.8 5.49 2.77 5.03 2.75C3.9 2.71 3.03 2.8 2.41 3.01C2.07 3.12 1.78 3.27 1.56 3.46C1.49 3.52 1.42 3.59 1.36 3.66C1.22 3.82 1.11 4 1.02 4.2C0.74 4.86 0.72 5.8 0.96 7.01L0.97 7.04Z" fill="#444443" fill-opacity="1.000000" fill-rule="evenodd"/>
		<ellipse id="Эллипс 14" rx="13.364669" ry="3.928481" transform="matrix(-1 0 0 1 14.0381 3.92847)" fill="#6D7FE0" fill-opacity="1.000000"/>
		<ellipse id="Эллипс 14" rx="13.214669" ry="3.778481" transform="matrix(-1 0 0 1 14.0381 3.92847)" stroke="#444443" stroke-opacity="1.000000" stroke-width="0.300000"/>
	</g>
</svg>
