<svg width="27.031494" height="45.999939" viewBox="0 0 27.0315 45.9999" fill="none" xmlns="http://www.w3.org/2000/svg" xmlns:xlink="http://www.w3.org/1999/xlink">
	<desc>
			Created with Pixso.
	</desc>
	<defs>
		<clipPath id="clip108_43">
			<rect id="banka2NoText" width="27.031590" height="45.999939" fill="white" fill-opacity="0"/>
		</clipPath>
	</defs>
	<g clip-path="url(#clip108_43)">
		<path id="Прямоугольник 32" d="M1.08 7.1C1.74 9.43 7.37 10.99 13.67 10.99C19.97 10.99 25.6 9.43 26.26 7.1C26.61 5.89 27 16.35 27 25.5C27 34.64 27.13 43.12 26.5 43.5C25.17 44.27 21.29 45.99 15 45.99C8.7 45.99 3.07 45.22 1.08 43.66C0.13 42.92 -0.1 27.8 0.03 19C0.16 9.27 0.73 5.88 1.08 7.1Z" fill="#869C53" fill-opacity="1.000000" fill-rule="evenodd"/>
		<path id="Прямоугольник 32" d="M1.09 7.13C1.79 9.45 7.4 10.99 13.67 10.99C19.67 10.99 25.07 9.58 26.13 7.43C26.16 7.38 26.18 7.33 26.2 7.28C26.22 7.22 26.24 7.16 26.26 7.1C26.31 6.92 26.36 7 26.42 7.29C26.43 7.34 26.43 7.4 26.44 7.47C26.73 9.52 27 17.96 27 25.5C27 26.91 27 28.31 27 29.67C27.02 37.07 27.03 43.18 26.5 43.5C25.17 44.27 21.29 45.99 15 45.99C8.7 45.99 3.07 45.22 1.08 43.66C0.13 42.92 -0.1 27.8 0.03 19C0.13 11.83 0.46 8.1 0.77 7.12C0.77 7.12 0.77 7.11 0.78 7.1C0.88 6.78 0.99 6.78 1.08 7.1C1.08 7.1 1.08 7.11 1.08 7.11C1.08 7.12 1.08 7.12 1.09 7.13ZM0.96 7.61Q0.86 8.1 0.77 8.97Q0.61 10.49 0.5 12.88Q0.38 15.53 0.33 19Q0.28 22.48 0.3 26.46Q0.33 30.77 0.45 34.34Q0.58 38.36 0.8 40.71Q0.91 41.98 1.05 42.69Q1.12 43.05 1.19 43.26Q1.22 43.35 1.25 43.4Q1.26 43.42 1.27 43.43Q1.96 43.96 3.3 44.4Q4.61 44.82 6.47 45.12Q8.27 45.4 10.47 45.55Q12.62 45.7 15 45.7Q19.08 45.7 22.53 44.75Q23.81 44.4 24.91 43.94Q25.72 43.6 26.31 43.25Q26.31 43.25 26.32 43.24Q26.35 43.18 26.38 43.04Q26.45 42.75 26.51 42.21Q26.61 41.19 26.66 39.23Q26.7 37.57 26.71 34.91Q26.71 33.29 26.7 29.67Q26.7 26.92 26.7 25.5Q26.7 22.15 26.63 18.6Q26.57 15.2 26.46 12.43Q26.35 9.62 26.22 8.2Q26.21 8.04 26.19 7.91Q25.8 8.46 25.06 8.94Q23.96 9.67 22.16 10.21Q20.42 10.73 18.24 11.01Q16.04 11.29 13.67 11.29Q11.3 11.29 9.1 11.01Q6.92 10.73 5.18 10.21Q3.38 9.67 2.27 8.94Q1.34 8.32 0.96 7.61Z" fill="#444343" fill-opacity="1.000000" fill-rule="evenodd"/>
		<ellipse id="Эллипс 15" cx="5.337158" cy="41.351196" rx="0.416667" ry="0.414634" fill="#CAD090" fill-opacity="1.000000"/>
		<ellipse id="Эллипс 15" cx="19.781494" cy="31.317078" rx="0.416667" ry="0.414634" fill="#CAD090" fill-opacity="1.000000"/>
		<ellipse id="Эллипс 15" cx="22.188965" cy="38.199951" rx="0.416667" ry="0.414634" fill="#CAD090" fill-opacity="1.000000"/>
		<ellipse id="Эллипс 15" cx="14.411377" cy="41.351196" rx="0.416667" ry="0.414634" fill="#CAD090" fill-opacity="1.000000"/>
		<ellipse id="Эллипс 15" cx="4.040771" cy="35.048767" rx="0.416667" ry="0.414634" fill="#CAD090" fill-opacity="1.000000"/>
		<ellipse id="Эллипс 15" cx="23.485107" cy="28.746338" rx="0.416667" ry="0.414634" fill="#CAD090" fill-opacity="1.000000"/>
		<ellipse id="Эллипс 15" cx="20.892578" cy="24.019470" rx="0.416667" ry="0.414634" fill="#CAD090" fill-opacity="1.000000"/>
		<ellipse id="Эллипс 15" cx="18.948242" cy="27.170715" rx="0.416667" ry="0.414634" fill="#CAD090" fill-opacity="1.000000"/>
		<ellipse id="Эллипс 15" cx="1.448242" cy="25.595093" rx="0.416667" ry="0.414634" fill="#CAD090" fill-opacity="1.000000"/>
		<ellipse id="Эллипс 15" cx="2.744629" cy="19.292664" rx="0.416667" ry="0.414634" fill="#CAD090" fill-opacity="1.000000"/>
		<ellipse id="Эллипс 15" cx="17.281494" cy="34.634094" rx="0.416667" ry="0.414634" fill="#CAD090" fill-opacity="1.000000"/>
		<ellipse id="Эллипс 15" cx="5.337158" cy="30.321899" rx="0.416667" ry="0.414634" fill="#CAD090" fill-opacity="1.000000"/>
		<ellipse id="Эллипс 15" cx="23.485107" cy="17.717041" rx="0.416667" ry="0.414634" fill="#CAD090" fill-opacity="1.000000"/>
		<ellipse id="Эллипс 15" cx="23.485107" cy="11.414612" rx="0.416667" ry="0.414634" fill="#CAD090" fill-opacity="1.000000"/>
		<ellipse id="Эллипс 15" cx="18.300049" cy="11.414612" rx="0.416667" ry="0.414634" fill="#CAD090" fill-opacity="1.000000"/>
		<ellipse id="Эллипс 15" cx="12.281494" cy="14.731689" rx="0.416667" ry="0.414634" fill="#CAD090" fill-opacity="1.000000"/>
		<ellipse id="Эллипс 15" cx="7.929688" cy="12.990234" rx="0.416667" ry="0.414634" fill="#CAD090" fill-opacity="1.000000"/>
		<ellipse id="Эллипс 15" cx="2.744629" cy="11.414612" rx="0.416667" ry="0.414634" fill="#CAD090" fill-opacity="1.000000"/>
		<ellipse id="Эллипс 15" cx="13.114990" cy="37.121948" rx="0.416667" ry="0.414634" fill="#CAD090" fill-opacity="1.000000"/>
		<ellipse id="Эллипс 15" cx="9.781494" cy="43.756042" rx="0.416667" ry="0.414634" fill="#CAD090" fill-opacity="1.000000"/>
		<ellipse id="Эллипс 15" cx="17.281494" cy="44.585327" rx="0.416667" ry="0.414634" fill="#CAD090" fill-opacity="1.000000"/>
		<ellipse id="Эллипс 15" cx="23.114990" cy="42.926819" rx="0.416667" ry="0.414634" fill="#CAD090" fill-opacity="1.000000"/>
		<ellipse id="Эллипс 15" cx="8.948242" cy="37.951172" rx="0.416667" ry="0.414634" fill="#CAD090" fill-opacity="1.000000"/>
		<ellipse id="Эллипс 15" cx="17.281494" cy="37.951172" rx="0.416667" ry="0.414634" fill="#CAD090" fill-opacity="1.000000"/>
		<ellipse id="Эллипс 15" cx="25.614990" cy="33.804871" rx="0.416667" ry="0.414634" fill="#CAD090" fill-opacity="1.000000"/>
		<ellipse id="Эллипс 15" cx="24.781494" cy="23.853638" rx="0.416667" ry="0.414634" fill="#CAD090" fill-opacity="1.000000"/>
		<ellipse id="Эллипс 15" cx="8.114990" cy="18.048767" rx="0.416667" ry="0.414634" fill="#CAD090" fill-opacity="1.000000"/>
		<ellipse id="Эллипс 15" cx="2.281494" cy="33.804871" rx="0.416667" ry="0.414634" fill="#CAD090" fill-opacity="1.000000"/>
		<ellipse id="Эллипс 15" cx="3.948242" cy="39.609741" rx="0.416667" ry="0.414634" fill="#CAD090" fill-opacity="1.000000"/>
		<ellipse id="Эллипс 15" cx="6.448242" cy="25.512146" rx="0.416667" ry="0.414634" fill="#CAD090" fill-opacity="1.000000"/>
		<ellipse id="Эллипс 15" cx="3.948242" cy="16.390198" rx="0.416667" ry="0.414634" fill="#CAD090" fill-opacity="1.000000"/>
		<ellipse id="Эллипс 15" cx="22.281494" cy="14.731689" rx="0.416667" ry="0.414634" fill="#CAD090" fill-opacity="1.000000"/>
		<ellipse id="Эллипс 15" cx="17.281494" cy="15.560974" rx="0.416667" ry="0.414634" fill="#CAD090" fill-opacity="1.000000"/>
		<path id="Эллипс 14" d="M0.12 7.07C0.12 5.67 -0.78 3.05 2.94 2.35C5.01 1.96 10.85 3.14 13.49 3.14C20.87 3.14 28.26 6.1e-5 26.85 7.07C26.85 9.24 20.87 11 13.49 11C6.11 11 0.12 9.24 0.12 7.07Z" fill="#9E871E" fill-opacity="1.000000" fill-rule="evenodd"/>
		<path id="Эллипс 14" d="M26.85 7.07C26.85 9.24 20.87 11 13.49 11C6.11 11 0.12 9.24 0.12 7.07C0.12 6.85 0.1 6.61 0.08 6.36C-0.04 4.92 -0.22 2.94 2.94 2.35C4.15 2.12 6.65 2.43 9.04 2.73C10.74 2.94 12.39 3.14 13.49 3.14C15.36 3.14 17.23 2.94 18.95 2.75C24.05 2.2 27.9 1.79 26.85 7.07ZM26.55 7.04L26.55 7.07L26.55 7.07Q26.55 7.71 25.63 8.35Q24.66 9.03 22.85 9.56Q21.03 10.09 18.65 10.39Q16.19 10.7 13.49 10.7Q10.79 10.7 8.32 10.39Q5.95 10.09 4.12 9.56Q2.32 9.03 1.35 8.35Q0.43 7.71 0.42 7.07L0.42 7.07Q0.42 6.84 0.38 6.33Q0.35 5.97 0.34 5.78Q0.32 5.47 0.33 5.22Q0.35 4.6 0.55 4.16Q0.61 4.04 0.68 3.92Q0.91 3.55 1.31 3.27Q1.94 2.84 2.99 2.65Q3.76 2.5 5.52 2.64Q6.23 2.7 7.21 2.81Q7.8 2.88 9.01 3.02Q10.7 3.23 11.46 3.31Q12.74 3.44 13.49 3.44Q14.74 3.44 16.3 3.31Q17.22 3.24 18.99 3.05Q20.24 2.91 20.83 2.86Q21.79 2.77 22.49 2.75Q24.18 2.7 25.11 3.01Q25.63 3.18 25.96 3.46Q26.07 3.55 26.16 3.66Q26.37 3.9 26.5 4.2Q26.92 5.19 26.56 7.01L26.55 7.04Z" fill="#444443" fill-opacity="1.000000" fill-rule="evenodd"/>
		<ellipse id="Эллипс 14" cx="13.493164" cy="3.928467" rx="13.364669" ry="3.928481" fill="#9E871E" fill-opacity="1.000000"/>
		<ellipse id="Эллипс 14" cx="13.493164" cy="3.928467" rx="13.214669" ry="3.778481" stroke="#444443" stroke-opacity="1.000000" stroke-width="0.300000"/>
	</g>
</svg>
