<svg width="27.031494" height="45.999939" viewBox="0 0 27.0315 45.9999" fill="none" xmlns="http://www.w3.org/2000/svg" xmlns:xlink="http://www.w3.org/1999/xlink">
	<desc>
			Created with Pixso.
	</desc>
	<defs>
		<clipPath id="clip114_205">
			<rect id="banka4NoText" width="27.031496" height="45.999939" transform="matrix(-1 0 0 1 27.0315 0)" fill="white" fill-opacity="0"/>
		</clipPath>
	</defs>
	<g clip-path="url(#clip114_205)">
		<path id="Прямоугольник 32" d="M25.94 7.1C25.28 9.43 19.65 10.99 13.35 10.99C7.06 10.99 1.42 9.43 0.76 7.1C0.42 5.89 0 16.85 0 26C0 35.14 0.12 43.29 0.76 43.66C2.08 44.44 5.73 45.99 12.02 45.99C18.32 45.99 23.95 45.22 25.94 43.66C26.89 42.92 27.12 27.8 27 19C26.86 9.27 26.29 5.88 25.94 7.1Z" fill="#539C93" fill-opacity="1.000000" fill-rule="evenodd"/>
		<path id="Прямоугольник 32" d="M25.94 7.13C25.24 9.45 19.62 10.99 13.35 10.99C7.36 10.99 1.96 9.58 0.89 7.43C0.87 7.38 0.84 7.33 0.82 7.28C0.8 7.22 0.78 7.16 0.76 7.1C0.71 6.93 0.66 7 0.61 7.29C0.6 7.35 0.59 7.41 0.58 7.48C0.28 9.59 0 18.42 0 26C0 35.14 0.12 43.29 0.76 43.66C2.08 44.44 5.73 45.99 12.02 45.99C18.32 45.99 23.95 45.22 25.94 43.66C26.89 42.92 27.12 27.8 27 19C26.89 11.83 26.56 8.1 26.25 7.12C26.25 7.12 26.25 7.11 26.25 7.1C26.14 6.78 26.03 6.78 25.94 7.1C25.94 7.1 25.94 7.11 25.94 7.11C25.94 7.12 25.94 7.12 25.94 7.13ZM26.06 7.61Q26.16 8.1 26.25 8.97Q26.41 10.49 26.52 12.88Q26.65 15.53 26.7 19Q26.74 22.48 26.72 26.46Q26.69 30.77 26.57 34.34Q26.44 38.36 26.23 40.71Q26.11 41.98 25.97 42.69Q25.9 43.05 25.83 43.26Q25.8 43.35 25.77 43.4Q25.76 43.42 25.75 43.43Q25.06 43.96 23.72 44.4Q22.41 44.82 20.55 45.12Q18.75 45.4 16.56 45.55Q14.4 45.7 12.02 45.7Q7.92 45.7 4.6 44.83Q3.36 44.5 2.31 44.08Q1.52 43.75 0.94 43.42Q0.93 43.4 0.92 43.38Q0.88 43.28 0.84 43.1Q0.75 42.71 0.67 42Q0.53 40.64 0.44 38.11Q0.3 33.96 0.3 26Q0.3 22.66 0.37 19.02Q0.43 15.56 0.55 12.68Q0.66 9.77 0.79 8.28Q0.81 8.08 0.83 7.91Q1.22 8.46 1.96 8.94Q3.06 9.67 4.86 10.21Q6.6 10.73 8.78 11.01Q10.99 11.29 13.35 11.29Q15.72 11.29 17.92 11.01Q20.1 10.73 21.85 10.21Q23.64 9.67 24.75 8.94Q25.69 8.32 26.06 7.61Z" fill="#444343" fill-opacity="1.000000" fill-rule="evenodd"/>
		<ellipse id="Эллипс 15" rx="0.416667" ry="0.414634" transform="matrix(-1 0 0 1 21.6943 41.3512)" fill="#FFA17A" fill-opacity="1.000000"/>
		<ellipse id="Эллипс 15" rx="0.416667" ry="0.414634" transform="matrix(-1 0 0 1 7.25 31.3171)" fill="#FFA17A" fill-opacity="1.000000"/>
		<ellipse id="Эллипс 15" rx="0.416667" ry="0.414634" transform="matrix(-1 0 0 1 4.84253 38.2)" fill="#FFA17A" fill-opacity="1.000000"/>
		<ellipse id="Эллипс 15" rx="0.416667" ry="0.414634" transform="matrix(-1 0 0 1 12.6201 41.3512)" fill="#FFA17A" fill-opacity="1.000000"/>
		<ellipse id="Эллипс 15" rx="0.416667" ry="0.414634" transform="matrix(-1 0 0 1 22.9907 35.0488)" fill="#FFA17A" fill-opacity="1.000000"/>
		<ellipse id="Эллипс 15" rx="0.416667" ry="0.414634" transform="matrix(-1 0 0 1 3.54639 28.7463)" fill="#FFA17A" fill-opacity="1.000000"/>
		<ellipse id="Эллипс 15" rx="0.416667" ry="0.414634" transform="matrix(-1 0 0 1 6.13892 24.0195)" fill="#FFA17A" fill-opacity="1.000000"/>
		<ellipse id="Эллипс 15" rx="0.416667" ry="0.414634" transform="matrix(-1 0 0 1 8.08325 27.1707)" fill="#FFA17A" fill-opacity="1.000000"/>
		<ellipse id="Эллипс 15" rx="0.416667" ry="0.414634" transform="matrix(-1 0 0 1 25.5833 25.5951)" fill="#FFA17A" fill-opacity="1.000000"/>
		<ellipse id="Эллипс 15" rx="0.416667" ry="0.414634" transform="matrix(-1 0 0 1 24.2869 19.2927)" fill="#FFA17A" fill-opacity="1.000000"/>
		<ellipse id="Эллипс 15" rx="0.416667" ry="0.414634" transform="matrix(-1 0 0 1 9.75 34.6341)" fill="#FFA17A" fill-opacity="1.000000"/>
		<ellipse id="Эллипс 15" rx="0.416667" ry="0.414634" transform="matrix(-1 0 0 1 21.6943 30.3219)" fill="#FFA17A" fill-opacity="1.000000"/>
		<ellipse id="Эллипс 15" rx="0.416667" ry="0.414634" transform="matrix(-1 0 0 1 3.54639 17.717)" fill="#FFA17A" fill-opacity="1.000000"/>
		<ellipse id="Эллипс 15" rx="0.416667" ry="0.414634" transform="matrix(-1 0 0 1 3.54639 11.4146)" fill="#FFA17A" fill-opacity="1.000000"/>
		<ellipse id="Эллипс 15" rx="0.416667" ry="0.414634" transform="matrix(-1 0 0 1 8.73145 11.4146)" fill="#FFA17A" fill-opacity="1.000000"/>
		<ellipse id="Эллипс 15" rx="0.416667" ry="0.414634" transform="matrix(-1 0 0 1 14.75 14.7317)" fill="#FFA17A" fill-opacity="1.000000"/>
		<ellipse id="Эллипс 15" rx="0.416667" ry="0.414634" transform="matrix(-1 0 0 1 19.1018 12.9902)" fill="#FFA17A" fill-opacity="1.000000"/>
		<ellipse id="Эллипс 15" rx="0.416667" ry="0.414634" transform="matrix(-1 0 0 1 24.2869 11.4146)" fill="#FFA17A" fill-opacity="1.000000"/>
		<ellipse id="Эллипс 15" rx="0.416667" ry="0.414634" transform="matrix(-1 0 0 1 13.9165 37.1219)" fill="#FFA17A" fill-opacity="1.000000"/>
		<ellipse id="Эллипс 15" rx="0.416667" ry="0.414634" transform="matrix(-1 0 0 1 17.25 43.756)" fill="#FFA17A" fill-opacity="1.000000"/>
		<ellipse id="Эллипс 15" rx="0.416667" ry="0.414634" transform="matrix(-1 0 0 1 9.75 44.5853)" fill="#FFA17A" fill-opacity="1.000000"/>
		<ellipse id="Эллипс 15" rx="0.416667" ry="0.414634" transform="matrix(-1 0 0 1 3.9165 42.9268)" fill="#FFA17A" fill-opacity="1.000000"/>
		<ellipse id="Эллипс 15" rx="0.416667" ry="0.414634" transform="matrix(-1 0 0 1 18.0833 37.9512)" fill="#FFA17A" fill-opacity="1.000000"/>
		<ellipse id="Эллипс 15" rx="0.416667" ry="0.414634" transform="matrix(-1 0 0 1 9.75 37.9512)" fill="#FFA17A" fill-opacity="1.000000"/>
		<ellipse id="Эллипс 15" rx="0.416667" ry="0.414634" transform="matrix(-1 0 0 1 1.4165 33.8049)" fill="#FFA17A" fill-opacity="1.000000"/>
		<ellipse id="Эллипс 15" rx="0.416667" ry="0.414634" transform="matrix(-1 0 0 1 2.25 23.8536)" fill="#FFA17A" fill-opacity="1.000000"/>
		<ellipse id="Эллипс 15" rx="0.416667" ry="0.414634" transform="matrix(-1 0 0 1 18.9165 18.0488)" fill="#FFA17A" fill-opacity="1.000000"/>
		<ellipse id="Эллипс 15" rx="0.416667" ry="0.414634" transform="matrix(-1 0 0 1 24.75 33.8049)" fill="#FFA17A" fill-opacity="1.000000"/>
		<ellipse id="Эллипс 15" rx="0.416667" ry="0.414634" transform="matrix(-1 0 0 1 23.0833 39.6097)" fill="#FFA17A" fill-opacity="1.000000"/>
		<ellipse id="Эллипс 15" rx="0.416667" ry="0.414634" transform="matrix(-1 0 0 1 20.5833 25.5121)" fill="#FFA17A" fill-opacity="1.000000"/>
		<ellipse id="Эллипс 15" rx="0.416667" ry="0.414634" transform="matrix(-1 0 0 1 23.0833 16.3902)" fill="#FFA17A" fill-opacity="1.000000"/>
		<ellipse id="Эллипс 15" rx="0.416667" ry="0.414634" transform="matrix(-1 0 0 1 4.75 14.7317)" fill="#FFA17A" fill-opacity="1.000000"/>
		<ellipse id="Эллипс 15" rx="0.416667" ry="0.414634" transform="matrix(-1 0 0 1 9.75 15.561)" fill="#FFA17A" fill-opacity="1.000000"/>
		<path id="Эллипс 14" d="M26.9 7.07C26.9 5.67 27.8 3.05 24.08 2.35C22.01 1.96 16.18 3.14 13.53 3.14C6.15 3.14 -1.24 6.1e-5 0.17 7.07C0.17 9.24 6.15 11 13.53 11C20.91 11 26.9 9.24 26.9 7.07Z" fill="#906C85" fill-opacity="1.000000" fill-rule="evenodd"/>
		<path id="Эллипс 14" d="M0.17 7.07C0.17 9.24 6.15 11 13.53 11C20.91 11 26.9 9.24 26.9 7.07C26.9 6.85 26.92 6.61 26.94 6.36C27.07 4.92 27.24 2.94 24.08 2.35C22.87 2.12 20.37 2.43 17.98 2.73C16.28 2.94 14.63 3.14 13.53 3.14C11.66 3.14 9.79 2.94 8.07 2.75C2.97 2.2 -0.88 1.79 0.17 7.07ZM0.47 7.04L0.47 7.07L0.47 7.07Q0.47 7.71 1.39 8.35Q2.36 9.03 4.17 9.56Q5.99 10.09 8.37 10.39Q10.83 10.7 13.53 10.7Q16.23 10.7 18.7 10.39Q21.07 10.09 22.9 9.56Q24.7 9.03 25.68 8.35Q26.6 7.71 26.6 7.07L26.6 7.07Q26.6 6.84 26.64 6.33Q26.67 5.97 26.68 5.78Q26.7 5.47 26.69 5.22Q26.67 4.6 26.47 4.16Q26.41 4.04 26.34 3.92Q26.11 3.55 25.71 3.27Q25.08 2.84 24.03 2.65Q23.26 2.5 21.5 2.64Q20.79 2.7 19.81 2.81Q19.22 2.88 18.02 3.02Q16.33 3.23 15.56 3.31Q14.28 3.44 13.53 3.44Q12.28 3.44 10.72 3.31Q9.8 3.24 8.04 3.05Q6.78 2.91 6.2 2.86Q5.23 2.77 4.53 2.75Q2.84 2.7 1.91 3.01Q1.4 3.18 1.06 3.46Q0.95 3.55 0.86 3.66Q0.65 3.9 0.52 4.2Q0.1 5.19 0.46 7.01L0.47 7.04Z" fill="#444443" fill-opacity="1.000000" fill-rule="evenodd"/>
		<ellipse id="Эллипс 14" rx="13.364669" ry="3.928481" transform="matrix(-1 0 0 1 13.5383 3.92847)" fill="#906C85" fill-opacity="1.000000"/>
		<ellipse id="Эллипс 14" rx="13.214669" ry="3.778481" transform="matrix(-1 0 0 1 13.5383 3.92847)" stroke="#444443" stroke-opacity="1.000000" stroke-width="0.300000"/>
	</g>
</svg>
