<svg width="27.016846" height="45.999939" viewBox="0 0 27.0168 45.9999" fill="none" xmlns="http://www.w3.org/2000/svg" xmlns:xlink="http://www.w3.org/1999/xlink">
	<desc>
			Created with Pixso.
	</desc>
	<defs>
		<clipPath id="clip115_361">
			<rect id="banka8NoText" width="27.016848" height="45.999939" fill="white" fill-opacity="0"/>
		</clipPath>
	</defs>
	<g clip-path="url(#clip115_361)">
		<path id="Прямоугольник 32" d="M1.06 7.1C1.73 9.43 7.36 10.99 13.65 10.99C19.95 10.99 25.58 9.43 26.25 7.1C26.59 5.89 26.98 22.85 26.98 32C26.98 41.14 26.88 43.29 26.25 43.66C24.92 44.44 21.28 45.99 14.98 45.99C8.69 45.99 2.19 45.92 1.06 43.66C0.48 42.5 -0.11 27.8 0.01 19C0.15 9.27 0.72 5.88 1.06 7.1Z" fill="#649B92" fill-opacity="1.000000" fill-rule="evenodd"/>
		<path id="Прямоугольник 32" d="M1.07 7.13C1.77 9.45 7.38 10.99 13.65 10.99C19.58 10.99 24.93 9.61 26.08 7.5C26.11 7.44 26.14 7.38 26.17 7.32C26.2 7.24 26.23 7.17 26.25 7.1C26.28 6.97 26.32 7.05 26.36 7.33C26.37 7.39 26.38 7.47 26.39 7.56C26.69 10.39 26.98 24.11 26.98 32C26.98 41.14 26.88 43.29 26.25 43.66C24.92 44.44 21.28 45.99 14.98 45.99C8.69 45.99 2.19 45.92 1.06 43.66C0.48 42.5 -0.11 27.8 0.01 19C0.11 11.83 0.45 8.1 0.76 7.12C0.76 7.12 0.76 7.11 0.76 7.1C0.87 6.78 0.97 6.78 1.06 7.1C1.06 7.1 1.07 7.11 1.07 7.11C1.07 7.12 1.07 7.12 1.07 7.13ZM0.95 7.61Q0.85 8.1 0.76 8.97Q0.6 10.49 0.49 12.88Q0.36 15.53 0.31 19Q0.27 22.2 0.34 26.39Q0.41 30.37 0.57 34.18Q0.73 38.03 0.93 40.53Q1.04 41.81 1.14 42.59Q1.25 43.36 1.33 43.53Q2.01 44.89 6.12 45.38Q7.82 45.58 10.32 45.65Q11.99 45.7 14.98 45.7Q19.09 45.7 22.4 44.83Q23.65 44.5 24.7 44.08Q25.51 43.75 26.09 43.4Q26.43 43.21 26.55 41.1Q26.63 39.87 26.66 37.62Q26.68 35.65 26.68 32Q26.68 28.6 26.61 24.08Q26.55 19.63 26.44 15.67Q26.33 11.47 26.21 9.21Q26.17 8.46 26.13 7.98Q25.74 8.49 25.05 8.94Q23.95 9.67 22.15 10.21Q20.41 10.73 18.22 11.01Q16.02 11.29 13.65 11.29Q11.29 11.29 9.09 11.01Q6.9 10.73 5.16 10.21Q3.37 9.67 2.26 8.94Q1.32 8.32 0.95 7.61Z" fill="#444343" fill-opacity="1.000000" fill-rule="evenodd"/>
		<ellipse id="Эллипс 15" cx="5.322510" cy="41.351196" rx="0.416667" ry="0.414634" fill="#7DC694" fill-opacity="1.000000"/>
		<ellipse id="Эллипс 15" cx="19.766846" cy="31.317078" rx="0.416667" ry="0.414634" fill="#7DC694" fill-opacity="1.000000"/>
		<ellipse id="Эллипс 15" cx="22.174316" cy="38.199951" rx="0.416667" ry="0.414634" fill="#7DC694" fill-opacity="1.000000"/>
		<ellipse id="Эллипс 15" cx="14.396729" cy="41.351196" rx="0.416667" ry="0.414634" fill="#7DC694" fill-opacity="1.000000"/>
		<ellipse id="Эллипс 15" cx="4.026123" cy="35.048767" rx="0.416667" ry="0.414634" fill="#7DC694" fill-opacity="1.000000"/>
		<ellipse id="Эллипс 15" cx="23.470459" cy="28.746338" rx="0.416667" ry="0.414634" fill="#7DC694" fill-opacity="1.000000"/>
		<ellipse id="Эллипс 15" cx="20.877930" cy="24.019470" rx="0.416667" ry="0.414634" fill="#7DC694" fill-opacity="1.000000"/>
		<ellipse id="Эллипс 15" cx="18.933594" cy="27.170715" rx="0.416667" ry="0.414634" fill="#7DC694" fill-opacity="1.000000"/>
		<ellipse id="Эллипс 15" cx="1.433594" cy="25.595093" rx="0.416667" ry="0.414634" fill="#7DC694" fill-opacity="1.000000"/>
		<ellipse id="Эллипс 15" cx="2.729980" cy="19.292664" rx="0.416667" ry="0.414634" fill="#7DC694" fill-opacity="1.000000"/>
		<ellipse id="Эллипс 15" cx="17.266846" cy="34.634094" rx="0.416667" ry="0.414634" fill="#7DC694" fill-opacity="1.000000"/>
		<ellipse id="Эллипс 15" cx="5.322510" cy="30.321899" rx="0.416667" ry="0.414634" fill="#7DC694" fill-opacity="1.000000"/>
		<ellipse id="Эллипс 15" cx="23.470459" cy="17.717041" rx="0.416667" ry="0.414634" fill="#7DC694" fill-opacity="1.000000"/>
		<ellipse id="Эллипс 15" cx="23.470459" cy="11.414612" rx="0.416667" ry="0.414634" fill="#7DC694" fill-opacity="1.000000"/>
		<ellipse id="Эллипс 15" cx="18.285400" cy="11.414612" rx="0.416667" ry="0.414634" fill="#7DC694" fill-opacity="1.000000"/>
		<ellipse id="Эллипс 15" cx="12.266846" cy="14.731689" rx="0.416667" ry="0.414634" fill="#7DC694" fill-opacity="1.000000"/>
		<ellipse id="Эллипс 15" cx="7.915039" cy="12.990234" rx="0.416667" ry="0.414634" fill="#7DC694" fill-opacity="1.000000"/>
		<ellipse id="Эллипс 15" cx="2.729980" cy="11.414612" rx="0.416667" ry="0.414634" fill="#7DC694" fill-opacity="1.000000"/>
		<ellipse id="Эллипс 15" cx="13.100342" cy="37.121948" rx="0.416667" ry="0.414634" fill="#7DC694" fill-opacity="1.000000"/>
		<ellipse id="Эллипс 15" cx="9.766846" cy="43.756042" rx="0.416667" ry="0.414634" fill="#7DC694" fill-opacity="1.000000"/>
		<ellipse id="Эллипс 15" cx="17.266846" cy="44.585327" rx="0.416667" ry="0.414634" fill="#7DC694" fill-opacity="1.000000"/>
		<ellipse id="Эллипс 15" cx="23.100342" cy="42.926819" rx="0.416667" ry="0.414634" fill="#7DC694" fill-opacity="1.000000"/>
		<ellipse id="Эллипс 15" cx="8.933594" cy="37.951172" rx="0.416667" ry="0.414634" fill="#7DC694" fill-opacity="1.000000"/>
		<ellipse id="Эллипс 15" cx="17.266846" cy="37.951172" rx="0.416667" ry="0.414634" fill="#7DC694" fill-opacity="1.000000"/>
		<ellipse id="Эллипс 15" cx="25.600342" cy="33.804871" rx="0.416667" ry="0.414634" fill="#7DC694" fill-opacity="1.000000"/>
		<ellipse id="Эллипс 15" cx="24.766846" cy="23.853638" rx="0.416667" ry="0.414634" fill="#7DC694" fill-opacity="1.000000"/>
		<ellipse id="Эллипс 15" cx="8.100342" cy="18.048767" rx="0.416667" ry="0.414634" fill="#7DC694" fill-opacity="1.000000"/>
		<ellipse id="Эллипс 15" cx="2.266846" cy="33.804871" rx="0.416667" ry="0.414634" fill="#7DC694" fill-opacity="1.000000"/>
		<ellipse id="Эллипс 15" cx="3.933594" cy="39.609741" rx="0.416667" ry="0.414634" fill="#7DC694" fill-opacity="1.000000"/>
		<ellipse id="Эллипс 15" cx="6.433594" cy="25.512146" rx="0.416667" ry="0.414634" fill="#7DC694" fill-opacity="1.000000"/>
		<ellipse id="Эллипс 15" cx="3.933594" cy="16.390198" rx="0.416667" ry="0.414634" fill="#7DC694" fill-opacity="1.000000"/>
		<ellipse id="Эллипс 15" cx="22.266846" cy="14.731689" rx="0.416667" ry="0.414634" fill="#7DC694" fill-opacity="1.000000"/>
		<ellipse id="Эллипс 15" cx="17.266846" cy="15.560974" rx="0.416667" ry="0.414634" fill="#7DC694" fill-opacity="1.000000"/>
		<path id="Эллипс 14" d="M0.11 7.07C0.11 5.67 -0.8 3.05 2.92 2.35C5 1.96 10.83 3.14 13.47 3.14C20.85 3.14 28.24 6.1e-5 26.84 7.07C26.84 9.24 20.85 11 13.47 11C6.09 11 0.11 9.24 0.11 7.07Z" fill="#C7EB7D" fill-opacity="1.000000" fill-rule="evenodd"/>
		<path id="Эллипс 14" d="M26.84 7.07C26.84 9.24 20.85 11 13.47 11C6.09 11 0.11 9.24 0.11 7.07C0.11 6.85 0.09 6.61 0.07 6.36C-0.06 4.92 -0.23 2.94 2.92 2.35C4.13 2.12 6.63 2.43 9.03 2.73C10.73 2.94 12.38 3.14 13.47 3.14C15.34 3.14 17.21 2.94 18.94 2.75C24.03 2.2 27.89 1.79 26.84 7.07ZM26.54 7.04L26.54 7.07L26.54 7.07Q26.54 7.71 25.62 8.35Q24.64 9.03 22.84 9.56Q21.01 10.09 18.64 10.39Q16.17 10.7 13.47 10.7Q10.77 10.7 8.31 10.39Q5.93 10.09 4.11 9.56Q2.31 9.03 1.33 8.35Q0.41 7.71 0.41 7.07L0.41 7.07Q0.41 6.84 0.36 6.33Q0.33 5.97 0.32 5.78Q0.31 5.47 0.32 5.22Q0.34 4.6 0.54 4.16Q0.59 4.04 0.67 3.92Q0.9 3.55 1.3 3.27Q1.92 2.84 2.98 2.65Q3.75 2.5 5.51 2.64Q6.22 2.7 7.2 2.81Q7.79 2.88 8.99 3.02Q10.68 3.23 11.45 3.31Q12.73 3.44 13.47 3.44Q14.73 3.44 16.28 3.31Q17.2 3.24 18.97 3.05Q20.22 2.91 20.81 2.86Q21.78 2.77 22.48 2.75Q24.16 2.7 25.1 3.01Q25.61 3.18 25.95 3.46Q26.06 3.55 26.15 3.66Q26.36 3.9 26.49 4.2Q26.9 5.19 26.54 7.01L26.54 7.04Z" fill="#444443" fill-opacity="1.000000" fill-rule="evenodd"/>
		<ellipse id="Эллипс 14" cx="13.478516" cy="3.928467" rx="13.364669" ry="3.928481" fill="#C7EB7D" fill-opacity="1.000000"/>
		<ellipse id="Эллипс 14" cx="13.478516" cy="3.928467" rx="13.214669" ry="3.778481" stroke="#444443" stroke-opacity="1.000000" stroke-width="0.300000"/>
	</g>
</svg>
