<svg width="27.000000" height="45.999939" viewBox="0 0 27 45.9999" fill="none" xmlns="http://www.w3.org/2000/svg" xmlns:xlink="http://www.w3.org/1999/xlink">
	<desc>
			Created with Pixso.
	</desc>
	<defs>
		<clipPath id="clip111_166">
			<rect id="banka3NoText" width="27.000000" height="45.999939" fill="white" fill-opacity="0"/>
		</clipPath>
	</defs>
	<g clip-path="url(#clip111_166)">
		<path id="Прямоугольник 32" d="M1.08 7.1C1.74 9.43 7.37 10.99 13.67 10.99C19.97 10.99 25.6 9.43 26.27 7.1C26.61 5.89 27 21.35 27 30.5C27 39.64 26.9 43.29 26.27 43.66C24.94 44.44 21.3 45.99 15 45.99C8.7 45.99 2.21 45.92 1.08 43.66C0.5 42.5 -0.1 27.8 0.03 19C0.17 9.27 0.73 5.88 1.08 7.1Z" fill="#9C539B" fill-opacity="1.000000" fill-rule="evenodd"/>
		<path id="Прямоугольник 32" d="M1.09 7.13C1.79 9.45 7.4 10.99 13.67 10.99C19.61 10.99 24.97 9.6 26.11 7.49C26.14 7.43 26.17 7.37 26.19 7.31C26.22 7.24 26.25 7.17 26.27 7.1C26.31 6.96 26.35 7.04 26.39 7.32C26.4 7.38 26.41 7.46 26.42 7.54C26.71 10.21 27 22.67 27 30.5C27 39.64 26.9 43.29 26.27 43.66C24.94 44.44 21.3 45.99 15 45.99C8.7 45.99 2.21 45.92 1.08 43.66C0.5 42.5 -0.1 27.8 0.03 19C0.13 11.82 0.46 8.09 0.77 7.12C0.77 7.12 0.77 7.11 0.78 7.1C0.88 6.78 0.99 6.78 1.08 7.1C1.08 7.1 1.08 7.11 1.08 7.11C1.08 7.12 1.08 7.12 1.09 7.13ZM0.96 7.61C0.9 7.94 0.83 8.39 0.77 8.97C0.67 9.99 0.57 11.29 0.5 12.88C0.42 14.65 0.36 16.69 0.33 19C0.3 21.13 0.31 23.6 0.36 26.39C0.4 29.04 0.48 31.64 0.59 34.18C0.69 36.75 0.81 38.86 0.95 40.53C1.02 41.39 1.09 42.07 1.16 42.59C1.23 43.1 1.29 43.41 1.35 43.53C1.8 44.44 3.4 45.06 6.14 45.38C7.27 45.51 8.67 45.6 10.33 45.65C11.45 45.68 13 45.7 15 45.7C17.74 45.7 20.21 45.41 22.42 44.83C23.25 44.61 24.02 44.36 24.72 44.08C25.26 43.86 25.72 43.63 26.11 43.4C26.12 43.4 26.13 43.39 26.14 43.38C26.16 43.35 26.18 43.3 26.2 43.25C26.26 43.11 26.31 42.92 26.35 42.68C26.45 42.17 26.52 41.39 26.57 40.35C26.62 39.36 26.66 38.03 26.67 36.35C26.69 34.92 26.7 32.97 26.7 30.5C26.7 28.24 26.68 25.68 26.63 22.82C26.59 20.01 26.53 17.38 26.46 14.92C26.39 12.34 26.31 10.36 26.23 8.98C26.2 8.58 26.18 8.24 26.16 7.97C25.9 8.31 25.54 8.64 25.07 8.94C24.33 9.43 23.36 9.85 22.17 10.21C21.01 10.55 19.7 10.82 18.24 11.01C16.77 11.2 15.25 11.29 13.67 11.29C12.09 11.29 10.57 11.2 9.1 11.01C7.65 10.82 6.34 10.55 5.18 10.21C3.98 9.85 3.01 9.43 2.28 8.94C1.65 8.53 1.21 8.09 0.96 7.61Z" fill="#444343" fill-opacity="1.000000" fill-rule="evenodd"/>
		<ellipse id="Эллипс 15" cx="5.337158" cy="41.351196" rx="0.416667" ry="0.414634" fill="#D7D7D7" fill-opacity="1.000000"/>
		<ellipse id="Эллипс 15" cx="19.781494" cy="31.317078" rx="0.416667" ry="0.414634" fill="#D7D7D7" fill-opacity="1.000000"/>
		<ellipse id="Эллипс 15" cx="22.188965" cy="38.199951" rx="0.416667" ry="0.414634" fill="#D7D7D7" fill-opacity="1.000000"/>
		<ellipse id="Эллипс 15" cx="14.411377" cy="41.351196" rx="0.416667" ry="0.414634" fill="#D7D7D7" fill-opacity="1.000000"/>
		<ellipse id="Эллипс 15" cx="4.040771" cy="35.048767" rx="0.416667" ry="0.414634" fill="#D7D7D7" fill-opacity="1.000000"/>
		<ellipse id="Эллипс 15" cx="23.485107" cy="28.746338" rx="0.416667" ry="0.414634" fill="#D7D7D7" fill-opacity="1.000000"/>
		<ellipse id="Эллипс 15" cx="20.892578" cy="24.019470" rx="0.416667" ry="0.414634" fill="#D7D7D7" fill-opacity="1.000000"/>
		<ellipse id="Эллипс 15" cx="18.948242" cy="27.170715" rx="0.416667" ry="0.414634" fill="#D7D7D7" fill-opacity="1.000000"/>
		<ellipse id="Эллипс 15" cx="1.448242" cy="25.595093" rx="0.416667" ry="0.414634" fill="#D7D7D7" fill-opacity="1.000000"/>
		<ellipse id="Эллипс 15" cx="2.744629" cy="19.292664" rx="0.416667" ry="0.414634" fill="#D7D7D7" fill-opacity="1.000000"/>
		<ellipse id="Эллипс 15" cx="17.281494" cy="34.634094" rx="0.416667" ry="0.414634" fill="#D7D7D7" fill-opacity="1.000000"/>
		<ellipse id="Эллипс 15" cx="5.337158" cy="30.321899" rx="0.416667" ry="0.414634" fill="#D7D7D7" fill-opacity="1.000000"/>
		<ellipse id="Эллипс 15" cx="23.485107" cy="17.717041" rx="0.416667" ry="0.414634" fill="#D7D7D7" fill-opacity="1.000000"/>
		<ellipse id="Эллипс 15" cx="23.485107" cy="11.414612" rx="0.416667" ry="0.414634" fill="#D7D7D7" fill-opacity="1.000000"/>
		<ellipse id="Эллипс 15" cx="18.300049" cy="11.414612" rx="0.416667" ry="0.414634" fill="#D7D7D7" fill-opacity="1.000000"/>
		<ellipse id="Эллипс 15" cx="12.281494" cy="14.731689" rx="0.416667" ry="0.414634" fill="#D7D7D7" fill-opacity="1.000000"/>
		<ellipse id="Эллипс 15" cx="7.929688" cy="12.990234" rx="0.416667" ry="0.414634" fill="#D7D7D7" fill-opacity="1.000000"/>
		<ellipse id="Эллипс 15" cx="2.744629" cy="11.414612" rx="0.416667" ry="0.414634" fill="#D7D7D7" fill-opacity="1.000000"/>
		<ellipse id="Эллипс 15" cx="13.114990" cy="37.121948" rx="0.416667" ry="0.414634" fill="#D7D7D7" fill-opacity="1.000000"/>
		<ellipse id="Эллипс 15" cx="9.781494" cy="43.756042" rx="0.416667" ry="0.414634" fill="#D7D7D7" fill-opacity="1.000000"/>
		<ellipse id="Эллипс 15" cx="17.281494" cy="44.585327" rx="0.416667" ry="0.414634" fill="#D7D7D7" fill-opacity="1.000000"/>
		<ellipse id="Эллипс 15" cx="23.114990" cy="42.926819" rx="0.416667" ry="0.414634" fill="#D7D7D7" fill-opacity="1.000000"/>
		<ellipse id="Эллипс 15" cx="8.948242" cy="37.951172" rx="0.416667" ry="0.414634" fill="#D7D7D7" fill-opacity="1.000000"/>
		<ellipse id="Эллипс 15" cx="17.281494" cy="37.951172" rx="0.416667" ry="0.414634" fill="#D7D7D7" fill-opacity="1.000000"/>
		<ellipse id="Эллипс 15" cx="25.614990" cy="33.804871" rx="0.416667" ry="0.414634" fill="#D7D7D7" fill-opacity="1.000000"/>
		<ellipse id="Эллипс 15" cx="24.781494" cy="23.853638" rx="0.416667" ry="0.414634" fill="#D7D7D7" fill-opacity="1.000000"/>
		<ellipse id="Эллипс 15" cx="8.114990" cy="18.048767" rx="0.416667" ry="0.414634" fill="#D7D7D7" fill-opacity="1.000000"/>
		<ellipse id="Эллипс 15" cx="2.281494" cy="33.804871" rx="0.416667" ry="0.414634" fill="#D7D7D7" fill-opacity="1.000000"/>
		<ellipse id="Эллипс 15" cx="3.948242" cy="39.609741" rx="0.416667" ry="0.414634" fill="#D7D7D7" fill-opacity="1.000000"/>
		<ellipse id="Эллипс 15" cx="6.448242" cy="25.512146" rx="0.416667" ry="0.414634" fill="#D7D7D7" fill-opacity="1.000000"/>
		<ellipse id="Эллипс 15" cx="3.948242" cy="16.390198" rx="0.416667" ry="0.414634" fill="#D7D7D7" fill-opacity="1.000000"/>
		<ellipse id="Эллипс 15" cx="22.281494" cy="14.731689" rx="0.416667" ry="0.414634" fill="#D7D7D7" fill-opacity="1.000000"/>
		<ellipse id="Эллипс 15" cx="17.281494" cy="15.560974" rx="0.416667" ry="0.414634" fill="#D7D7D7" fill-opacity="1.000000"/>
		<path id="Эллипс 14" d="M0.12 7.07C0.12 5.67 -0.78 3.05 2.94 2.35C5.01 1.96 10.85 3.14 13.49 3.14C20.87 3.14 28.26 6.1e-5 26.85 7.07C26.85 9.24 20.87 11 13.49 11C6.11 11 0.12 9.24 0.12 7.07Z" fill="#EB9B06" fill-opacity="1.000000" fill-rule="evenodd"/>
		<path id="Эллипс 14" d="M26.85 7.07C26.85 9.24 20.87 11 13.49 11C6.11 11 0.12 9.24 0.12 7.07C0.12 6.85 0.1 6.61 0.08 6.36C-0.04 4.92 -0.22 2.94 2.94 2.35C4.15 2.12 6.65 2.43 9.04 2.73C10.74 2.94 12.39 3.14 13.49 3.14C15.36 3.14 17.23 2.94 18.95 2.75C24.05 2.2 27.9 1.79 26.85 7.07ZM26.55 7.04L26.55 7.07L26.55 7.07C26.55 7.5 26.25 7.92 25.63 8.35C24.98 8.8 24.06 9.2 22.85 9.56C21.64 9.91 20.24 10.19 18.65 10.39C17.01 10.59 15.29 10.7 13.49 10.7C11.69 10.7 9.97 10.59 8.32 10.39C6.74 10.19 5.34 9.91 4.12 9.56C2.92 9.2 1.99 8.8 1.35 8.35C0.73 7.92 0.42 7.5 0.42 7.07L0.42 7.07C0.42 6.92 0.41 6.67 0.38 6.33C0.36 6.09 0.34 5.91 0.34 5.78C0.33 5.57 0.32 5.39 0.33 5.22C0.35 4.81 0.42 4.46 0.55 4.16C0.59 4.08 0.63 4 0.68 3.92C0.84 3.67 1.05 3.45 1.31 3.27C1.73 2.99 2.29 2.78 2.99 2.65C3.5 2.55 4.35 2.55 5.52 2.64C6 2.68 6.56 2.74 7.21 2.81C7.61 2.85 8.2 2.93 9.01 3.02C10.13 3.16 10.95 3.26 11.46 3.31C12.31 3.4 12.99 3.44 13.49 3.44C14.32 3.44 15.26 3.4 16.3 3.31C16.91 3.26 17.81 3.18 18.99 3.05C19.82 2.96 20.43 2.9 20.83 2.86C21.47 2.8 22.03 2.77 22.49 2.75C23.62 2.71 24.49 2.8 25.11 3.01C25.45 3.12 25.74 3.27 25.96 3.46C26.04 3.52 26.1 3.59 26.16 3.66C26.3 3.82 26.42 4 26.5 4.2C26.78 4.86 26.8 5.8 26.56 7.01L26.55 7.04Z" fill="#444443" fill-opacity="1.000000" fill-rule="evenodd"/>
		<ellipse id="Эллипс 14" cx="13.493164" cy="3.928467" rx="13.364669" ry="3.928481" fill="#EB9B06" fill-opacity="1.000000"/>
		<ellipse id="Эллипс 14" cx="13.493164" cy="3.928467" rx="13.214669" ry="3.778481" stroke="#444443" stroke-opacity="1.000000" stroke-width="0.300000"/>
	</g>
</svg>
