<svg width="27.016846" height="45.999939" viewBox="0 0 27.0168 45.9999" fill="none" xmlns="http://www.w3.org/2000/svg" xmlns:xlink="http://www.w3.org/1999/xlink">
	<desc>
			Created with Pixso.
	</desc>
	<defs>
		<clipPath id="clip115_361">
			<rect id="banka8NoText" width="27.016848" height="45.999939" fill="white" fill-opacity="0"/>
		</clipPath>
	</defs>
	<g clip-path="url(#clip115_361)">
		<path id="Прямоугольник 32" d="M1.06 7.1C1.73 9.43 7.36 10.99 13.65 10.99C19.95 10.99 25.58 9.43 26.25 7.1C26.59 5.89 26.98 22.85 26.98 32C26.98 41.14 26.88 43.29 26.25 43.66C24.92 44.44 21.28 45.99 14.98 45.99C8.69 45.99 2.19 45.92 1.06 43.66C0.48 42.5 -0.11 27.8 0.01 19C0.15 9.27 0.72 5.88 1.06 7.1Z" fill="#649B92" fill-opacity="1.000000" fill-rule="evenodd"/>
		<path id="Прямоугольник 32" d="M1.07 7.13C1.77 9.45 7.38 10.99 13.65 10.99C19.58 10.99 24.93 9.61 26.08 7.5C26.11 7.44 26.14 7.38 26.17 7.32C26.2 7.24 26.23 7.17 26.25 7.1C26.28 6.97 26.32 7.05 26.36 7.33C26.37 7.39 26.38 7.47 26.39 7.56C26.69 10.39 26.98 24.11 26.98 32C26.98 41.14 26.88 43.29 26.25 43.66C24.92 44.44 21.28 45.99 14.98 45.99C8.69 45.99 2.19 45.92 1.06 43.66C0.48 42.5 -0.11 27.8 0.01 19C0.11 11.83 0.45 8.1 0.76 7.12C0.76 7.12 0.76 7.11 0.76 7.1C0.87 6.78 0.97 6.78 1.06 7.1C1.06 7.1 1.07 7.11 1.07 7.11C1.07 7.12 1.07 7.12 1.07 7.13ZM0.95 7.61C0.88 7.94 0.82 8.39 0.76 8.97C0.65 9.99 0.56 11.29 0.49 12.88C0.4 14.65 0.34 16.69 0.31 19C0.28 21.13 0.29 23.6 0.34 26.39C0.39 29.04 0.47 31.64 0.57 34.18C0.68 36.75 0.8 38.86 0.93 40.53C1 41.39 1.07 42.07 1.14 42.59C1.21 43.1 1.27 43.41 1.33 43.53C1.79 44.44 3.38 45.06 6.12 45.38C7.26 45.51 8.65 45.6 10.32 45.65C11.43 45.68 12.99 45.7 14.98 45.7C17.72 45.7 20.19 45.41 22.4 44.83C23.23 44.61 24 44.36 24.7 44.08C25.24 43.86 25.7 43.63 26.09 43.4C26.32 43.27 26.47 42.5 26.55 41.1C26.6 40.28 26.64 39.12 26.66 37.62C26.67 36.31 26.68 34.43 26.68 32C26.68 29.73 26.66 27.09 26.61 24.08C26.57 21.11 26.51 18.31 26.44 15.67C26.37 12.87 26.29 10.72 26.21 9.21C26.18 8.71 26.15 8.3 26.13 7.98C25.87 8.32 25.51 8.64 25.05 8.94C24.31 9.43 23.35 9.85 22.15 10.21C20.99 10.55 19.68 10.82 18.22 11.01C16.76 11.2 15.23 11.29 13.65 11.29C12.08 11.29 10.55 11.2 9.09 11.01C7.63 10.82 6.32 10.55 5.16 10.21C3.96 9.85 3 9.43 2.26 8.94C1.63 8.53 1.2 8.09 0.95 7.61Z" fill="#444343" fill-opacity="1.000000" fill-rule="evenodd"/>
		<ellipse id="Эллипс 15" cx="5.322510" cy="41.351196" rx="0.416667" ry="0.414634" fill="#7DC694" fill-opacity="1.000000"/>
		<ellipse id="Эллипс 15" cx="19.766846" cy="31.317078" rx="0.416667" ry="0.414634" fill="#7DC694" fill-opacity="1.000000"/>
		<ellipse id="Эллипс 15" cx="22.174316" cy="38.199951" rx="0.416667" ry="0.414634" fill="#7DC694" fill-opacity="1.000000"/>
		<ellipse id="Эллипс 15" cx="14.396729" cy="41.351196" rx="0.416667" ry="0.414634" fill="#7DC694" fill-opacity="1.000000"/>
		<ellipse id="Эллипс 15" cx="4.026123" cy="35.048767" rx="0.416667" ry="0.414634" fill="#7DC694" fill-opacity="1.000000"/>
		<ellipse id="Эллипс 15" cx="23.470459" cy="28.746338" rx="0.416667" ry="0.414634" fill="#7DC694" fill-opacity="1.000000"/>
		<ellipse id="Эллипс 15" cx="20.877930" cy="24.019470" rx="0.416667" ry="0.414634" fill="#7DC694" fill-opacity="1.000000"/>
		<ellipse id="Эллипс 15" cx="18.933594" cy="27.170715" rx="0.416667" ry="0.414634" fill="#7DC694" fill-opacity="1.000000"/>
		<ellipse id="Эллипс 15" cx="1.433594" cy="25.595093" rx="0.416667" ry="0.414634" fill="#7DC694" fill-opacity="1.000000"/>
		<ellipse id="Эллипс 15" cx="2.729980" cy="19.292664" rx="0.416667" ry="0.414634" fill="#7DC694" fill-opacity="1.000000"/>
		<ellipse id="Эллипс 15" cx="17.266846" cy="34.634094" rx="0.416667" ry="0.414634" fill="#7DC694" fill-opacity="1.000000"/>
		<ellipse id="Эллипс 15" cx="5.322510" cy="30.321899" rx="0.416667" ry="0.414634" fill="#7DC694" fill-opacity="1.000000"/>
		<ellipse id="Эллипс 15" cx="23.470459" cy="17.717041" rx="0.416667" ry="0.414634" fill="#7DC694" fill-opacity="1.000000"/>
		<ellipse id="Эллипс 15" cx="23.470459" cy="11.414612" rx="0.416667" ry="0.414634" fill="#7DC694" fill-opacity="1.000000"/>
		<ellipse id="Эллипс 15" cx="18.285400" cy="11.414612" rx="0.416667" ry="0.414634" fill="#7DC694" fill-opacity="1.000000"/>
		<ellipse id="Эллипс 15" cx="12.266846" cy="14.731689" rx="0.416667" ry="0.414634" fill="#7DC694" fill-opacity="1.000000"/>
		<ellipse id="Эллипс 15" cx="7.915039" cy="12.990234" rx="0.416667" ry="0.414634" fill="#7DC694" fill-opacity="1.000000"/>
		<ellipse id="Эллипс 15" cx="2.729980" cy="11.414612" rx="0.416667" ry="0.414634" fill="#7DC694" fill-opacity="1.000000"/>
		<ellipse id="Эллипс 15" cx="13.100342" cy="37.121948" rx="0.416667" ry="0.414634" fill="#7DC694" fill-opacity="1.000000"/>
		<ellipse id="Эллипс 15" cx="9.766846" cy="43.756042" rx="0.416667" ry="0.414634" fill="#7DC694" fill-opacity="1.000000"/>
		<ellipse id="Эллипс 15" cx="17.266846" cy="44.585327" rx="0.416667" ry="0.414634" fill="#7DC694" fill-opacity="1.000000"/>
		<ellipse id="Эллипс 15" cx="23.100342" cy="42.926819" rx="0.416667" ry="0.414634" fill="#7DC694" fill-opacity="1.000000"/>
		<ellipse id="Эллипс 15" cx="8.933594" cy="37.951172" rx="0.416667" ry="0.414634" fill="#7DC694" fill-opacity="1.000000"/>
		<ellipse id="Эллипс 15" cx="17.266846" cy="37.951172" rx="0.416667" ry="0.414634" fill="#7DC694" fill-opacity="1.000000"/>
		<ellipse id="Эллипс 15" cx="25.600342" cy="33.804871" rx="0.416667" ry="0.414634" fill="#7DC694" fill-opacity="1.000000"/>
		<ellipse id="Эллипс 15" cx="24.766846" cy="23.853638" rx="0.416667" ry="0.414634" fill="#7DC694" fill-opacity="1.000000"/>
		<ellipse id="Эллипс 15" cx="8.100342" cy="18.048767" rx="0.416667" ry="0.414634" fill="#7DC694" fill-opacity="1.000000"/>
		<ellipse id="Эллипс 15" cx="2.266846" cy="33.804871" rx="0.416667" ry="0.414634" fill="#7DC694" fill-opacity="1.000000"/>
		<ellipse id="Эллипс 15" cx="3.933594" cy="39.609741" rx="0.416667" ry="0.414634" fill="#7DC694" fill-opacity="1.000000"/>
		<ellipse id="Эллипс 15" cx="6.433594" cy="25.512146" rx="0.416667" ry="0.414634" fill="#7DC694" fill-opacity="1.000000"/>
		<ellipse id="Эллипс 15" cx="3.933594" cy="16.390198" rx="0.416667" ry="0.414634" fill="#7DC694" fill-opacity="1.000000"/>
		<ellipse id="Эллипс 15" cx="22.266846" cy="14.731689" rx="0.416667" ry="0.414634" fill="#7DC694" fill-opacity="1.000000"/>
		<ellipse id="Эллипс 15" cx="17.266846" cy="15.560974" rx="0.416667" ry="0.414634" fill="#7DC694" fill-opacity="1.000000"/>
		<path id="Эллипс 14" d="M0.11 7.07C0.11 5.67 -0.8 3.05 2.92 2.35C5 1.96 10.83 3.14 13.47 3.14C20.85 3.14 28.24 6.1e-5 26.84 7.07C26.84 9.24 20.85 11 13.47 11C6.09 11 0.11 9.24 0.11 7.07Z" fill="#C7EB7D" fill-opacity="1.000000" fill-rule="evenodd"/>
		<path id="Эллипс 14" d="M26.84 7.07C26.84 9.24 20.85 11 13.47 11C6.09 11 0.11 9.24 0.11 7.07C0.11 6.85 0.09 6.61 0.07 6.36C-0.06 4.92 -0.23 2.94 2.92 2.35C4.13 2.12 6.63 2.43 9.03 2.73C10.73 2.94 12.38 3.14 13.47 3.14C15.34 3.14 17.21 2.94 18.94 2.75C24.03 2.2 27.89 1.79 26.84 7.07ZM26.54 7.04L26.54 7.07L26.54 7.07C26.54 7.5 26.23 7.92 25.62 8.35C24.97 8.8 24.04 9.2 22.84 9.56C21.62 9.91 20.22 10.19 18.64 10.39C17 10.59 15.27 10.7 13.47 10.7C11.67 10.7 9.95 10.59 8.31 10.39C6.73 10.19 5.33 9.91 4.11 9.56C2.91 9.2 1.98 8.8 1.33 8.35C0.72 7.92 0.41 7.5 0.41 7.07L0.41 7.07C0.41 6.92 0.39 6.67 0.36 6.33C0.34 6.09 0.33 5.91 0.32 5.78C0.31 5.57 0.31 5.39 0.32 5.22C0.33 4.81 0.41 4.46 0.54 4.16C0.58 4.08 0.62 4 0.67 3.92C0.82 3.67 1.03 3.45 1.3 3.27C1.71 2.99 2.27 2.78 2.98 2.65C3.49 2.55 4.33 2.55 5.51 2.64C5.98 2.68 6.55 2.74 7.2 2.81C7.59 2.85 8.19 2.93 8.99 3.02C10.12 3.16 10.94 3.26 11.45 3.31C12.3 3.4 12.98 3.44 13.47 3.44C14.31 3.44 15.25 3.4 16.28 3.31C16.9 3.26 17.79 3.18 18.97 3.05C19.81 2.96 20.42 2.9 20.81 2.86C21.46 2.8 22.01 2.77 22.48 2.75C23.6 2.71 24.48 2.8 25.1 3.01C25.44 3.12 25.72 3.27 25.95 3.46C26.02 3.52 26.09 3.59 26.15 3.66C26.29 3.82 26.4 4 26.49 4.2C26.77 4.86 26.78 5.8 26.54 7.01L26.54 7.04Z" fill="#444443" fill-opacity="1.000000" fill-rule="evenodd"/>
		<ellipse id="Эллипс 14" cx="13.478516" cy="3.928467" rx="13.364669" ry="3.928481" fill="#C7EB7D" fill-opacity="1.000000"/>
		<ellipse id="Эллипс 14" cx="13.478516" cy="3.928467" rx="13.214669" ry="3.778481" stroke="#444443" stroke-opacity="1.000000" stroke-width="0.300000"/>
	</g>
</svg>
