<svg width="27.031494" height="45.999939" viewBox="0 0 27.0315 45.9999" fill="none" xmlns="http://www.w3.org/2000/svg" xmlns:xlink="http://www.w3.org/1999/xlink">
	<desc>
			Created with Pixso.
	</desc>
	<defs>
		<clipPath id="clip108_43">
			<rect id="banka2NoText" width="27.031590" height="45.999939" fill="white" fill-opacity="0"/>
		</clipPath>
	</defs>
	<g clip-path="url(#clip108_43)">
		<path id="Прямоугольник 32" d="M1.08 7.1C1.74 9.43 7.37 10.99 13.67 10.99C19.97 10.99 25.6 9.43 26.26 7.1C26.61 5.89 27 16.35 27 25.5C27 34.64 27.13 43.12 26.5 43.5C25.17 44.27 21.29 45.99 15 45.99C8.7 45.99 3.07 45.22 1.08 43.66C0.13 42.92 -0.1 27.8 0.03 19C0.16 9.27 0.73 5.88 1.08 7.1Z" fill="#869C53" fill-opacity="1.000000" fill-rule="evenodd"/>
		<path id="Прямоугольник 32" d="M1.09 7.13C1.79 9.45 7.4 10.99 13.67 10.99C19.67 10.99 25.07 9.58 26.13 7.43C26.16 7.38 26.18 7.33 26.2 7.28C26.22 7.22 26.24 7.16 26.26 7.1C26.31 6.92 26.36 7 26.42 7.29C26.43 7.34 26.43 7.4 26.44 7.47C26.73 9.52 27 17.96 27 25.5C27 26.91 27 28.31 27 29.67C27.02 37.07 27.03 43.18 26.5 43.5C25.17 44.27 21.29 45.99 15 45.99C8.7 45.99 3.07 45.22 1.08 43.66C0.13 42.92 -0.1 27.8 0.03 19C0.13 11.83 0.46 8.1 0.77 7.12C0.77 7.12 0.77 7.11 0.78 7.1C0.88 6.78 0.99 6.78 1.08 7.1C1.08 7.1 1.08 7.11 1.08 7.11C1.08 7.12 1.08 7.12 1.09 7.13ZM0.96 7.61C0.9 7.94 0.83 8.39 0.77 8.97C0.66 9.99 0.57 11.29 0.5 12.88C0.42 14.65 0.36 16.69 0.33 19C0.29 21.32 0.29 23.81 0.3 26.46C0.32 29.33 0.37 31.96 0.45 34.34C0.54 37.02 0.65 39.14 0.8 40.71C0.87 41.55 0.96 42.22 1.05 42.69C1.1 42.93 1.14 43.12 1.19 43.26C1.21 43.32 1.23 43.37 1.25 43.4C1.26 43.42 1.26 43.42 1.27 43.43C1.73 43.79 2.4 44.11 3.3 44.4C4.17 44.68 5.23 44.92 6.47 45.12C7.67 45.31 9 45.45 10.47 45.55C11.9 45.65 13.41 45.7 15 45.7C17.72 45.7 20.23 45.38 22.53 44.75C23.38 44.51 24.18 44.24 24.91 43.94C25.45 43.71 25.92 43.48 26.31 43.25C26.31 43.25 26.32 43.25 26.32 43.24C26.34 43.2 26.36 43.13 26.38 43.04C26.43 42.85 26.47 42.57 26.51 42.21C26.57 41.53 26.62 40.54 26.66 39.23C26.68 38.12 26.7 36.68 26.71 34.91C26.71 33.83 26.71 32.08 26.7 29.67C26.7 27.83 26.7 26.44 26.7 25.5C26.7 23.27 26.67 20.97 26.63 18.6C26.59 16.34 26.53 14.28 26.46 12.43C26.38 10.55 26.31 9.15 26.22 8.2C26.21 8.1 26.2 8 26.19 7.91C25.93 8.27 25.56 8.62 25.06 8.94C24.33 9.43 23.36 9.85 22.16 10.21C21 10.55 19.69 10.82 18.24 11.01C16.77 11.2 15.25 11.29 13.67 11.29C12.09 11.29 10.57 11.2 9.1 11.01C7.65 10.82 6.34 10.55 5.18 10.21C3.98 9.85 3.01 9.43 2.27 8.94C1.65 8.53 1.21 8.09 0.96 7.61Z" fill="#444343" fill-opacity="1.000000" fill-rule="evenodd"/>
		<ellipse id="Эллипс 15" cx="5.337158" cy="41.351196" rx="0.416667" ry="0.414634" fill="#CAD090" fill-opacity="1.000000"/>
		<ellipse id="Эллипс 15" cx="19.781494" cy="31.317078" rx="0.416667" ry="0.414634" fill="#CAD090" fill-opacity="1.000000"/>
		<ellipse id="Эллипс 15" cx="22.188965" cy="38.199951" rx="0.416667" ry="0.414634" fill="#CAD090" fill-opacity="1.000000"/>
		<ellipse id="Эллипс 15" cx="14.411377" cy="41.351196" rx="0.416667" ry="0.414634" fill="#CAD090" fill-opacity="1.000000"/>
		<ellipse id="Эллипс 15" cx="4.040771" cy="35.048767" rx="0.416667" ry="0.414634" fill="#CAD090" fill-opacity="1.000000"/>
		<ellipse id="Эллипс 15" cx="23.485107" cy="28.746338" rx="0.416667" ry="0.414634" fill="#CAD090" fill-opacity="1.000000"/>
		<ellipse id="Эллипс 15" cx="20.892578" cy="24.019470" rx="0.416667" ry="0.414634" fill="#CAD090" fill-opacity="1.000000"/>
		<ellipse id="Эллипс 15" cx="18.948242" cy="27.170715" rx="0.416667" ry="0.414634" fill="#CAD090" fill-opacity="1.000000"/>
		<ellipse id="Эллипс 15" cx="1.448242" cy="25.595093" rx="0.416667" ry="0.414634" fill="#CAD090" fill-opacity="1.000000"/>
		<ellipse id="Эллипс 15" cx="2.744629" cy="19.292664" rx="0.416667" ry="0.414634" fill="#CAD090" fill-opacity="1.000000"/>
		<ellipse id="Эллипс 15" cx="17.281494" cy="34.634094" rx="0.416667" ry="0.414634" fill="#CAD090" fill-opacity="1.000000"/>
		<ellipse id="Эллипс 15" cx="5.337158" cy="30.321899" rx="0.416667" ry="0.414634" fill="#CAD090" fill-opacity="1.000000"/>
		<ellipse id="Эллипс 15" cx="23.485107" cy="17.717041" rx="0.416667" ry="0.414634" fill="#CAD090" fill-opacity="1.000000"/>
		<ellipse id="Эллипс 15" cx="23.485107" cy="11.414612" rx="0.416667" ry="0.414634" fill="#CAD090" fill-opacity="1.000000"/>
		<ellipse id="Эллипс 15" cx="18.300049" cy="11.414612" rx="0.416667" ry="0.414634" fill="#CAD090" fill-opacity="1.000000"/>
		<ellipse id="Эллипс 15" cx="12.281494" cy="14.731689" rx="0.416667" ry="0.414634" fill="#CAD090" fill-opacity="1.000000"/>
		<ellipse id="Эллипс 15" cx="7.929688" cy="12.990234" rx="0.416667" ry="0.414634" fill="#CAD090" fill-opacity="1.000000"/>
		<ellipse id="Эллипс 15" cx="2.744629" cy="11.414612" rx="0.416667" ry="0.414634" fill="#CAD090" fill-opacity="1.000000"/>
		<ellipse id="Эллипс 15" cx="13.114990" cy="37.121948" rx="0.416667" ry="0.414634" fill="#CAD090" fill-opacity="1.000000"/>
		<ellipse id="Эллипс 15" cx="9.781494" cy="43.756042" rx="0.416667" ry="0.414634" fill="#CAD090" fill-opacity="1.000000"/>
		<ellipse id="Эллипс 15" cx="17.281494" cy="44.585327" rx="0.416667" ry="0.414634" fill="#CAD090" fill-opacity="1.000000"/>
		<ellipse id="Эллипс 15" cx="23.114990" cy="42.926819" rx="0.416667" ry="0.414634" fill="#CAD090" fill-opacity="1.000000"/>
		<ellipse id="Эллипс 15" cx="8.948242" cy="37.951172" rx="0.416667" ry="0.414634" fill="#CAD090" fill-opacity="1.000000"/>
		<ellipse id="Эллипс 15" cx="17.281494" cy="37.951172" rx="0.416667" ry="0.414634" fill="#CAD090" fill-opacity="1.000000"/>
		<ellipse id="Эллипс 15" cx="25.614990" cy="33.804871" rx="0.416667" ry="0.414634" fill="#CAD090" fill-opacity="1.000000"/>
		<ellipse id="Эллипс 15" cx="24.781494" cy="23.853638" rx="0.416667" ry="0.414634" fill="#CAD090" fill-opacity="1.000000"/>
		<ellipse id="Эллипс 15" cx="8.114990" cy="18.048767" rx="0.416667" ry="0.414634" fill="#CAD090" fill-opacity="1.000000"/>
		<ellipse id="Эллипс 15" cx="2.281494" cy="33.804871" rx="0.416667" ry="0.414634" fill="#CAD090" fill-opacity="1.000000"/>
		<ellipse id="Эллипс 15" cx="3.948242" cy="39.609741" rx="0.416667" ry="0.414634" fill="#CAD090" fill-opacity="1.000000"/>
		<ellipse id="Эллипс 15" cx="6.448242" cy="25.512146" rx="0.416667" ry="0.414634" fill="#CAD090" fill-opacity="1.000000"/>
		<ellipse id="Эллипс 15" cx="3.948242" cy="16.390198" rx="0.416667" ry="0.414634" fill="#CAD090" fill-opacity="1.000000"/>
		<ellipse id="Эллипс 15" cx="22.281494" cy="14.731689" rx="0.416667" ry="0.414634" fill="#CAD090" fill-opacity="1.000000"/>
		<ellipse id="Эллипс 15" cx="17.281494" cy="15.560974" rx="0.416667" ry="0.414634" fill="#CAD090" fill-opacity="1.000000"/>
		<path id="Эллипс 14" d="M0.12 7.07C0.12 5.67 -0.78 3.05 2.94 2.35C5.01 1.96 10.85 3.14 13.49 3.14C20.87 3.14 28.26 6.1e-5 26.85 7.07C26.85 9.24 20.87 11 13.49 11C6.11 11 0.12 9.24 0.12 7.07Z" fill="#9E871E" fill-opacity="1.000000" fill-rule="evenodd"/>
		<path id="Эллипс 14" d="M26.85 7.07C26.85 9.24 20.87 11 13.49 11C6.11 11 0.12 9.24 0.12 7.07C0.12 6.85 0.1 6.61 0.08 6.36C-0.04 4.92 -0.22 2.94 2.94 2.35C4.15 2.12 6.65 2.43 9.04 2.73C10.74 2.94 12.39 3.14 13.49 3.14C15.36 3.14 17.23 2.94 18.95 2.75C24.05 2.2 27.9 1.79 26.85 7.07ZM26.55 7.04L26.55 7.07L26.55 7.07C26.55 7.5 26.25 7.92 25.63 8.35C24.98 8.8 24.06 9.2 22.85 9.56C21.64 9.91 20.24 10.19 18.65 10.39C17.01 10.59 15.29 10.7 13.49 10.7C11.69 10.7 9.97 10.59 8.32 10.39C6.74 10.19 5.34 9.91 4.12 9.56C2.92 9.2 1.99 8.8 1.35 8.35C0.73 7.92 0.42 7.5 0.42 7.07L0.42 7.07C0.42 6.92 0.41 6.67 0.38 6.33C0.36 6.09 0.34 5.91 0.34 5.78C0.33 5.57 0.32 5.39 0.33 5.22C0.35 4.81 0.42 4.46 0.55 4.16C0.59 4.08 0.63 4 0.68 3.92C0.84 3.67 1.05 3.45 1.31 3.27C1.73 2.99 2.29 2.78 2.99 2.65C3.5 2.55 4.35 2.55 5.52 2.64C6 2.68 6.56 2.74 7.21 2.81C7.61 2.85 8.2 2.93 9.01 3.02C10.13 3.16 10.95 3.26 11.46 3.31C12.31 3.4 12.99 3.44 13.49 3.44C14.32 3.44 15.26 3.4 16.3 3.31C16.91 3.26 17.81 3.18 18.99 3.05C19.82 2.96 20.43 2.9 20.83 2.86C21.47 2.8 22.03 2.77 22.49 2.75C23.62 2.71 24.49 2.8 25.11 3.01C25.45 3.12 25.74 3.27 25.96 3.46C26.04 3.52 26.1 3.59 26.16 3.66C26.3 3.82 26.42 4 26.5 4.2C26.78 4.86 26.8 5.8 26.56 7.01L26.55 7.04Z" fill="#444443" fill-opacity="1.000000" fill-rule="evenodd"/>
		<ellipse id="Эллипс 14" cx="13.493164" cy="3.928467" rx="13.364669" ry="3.928481" fill="#9E871E" fill-opacity="1.000000"/>
		<ellipse id="Эллипс 14" cx="13.493164" cy="3.928467" rx="13.214669" ry="3.778481" stroke="#444443" stroke-opacity="1.000000" stroke-width="0.300000"/>
	</g>
</svg>
