<svg width="32.000000" height="56.000000" viewBox="0 0 32 56" fill="none" xmlns="http://www.w3.org/2000/svg" xmlns:xlink="http://www.w3.org/1999/xlink">
	<desc>
			Created with Pixso.
	</desc>
	<defs>
		<clipPath id="clip109_125">
			<rect id="banka1NoText" width="32.000000" height="56.000000" fill="white" fill-opacity="0"/>
		</clipPath>
	</defs>
	<rect id="banka1NoText" width="32.000000" height="56.000000" fill="#FFFFFF" fill-opacity="0"/>
	<g clip-path="url(#clip109_125)">
		<path id="Прямоугольник 32" d="M1.24 8.12C2.03 11 8.7 12.91 16.16 12.91C23.63 12.91 30.3 11 31.09 8.12C31.87 5.25 32.66 52.17 31.09 53.12C29.52 54.08 25.2 56 17.74 56C10.28 56 3.6 55.04 1.24 53.12C-1.12 51.21 0.46 5.25 1.24 8.12Z" fill="#710000" fill-opacity="1.000000" fill-rule="evenodd"/>
		<path id="Прямоугольник 32" d="M1.33 8.39C2.45 11.11 8.94 12.91 16.16 12.91C23.37 12.91 29.84 11.13 30.99 8.42C31.01 8.37 31.03 8.32 31.04 8.27C31.06 8.22 31.07 8.17 31.09 8.12C31.15 7.91 31.21 7.97 31.26 8.28C31.27 8.33 31.28 8.39 31.29 8.46C31.99 13.15 32.52 52.25 31.09 53.12C29.52 54.08 25.2 56 17.74 56C10.28 56 3.6 55.04 1.24 53.12C-0.91 51.37 0.21 12.91 1.02 8.42C1.03 8.37 1.04 8.32 1.05 8.27C1.12 7.97 1.18 7.91 1.24 8.12C1.25 8.17 1.27 8.22 1.29 8.27C1.3 8.31 1.32 8.35 1.33 8.39ZM1.25 8.9C1.56 9.41 2.03 9.88 2.69 10.33C3.55 10.93 4.7 11.44 6.11 11.88C7.48 12.31 9.03 12.64 10.76 12.86C12.49 13.1 14.3 13.21 16.16 13.21C18.03 13.21 19.84 13.1 21.57 12.86C23.3 12.64 24.84 12.31 26.22 11.88C27.63 11.44 28.77 10.93 29.64 10.33C30.28 9.9 30.75 9.43 31.05 8.94C31.06 9.03 31.07 9.12 31.08 9.22C31.17 10.21 31.26 11.74 31.34 13.82C31.42 15.83 31.49 18.18 31.55 20.85C31.61 23.55 31.65 26.33 31.67 29.19C31.73 35.64 31.69 41 31.56 45.27C31.49 47.63 31.39 49.46 31.27 50.77C31.21 51.46 31.14 51.99 31.06 52.37C31.02 52.55 30.99 52.69 30.95 52.79C30.93 52.83 30.92 52.86 30.91 52.88C30.45 53.16 29.9 53.43 29.27 53.7C28.44 54.05 27.53 54.36 26.54 54.63C23.92 55.34 20.98 55.7 17.74 55.7C15.86 55.7 14.07 55.64 12.36 55.52C10.63 55.4 9.05 55.22 7.62 54.98C6.16 54.74 4.9 54.44 3.86 54.09C2.79 53.74 1.98 53.34 1.43 52.89C1.39 52.86 1.35 52.79 1.3 52.69C1.24 52.57 1.19 52.4 1.13 52.19C1.02 51.77 0.92 51.2 0.83 50.48C0.66 49.12 0.52 47.25 0.43 44.87C0.35 42.7 0.31 40.17 0.3 37.29C0.29 34.65 0.31 31.83 0.36 28.83C0.41 26.05 0.48 23.31 0.57 20.61C0.66 18.01 0.76 15.7 0.88 13.69C0.99 11.66 1.1 10.16 1.22 9.19C1.23 9.09 1.24 8.99 1.25 8.9Z" fill="#444343" fill-opacity="1.000000" fill-rule="evenodd"/>
		<circle id="Эллипс 15" cx="6.166748" cy="49.599976" r="0.500000" fill="#CA9191" fill-opacity="1.000000"/>
		<circle id="Эллипс 15" cx="23.500000" cy="37.500000" r="0.500000" fill="#CA9191" fill-opacity="1.000000"/>
		<circle id="Эллипс 15" cx="26.388916" cy="45.799988" r="0.500000" fill="#CA9191" fill-opacity="1.000000"/>
		<circle id="Эллипс 15" cx="17.055664" cy="49.599976" r="0.500000" fill="#CA9191" fill-opacity="1.000000"/>
		<circle id="Эллипс 15" cx="4.611084" cy="42.000000" r="0.500000" fill="#CA9191" fill-opacity="1.000000"/>
		<circle id="Эллипс 15" cx="10.500000" cy="41.500000" r="0.500000" fill="#CA9191" fill-opacity="1.000000"/>
		<circle id="Эллипс 15" cx="27.944336" cy="34.400024" r="0.500000" fill="#CA9191" fill-opacity="1.000000"/>
		<circle id="Эллипс 15" cx="24.833252" cy="28.700012" r="0.500000" fill="#CA9191" fill-opacity="1.000000"/>
		<circle id="Эллипс 15" cx="22.500000" cy="32.500000" r="0.500000" fill="#CA9191" fill-opacity="1.000000"/>
		<circle id="Эллипс 15" cx="1.500000" cy="30.599976" r="0.500000" fill="#CA9191" fill-opacity="1.000000"/>
		<circle id="Эллипс 15" cx="3.055664" cy="23.000000" r="0.500000" fill="#CA9191" fill-opacity="1.000000"/>
		<circle id="Эллипс 15" cx="20.500000" cy="41.500000" r="0.500000" fill="#CA9191" fill-opacity="1.000000"/>
		<circle id="Эллипс 15" cx="6.166748" cy="36.299988" r="0.500000" fill="#CA9191" fill-opacity="1.000000"/>
		<circle id="Эллипс 15" cx="27.944336" cy="21.099976" r="0.500000" fill="#CA9191" fill-opacity="1.000000"/>
		<circle id="Эллипс 15" cx="27.944336" cy="13.500000" r="0.500000" fill="#CA9191" fill-opacity="1.000000"/>
		<circle id="Эллипс 15" cx="21.722168" cy="13.500000" r="0.500000" fill="#CA9191" fill-opacity="1.000000"/>
		<circle id="Эллипс 15" cx="14.500000" cy="17.500000" r="0.500000" fill="#CA9191" fill-opacity="1.000000"/>
		<circle id="Эллипс 15" cx="9.277832" cy="15.400024" r="0.500000" fill="#CA9191" fill-opacity="1.000000"/>
		<circle id="Эллипс 15" cx="3.055664" cy="13.500000" r="0.500000" fill="#CA9191" fill-opacity="1.000000"/>
		<circle id="Эллипс 15" cx="18.500000" cy="22.500000" r="0.500000" fill="#CA9191" fill-opacity="1.000000"/>
		<circle id="Эллипс 15" cx="15.500000" cy="44.500000" r="0.500000" fill="#CA9191" fill-opacity="1.000000"/>
		<circle id="Эллипс 15" cx="11.500000" cy="52.500000" r="0.500000" fill="#CA9191" fill-opacity="1.000000"/>
		<circle id="Эллипс 15" cx="20.500000" cy="53.500000" r="0.500000" fill="#CA9191" fill-opacity="1.000000"/>
		<circle id="Эллипс 15" cx="27.500000" cy="51.500000" r="0.500000" fill="#CA9191" fill-opacity="1.000000"/>
		<circle id="Эллипс 15" cx="10.500000" cy="45.500000" r="0.500000" fill="#CA9191" fill-opacity="1.000000"/>
		<circle id="Эллипс 15" cx="20.500000" cy="45.500000" r="0.500000" fill="#CA9191" fill-opacity="1.000000"/>
		<circle id="Эллипс 15" cx="30.500000" cy="40.500000" r="0.500000" fill="#CA9191" fill-opacity="1.000000"/>
		<circle id="Эллипс 15" cx="29.500000" cy="28.500000" r="0.500000" fill="#CA9191" fill-opacity="1.000000"/>
		<circle id="Эллипс 15" cx="9.500000" cy="21.500000" r="0.500000" fill="#CA9191" fill-opacity="1.000000"/>
		<circle id="Эллипс 15" cx="2.500000" cy="40.500000" r="0.500000" fill="#CA9191" fill-opacity="1.000000"/>
		<circle id="Эллипс 15" cx="4.500000" cy="47.500000" r="0.500000" fill="#CA9191" fill-opacity="1.000000"/>
		<circle id="Эллипс 15" cx="7.500000" cy="30.500000" r="0.500000" fill="#CA9191" fill-opacity="1.000000"/>
		<circle id="Эллипс 15" cx="4.500000" cy="19.500000" r="0.500000" fill="#CA9191" fill-opacity="1.000000"/>
		<circle id="Эллипс 15" cx="26.500000" cy="17.500000" r="0.500000" fill="#CA9191" fill-opacity="1.000000"/>
		<circle id="Эллипс 15" cx="20.500000" cy="18.500000" r="0.500000" fill="#CA9191" fill-opacity="1.000000"/>
		<path id="Эллипс 14" d="M0.11 8.35C0.11 6.71 -0.96 3.61 3.44 2.78C5.9 2.32 12.82 3.71 15.95 3.71C24.7 3.71 33.46 0 31.79 8.35C31.79 10.92 24.7 13 15.95 13C7.2 13 0.11 10.92 0.11 8.35Z" fill="#D7D5D5" fill-opacity="1.000000" fill-rule="evenodd"/>
		<path id="Эллипс 14" d="M31.79 8.35C31.79 10.92 24.7 13 15.95 13C7.2 13 0.11 10.92 0.11 8.35C0.11 8.1 0.09 7.82 0.06 7.51C-0.09 5.82 -0.29 3.48 3.44 2.78C4.88 2.51 7.84 2.87 10.68 3.22C12.7 3.47 14.65 3.71 15.95 3.71C18.16 3.71 20.38 3.47 22.43 3.25C28.47 2.6 33.03 2.11 31.79 8.35ZM31.49 8.32L31.49 8.35L31.49 8.37C31.48 8.89 31.11 9.4 30.37 9.91C29.6 10.45 28.5 10.93 27.07 11.35C25.62 11.77 23.96 12.1 22.08 12.33C20.13 12.57 18.09 12.7 15.95 12.7C13.81 12.7 11.77 12.57 9.82 12.33C7.94 12.1 6.28 11.77 4.83 11.35C3.4 10.93 2.3 10.45 1.53 9.91C0.79 9.4 0.42 8.89 0.41 8.37C0.41 8.36 0.41 8.36 0.41 8.35C0.41 8.18 0.39 7.89 0.36 7.49C0.33 7.2 0.32 6.98 0.31 6.84C0.29 6.59 0.29 6.37 0.3 6.17C0.32 5.67 0.41 5.25 0.57 4.9C0.61 4.8 0.66 4.7 0.72 4.61C0.91 4.3 1.17 4.04 1.49 3.82C1.99 3.48 2.66 3.23 3.5 3.08C4.11 2.96 5.12 2.96 6.51 3.07C7.08 3.11 7.75 3.18 8.52 3.27C8.99 3.32 9.69 3.4 10.64 3.52C11.98 3.68 12.95 3.8 13.55 3.86C14.56 3.96 15.36 4.01 15.95 4.01C16.94 4.01 18.05 3.96 19.28 3.86C20 3.8 21.06 3.7 22.46 3.55C23.45 3.44 24.18 3.37 24.64 3.33C25.41 3.26 26.07 3.21 26.62 3.2C27.96 3.15 29 3.26 29.75 3.5C30.16 3.64 30.5 3.82 30.77 4.05C30.86 4.13 30.94 4.21 31.02 4.3C31.19 4.49 31.32 4.7 31.42 4.95C31.76 5.74 31.78 6.85 31.5 8.29L31.49 8.32Z" fill="#444343" fill-opacity="1.000000" fill-rule="evenodd"/>
		<ellipse id="Эллипс 14" cx="15.954346" cy="4.642761" rx="15.839607" ry="4.642756" fill="#D7D5D5" fill-opacity="1.000000"/>
		<ellipse id="Эллипс 14" cx="15.954346" cy="4.642761" rx="15.689608" ry="4.492756" stroke="#444343" stroke-opacity="1.000000" stroke-width="0.300000"/>
	</g>
</svg>
