<svg width="42.000000" height="43.243408" viewBox="0 0 42 43.2434" fill="none" xmlns="http://www.w3.org/2000/svg" xmlns:xlink="http://www.w3.org/1999/xlink">
	<desc>
			Created with Pixso.
	</desc>
	<defs>
		<clipPath id="clip131_532">
			<rect id="bankaCircle6" width="42.000000" height="43.243408" transform="matrix(-1 0 0 1 42 0)" fill="white" fill-opacity="0"/>
		</clipPath>
	</defs>
	<g clip-path="url(#clip131_532)">
		<path id="body" d="M34.62 7C33.14 7 27.93 7 21.97 7C16.13 7 9.55 7 7.86 7C4.45 7 -0.72 17.29 0.08 26.04C0.87 34.79 7.39 40.79 10.29 42C11.5 42.5 15.31 43.24 20 43.24C24.74 43.24 29.82 42.88 31.51 41.88C34.02 40.39 41.12 34.79 41.91 26.04C42.71 17.29 37.54 7 34.62 7Z" fill="#F0C551" fill-opacity="1.000000" fill-rule="evenodd"/>
		<path id="body" d="M34.62 7L7.86 7C4.45 7 -0.72 17.29 0.08 26.04C0.87 34.79 7.39 40.79 10.29 42C11.5 42.5 15.31 43.24 20 43.24C24.74 43.24 29.82 42.88 31.51 41.88C34.02 40.39 41.12 34.79 41.91 26.04C42.71 17.29 37.54 7 34.62 7ZM0.77 19.43Q0.1 22.92 0.38 26.01Q0.43 26.62 0.53 27.23Q0.9 29.63 1.88 31.94Q1.93 32.08 2 32.21Q3.03 34.56 4.63 36.66Q6.08 38.57 7.78 39.99Q8.51 40.62 9.21 41.07Q9.87 41.49 10.41 41.72Q10.86 41.91 11.73 42.11Q12.68 42.33 13.88 42.51Q16.81 42.94 20 42.94Q23.94 42.94 26.87 42.63Q28.48 42.47 29.6 42.22Q30.79 41.96 31.36 41.62Q31.87 41.32 32.47 40.89Q33.18 40.38 33.89 39.78Q35.46 38.45 36.78 36.9Q36.95 36.7 37.12 36.49Q38.93 34.28 40.03 31.87Q41.11 29.52 41.49 27.06Q41.57 26.54 41.61 26.01Q41.89 22.94 41.22 19.43Q40.92 17.84 40.44 16.26Q39.98 14.75 39.38 13.35Q38.81 12 38.16 10.86Q37.52 9.74 36.87 8.93Q36.22 8.12 35.63 7.7Q35.06 7.29 34.62 7.29L21.97 7.29L7.86 7.29Q7.32 7.29 6.68 7.71Q6.02 8.13 5.32 8.94Q4.62 9.75 3.95 10.87Q3.27 12 2.67 13.36Q2.05 14.75 1.58 16.26Q1.08 17.83 0.77 19.43Z" fill="#444443" fill-opacity="1.000000" fill-rule="evenodd"/>
		<path id="Линия 35" d="M6.58 32L5.04 34.37" stroke="#C9C9C9" stroke-opacity="1.000000" stroke-width="0.250000" stroke-linecap="round"/>
		<path id="Линия 35" d="M4.62 32.41L7 33.95" stroke="#C9C9C9" stroke-opacity="1.000000" stroke-width="0.250000" stroke-linecap="round"/>
		<path id="Линия 35" d="M21.58 37.99L20.04 40.37" stroke="#C9C9C9" stroke-opacity="1.000000" stroke-width="0.250000" stroke-linecap="round"/>
		<path id="Линия 35" d="M19.62 38.41L22 39.95" stroke="#C9C9C9" stroke-opacity="1.000000" stroke-width="0.250000" stroke-linecap="round"/>
		<path id="Линия 35" d="M24.58 18L23.04 20.37" stroke="#C9C9C9" stroke-opacity="1.000000" stroke-width="0.250000" stroke-linecap="round"/>
		<path id="Линия 35" d="M22.62 18.41L25 19.95" stroke="#C9C9C9" stroke-opacity="1.000000" stroke-width="0.250000" stroke-linecap="round"/>
		<path id="Линия 35" d="M9.18 20.52L6.44 19.84" stroke="#C9C9C9" stroke-opacity="1.000000" stroke-width="0.250000" stroke-linecap="round"/>
		<path id="Линия 35" d="M8.15 18.81L7.47 21.55" stroke="#C9C9C9" stroke-opacity="1.000000" stroke-width="0.250000" stroke-linecap="round"/>
		<path id="Линия 35" d="M37.58 30.99L36.04 33.37" stroke="#C9C9C9" stroke-opacity="1.000000" stroke-width="0.250000" stroke-linecap="round"/>
		<path id="Линия 35" d="M35.62 31.41L38 32.95" stroke="#C9C9C9" stroke-opacity="1.000000" stroke-width="0.250000" stroke-linecap="round"/>
		<path id="Линия 35" d="M12 39.81L9.35 40.82" stroke="#C9C9C9" stroke-opacity="1.000000" stroke-width="0.250000" stroke-linecap="round"/>
		<path id="Линия 35" d="M10.17 39L11.18 41.64" stroke="#C9C9C9" stroke-opacity="1.000000" stroke-width="0.250000" stroke-linecap="round"/>
		<path id="Линия 35" d="M31.21 41.01L28.41 41.35" stroke="#C9C9C9" stroke-opacity="1.000000" stroke-width="0.250000" stroke-linecap="round"/>
		<path id="Линия 35" d="M29.64 39.78L29.98 42.58" stroke="#C9C9C9" stroke-opacity="1.000000" stroke-width="0.250000" stroke-linecap="round"/>
		<path id="Линия 35" d="M1.82 23.15L0.19 25.12" stroke="#C9C9C9" stroke-opacity="1.000000" stroke-width="0.250000" stroke-linecap="round"/>
		<path id="Линия 35" d="M0.23 23.13L1.79 25.15" stroke="#C9C9C9" stroke-opacity="1.000000" stroke-width="0.250000" stroke-linecap="round"/>
		<path id="Линия 35" d="M41.09 21.58L38.53 22.78" stroke="#C9C9C9" stroke-opacity="1.000000" stroke-width="0.250000" stroke-linecap="round"/>
		<path id="Линия 35" d="M39.21 20.9L40.41 23.46" stroke="#C9C9C9" stroke-opacity="1.000000" stroke-width="0.250000" stroke-linecap="round"/>
		<path id="Линия 35" d="M6.29 11.85L5.33 14.51" stroke="#C9C9C9" stroke-opacity="1.000000" stroke-width="0.250000" stroke-linecap="round"/>
		<path id="Линия 35" d="M4.48 12.7L7.14 13.66" stroke="#C9C9C9" stroke-opacity="1.000000" stroke-width="0.250000" stroke-linecap="round"/>
		<path id="Линия 35" d="M34.58 12L33.04 14.37" stroke="#C9C9C9" stroke-opacity="1.000000" stroke-width="0.250000" stroke-linecap="round"/>
		<path id="Линия 35" d="M32.62 12.41L35 13.95" stroke="#C9C9C9" stroke-opacity="1.000000" stroke-width="0.250000" stroke-linecap="round"/>
		<path id="Clothe" d="M38.34 8.01C36.65 7.21 4.68 6.41 4.68 7.61C4.68 8.8 1.21 12.4 2.16 13.6C3.11 14.79 4.37 12.7 6.79 12.8C9.21 12.9 9.31 14 12.68 14C16.04 14 18.99 12.8 20.67 12.4C22.35 12 26.24 14 29.5 14C32.76 14 34.13 10.8 35.39 12C36.66 13.2 38.34 14 39.6 13.6C40.28 13.38 39.95 12.55 39.6 11.2C39.3 10.05 39.11 8.37 38.34 8.01Z" fill="#5F635E" fill-opacity="1.000000" fill-rule="evenodd"/>
		<path id="Clothe" d="M38.34 8.01C36.65 7.21 4.68 6.41 4.68 7.61C4.68 8.09 4.12 8.95 3.52 9.9C2.61 11.3 1.59 12.88 2.16 13.6C2.66 14.23 3.25 13.94 4.06 13.54C4.77 13.19 5.65 12.75 6.79 12.8C7.86 12.84 8.48 13.08 9.13 13.34C9.94 13.66 10.81 14 12.68 14C16.04 14 18.99 12.8 20.67 12.4C21.5 12.2 22.87 12.59 24.43 13.03C26.04 13.48 27.85 14 29.5 14C31.18 14 32.35 13.15 33.27 12.5C34.14 11.87 34.78 11.42 35.39 12C36.66 13.2 38.34 14 39.6 13.6C40.19 13.41 40.02 12.76 39.73 11.7C39.69 11.54 39.65 11.38 39.6 11.2C39.3 10.05 39.11 8.37 38.34 8.01ZM4.97 7.74Q5.03 7.72 5.12 7.69Q5.44 7.61 6.09 7.54Q7.35 7.41 9.71 7.35Q14.09 7.23 20.87 7.36Q27.31 7.47 32.35 7.74Q34.86 7.87 36.38 8.01Q37.95 8.15 38.21 8.28Q38.51 8.42 38.75 9.06Q38.86 9.34 38.96 9.76Q39.02 10.01 39.14 10.52Q39.25 11.04 39.31 11.27Q39.36 11.45 39.44 11.78Q39.58 12.28 39.62 12.48Q39.69 12.8 39.7 12.98Q39.7 13.14 39.65 13.21Q39.62 13.28 39.51 13.31Q39.11 13.44 38.62 13.38Q38.14 13.33 37.61 13.12Q37.09 12.91 36.57 12.56Q36.06 12.22 35.6 11.78Q35.33 11.53 35.02 11.46Q34.7 11.38 34.33 11.51Q34.06 11.6 33.72 11.82Q33.52 11.95 33.09 12.25Q32.62 12.59 32.37 12.76Q31.93 13.04 31.54 13.22Q30.71 13.62 29.85 13.68Q29.68 13.7 29.5 13.7Q28.44 13.7 27.01 13.39Q26.45 13.27 25.75 13.08Q25.33 12.97 24.51 12.74Q23.74 12.52 23.38 12.43Q22.77 12.27 22.33 12.18Q21.22 11.96 20.6 12.11Q20.18 12.2 19.15 12.51Q18.27 12.78 17.77 12.91Q16.94 13.14 16.21 13.29Q14.32 13.7 12.68 13.7Q11.47 13.7 10.57 13.49Q10.22 13.41 9.86 13.29Q9.64 13.22 9.24 13.06Q8.91 12.93 8.74 12.87Q8.45 12.77 8.2 12.7Q7.55 12.53 6.8 12.5Q5.99 12.46 5.17 12.73Q4.86 12.84 4.5 12.99Q4.3 13.09 3.93 13.27Q3.55 13.46 3.38 13.53Q3.12 13.64 2.95 13.66Q2.79 13.68 2.67 13.63Q2.53 13.58 2.39 13.41Q2.13 13.08 2.56 12.13Q2.75 11.71 3.1 11.12Q3.31 10.77 3.77 10.06Q4.37 9.13 4.59 8.72Q4.92 8.12 4.97 7.74Z" fill="#A7A7A7" fill-opacity="1.000000" fill-rule="evenodd"/>
		<ellipse id="Эллипс 16" rx="0.421053" ry="0.428571" transform="matrix(-1 0 0 1 17.3684 12.5715)" fill="#E0DC79" fill-opacity="1.000000"/>
		<ellipse id="Эллипс 16" rx="0.421053" ry="0.428571" transform="matrix(-1 0 0 1 9.78931 7.42859)" fill="#E0DC79" fill-opacity="1.000000"/>
		<ellipse id="Эллипс 16" rx="0.421053" ry="0.428571" transform="matrix(-1 0 0 1 7.26318 10.0001)" fill="#E0DC79" fill-opacity="1.000000"/>
		<ellipse id="Эллипс 16" rx="0.421053" ry="0.428571" transform="matrix(-1 0 0 1 6.4209 12.5715)" fill="#E0DC79" fill-opacity="1.000000"/>
		<ellipse id="Эллипс 16" rx="0.421053" ry="0.428571" transform="matrix(-1 0 0 1 10.6316 10.8571)" fill="#E0DC79" fill-opacity="1.000000"/>
		<ellipse id="Эллипс 16" rx="0.421053" ry="0.428571" transform="matrix(-1 0 0 1 9.78931 12.5715)" fill="#E0DC79" fill-opacity="1.000000"/>
		<ellipse id="Эллипс 16" rx="0.421053" ry="0.428571" transform="matrix(-1 0 0 1 14 10.8571)" fill="#E0DC79" fill-opacity="1.000000"/>
		<ellipse id="Эллипс 16" rx="0.421053" ry="0.428571" transform="matrix(-1 0 0 1 11.4736 8.28571)" fill="#E0DC79" fill-opacity="1.000000"/>
		<ellipse id="Эллипс 16" rx="0.421053" ry="0.428571" transform="matrix(-1 0 0 1 14.842 8.28571)" fill="#E0DC79" fill-opacity="1.000000"/>
		<ellipse id="Эллипс 16" rx="0.421053" ry="0.428571" transform="matrix(-1 0 0 1 20.7368 11.7143)" fill="#E0DC79" fill-opacity="1.000000"/>
		<ellipse id="Эллипс 16" rx="0.421053" ry="0.428571" transform="matrix(-1 0 0 1 19.0525 10.0001)" fill="#E0DC79" fill-opacity="1.000000"/>
		<ellipse id="Эллипс 16" rx="0.421053" ry="0.428571" transform="matrix(-1 0 0 1 23.2632 10.0001)" fill="#E0DC79" fill-opacity="1.000000"/>
		<ellipse id="Эллипс 16" rx="0.421053" ry="0.428571" transform="matrix(-1 0 0 1 21.5789 7.42859)" fill="#E0DC79" fill-opacity="1.000000"/>
		<ellipse id="Эллипс 16" rx="0.421053" ry="0.428571" transform="matrix(-1 0 0 1 26.6316 8.28571)" fill="#E0DC79" fill-opacity="1.000000"/>
		<ellipse id="Эллипс 16" rx="0.421053" ry="0.428571" transform="matrix(-1 0 0 1 26.6316 10.8571)" fill="#E0DC79" fill-opacity="1.000000"/>
		<ellipse id="Эллипс 16" rx="0.421053" ry="0.428571" transform="matrix(-1 0 0 1 27.4736 12.5715)" fill="#E0DC79" fill-opacity="1.000000"/>
		<ellipse id="Эллипс 16" rx="0.421053" ry="0.428571" transform="matrix(-1 0 0 1 31.6841 12.5715)" fill="#E0DC79" fill-opacity="1.000000"/>
		<ellipse id="Эллипс 16" rx="0.421053" ry="0.428571" transform="matrix(-1 0 0 1 32.5261 8.28571)" fill="#E0DC79" fill-opacity="1.000000"/>
		<ellipse id="Эллипс 16" rx="0.421053" ry="0.428571" transform="matrix(-1 0 0 1 37.5789 12.5715)" fill="#E0DC79" fill-opacity="1.000000"/>
		<ellipse id="Эллипс 16" rx="0.421053" ry="0.428571" transform="matrix(-1 0 0 1 36.7368 9.14288)" fill="#E0DC79" fill-opacity="1.000000"/>
		<ellipse id="Эллипс 16" rx="0.420000" ry="0.396226" transform="matrix(-1 0 0 1 4.62012 10.698)" fill="#E0DC79" fill-opacity="1.000000"/>
		<ellipse id="Эллипс 16" rx="0.420000" ry="0.396226" transform="matrix(-1 0 0 1 29.8201 9.90576)" fill="#E0DC79" fill-opacity="1.000000"/>
		<path id="Форма 56" d="M38 9L38.02 9.06C38.03 9.11 38.08 9.21 38.15 9.38C38.22 9.55 38.27 9.71 38.3 9.87C38.32 10.03 38.33 10.19 38.34 10.36C38.34 10.54 38.37 10.68 38.4 10.81C38.44 10.93 38.49 11.04 38.55 11.14C38.62 11.23 38.67 11.31 38.71 11.4C38.76 11.48 38.8 11.57 38.84 11.66C38.88 11.76 38.93 11.87 39 12" stroke="#D0D0D0" stroke-opacity="1.000000" stroke-width="0.200000" stroke-linecap="round"/>
		<path id="Форма 57" d="M38 11L38 11.06C38 11.1 38.03 11.22 38.09 11.4C38.15 11.58 38.23 11.78 38.34 12.01C38.44 12.24 38.57 12.44 38.73 12.61C38.88 12.79 38.97 12.92 39 13" stroke="#D0D0D0" stroke-opacity="1.000000" stroke-width="0.200000" stroke-linecap="round"/>
		<path id="Форма 58" d="M38.39 10.48L38.38 10.39C38.37 10.33 38.36 10.25 38.35 10.15" stroke="#D0D0D0" stroke-opacity="1.000000" stroke-width="0.200000" stroke-linecap="round"/>
		<path id="Форма 59" d="M37.77 8.92L37.72 8.81C37.68 8.75 37.62 8.61 37.53 8.41" stroke="#D0D0D0" stroke-opacity="1.000000" stroke-width="0.200000" stroke-linecap="round"/>
		<path id="Форма 60" d="M35.45 10.97L35.41 10.79C35.39 10.68 35.31 10.45 35.18 10.12" stroke="#D0D0D0" stroke-opacity="1.000000" stroke-width="0.200000" stroke-linecap="round"/>
		<path id="Форма 61" d="M33.8 8L33.82 8.18C33.84 8.31 33.88 8.48 33.93 8.7C33.98 8.92 34.05 9.12 34.12 9.3C34.19 9.49 34.3 9.72 34.44 10" stroke="#D0D0D0" stroke-opacity="1.000000" stroke-width="0.200000" stroke-linecap="round"/>
		<path id="Форма 62" d="M34.46 11.77L34.41 11.69C34.38 11.63 34.34 11.56 34.29 11.48" stroke="#D0D0D0" stroke-opacity="1.000000" stroke-width="0.200000" stroke-linecap="round"/>
		<path id="Форма 63" d="M34.03 10.66L34.07 10.72C34.1 10.76 34.17 10.86 34.29 11.01" stroke="#D0D0D0" stroke-opacity="1.000000" stroke-width="0.200000" stroke-linecap="round"/>
		<path id="Форма 64" d="M22 12L22.07 11.98C22.12 11.97 22.2 11.95 22.33 11.92C22.45 11.89 22.56 11.84 22.66 11.78C22.76 11.72 22.86 11.65 22.95 11.57C23.05 11.5 23.18 11.39 23.34 11.25C23.5 11.11 23.66 10.97 23.8 10.85C23.95 10.73 24.09 10.62 24.21 10.54C24.34 10.45 24.45 10.35 24.53 10.26C24.62 10.17 24.77 10.08 25 10" stroke="#D0D0D0" stroke-opacity="1.000000" stroke-width="0.200000" stroke-linecap="round"/>
		<path id="Форма 65" d="M26 8L25.94 8.02C25.91 8.04 25.83 8.07 25.71 8.12C25.6 8.17 25.5 8.24 25.42 8.33C25.35 8.43 25.29 8.53 25.25 8.63C25.2 8.73 25.12 8.85 25 9" stroke="#D0D0D0" stroke-opacity="1.000000" stroke-width="0.200000" stroke-linecap="round"/>
		<path id="Форма 66" d="M23.25 11.98L23.32 11.94C23.37 11.92 23.44 11.88 23.55 11.81C23.66 11.75 23.75 11.69 23.82 11.64" stroke="#D0D0D0" stroke-opacity="1.000000" stroke-width="0.200000" stroke-linecap="round"/>
		<path id="Форма 67" d="M24 11L24.05 10.95C24.09 10.92 24.17 10.86 24.3 10.78C24.42 10.7 24.54 10.61 24.66 10.51C24.78 10.41 24.9 10.29 25.02 10.14C25.15 9.99 25.26 9.86 25.35 9.75C25.45 9.64 25.64 9.47 25.92 9.23C26.21 8.99 26.45 8.82 26.64 8.72C26.83 8.63 27.01 8.55 27.18 8.49C27.35 8.43 27.49 8.35 27.61 8.26C27.72 8.16 27.85 8.08 28 8" stroke="#D0D0D0" stroke-opacity="1.000000" stroke-width="0.200000" stroke-linecap="round"/>
		<path id="Форма 71" d="M3.42 14L3.35 13.98C3.29 13.97 3.21 13.91 3.1 13.81C2.99 13.71 2.91 13.59 2.87 13.44C2.83 13.3 2.82 13.15 2.83 13" stroke="#D0D0D0" stroke-opacity="1.000000" stroke-width="0.200000" stroke-linecap="round"/>
		<path id="Форма 72" d="M3 12L3.05 11.96C3.09 11.94 3.25 11.82 3.53 11.6C3.8 11.38 4 11.21 4.13 11.1C4.26 10.99 4.43 10.86 4.63 10.71C4.84 10.56 5.01 10.44 5.16 10.35C5.3 10.25 5.45 10.15 5.59 10.05C5.74 9.95 5.9 9.81 6.09 9.63C6.27 9.45 6.45 9.27 6.62 9.08C6.79 8.9 7 8.71 7.24 8.52C7.48 8.34 7.73 8.16 8 8" stroke="#D0D0D0" stroke-opacity="1.000000" stroke-width="0.200000" stroke-linecap="round"/>
		<path id="Форма 73" d="M7 8L6.98 8.04C6.97 8.08 6.94 8.15 6.89 8.27C6.83 8.38 6.77 8.51 6.7 8.65C6.62 8.8 6.55 8.95 6.47 9.12C6.4 9.29 6.33 9.44 6.26 9.58C6.19 9.72 6.1 9.86 6 10" stroke="#D0D0D0" stroke-opacity="1.000000" stroke-width="0.200000" stroke-linecap="round"/>
		<path id="Форма 74" d="M6 8L5.95 8.01C5.92 8.03 5.87 8.08 5.8 8.16C5.73 8.24 5.66 8.33 5.6 8.43C5.53 8.52 5.46 8.62 5.4 8.72C5.34 8.82 5.26 8.94 5.17 9.08C5.08 9.22 5 9.35 4.93 9.45C4.86 9.56 4.8 9.66 4.74 9.77C4.68 9.88 4.61 9.99 4.53 10.11C4.46 10.22 4.37 10.31 4.27 10.38C4.18 10.44 4.11 10.54 4.08 10.66C4.04 10.79 4.02 10.9 4 11" stroke="#D0D0D0" stroke-opacity="1.000000" stroke-width="0.200000" stroke-linecap="round"/>
		<path id="Форма 75" d="M18.69 7L18.61 7.08C18.56 7.13 18.44 7.27 18.25 7.49C18.07 7.71 17.93 7.88 17.82 8" stroke="#D0D0D0" stroke-opacity="1.000000" stroke-width="0.200000" stroke-linecap="round"/>
		<path id="Форма 76" d="M16.85 9L16.87 8.94C16.88 8.91 16.95 8.79 17.08 8.59C17.2 8.38 17.35 8.18 17.53 8" stroke="#D0D0D0" stroke-opacity="1.000000" stroke-width="0.200000" stroke-linecap="round"/>
		<path id="Форма 77" d="M17.22 7.03L17.18 7.09C17.15 7.13 17.07 7.24 16.94 7.43C16.82 7.61 16.73 7.78 16.69 7.93" stroke="#D0D0D0" stroke-opacity="1.000000" stroke-width="0.200000" stroke-linecap="round"/>
		<path id="Форма 78" d="M30.48 8L30.48 8.08C30.48 8.14 30.49 8.28 30.52 8.51C30.55 8.73 30.6 8.9 30.65 9" stroke="#D0D0D0" stroke-opacity="1.000000" stroke-width="0.200000" stroke-linecap="round"/>
		<path id="Форма 79" d="M11 14L11.36 13.95C11.6 13.92 12.03 13.83 12.66 13.7C13.28 13.56 13.71 13.41 13.93 13.24C14.16 13.07 14.35 12.9 14.5 12.71C14.66 12.53 14.77 12.38 14.83 12.27C14.88 12.17 14.94 12.07 15 12" stroke="#D0D0D0" stroke-opacity="1.000000" stroke-width="0.200000" stroke-linecap="round"/>
		<path id="Форма 80" d="M15 13L15.09 12.91C15.15 12.85 15.32 12.73 15.6 12.56C15.87 12.38 16.13 12.17 16.36 11.92C16.6 11.67 16.88 11.35 17.23 10.97C17.57 10.58 17.92 10.22 18.29 9.88C18.66 9.55 19 9.19 19.32 8.81C19.64 8.42 19.87 8.15 20 8" stroke="#D0D0D0" stroke-opacity="1.000000" stroke-width="0.200000" stroke-linecap="round"/>
		<ellipse id="Эллипс 17" rx="16.353956" ry="2.916670" transform="matrix(-1 0 0 1 21.1929 2.91669)" fill="#007062" fill-opacity="1.000000"/>
		<ellipse id="Эллипс 17" rx="16.203957" ry="2.766670" transform="matrix(-1 0 0 1 21.1929 2.91669)" stroke="#444443" stroke-opacity="1.000000" stroke-width="0.300000"/>
		<path id="Прямоугольник 38" d="M37.12 2.5C36.7 2.86 28.58 5 20.69 5C8.55 5 5.51 2.09 4.83 2.56C4.16 3.04 3.34 7.5 4.83 8.5C6.33 9.5 12.59 10 20.69 10C28.79 10 35.11 9.5 37.22 8.5C38.14 8.06 38.01 7.12 37.96 5.83C37.9 4.15 37.6 2.08 37.12 2.5Z" fill="#007062" fill-opacity="1.000000" fill-rule="evenodd"/>
		<path id="Прямоугольник 38" d="M37.12 2.5C36.7 2.86 28.58 5 20.69 5C12.03 5 8 3.52 6.16 2.84C5.42 2.57 5.03 2.43 4.83 2.56C4.16 3.04 3.34 7.5 4.83 8.5C6.33 9.5 12.59 10 20.69 10C28.79 10 35.11 9.5 37.22 8.5C38.06 8.1 38.02 7.29 37.97 6.17C37.97 6.06 37.97 5.95 37.96 5.83C37.9 4.15 37.6 2.08 37.12 2.5ZM4.4 7.15Q4.58 7.97 5 8.25Q5.5 8.58 6.86 8.86Q8.21 9.13 10.31 9.32Q14.45 9.7 20.69 9.7Q26.9 9.7 31.17 9.32Q33.34 9.13 34.83 8.86Q36.35 8.58 37.09 8.23Q37.33 8.11 37.46 7.94Q37.58 7.78 37.64 7.54Q37.69 7.3 37.69 6.95Q37.7 6.71 37.68 6.18Q37.67 5.96 37.66 5.84Q37.64 5.19 37.57 4.57Q37.51 3.91 37.41 3.44Q37.31 2.99 37.21 2.79Q36.84 2.99 35.56 3.33Q33.89 3.78 31.76 4.18Q29.15 4.68 26.56 4.96Q23.45 5.3 20.69 5.3Q15.05 5.3 10.81 4.47Q9.28 4.17 7.9 3.75Q7.12 3.52 6.06 3.12Q5.07 2.76 5.01 2.81Q4.94 2.85 4.85 3.05Q4.73 3.28 4.63 3.63Q4.39 4.42 4.32 5.36Q4.24 6.39 4.4 7.15Z" fill="#444443" fill-opacity="1.000000" fill-rule="evenodd"/>
	</g>
</svg>
