<svg width="42.000000" height="43.243408" viewBox="0 0 42 43.2434" fill="none" xmlns="http://www.w3.org/2000/svg" xmlns:xlink="http://www.w3.org/1999/xlink">
	<desc>
			Created with Pixso.
	</desc>
	<defs>
		<clipPath id="clip131_277">
			<rect id="bankaCircle3" width="42.000000" height="43.243408" fill="white" fill-opacity="0"/>
		</clipPath>
	</defs>
	<g clip-path="url(#clip131_277)">
		<path id="body" d="M7.37 7C8.85 7 14.06 7 20.02 7C25.86 7 32.44 7 34.13 7C37.54 7 42.71 17.29 41.91 26.04C41.12 34.79 34.6 40.79 31.7 42C30.5 42.5 26.68 43.24 22 43.24C17.25 43.24 12.17 42.88 10.48 41.88C7.97 40.39 0.87 34.79 0.08 26.04C-0.72 17.29 4.45 7 7.37 7Z" fill="#539C93" fill-opacity="1.000000" fill-rule="evenodd"/>
		<path id="body" d="M7.37 7L34.13 7C37.54 7 42.71 17.29 41.91 26.04C41.12 34.79 34.6 40.79 31.7 42C30.5 42.5 26.68 43.24 22 43.24C17.25 43.24 12.17 42.88 10.48 41.88C7.97 40.39 0.87 34.79 0.08 26.04C-0.72 17.29 4.45 7 7.37 7ZM41.22 19.43Q41.89 22.92 41.61 26.01Q41.56 26.62 41.47 27.23Q41.09 29.63 40.11 31.94Q40.06 32.08 39.99 32.21Q38.96 34.56 37.36 36.66Q35.91 38.57 34.22 39.99Q33.48 40.62 32.78 41.07Q32.12 41.49 31.58 41.72Q31.13 41.91 30.27 42.11Q29.31 42.33 28.11 42.51Q25.18 42.94 22 42.94Q18.05 42.94 15.12 42.63Q13.51 42.47 12.39 42.22Q11.2 41.96 10.63 41.62Q10.12 41.32 9.52 40.89Q8.81 40.38 8.1 39.78Q6.53 38.45 5.21 36.9Q5.04 36.7 4.87 36.49Q3.06 34.28 1.96 31.87Q0.88 29.52 0.5 27.06Q0.42 26.54 0.38 26.01Q0.1 22.94 0.77 19.43Q1.07 17.84 1.55 16.26Q2.01 14.75 2.61 13.35Q3.18 12 3.83 10.86Q4.47 9.74 5.12 8.93Q5.77 8.12 6.36 7.7Q6.93 7.29 7.37 7.29L20.02 7.29L34.13 7.29Q34.67 7.29 35.31 7.71Q35.97 8.13 36.67 8.94Q37.37 9.75 38.04 10.87Q38.72 12 39.32 13.36Q39.94 14.75 40.41 16.26Q40.91 17.83 41.22 19.43Z" fill="#444443" fill-opacity="1.000000" fill-rule="evenodd"/>
		<path id="Линия 35" d="M35.41 32L36.95 34.37" stroke="#FFFFFF" stroke-opacity="0.708571" stroke-width="0.250000" stroke-linecap="round"/>
		<path id="Линия 35" d="M37.37 32.41L34.99 33.95" stroke="#FFFFFF" stroke-opacity="0.708571" stroke-width="0.250000" stroke-linecap="round"/>
		<path id="Линия 35" d="M20.41 38L21.95 40.37" stroke="#FFFFFF" stroke-opacity="0.708571" stroke-width="0.250000" stroke-linecap="round"/>
		<path id="Линия 35" d="M22.37 38.41L19.99 39.95" stroke="#FFFFFF" stroke-opacity="0.708571" stroke-width="0.250000" stroke-linecap="round"/>
		<path id="Линия 35" d="M17.41 18L18.95 20.37" stroke="#FFFFFF" stroke-opacity="0.708571" stroke-width="0.250000" stroke-linecap="round"/>
		<path id="Линия 35" d="M19.37 18.41L16.99 19.95" stroke="#FFFFFF" stroke-opacity="0.708571" stroke-width="0.250000" stroke-linecap="round"/>
		<path id="Линия 35" d="M32.81 20.52L35.55 19.84" stroke="#FFFFFF" stroke-opacity="0.708571" stroke-width="0.250000" stroke-linecap="round"/>
		<path id="Линия 35" d="M33.84 18.81L34.52 21.55" stroke="#FFFFFF" stroke-opacity="0.708571" stroke-width="0.250000" stroke-linecap="round"/>
		<path id="Линия 35" d="M4.41 31L5.95 33.37" stroke="#FFFFFF" stroke-opacity="0.708571" stroke-width="0.250000" stroke-linecap="round"/>
		<path id="Линия 35" d="M6.37 31.41L3.99 32.95" stroke="#FFFFFF" stroke-opacity="0.708571" stroke-width="0.250000" stroke-linecap="round"/>
		<path id="Линия 35" d="M30 39.81L32.64 40.82" stroke="#FFFFFF" stroke-opacity="0.708571" stroke-width="0.250000" stroke-linecap="round"/>
		<path id="Линия 35" d="M31.82 39L30.81 41.64" stroke="#FFFFFF" stroke-opacity="0.708571" stroke-width="0.250000" stroke-linecap="round"/>
		<path id="Линия 35" d="M10.78 41.01L13.58 41.35" stroke="#FFFFFF" stroke-opacity="0.708571" stroke-width="0.250000" stroke-linecap="round"/>
		<path id="Линия 35" d="M12.35 39.78L12.01 42.58" stroke="#FFFFFF" stroke-opacity="0.708571" stroke-width="0.250000" stroke-linecap="round"/>
		<path id="Линия 35" d="M40.17 23.15L41.8 25.13" stroke="#FFFFFF" stroke-opacity="0.708571" stroke-width="0.250000" stroke-linecap="round"/>
		<path id="Линия 35" d="M41.76 23.13L40.2 25.15" stroke="#FFFFFF" stroke-opacity="0.708571" stroke-width="0.250000" stroke-linecap="round"/>
		<path id="Линия 35" d="M0.9 21.58L3.46 22.78" stroke="#FFFFFF" stroke-opacity="0.708571" stroke-width="0.250000" stroke-linecap="round"/>
		<path id="Линия 35" d="M2.78 20.9L1.58 23.46" stroke="#FFFFFF" stroke-opacity="0.708571" stroke-width="0.250000" stroke-linecap="round"/>
		<path id="Линия 35" d="M35.7 11.85L36.66 14.51" stroke="#FFFFFF" stroke-opacity="0.708571" stroke-width="0.250000" stroke-linecap="round"/>
		<path id="Линия 35" d="M37.51 12.7L34.85 13.66" stroke="#FFFFFF" stroke-opacity="0.708571" stroke-width="0.250000" stroke-linecap="round"/>
		<path id="Линия 35" d="M7.41 12L8.95 14.37" stroke="#FFFFFF" stroke-opacity="0.708571" stroke-width="0.250000" stroke-linecap="round"/>
		<path id="Линия 35" d="M9.37 12.41L6.99 13.95" stroke="#FFFFFF" stroke-opacity="0.708571" stroke-width="0.250000" stroke-linecap="round"/>
		<path id="Clothe" d="M3.65 8.01C5.34 7.21 37.31 6.41 37.31 7.61C37.31 8.8 40.78 12.4 39.83 13.6C38.88 14.79 37.62 12.7 35.2 12.8C32.78 12.9 32.68 14 29.31 14C25.95 14 23 12.8 21.32 12.4C19.64 12 15.75 14 12.49 14C9.23 14 7.86 10.8 6.6 12C5.33 13.2 3.65 14 2.39 13.6C1.71 13.38 2.04 12.55 2.39 11.2C2.69 10.05 2.88 8.37 3.65 8.01Z" fill="#DB3C5D" fill-opacity="1.000000" fill-rule="evenodd"/>
		<path id="Clothe" d="M3.65 8.01C5.34 7.21 37.31 6.41 37.31 7.61C37.31 8.09 37.87 8.95 38.47 9.9C39.38 11.3 40.4 12.88 39.83 13.6C39.33 14.23 38.74 13.94 37.93 13.54C37.22 13.19 36.34 12.75 35.2 12.8C34.13 12.84 33.51 13.08 32.86 13.34C32.05 13.66 31.18 14 29.31 14C25.95 14 23 12.8 21.32 12.4C20.49 12.2 19.12 12.59 17.56 13.03C15.95 13.48 14.14 14 12.49 14C10.81 14 9.64 13.15 8.72 12.5C7.85 11.87 7.21 11.42 6.6 12C5.33 13.2 3.65 14 2.39 13.6C1.8 13.41 1.97 12.76 2.26 11.7C2.3 11.54 2.34 11.38 2.39 11.2C2.69 10.05 2.88 8.37 3.65 8.01ZM37.02 7.74Q36.96 7.72 36.87 7.69Q36.55 7.61 35.9 7.54Q34.64 7.41 32.28 7.35Q27.9 7.23 21.12 7.36Q14.68 7.47 9.64 7.74Q7.13 7.87 5.61 8.01Q4.04 8.15 3.78 8.28Q3.48 8.42 3.24 9.06Q3.13 9.34 3.03 9.76Q2.97 10.01 2.85 10.52Q2.74 11.04 2.68 11.27Q2.63 11.45 2.55 11.78Q2.41 12.28 2.37 12.48Q2.3 12.8 2.3 12.98Q2.29 13.14 2.34 13.21Q2.37 13.28 2.48 13.31Q2.88 13.44 3.37 13.38Q3.85 13.33 4.38 13.12Q4.9 12.91 5.42 12.56Q5.93 12.22 6.39 11.78Q6.66 11.53 6.97 11.46Q7.29 11.38 7.66 11.51Q7.93 11.6 8.27 11.82Q8.47 11.95 8.9 12.25Q9.37 12.59 9.62 12.76Q10.06 13.04 10.45 13.22Q11.28 13.62 12.14 13.68Q12.31 13.7 12.49 13.7Q13.55 13.7 14.98 13.39Q15.54 13.27 16.24 13.08Q16.66 12.97 17.48 12.74Q18.25 12.52 18.61 12.43Q19.22 12.27 19.66 12.18Q20.77 11.96 21.39 12.11Q21.81 12.2 22.84 12.51Q23.72 12.78 24.22 12.91Q25.05 13.14 25.78 13.29Q27.67 13.7 29.31 13.7Q30.52 13.7 31.42 13.49Q31.77 13.41 32.13 13.29Q32.35 13.22 32.75 13.06Q33.08 12.93 33.25 12.87Q33.54 12.77 33.79 12.7Q34.44 12.53 35.19 12.5Q36 12.46 36.82 12.73Q37.13 12.84 37.49 12.99Q37.69 13.09 38.06 13.27Q38.44 13.46 38.61 13.53Q38.87 13.64 39.04 13.66Q39.2 13.68 39.32 13.63Q39.46 13.58 39.6 13.41Q39.86 13.08 39.43 12.13Q39.24 11.71 38.89 11.12Q38.68 10.77 38.22 10.06Q37.62 9.13 37.4 8.72Q37.07 8.12 37.02 7.74Z" fill="#A7A7A7" fill-opacity="1.000000" fill-rule="evenodd"/>
		<ellipse id="Эллипс 16" cx="24.631592" cy="12.571472" rx="0.421053" ry="0.428571" fill="#FFFFFF" fill-opacity="1.000000"/>
		<ellipse id="Эллипс 16" cx="32.210693" cy="7.428589" rx="0.421053" ry="0.428571" fill="#FFFFFF" fill-opacity="1.000000"/>
		<ellipse id="Эллипс 16" cx="34.736816" cy="10.000061" rx="0.421053" ry="0.428571" fill="#FFFFFF" fill-opacity="1.000000"/>
		<ellipse id="Эллипс 16" cx="35.579102" cy="12.571472" rx="0.421053" ry="0.428571" fill="#FFFFFF" fill-opacity="1.000000"/>
		<ellipse id="Эллипс 16" cx="31.368408" cy="10.857117" rx="0.421053" ry="0.428571" fill="#FFFFFF" fill-opacity="1.000000"/>
		<ellipse id="Эллипс 16" cx="32.210693" cy="12.571472" rx="0.421053" ry="0.428571" fill="#FFFFFF" fill-opacity="1.000000"/>
		<ellipse id="Эллипс 16" cx="28.000000" cy="10.857117" rx="0.421053" ry="0.428571" fill="#FFFFFF" fill-opacity="1.000000"/>
		<ellipse id="Эллипс 16" cx="30.526367" cy="8.285706" rx="0.421053" ry="0.428571" fill="#FFFFFF" fill-opacity="1.000000"/>
		<ellipse id="Эллипс 16" cx="27.157959" cy="8.285706" rx="0.421053" ry="0.428571" fill="#FFFFFF" fill-opacity="1.000000"/>
		<ellipse id="Эллипс 16" cx="21.263184" cy="11.714294" rx="0.421053" ry="0.428571" fill="#FFFFFF" fill-opacity="1.000000"/>
		<ellipse id="Эллипс 16" cx="22.947510" cy="10.000061" rx="0.421053" ry="0.428571" fill="#FFFFFF" fill-opacity="1.000000"/>
		<ellipse id="Эллипс 16" cx="18.736816" cy="10.000061" rx="0.421053" ry="0.428571" fill="#FFFFFF" fill-opacity="1.000000"/>
		<ellipse id="Эллипс 16" cx="20.421143" cy="7.428589" rx="0.421053" ry="0.428571" fill="#FFFFFF" fill-opacity="1.000000"/>
		<ellipse id="Эллипс 16" cx="15.368408" cy="8.285706" rx="0.421053" ry="0.428571" fill="#FFFFFF" fill-opacity="1.000000"/>
		<ellipse id="Эллипс 16" cx="15.368408" cy="10.857117" rx="0.421053" ry="0.428571" fill="#FFFFFF" fill-opacity="1.000000"/>
		<ellipse id="Эллипс 16" cx="14.526367" cy="12.571472" rx="0.421053" ry="0.428571" fill="#FFFFFF" fill-opacity="1.000000"/>
		<ellipse id="Эллипс 16" cx="10.315918" cy="12.571472" rx="0.421053" ry="0.428571" fill="#FFFFFF" fill-opacity="1.000000"/>
		<ellipse id="Эллипс 16" cx="9.473877" cy="8.285706" rx="0.421053" ry="0.428571" fill="#FFFFFF" fill-opacity="1.000000"/>
		<ellipse id="Эллипс 16" cx="4.421143" cy="12.571472" rx="0.421053" ry="0.428571" fill="#FFFFFF" fill-opacity="1.000000"/>
		<ellipse id="Эллипс 16" cx="5.263184" cy="9.142883" rx="0.421053" ry="0.428571" fill="#FFFFFF" fill-opacity="1.000000"/>
		<ellipse id="Эллипс 16" cx="37.379883" cy="10.697998" rx="0.420000" ry="0.396226" fill="#FFFFFF" fill-opacity="1.000000"/>
		<ellipse id="Эллипс 16" cx="12.179932" cy="9.905762" rx="0.420000" ry="0.396226" fill="#FFFFFF" fill-opacity="1.000000"/>
		<path id="Форма 56" d="M4 9L3.97 9.06C3.96 9.11 3.91 9.21 3.84 9.38C3.77 9.55 3.72 9.71 3.69 9.87C3.67 10.03 3.66 10.19 3.65 10.36C3.65 10.54 3.62 10.68 3.59 10.81C3.55 10.93 3.5 11.04 3.44 11.14C3.37 11.23 3.32 11.31 3.28 11.4C3.23 11.48 3.19 11.57 3.15 11.66C3.11 11.76 3.06 11.87 3 12" stroke="#D0D0D0" stroke-opacity="1.000000" stroke-width="0.200000" stroke-linecap="round"/>
		<path id="Форма 57" d="M4 11L4 11.06C4 11.1 3.96 11.22 3.9 11.4C3.84 11.58 3.76 11.78 3.65 12.01C3.55 12.24 3.42 12.44 3.26 12.61C3.11 12.79 3.02 12.92 3 13" stroke="#D0D0D0" stroke-opacity="1.000000" stroke-width="0.200000" stroke-linecap="round"/>
		<path id="Форма 58" d="M3.6 10.48L3.61 10.39C3.62 10.33 3.63 10.25 3.64 10.15" stroke="#D0D0D0" stroke-opacity="1.000000" stroke-width="0.200000" stroke-linecap="round"/>
		<path id="Форма 59" d="M4.22 8.92L4.27 8.81C4.31 8.75 4.37 8.61 4.46 8.41" stroke="#D0D0D0" stroke-opacity="1.000000" stroke-width="0.200000" stroke-linecap="round"/>
		<path id="Форма 60" d="M6.54 10.97L6.58 10.79C6.6 10.68 6.68 10.45 6.81 10.12" stroke="#D0D0D0" stroke-opacity="1.000000" stroke-width="0.200000" stroke-linecap="round"/>
		<path id="Форма 61" d="M8.19 8L8.17 8.18C8.15 8.31 8.11 8.48 8.06 8.7C8.01 8.92 7.94 9.12 7.87 9.3C7.8 9.49 7.69 9.72 7.55 10" stroke="#D0D0D0" stroke-opacity="1.000000" stroke-width="0.200000" stroke-linecap="round"/>
		<path id="Форма 62" d="M7.53 11.77L7.58 11.69C7.61 11.63 7.65 11.56 7.7 11.48" stroke="#D0D0D0" stroke-opacity="1.000000" stroke-width="0.200000" stroke-linecap="round"/>
		<path id="Форма 63" d="M7.96 10.66L7.92 10.72C7.89 10.76 7.82 10.86 7.7 11.01" stroke="#D0D0D0" stroke-opacity="1.000000" stroke-width="0.200000" stroke-linecap="round"/>
		<path id="Форма 64" d="M20 12L19.92 11.98C19.87 11.97 19.79 11.95 19.66 11.92C19.54 11.89 19.43 11.84 19.33 11.78C19.23 11.72 19.13 11.65 19.04 11.57C18.94 11.5 18.81 11.39 18.65 11.25C18.49 11.11 18.33 10.97 18.19 10.85C18.04 10.73 17.9 10.62 17.78 10.54C17.65 10.45 17.54 10.35 17.46 10.26C17.37 10.17 17.22 10.08 17 10" stroke="#D0D0D0" stroke-opacity="1.000000" stroke-width="0.200000" stroke-linecap="round"/>
		<path id="Форма 65" d="M16 8L16.05 8.02C16.08 8.04 16.16 8.07 16.28 8.12C16.39 8.17 16.49 8.24 16.57 8.33C16.64 8.43 16.7 8.53 16.75 8.63C16.79 8.73 16.87 8.85 17 9" stroke="#D0D0D0" stroke-opacity="1.000000" stroke-width="0.200000" stroke-linecap="round"/>
		<path id="Форма 66" d="M18.74 11.98L18.67 11.94C18.62 11.92 18.55 11.88 18.44 11.81C18.33 11.75 18.24 11.69 18.17 11.64" stroke="#D0D0D0" stroke-opacity="1.000000" stroke-width="0.200000" stroke-linecap="round"/>
		<path id="Форма 67" d="M18 11L17.94 10.95C17.9 10.92 17.82 10.86 17.69 10.78C17.57 10.7 17.45 10.61 17.33 10.51C17.21 10.41 17.09 10.29 16.97 10.14C16.84 9.99 16.73 9.86 16.64 9.75C16.54 9.64 16.35 9.47 16.07 9.23C15.78 8.99 15.54 8.82 15.35 8.72C15.16 8.63 14.98 8.55 14.81 8.49C14.64 8.43 14.5 8.35 14.38 8.26C14.27 8.16 14.14 8.08 14 8" stroke="#D0D0D0" stroke-opacity="1.000000" stroke-width="0.200000" stroke-linecap="round"/>
		<path id="Форма 71" d="M38.57 14L38.64 13.98C38.7 13.97 38.78 13.91 38.89 13.81C39 13.71 39.08 13.59 39.12 13.44C39.16 13.3 39.17 13.15 39.16 13" stroke="#D0D0D0" stroke-opacity="1.000000" stroke-width="0.200000" stroke-linecap="round"/>
		<path id="Форма 72" d="M39 12L38.94 11.96C38.9 11.94 38.74 11.82 38.46 11.6C38.19 11.38 37.99 11.21 37.86 11.1C37.73 10.99 37.56 10.86 37.36 10.71C37.15 10.56 36.98 10.44 36.83 10.35C36.69 10.25 36.54 10.15 36.4 10.05C36.25 9.95 36.09 9.81 35.9 9.63C35.72 9.45 35.54 9.27 35.37 9.08C35.2 8.9 34.99 8.71 34.75 8.52C34.51 8.34 34.26 8.16 34 8" stroke="#D0D0D0" stroke-opacity="1.000000" stroke-width="0.200000" stroke-linecap="round"/>
		<path id="Форма 73" d="M35 8L35.01 8.04C35.02 8.08 35.05 8.15 35.1 8.27C35.16 8.38 35.22 8.51 35.29 8.65C35.37 8.8 35.44 8.95 35.52 9.12C35.59 9.29 35.66 9.44 35.73 9.58C35.8 9.72 35.89 9.86 36 10" stroke="#D0D0D0" stroke-opacity="1.000000" stroke-width="0.200000" stroke-linecap="round"/>
		<path id="Форма 74" d="M36 8L36.04 8.01C36.07 8.03 36.12 8.08 36.19 8.16C36.26 8.24 36.33 8.33 36.39 8.43C36.46 8.52 36.53 8.62 36.59 8.72C36.65 8.82 36.73 8.94 36.82 9.08C36.91 9.22 36.99 9.35 37.06 9.45C37.13 9.56 37.19 9.66 37.25 9.77C37.31 9.88 37.38 9.99 37.46 10.11C37.53 10.22 37.62 10.31 37.72 10.38C37.81 10.44 37.88 10.54 37.91 10.66C37.95 10.79 37.97 10.9 38 11" stroke="#D0D0D0" stroke-opacity="1.000000" stroke-width="0.200000" stroke-linecap="round"/>
		<path id="Форма 75" d="M23.3 7L23.38 7.08C23.43 7.13 23.55 7.27 23.74 7.49C23.92 7.71 24.06 7.88 24.17 8" stroke="#D0D0D0" stroke-opacity="1.000000" stroke-width="0.200000" stroke-linecap="round"/>
		<path id="Форма 76" d="M25.14 9L25.12 8.94C25.11 8.91 25.04 8.79 24.91 8.59C24.79 8.38 24.64 8.18 24.46 8" stroke="#D0D0D0" stroke-opacity="1.000000" stroke-width="0.200000" stroke-linecap="round"/>
		<path id="Форма 77" d="M24.77 7.03L24.81 7.09C24.84 7.13 24.92 7.24 25.05 7.43C25.17 7.61 25.26 7.78 25.3 7.93" stroke="#D0D0D0" stroke-opacity="1.000000" stroke-width="0.200000" stroke-linecap="round"/>
		<path id="Форма 78" d="M11.51 8L11.51 8.08C11.51 8.14 11.5 8.28 11.47 8.51C11.44 8.73 11.39 8.9 11.34 9" stroke="#D0D0D0" stroke-opacity="1.000000" stroke-width="0.200000" stroke-linecap="round"/>
		<path id="Форма 79" d="M31 14L30.63 13.95C30.39 13.92 29.96 13.83 29.33 13.7C28.71 13.56 28.28 13.41 28.06 13.24C27.83 13.07 27.64 12.9 27.49 12.71C27.33 12.53 27.22 12.38 27.16 12.27C27.11 12.17 27.05 12.07 27 12" stroke="#D0D0D0" stroke-opacity="1.000000" stroke-width="0.200000" stroke-linecap="round"/>
		<path id="Форма 80" d="M27 13L26.9 12.91C26.84 12.85 26.67 12.73 26.39 12.56C26.12 12.38 25.86 12.17 25.63 11.92C25.39 11.67 25.11 11.35 24.76 10.97C24.42 10.58 24.07 10.22 23.7 9.88C23.33 9.55 22.99 9.19 22.67 8.81C22.35 8.42 22.12 8.15 22 8" stroke="#D0D0D0" stroke-opacity="1.000000" stroke-width="0.200000" stroke-linecap="round"/>
		<ellipse id="Эллипс 17" cx="20.807129" cy="2.916687" rx="16.353956" ry="2.916670" fill="#906C85" fill-opacity="1.000000"/>
		<ellipse id="Эллипс 17" cx="20.807129" cy="2.916687" rx="16.203957" ry="2.766670" stroke="#444443" stroke-opacity="1.000000" stroke-width="0.300000"/>
		<path id="Прямоугольник 38" d="M4.87 2.5C5.29 2.86 13.41 5 21.3 5C33.44 5 36.48 2.09 37.16 2.56C37.83 3.04 38.65 7.5 37.16 8.5C35.66 9.5 29.4 10 21.3 10C13.2 10 6.88 9.5 4.77 8.5C3.85 8.06 3.98 7.12 4.03 5.83C4.09 4.15 4.39 2.08 4.87 2.5Z" fill="#906C85" fill-opacity="1.000000" fill-rule="evenodd"/>
		<path id="Прямоугольник 38" d="M4.87 2.5C5.29 2.86 13.41 5 21.3 5C29.96 5 33.99 3.52 35.83 2.84C36.57 2.57 36.96 2.43 37.16 2.56C37.83 3.04 38.65 7.5 37.16 8.5C35.66 9.5 29.4 10 21.3 10C13.2 10 6.88 9.5 4.77 8.5C3.93 8.1 3.97 7.29 4.02 6.17C4.02 6.06 4.02 5.95 4.03 5.83C4.09 4.15 4.39 2.08 4.87 2.5ZM37.59 7.15Q37.41 7.97 36.99 8.25Q36.49 8.58 35.13 8.86Q33.78 9.13 31.68 9.32Q27.54 9.7 21.3 9.7Q15.09 9.7 10.82 9.32Q8.65 9.13 7.16 8.86Q5.64 8.58 4.9 8.23Q4.66 8.11 4.53 7.94Q4.41 7.78 4.35 7.54Q4.3 7.3 4.3 6.95Q4.29 6.71 4.31 6.18Q4.32 5.96 4.33 5.84Q4.35 5.19 4.42 4.57Q4.48 3.91 4.58 3.44Q4.68 2.99 4.78 2.79Q5.15 2.99 6.43 3.33Q8.1 3.78 10.23 4.18Q12.84 4.68 15.43 4.96Q18.54 5.3 21.3 5.3Q26.94 5.3 31.18 4.47Q32.71 4.17 34.09 3.75Q34.87 3.52 35.93 3.12Q36.92 2.76 36.98 2.81Q37.05 2.85 37.14 3.05Q37.26 3.28 37.36 3.63Q37.6 4.42 37.67 5.36Q37.75 6.39 37.59 7.15Z" fill="#444443" fill-opacity="1.000000" fill-rule="evenodd"/>
	</g>
</svg>
