<svg width="49.698975" height="54.500000" viewBox="0 0 49.699 54.5" fill="none" xmlns="http://www.w3.org/2000/svg" xmlns:xlink="http://www.w3.org/1999/xlink">
	<desc>
			Created with Pixso.
	</desc>
	<defs>
		<clipPath id="clip121_4">
			<rect id="BankaCircleBig" width="49.699036" height="54.500000" fill="white" fill-opacity="0"/>
		</clipPath>
	</defs>
	<g clip-path="url(#clip121_4)">
		<path id="body" d="M8.87 9C10.63 9 16.84 9 23.93 9C30.88 9 38.72 9 40.73 9C44.78 9 50.54 21.94 49.59 32.94C48.65 43.94 39.36 52.12 37.83 53C36.09 54 30.67 54.5 25.09 54.5C19.44 54.5 13.32 53.8 11.77 53C8.87 51.5 1.4 43.26 0.45 32.26C-0.49 21.26 5.4 9 8.87 9Z" fill="#8FA888" fill-opacity="1.000000" fill-rule="evenodd"/>
		<path id="body" d="M8.87 9L40.73 9C44.78 9 50.54 21.94 49.59 32.94C48.65 43.94 39.36 52.12 37.83 53C36.09 54 30.67 54.5 25.09 54.5C19.44 54.5 13.32 53.8 11.77 53C8.87 51.5 1.4 43.26 0.45 32.26C-0.49 21.26 5.4 9 8.87 9ZM49.35 28.77Q49.46 30.92 49.29 32.91Q48.97 36.68 47.29 40.47Q45.91 43.6 43.69 46.58Q41.96 48.9 39.97 50.82Q39.21 51.55 38.55 52.1Q37.98 52.56 37.68 52.73Q37.09 53.08 35.83 53.36Q34.61 53.63 32.87 53.82Q31.19 54.01 29.18 54.1Q27.2 54.2 25.09 54.2Q23.02 54.2 20.86 54.07Q18.78 53.96 16.93 53.75Q15.08 53.54 13.77 53.27Q12.44 53.01 11.91 52.73Q11.38 52.45 10.68 51.89Q9.94 51.29 9.13 50.46Q7.26 48.54 5.63 46.03Q3.83 43.24 2.64 40.21Q2.57 40.02 2.5 39.83Q1.08 36.06 0.75 32.24Q0.42 28.36 1.18 24.04Q1.52 22.08 2.08 20.15Q2.6 18.31 3.29 16.62Q3.94 14.98 4.7 13.6Q5.44 12.25 6.2 11.27Q6.95 10.29 7.65 9.79Q8.33 9.29 8.87 9.29L23.93 9.29L40.73 9.29Q41.38 9.29 42.14 9.82Q42.91 10.35 43.72 11.37Q44.53 12.39 45.3 13.81Q46.08 15.24 46.75 16.95Q47.45 18.7 47.98 20.61Q48.51 22.5 48.85 24.42Q48.86 24.51 48.88 24.61Q49.24 26.72 49.35 28.77Z" fill="#444443" fill-opacity="1.000000" fill-rule="evenodd"/>
		<path id="Линия 35" d="M48.09 32.08L49.35 33.38" stroke="#CDCECD" stroke-opacity="1.000000" stroke-width="0.250000" stroke-linecap="round"/>
		<path id="Линия 35" d="M49.26 32L48.19 33.47" stroke="#CDCECD" stroke-opacity="1.000000" stroke-width="0.250000" stroke-linecap="round"/>
		<path id="Линия 35" d="M1.09 37L2.69 37.85" stroke="#CDCECD" stroke-opacity="1.000000" stroke-width="0.250000" stroke-linecap="round"/>
		<path id="Линия 35" d="M2.17 36.56L1.61 38.29" stroke="#CDCECD" stroke-opacity="1.000000" stroke-width="0.250000" stroke-linecap="round"/>
		<path id="Линия 35" d="M36.09 17.74L38.7 18.85" stroke="#CDCECD" stroke-opacity="1.000000" stroke-width="0.250000" stroke-linecap="round"/>
		<path id="Линия 35" d="M37.95 17L36.84 19.6" stroke="#CDCECD" stroke-opacity="1.000000" stroke-width="0.250000" stroke-linecap="round"/>
		<path id="Линия 35" d="M18.18 25.5L20.55 27.04" stroke="#CDCECD" stroke-opacity="1.000000" stroke-width="0.250000" stroke-linecap="round"/>
		<path id="Линия 35" d="M20.13 25.08L18.59 27.45" stroke="#CDCECD" stroke-opacity="1.000000" stroke-width="0.250000" stroke-linecap="round"/>
		<path id="Линия 35" d="M8.97 40.02L11.76 40.51" stroke="#CDCECD" stroke-opacity="1.000000" stroke-width="0.250000" stroke-linecap="round"/>
		<path id="Линия 35" d="M10.61 38.87L10.12 41.66" stroke="#CDCECD" stroke-opacity="1.000000" stroke-width="0.250000" stroke-linecap="round"/>
		<path id="Линия 35" d="M33.95 28.39L36.77 28.14" stroke="#CDCECD" stroke-opacity="1.000000" stroke-width="0.250000" stroke-linecap="round"/>
		<path id="Линия 35" d="M35.24 26.86L35.49 29.67" stroke="#CDCECD" stroke-opacity="1.000000" stroke-width="0.250000" stroke-linecap="round"/>
		<path id="Линия 35" d="M38.09 46.65L40.63 47.89" stroke="#CDCECD" stroke-opacity="1.000000" stroke-width="0.250000" stroke-linecap="round"/>
		<path id="Линия 35" d="M39.98 46L38.74 48.54" stroke="#CDCECD" stroke-opacity="1.000000" stroke-width="0.250000" stroke-linecap="round"/>
		<path id="Линия 35" d="M21.06 48.71L23.66 49.82" stroke="#CDCECD" stroke-opacity="1.000000" stroke-width="0.250000" stroke-linecap="round"/>
		<path id="Линия 35" d="M22.91 47.96L21.81 50.57" stroke="#CDCECD" stroke-opacity="1.000000" stroke-width="0.250000" stroke-linecap="round"/>
		<path id="Линия 35" d="M42.99 30.61L45.74 29.92" stroke="#CDCECD" stroke-opacity="1.000000" stroke-width="0.250000" stroke-linecap="round"/>
		<path id="Линия 35" d="M44.02 28.89L44.71 31.64" stroke="#CDCECD" stroke-opacity="1.000000" stroke-width="0.250000" stroke-linecap="round"/>
		<path id="Линия 35" d="M8.96 46.12L11.77 46.41" stroke="#CDCECD" stroke-opacity="1.000000" stroke-width="0.250000" stroke-linecap="round"/>
		<path id="Линия 35" d="M10.51 44.86L10.21 47.67" stroke="#CDCECD" stroke-opacity="1.000000" stroke-width="0.250000" stroke-linecap="round"/>
		<path id="Линия 35" d="M29.36 50.78L30.82 53.21" stroke="#CDCECD" stroke-opacity="1.000000" stroke-width="0.250000" stroke-linecap="round"/>
		<path id="Линия 35" d="M31.3 51.27L28.88 52.72" stroke="#CDCECD" stroke-opacity="1.000000" stroke-width="0.250000" stroke-linecap="round"/>
		<path id="Линия 35" d="M42.34 36.8L43.84 39.19" stroke="#CDCECD" stroke-opacity="1.000000" stroke-width="0.250000" stroke-linecap="round"/>
		<path id="Линия 35" d="M44.29 37.25L41.89 38.74" stroke="#CDCECD" stroke-opacity="1.000000" stroke-width="0.250000" stroke-linecap="round"/>
		<path id="Линия 35" d="M42.99 21.11L45.19 22.89" stroke="#CDCECD" stroke-opacity="1.000000" stroke-width="0.250000" stroke-linecap="round"/>
		<path id="Линия 35" d="M44.98 20.9L43.2 23.09" stroke="#CDCECD" stroke-opacity="1.000000" stroke-width="0.250000" stroke-linecap="round"/>
		<path id="Линия 35" d="M3.09 26L5.09 28" stroke="#CDCECD" stroke-opacity="1.000000" stroke-width="0.250000" stroke-linecap="round"/>
		<path id="Линия 35" d="M5.09 26L3.09 28" stroke="#CDCECD" stroke-opacity="1.000000" stroke-width="0.250000" stroke-linecap="round"/>
		<path id="Линия 35" d="M4.91 31.22L7.28 32.77" stroke="#CDCECD" stroke-opacity="1.000000" stroke-width="0.250000" stroke-linecap="round"/>
		<path id="Линия 35" d="M6.86 30.81L5.32 33.18" stroke="#CDCECD" stroke-opacity="1.000000" stroke-width="0.250000" stroke-linecap="round"/>
		<path id="Линия 35" d="M21.82 18.37L24.36 19.62" stroke="#CDCECD" stroke-opacity="1.000000" stroke-width="0.250000" stroke-linecap="round"/>
		<path id="Линия 35" d="M23.71 17.72L22.47 20.27" stroke="#CDCECD" stroke-opacity="1.000000" stroke-width="0.250000" stroke-linecap="round"/>
		<path id="Прямоугольник 37" d="M4.09 10C6.09 8.99 44.09 8 44.09 9.5C44.09 11 48.22 15.5 47.09 17C45.97 18.5 44.47 15.87 41.59 16C38.72 16.12 38.59 17.49 34.59 17.49C30.59 17.49 27.09 16 25.09 15.5C23.09 15 18.47 17.49 14.59 17.49C10.72 17.49 9.09 13.5 7.59 15C6.09 16.5 4.09 17.5 2.59 17C1.78 16.73 2.18 15.68 2.59 14C2.94 12.56 3.17 10.46 4.09 10Z" fill="#F2F1D5" fill-opacity="1.000000" fill-rule="evenodd"/>
		<path id="Прямоугольник 37" d="M4.09 10C6.09 8.99 44.09 8 44.09 9.5C44.09 10.1 44.76 11.18 45.48 12.36C46.56 14.12 47.76 16.1 47.09 17C46.49 17.79 45.79 17.42 44.83 16.92C43.98 16.48 42.94 15.94 41.59 16C40.31 16.05 39.58 16.35 38.8 16.67C37.84 17.07 36.81 17.49 34.59 17.49C30.59 17.49 27.09 16 25.09 15.5C24.1 15.25 22.48 15.73 20.62 16.29C18.71 16.85 16.55 17.49 14.59 17.49C12.6 17.49 11.21 16.44 10.12 15.62C9.08 14.84 8.32 14.26 7.59 15C6.09 16.5 4.09 17.5 2.59 17C1.89 16.76 2.1 15.94 2.43 14.63C2.48 14.43 2.54 14.22 2.59 14C2.94 12.56 3.17 10.46 4.09 10ZM43.8 9.6Q43.72 9.57 43.59 9.53Q43.2 9.43 42.42 9.34Q40.92 9.18 38.11 9.1Q32.91 8.95 24.85 9.11Q21.19 9.18 17.64 9.3Q14.08 9.43 11.2 9.58Q8.22 9.75 6.41 9.92Q5.48 10.01 4.92 10.1Q4.37 10.19 4.23 10.26Q3.84 10.45 3.55 11.29Q3.42 11.64 3.3 12.17Q3.22 12.48 3.09 13.13Q2.95 13.77 2.88 14.07Q2.83 14.29 2.72 14.7Q2.56 15.32 2.51 15.58Q2.43 15.98 2.42 16.22Q2.42 16.45 2.48 16.56Q2.54 16.66 2.69 16.71Q3.17 16.87 3.76 16.81Q4.34 16.74 4.97 16.47Q5.59 16.2 6.22 15.77Q6.83 15.34 7.38 14.78Q7.69 14.47 8.06 14.39Q8.43 14.31 8.84 14.46Q9.15 14.57 9.55 14.84Q9.79 15 10.3 15.38Q10.86 15.8 11.16 16.01Q11.68 16.36 12.15 16.6Q13.17 17.11 14.22 17.18Q14.4 17.2 14.59 17.2Q15.86 17.2 17.56 16.81Q18.23 16.66 19.07 16.43Q19.56 16.29 20.53 16Q21.45 15.73 21.88 15.61Q22.6 15.41 23.12 15.3Q23.75 15.17 24.22 15.14Q24.77 15.1 25.16 15.2Q25.66 15.33 26.88 15.71Q27.93 16.04 28.52 16.21Q29.51 16.5 30.38 16.69Q32.63 17.2 34.59 17.2Q36.03 17.2 37.1 16.94Q37.52 16.84 37.95 16.69Q38.21 16.59 38.69 16.4Q39.08 16.24 39.28 16.16Q39.62 16.03 39.93 15.95Q40.69 15.73 41.58 15.7Q42.53 15.65 43.5 15.99Q43.87 16.12 44.29 16.31Q44.53 16.43 44.97 16.66Q45.42 16.9 45.63 16.98Q45.93 17.12 46.14 17.15Q46.35 17.18 46.5 17.11Q46.68 17.04 46.85 16.82Q47.19 16.36 46.67 15.12Q46.44 14.59 46.02 13.85Q45.77 13.41 45.22 12.52Q44.86 11.93 44.7 11.65Q44.42 11.19 44.25 10.85Q43.84 10.07 43.8 9.6Z" fill="#A7A7A7" fill-opacity="1.000000" fill-rule="evenodd"/>
		<circle id="Эллипс 16" cx="29.596191" cy="15.500000" r="0.500000" fill="#FFFFFF" fill-opacity="1.000000"/>
		<circle id="Эллипс 16" cx="38.596191" cy="9.500000" r="0.500000" fill="#FFFFFF" fill-opacity="1.000000"/>
		<circle id="Эллипс 16" cx="41.596191" cy="12.500000" r="0.500000" fill="#FFFFFF" fill-opacity="1.000000"/>
		<circle id="Эллипс 16" cx="42.596191" cy="15.500000" r="0.500000" fill="#FFFFFF" fill-opacity="1.000000"/>
		<circle id="Эллипс 16" cx="37.596191" cy="13.500000" r="0.500000" fill="#FFFFFF" fill-opacity="1.000000"/>
		<circle id="Эллипс 16" cx="38.596191" cy="15.500000" r="0.500000" fill="#FFFFFF" fill-opacity="1.000000"/>
		<circle id="Эллипс 16" cx="33.596191" cy="13.500000" r="0.500000" fill="#FFFFFF" fill-opacity="1.000000"/>
		<circle id="Эллипс 16" cx="36.596191" cy="10.500000" r="0.500000" fill="#FFFFFF" fill-opacity="1.000000"/>
		<circle id="Эллипс 16" cx="32.596191" cy="10.500000" r="0.500000" fill="#FFFFFF" fill-opacity="1.000000"/>
		<circle id="Эллипс 16" cx="25.596191" cy="14.500000" r="0.500000" fill="#FFFFFF" fill-opacity="1.000000"/>
		<circle id="Эллипс 16" cx="27.596191" cy="12.500000" r="0.500000" fill="#FFFFFF" fill-opacity="1.000000"/>
		<circle id="Эллипс 16" cx="22.596191" cy="12.500000" r="0.500000" fill="#FFFFFF" fill-opacity="1.000000"/>
		<circle id="Эллипс 16" cx="24.596191" cy="9.500000" r="0.500000" fill="#FFFFFF" fill-opacity="1.000000"/>
		<circle id="Эллипс 16" cx="18.596191" cy="10.500000" r="0.500000" fill="#FFFFFF" fill-opacity="1.000000"/>
		<circle id="Эллипс 16" cx="18.596191" cy="13.500000" r="0.500000" fill="#FFFFFF" fill-opacity="1.000000"/>
		<circle id="Эллипс 16" cx="17.596191" cy="15.500000" r="0.500000" fill="#FFFFFF" fill-opacity="1.000000"/>
		<circle id="Эллипс 16" cx="12.596191" cy="15.500000" r="0.500000" fill="#FFFFFF" fill-opacity="1.000000"/>
		<circle id="Эллипс 16" cx="11.596191" cy="10.500000" r="0.500000" fill="#FFFFFF" fill-opacity="1.000000"/>
		<circle id="Эллипс 16" cx="5.596191" cy="15.500000" r="0.500000" fill="#FFFFFF" fill-opacity="1.000000"/>
		<circle id="Эллипс 16" cx="6.596191" cy="11.500000" r="0.500000" fill="#FFFFFF" fill-opacity="1.000000"/>
		<path id="Форма 56" d="M4.44 11.14L4.41 11.23C4.39 11.3 4.32 11.45 4.22 11.68C4.11 11.92 4.04 12.15 4.01 12.37C3.97 12.6 3.95 12.83 3.94 13.07C3.94 13.32 3.91 13.53 3.86 13.71C3.81 13.88 3.73 14.04 3.64 14.17C3.54 14.3 3.47 14.42 3.4 14.54C3.34 14.65 3.28 14.78 3.23 14.91C3.17 15.05 3.09 15.21 3 15.38" stroke="#D0D0D0" stroke-opacity="1.000000" stroke-width="0.200000" stroke-linecap="round"/>
		<path id="Форма 57" d="M4.67 13.62L4.67 13.7C4.67 13.76 4.63 13.9 4.55 14.13C4.46 14.36 4.36 14.62 4.22 14.92C4.08 15.21 3.91 15.46 3.71 15.69C3.5 15.91 3.38 16.08 3.36 16.18" stroke="#D0D0D0" stroke-opacity="1.000000" stroke-width="0.200000" stroke-linecap="round"/>
		<path id="Форма 58" d="M4.38 13.22L4.4 13.11C4.41 13.04 4.42 12.94 4.43 12.8" stroke="#D0D0D0" stroke-opacity="1.000000" stroke-width="0.200000" stroke-linecap="round"/>
		<path id="Форма 59" d="M5.12 11.25L5.18 11.12C5.22 11.04 5.3 10.87 5.41 10.62" stroke="#D0D0D0" stroke-opacity="1.000000" stroke-width="0.200000" stroke-linecap="round"/>
		<path id="Форма 60" d="M7.88 13.84L7.93 13.62C7.96 13.47 8.05 13.19 8.21 12.78" stroke="#D0D0D0" stroke-opacity="1.000000" stroke-width="0.200000" stroke-linecap="round"/>
		<path id="Форма 61" d="M9.85 9.9L9.82 10.15C9.8 10.32 9.76 10.56 9.69 10.85C9.63 11.15 9.55 11.42 9.47 11.67C9.38 11.91 9.25 12.23 9.09 12.6" stroke="#D0D0D0" stroke-opacity="1.000000" stroke-width="0.200000" stroke-linecap="round"/>
		<path id="Форма 62" d="M9.06 14.86L9.12 14.75C9.16 14.67 9.2 14.59 9.26 14.49" stroke="#D0D0D0" stroke-opacity="1.000000" stroke-width="0.200000" stroke-linecap="round"/>
		<path id="Форма 63" d="M9.57 13.45L9.52 13.53C9.49 13.58 9.41 13.7 9.27 13.9" stroke="#D0D0D0" stroke-opacity="1.000000" stroke-width="0.200000" stroke-linecap="round"/>
		<path id="Форма 64" d="M24 14.9L23.92 14.88C23.87 14.86 23.77 14.83 23.63 14.78C23.49 14.73 23.36 14.66 23.25 14.56C23.14 14.47 23.03 14.36 22.92 14.25C22.81 14.13 22.67 13.97 22.48 13.75C22.3 13.53 22.12 13.33 21.96 13.14C21.79 12.95 21.64 12.79 21.49 12.65C21.35 12.52 21.23 12.38 21.13 12.23C21.03 12.09 20.86 11.95 20.61 11.82" stroke="#D0D0D0" stroke-opacity="1.000000" stroke-width="0.200000" stroke-linecap="round"/>
		<path id="Форма 65" d="M18.49 9.46L18.56 9.5C18.6 9.53 18.69 9.58 18.84 9.65C18.98 9.73 19.1 9.84 19.19 9.98C19.28 10.13 19.36 10.28 19.41 10.44C19.46 10.6 19.57 10.79 19.72 11.01" stroke="#D0D0D0" stroke-opacity="1.000000" stroke-width="0.200000" stroke-linecap="round"/>
		<path id="Форма 66" d="M22.41 15.11L22.33 15.07C22.27 15.04 22.18 14.99 22.05 14.91C21.92 14.82 21.81 14.75 21.73 14.7" stroke="#D0D0D0" stroke-opacity="1.000000" stroke-width="0.200000" stroke-linecap="round"/>
		<path id="Форма 67" d="M21.18 13.74L21.11 13.67C21.07 13.63 20.99 13.56 20.86 13.45C20.73 13.35 20.6 13.23 20.48 13.1C20.36 12.98 20.23 12.82 20.1 12.62C19.97 12.43 19.85 12.26 19.75 12.12C19.65 11.98 19.45 11.75 19.15 11.44C18.85 11.13 18.6 10.91 18.4 10.78C18.2 10.66 18.01 10.56 17.83 10.48C17.65 10.4 17.5 10.3 17.38 10.18C17.26 10.05 17.13 9.94 16.98 9.83" stroke="#D0D0D0" stroke-opacity="1.000000" stroke-width="0.200000" stroke-linecap="round"/>
		<path id="Форма 71" d="M46.01 17.13L46.1 17.1C46.16 17.09 46.26 17.01 46.39 16.86C46.52 16.71 46.61 16.53 46.66 16.32C46.71 16.11 46.73 15.89 46.71 15.65" stroke="#D0D0D0" stroke-opacity="1.000000" stroke-width="0.200000" stroke-linecap="round"/>
		<path id="Форма 72" d="M46.31 15.08L46.25 15.04C46.21 15.01 46.04 14.86 45.73 14.6C45.43 14.33 45.21 14.13 45.07 13.99C44.93 13.86 44.74 13.7 44.52 13.52C44.29 13.34 44.1 13.19 43.94 13.08C43.78 12.96 43.62 12.85 43.46 12.72C43.3 12.6 43.12 12.43 42.92 12.21C42.72 12 42.52 11.78 42.34 11.55C42.15 11.32 41.92 11.09 41.66 10.87C41.39 10.64 41.12 10.43 40.83 10.23" stroke="#D0D0D0" stroke-opacity="1.000000" stroke-width="0.200000" stroke-linecap="round"/>
		<circle id="Эллипс 16" cx="44.596191" cy="13.500000" r="0.500000" fill="#FFFFFF" fill-opacity="1.000000"/>
		<path id="Форма 73" d="M41.96 9.78L41.98 9.83C41.99 9.86 42.04 9.95 42.14 10.07C42.23 10.2 42.34 10.34 42.46 10.5C42.58 10.66 42.71 10.83 42.84 11.01C42.96 11.2 43.08 11.37 43.2 11.52C43.31 11.67 43.46 11.82 43.65 11.97" stroke="#D0D0D0" stroke-opacity="1.000000" stroke-width="0.200000" stroke-linecap="round"/>
		<path id="Форма 74" d="M42.98 9.78L43.04 9.8C43.07 9.81 43.14 9.87 43.23 9.97C43.32 10.08 43.41 10.18 43.5 10.3C43.59 10.41 43.67 10.53 43.75 10.65C43.84 10.77 43.94 10.91 44.06 11.09C44.18 11.26 44.28 11.41 44.37 11.53C44.46 11.66 44.54 11.79 44.62 11.92C44.69 12.05 44.78 12.19 44.89 12.32C44.99 12.46 45.1 12.57 45.23 12.65C45.35 12.73 45.44 12.84 45.48 13C45.53 13.15 45.56 13.28 45.59 13.39" stroke="#D0D0D0" stroke-opacity="1.000000" stroke-width="0.200000" stroke-linecap="round"/>
		<path id="Форма 75" d="M27.83 9.14L27.93 9.29C27.99 9.38 28.14 9.63 28.35 10.03C28.57 10.43 28.75 10.73 28.87 10.94" stroke="#D0D0D0" stroke-opacity="1.000000" stroke-width="0.200000" stroke-linecap="round"/>
		<path id="Форма 76" d="M30.03 11.69L30 11.61C29.98 11.56 29.9 11.39 29.76 11.1C29.61 10.8 29.43 10.52 29.21 10.25" stroke="#D0D0D0" stroke-opacity="1.000000" stroke-width="0.200000" stroke-linecap="round"/>
		<path id="Форма 77" d="M29.59 8.88L29.64 8.95C29.67 9 29.76 9.14 29.91 9.38C30.07 9.61 30.17 9.82 30.22 10" stroke="#D0D0D0" stroke-opacity="1.000000" stroke-width="0.200000" stroke-linecap="round"/>
		<path id="Форма 78" d="M13.8 9.47L13.8 9.6C13.8 9.68 13.79 9.88 13.75 10.19C13.72 10.5 13.66 10.73 13.59 10.87" stroke="#D0D0D0" stroke-opacity="1.000000" stroke-width="0.200000" stroke-linecap="round"/>
		<path id="Форма 79" d="M37.14 16.83L36.66 16.77C36.34 16.73 35.77 16.62 34.93 16.43C34.1 16.25 33.53 16.05 33.23 15.84C32.93 15.62 32.68 15.39 32.47 15.15C32.26 14.9 32.12 14.71 32.04 14.57C31.96 14.43 31.89 14.31 31.81 14.21" stroke="#D0D0D0" stroke-opacity="1.000000" stroke-width="0.200000" stroke-linecap="round"/>
		<path id="Форма 80" d="M32.88 16.4L32.76 16.28C32.68 16.2 32.46 16.03 32.11 15.79C31.76 15.55 31.44 15.26 31.14 14.91C30.84 14.57 30.48 14.13 30.04 13.59C29.61 13.06 29.16 12.56 28.69 12.09C28.22 11.63 27.78 11.13 27.37 10.6C26.97 10.07 26.68 9.7 26.52 9.48" stroke="#D0D0D0" stroke-opacity="1.000000" stroke-width="0.200000" stroke-linecap="round"/>
		<circle id="Эллипс 16" cx="14.596191" cy="12.500000" r="0.500000" fill="#FFFFFF" fill-opacity="1.000000"/>
		<ellipse id="Эллипс 17" cx="24.596191" cy="3.500000" rx="19.500000" ry="3.500000" fill="#E4AD34" fill-opacity="1.000000"/>
		<ellipse id="Эллипс 17" cx="24.596191" cy="3.500000" rx="19.350000" ry="3.350000" stroke="#444443" stroke-opacity="1.000000" stroke-width="0.300000"/>
		<path id="Прямоугольник 38" d="M5.47 3.07C5.98 3.52 15.78 6 25.18 6C39.66 6 43.28 2.51 44.09 3.07C44.9 3.64 45.87 9 44.09 10.2C42.31 11.4 34.84 12 25.18 12C15.53 12 7.99 11.4 5.47 10.2C2.95 9 4.46 2.18 5.47 3.07Z" fill="#E4AD34" fill-opacity="1.000000" fill-rule="evenodd"/>
		<path id="Прямоугольник 38" d="M5.47 3.07C5.98 3.52 15.78 6 25.18 6C35.51 6 40.31 4.22 42.51 3.41C43.39 3.08 43.86 2.91 44.09 3.07C44.9 3.64 45.87 9 44.09 10.2C42.31 11.4 34.84 12 25.18 12C15.53 12 7.99 11.4 5.47 10.2C2.95 9 4.46 2.18 5.47 3.07ZM44.66 8.6Q44.44 9.6 43.92 9.95Q43.32 10.36 41.68 10.69Q40.07 11.02 37.56 11.25Q32.63 11.7 25.18 11.7Q17.78 11.7 12.68 11.25Q10.09 11.02 8.31 10.69Q6.49 10.35 5.6 9.93Q5.57 9.91 5.53 9.89Q4.84 9.52 4.56 8.38Q4.42 7.84 4.4 7.17Q4.37 6.55 4.44 5.89Q4.51 5.26 4.65 4.69Q4.79 4.15 4.96 3.77Q5.12 3.42 5.26 3.31Q5.27 3.31 5.28 3.3Q5.55 3.54 7.37 4.01Q9.37 4.53 11.94 5Q15.07 5.57 18.18 5.91Q21.9 6.3 25.18 6.3Q31.91 6.3 36.95 5.31Q38.78 4.95 40.42 4.45Q41.34 4.16 42.61 3.69Q43.38 3.41 43.62 3.35Q43.78 3.31 43.86 3.31Q43.91 3.31 43.92 3.32Q44 3.38 44.13 3.63Q44.27 3.91 44.39 4.34Q44.67 5.29 44.76 6.42Q44.86 7.68 44.66 8.6Z" fill="#444443" fill-opacity="1.000000" fill-rule="evenodd"/>
		<path id="Линия 35" d="M7.09 19L9.09 21" stroke="#CDCECD" stroke-opacity="1.000000" stroke-width="0.250000" stroke-linecap="round"/>
		<path id="Линия 35" d="M9.09 19L7.09 21" stroke="#CDCECD" stroke-opacity="1.000000" stroke-width="0.250000" stroke-linecap="round"/>
	</g>
</svg>
